<svg xmlns="http://www.w3.org/2000/svg" width="129" height="129" viewBox="0 0 129 129">
  <g id="Grupo_913743" data-name="Grupo 913743" transform="translate(-276 -6720)">
    <g id="Elipse_7683" data-name="Elipse 7683" transform="translate(276 6720)" fill="#f6f6f6" stroke="#fd9927" stroke-width="2">
      <circle cx="64.5" cy="64.5" r="64.5" stroke="none"/>
      <circle cx="64.5" cy="64.5" r="63.5" fill="none"/>
    </g>
    <g id="Grupo_907959" data-name="Grupo 907959" transform="translate(289.676 6746.711)">
      <g id="Grupo_907533" data-name="Grupo 907533" transform="translate(12.306 0.382)">
        <g id="Grupo_907522" data-name="Grupo 907522" transform="translate(0 62.191)">
          <g id="Grupo_907521" data-name="Grupo 907521">
            <path id="Trazado_641890" data-name="Trazado 641890" d="M426.978,132.519H343.267a.382.382,0,0,1,0-.763h83.712a.382.382,0,1,1,0,.763Z" transform="translate(-342.885 -131.756)" fill="#c4c4c4"/>
          </g>
        </g>
        <g id="Grupo_907524" data-name="Grupo 907524" transform="translate(0 49.753)">
          <g id="Grupo_907523" data-name="Grupo 907523">
            <path id="Trazado_641891" data-name="Trazado 641891" d="M426.978,116.221H343.267a.382.382,0,0,1,0-.763h83.712a.382.382,0,1,1,0,.763Z" transform="translate(-342.885 -115.458)" fill="#c4c4c4"/>
          </g>
        </g>
        <g id="Grupo_907526" data-name="Grupo 907526" transform="translate(0 37.315)">
          <g id="Grupo_907525" data-name="Grupo 907525">
            <path id="Trazado_641892" data-name="Trazado 641892" d="M426.978,99.922H343.267a.382.382,0,0,1,0-.763h83.712a.382.382,0,1,1,0,.763Z" transform="translate(-342.885 -99.159)" fill="#c4c4c4"/>
          </g>
        </g>
        <g id="Grupo_907528" data-name="Grupo 907528" transform="translate(0 24.877)">
          <g id="Grupo_907527" data-name="Grupo 907527">
            <path id="Trazado_641893" data-name="Trazado 641893" d="M426.978,83.624H343.267a.382.382,0,0,1,0-.763h83.712a.382.382,0,1,1,0,.763Z" transform="translate(-342.885 -82.861)" fill="#c4c4c4"/>
          </g>
        </g>
        <g id="Grupo_907530" data-name="Grupo 907530" transform="translate(0 12.438)">
          <g id="Grupo_907529" data-name="Grupo 907529">
            <path id="Trazado_641894" data-name="Trazado 641894" d="M426.978,67.325H343.267a.382.382,0,0,1,0-.763h83.712a.382.382,0,1,1,0,.763Z" transform="translate(-342.885 -66.562)" fill="#c4c4c4"/>
          </g>
        </g>
        <g id="Grupo_907532" data-name="Grupo 907532">
          <g id="Grupo_907531" data-name="Grupo 907531">
            <path id="Trazado_641895" data-name="Trazado 641895" d="M426.978,51.027H343.267a.382.382,0,0,1,0-.763h83.712a.382.382,0,1,1,0,.763Z" transform="translate(-342.885 -50.264)" fill="#c4c4c4"/>
          </g>
        </g>
      </g>
      <g id="Grupo_907534" data-name="Grupo 907534" transform="translate(8.29 0)">
        <path id="Trazado_641896" data-name="Trazado 641896" d="M425.482,125.92h-87.1a.762.762,0,0,1-.763-.763V50.527a.763.763,0,0,1,1.526,0v73.867h86.332a.763.763,0,1,1,0,1.526Z" transform="translate(-337.623 -49.764)" fill="#c4c4c4"/>
      </g>
      <g id="Grupo_907539" data-name="Grupo 907539" transform="translate(0.827 67.041)">
        <g id="Grupo_907538" data-name="Grupo 907538">
          <g id="Grupo_907537" data-name="Grupo 907537">
            <g id="Grupo_907535" data-name="Grupo 907535" transform="translate(0 0.056)">
              <path id="Trazado_641897" data-name="Trazado 641897" d="M329.466,141.455h-.519v-3.217l-.878.535-.225-.366,1.164-.722h.458Z" transform="translate(-327.844 -137.684)" fill="#c4c4c4"/>
            </g>
            <g id="Grupo_907536" data-name="Grupo 907536" transform="translate(2.553)">
              <path id="Trazado_641898" data-name="Trazado 641898" d="M333.714,139.556c0,1.251-.417,1.95-1.262,1.95s-1.263-.7-1.263-1.95.416-1.945,1.263-1.945S333.714,138.31,333.714,139.556Zm-1.984,0c0,1.11.248,1.539.722,1.539s.721-.428.721-1.539-.255-1.533-.721-1.533S331.73,138.45,331.73,139.556Z" transform="translate(-331.189 -137.611)" fill="#c4c4c4"/>
            </g>
          </g>
        </g>
      </g>
      <g id="Grupo_907544" data-name="Grupo 907544" transform="translate(0.067 54.584)">
        <g id="Grupo_907543" data-name="Grupo 907543">
          <g id="Grupo_907542" data-name="Grupo 907542">
            <g id="Grupo_907540" data-name="Grupo 907540">
              <path id="Trazado_641899" data-name="Trazado 641899" d="M329.127,122.32c0,.7-.45,1.207-1.608,2.361h1.7l-.063.434h-2.227V124.7c1.332-1.387,1.659-1.747,1.659-2.362a.582.582,0,0,0-.621-.625.927.927,0,0,0-.766.411l-.35-.27a1.4,1.4,0,0,1,1.145-.57A1.038,1.038,0,0,1,329.127,122.32Z" transform="translate(-326.848 -121.288)" fill="#c4c4c4"/>
            </g>
            <g id="Grupo_907541" data-name="Grupo 907541" transform="translate(2.96)">
              <path id="Trazado_641900" data-name="Trazado 641900" d="M333.252,123.233c0,1.252-.416,1.951-1.262,1.951s-1.262-.7-1.262-1.951.418-1.945,1.262-1.945S333.252,121.987,333.252,123.233Zm-1.983,0c0,1.11.247,1.539.721,1.539s.721-.428.721-1.539-.253-1.532-.721-1.532S331.268,122.128,331.268,123.233Z" transform="translate(-330.727 -121.288)" fill="#c4c4c4"/>
            </g>
          </g>
        </g>
      </g>
      <g id="Grupo_907549" data-name="Grupo 907549" transform="translate(0 42.13)">
        <g id="Grupo_907548" data-name="Grupo 907548">
          <g id="Grupo_907547" data-name="Grupo 907547">
            <g id="Grupo_907545" data-name="Grupo 907545">
              <path id="Trazado_641901" data-name="Trazado 641901" d="M329.061,105.928a.865.865,0,0,1-.733.868.869.869,0,0,1,.852.914,1.17,1.17,0,0,1-1.287,1.155,1.427,1.427,0,0,1-1.133-.508l.311-.288a1.06,1.06,0,0,0,.805.372.7.7,0,0,0,.76-.739c0-.519-.291-.676-.749-.676h-.282l.063-.4h.191a.634.634,0,0,0,.681-.665.561.561,0,0,0-.625-.575,1.066,1.066,0,0,0-.778.338l-.27-.31a1.521,1.521,0,0,1,1.075-.446A1,1,0,0,1,329.061,105.928Z" transform="translate(-326.76 -104.969)" fill="#c4c4c4"/>
            </g>
            <g id="Grupo_907546" data-name="Grupo 907546" transform="translate(3.039)">
              <path id="Trazado_641902" data-name="Trazado 641902" d="M333.267,106.914c0,1.252-.416,1.951-1.263,1.951s-1.262-.7-1.262-1.951.417-1.945,1.262-1.945S333.267,105.668,333.267,106.914Zm-1.984,0c0,1.11.249,1.539.721,1.539s.72-.428.72-1.539-.252-1.533-.72-1.533S331.283,105.809,331.283,106.914Z" transform="translate(-330.742 -104.969)" fill="#c4c4c4"/>
            </g>
          </g>
        </g>
      </g>
      <g id="Grupo_907554" data-name="Grupo 907554" transform="translate(0.047 29.675)">
        <g id="Grupo_907553" data-name="Grupo 907553">
          <g id="Grupo_907552" data-name="Grupo 907552">
            <g id="Grupo_907550" data-name="Grupo 907550">
              <path id="Trazado_641903" data-name="Trazado 641903" d="M329.426,91.546h-.488v.93h-.5v-.93h-1.613v-.372l1.133-2.525.435.18-1.021,2.305h1.072l.045-1.014h.452v1.014h.488Z" transform="translate(-326.822 -88.649)" fill="#c4c4c4"/>
            </g>
            <g id="Grupo_907551" data-name="Grupo 907551" transform="translate(3.085)">
              <path id="Trazado_641904" data-name="Trazado 641904" d="M333.389,90.594c0,1.251-.416,1.95-1.262,1.95s-1.262-.7-1.262-1.95.416-1.945,1.262-1.945S333.389,89.348,333.389,90.594Zm-1.984,0c0,1.11.249,1.539.722,1.539s.723-.428.723-1.539-.255-1.533-.723-1.533S331.4,89.488,331.4,90.594Z" transform="translate(-330.865 -88.649)" fill="#c4c4c4"/>
            </g>
          </g>
        </g>
      </g>
      <g id="Grupo_907559" data-name="Grupo 907559" transform="translate(0.058 17.221)">
        <g id="Grupo_907558" data-name="Grupo 907558">
          <g id="Grupo_907557" data-name="Grupo 907557">
            <g id="Grupo_907555" data-name="Grupo 907555" transform="translate(0 0.056)">
              <path id="Trazado_641905" data-name="Trazado 641905" d="M329.055,72.809h-1.47v1.11a1.306,1.306,0,0,1,.6-.147,1.06,1.06,0,0,1,1.069,1.2,1.229,1.229,0,0,1-1.307,1.274,1.471,1.471,0,0,1-1.115-.479l.316-.3a1.012,1.012,0,0,0,.793.361.754.754,0,0,0,.774-.862c0-.581-.3-.783-.688-.783a1.172,1.172,0,0,0-.535.129h-.407V72.4h2.039Z" transform="translate(-326.836 -72.403)" fill="#c4c4c4"/>
            </g>
            <g id="Grupo_907556" data-name="Grupo 907556" transform="translate(2.989)">
              <path id="Trazado_641906" data-name="Trazado 641906" d="M333.277,74.274c0,1.252-.417,1.951-1.263,1.951s-1.262-.7-1.262-1.951.416-1.945,1.262-1.945S333.277,73.029,333.277,74.274Zm-1.984,0c0,1.11.247,1.539.721,1.539s.722-.429.722-1.539-.255-1.532-.722-1.532S331.293,73.169,331.293,74.274Z" transform="translate(-330.752 -72.329)" fill="#c4c4c4"/>
            </g>
          </g>
        </g>
      </g>
      <g id="Grupo_907564" data-name="Grupo 907564" transform="translate(0.131 4.765)">
        <g id="Grupo_907563" data-name="Grupo 907563">
          <g id="Grupo_907562" data-name="Grupo 907562">
            <g id="Grupo_907560" data-name="Grupo 907560">
              <path id="Trazado_641907" data-name="Trazado 641907" d="M329.4,58.555a1.23,1.23,0,0,1-1.2,1.347c-.92,0-1.268-.756-1.268-1.837,0-1.235.533-2.057,1.423-2.057a1.369,1.369,0,0,1,.779.23l-.2.344a1.11,1.11,0,0,0-.58-.163c-.547,0-.874.569-.9,1.432a1.061,1.061,0,0,1,1.95.7Zm-.524.017c0-.6-.253-.806-.607-.806a.973.973,0,0,0-.813.519c.024.823.243,1.206.746,1.206C328.645,59.491,328.874,59.125,328.874,58.572Z" transform="translate(-326.932 -56.008)" fill="#c4c4c4"/>
            </g>
            <g id="Grupo_907561" data-name="Grupo 907561" transform="translate(3.005)">
              <path id="Trazado_641908" data-name="Trazado 641908" d="M333.394,57.953c0,1.251-.417,1.95-1.263,1.95s-1.262-.7-1.262-1.95.416-1.945,1.262-1.945S333.394,56.707,333.394,57.953Zm-1.986,0c0,1.11.249,1.539.723,1.539s.722-.428.722-1.539-.255-1.533-.722-1.533S331.409,56.847,331.409,57.953Z" transform="translate(-330.869 -56.008)" fill="#c4c4c4"/>
            </g>
          </g>
        </g>
      </g>
      <g id="Grupo_907565" data-name="Grupo 907565" transform="translate(21.663 6.104)">
        <path id="Trazado_641909" data-name="Trazado 641909" d="M366.594,70.141,355.146,92.1v24.8l54.947-2.671,14.118.382-4.961-46.171-14.5,7.25L379.186,57.763Z" transform="translate(-355.146 -57.763)" fill="#4dd0e1"/>
      </g>
      <g id="Grupo_907566" data-name="Grupo 907566" transform="translate(21.663 18.482)">
        <path id="Trazado_641910" data-name="Trazado 641910" d="M427.265,73.982l-14.5,14.668-26.681-2.243L373.462,98.058l-11.447,15.853-6.868,12.456h72.446Z" transform="translate(-355.146 -73.982)" fill="#feca2e"/>
      </g>
      <g id="Grupo_907567" data-name="Grupo 907567" transform="translate(12.687 21.048)">
        <path id="Trazado_641911" data-name="Trazado 641911" d="M424.807,127.164l-22.841-24.91-9.539,9.752-16.789-9.752-14.882,12.454-1.526-25.261-6.105-12.1-9.739,49.82Z" transform="translate(-343.385 -77.344)" fill="#0b5999"/>
      </g>
    </g>
  </g>
</svg>
