<svg xmlns="http://www.w3.org/2000/svg" width="270.766" height="243.001" viewBox="0 0 270.766 243.001">
  <g id="Grupo_907985" data-name="Grupo 907985" transform="translate(-1069 -5412)">
    <g id="Grupo_907933" data-name="Grupo 907933" transform="translate(1018.811 4944.948)">
      <g id="Grupo_907829" data-name="Grupo 907829" transform="translate(50.189 477.373)">
        <path id="Trazado_642113" data-name="Trazado 642113" d="M304.161,710.054H38.058a2.328,2.328,0,0,1-2.332-2.332V479.7a2.332,2.332,0,1,1,4.663,0V705.39H304.161a2.332,2.332,0,0,1,0,4.663Z" transform="translate(-35.726 -477.373)" fill="#c4c4c4"/>
      </g>
      <g id="Grupo_907860" data-name="Grupo 907860" transform="translate(253.602 503.832)">
        <rect id="Rectángulo_302357" data-name="Rectángulo 302357" width="17.692" height="192.996" transform="translate(2.358)" fill="#fd9927"/>
      </g>
      <g id="Grupo_907862" data-name="Grupo 907862" transform="translate(204.267 563.304)">
        <rect id="Rectángulo_302359" data-name="Rectángulo 302359" width="17.692" height="133.525" fill="#4dd0e1"/>
      </g>
      <g id="Grupo_907864" data-name="Grupo 907864" transform="translate(100.881 606.094)">
        <rect id="Rectángulo_302361" data-name="Rectángulo 302361" width="17.692" height="90.735" fill="#feca2e"/>
      </g>
      <g id="Grupo_907866" data-name="Grupo 907866" transform="translate(152.574 630.549)">
        <rect id="Rectángulo_302363" data-name="Rectángulo 302363" width="17.692" height="66.28" fill="#0b5999"/>
      </g>
      <path id="Trazado_642185" data-name="Trazado 642185" d="M-7303.781-6054.825l49.405-119.382,105.764-28.272,50.328-73.592" transform="translate(7362.222 6755.052)" fill="none" stroke="#12263f" stroke-width="2"/>
      <g id="Grupo_907984" data-name="Grupo 907984">
        <g id="Grupo_907868" data-name="Grupo 907868" transform="translate(286.963 467.052)">
          <path id="Trazado_642127" data-name="Trazado 642127" d="M152.014,514.677a6.486,6.486,0,1,1-6.489-6.489A6.488,6.488,0,0,1,152.014,514.677Z" transform="translate(-166.043 -508.188)" fill="#12263f"/>
        </g>
        <g id="Grupo_907870" data-name="Grupo 907870" transform="translate(100.88 574.711)">
          <path id="Trazado_642129" data-name="Trazado 642129" d="M64.651,498.378a6.488,6.488,0,1,1-6.491-6.489A6.489,6.489,0,0,1,64.651,498.378Z" transform="translate(-51.675 -491.889)" fill="#12263f"/>
        </g>
        <g id="Grupo_907984-2" data-name="Grupo 907984" transform="translate(206.909 545.711)">
          <path id="Trazado_642129-2" data-name="Trazado 642129" d="M64.651,498.378a6.488,6.488,0,1,1-6.491-6.489A6.489,6.489,0,0,1,64.651,498.378Z" transform="translate(-51.675 -491.889)" fill="#12263f"/>
        </g>
      </g>
    </g>
  </g>
</svg>
