<svg xmlns="http://www.w3.org/2000/svg" width="1004.119" height="526.45" viewBox="0 0 1004.119 526.45">
  <g id="Grupo_913741" data-name="Grupo 913741" transform="translate(-255.574 -3434.55)">
    <g id="Grupo_913719" data-name="Grupo 913719" transform="translate(193.005 3276.55)">
      <path id="_9" data-name="9" d="M205.5,691.154s-98.662-83.02-32.9-195.492,61.933-126.393,49.215-193.637C204.367,209.776,265.35,122.4,384.729,196.252c106.152,65.667,130.71,72.409,204.539,59.516s133.514-91.237,200.784-87.041c101.6,6.338,68.554,140.234,159.932,185.14,95.42,46.892,156.956,190.455,80.438,336.254Z" transform="translate(0 -7.338)" fill="#d2e1f1"/>
      <g id="_8" data-name="8" transform="translate(278.514 186.837)">
        <path id="Trazado_686315" data-name="Trazado 686315" d="M2009.509,466.148a17.306,17.306,0,0,0-2.814.233,17.385,17.385,0,0,0,.138-2.144,17.2,17.2,0,0,0-31.546-9.5,17.2,17.2,0,1,0-33.471,7.6c-.245-.01-.49-.019-.737-.019a17.2,17.2,0,1,0,9.951,31.232,23.706,23.706,0,0,0,43.524-1.708,17.2,17.2,0,1,0,14.956-25.7Z" transform="translate(-1510.756 -382.836)" fill="#fdfffe"/>
        <path id="Trazado_686316" data-name="Trazado 686316" d="M584.689,453.228a13.869,13.869,0,0,1,2.256.187,13.94,13.94,0,0,1-.11-1.719,13.79,13.79,0,0,1,25.287-7.613,13.792,13.792,0,1,1,26.831,6.1c.2-.008.393-.015.591-.015a13.79,13.79,0,1,1-7.977,25.036,19,19,0,0,1-34.888-1.369,13.79,13.79,0,1,1-11.989-20.6Z" transform="translate(-570.899 -377.443)" fill="#fdfffe"/>
        <path id="Trazado_686317" data-name="Trazado 686317" d="M2765.82,269.883a12.935,12.935,0,0,1,2.1.286,12.89,12.89,0,0,1,23.966-7.468,12.894,12.894,0,1,1,24.748,7.018c.184,0,.367.005.552.015a12.892,12.892,0,1,1-8.685,22.979,17.766,17.766,0,0,1-32.5-3,12.892,12.892,0,1,1-10.174-19.826Z" transform="translate(-2086.192 -252.44)" fill="#4dd0e1" opacity="0.53"/>
        <path id="Trazado_686589" data-name="Trazado 686589" d="M2772,277.82a18.824,18.824,0,0,1,3.051.416,18.755,18.755,0,0,1,34.871-10.866,18.761,18.761,0,1,1,36.01,10.211c.267,0,.534.008.8.022a18.759,18.759,0,1,1-12.637,33.435,25.849,25.849,0,0,1-47.294-4.37A18.758,18.758,0,1,1,2772,277.82Z" transform="translate(-2968.192 -117.987)" fill="#4dd0e1" opacity="0.53"/>
      </g>
      <g id="_7" data-name="7" transform="translate(262.747 264.133)">
        <path id="Trazado_686318" data-name="Trazado 686318" d="M1323.642,505.587l-208.2,62.082,57.518,22.107-164.154,132.1L797.456,551.791a28.879,28.879,0,0,0-36.21,0L531.786,736.447a28.878,28.878,0,1,0,36.21,45L779.35,611.357,990.706,781.443a28.878,28.878,0,0,0,36.21,0l182.261-146.674,9.3,60.933Z" transform="translate(-520.477 -505.587)" fill="#e33a1a"/>
        <path id="Trazado_686319" data-name="Trazado 686319" d="M519.928,889a.667.667,0,0,1-.412-1.192L776.71,685.992a.667.667,0,0,1,.83.005l227.089,182.8,180.052-143.443a.667.667,0,1,1,.832,1.044l-180.47,143.775a.667.667,0,0,1-.834,0L777.117,687.369,520.339,888.861A.664.664,0,0,1,519.928,889Z" transform="translate(-519.26 -630.808)" fill="#f1f3f2"/>
        <path id="Trazado_686320" data-name="Trazado 686320" d="M2534.374,606.684a.667.667,0,0,1-.2-1.3l179.508-56.063a.667.667,0,0,1,.4,1.274l-179.508,56.063A.678.678,0,0,1,2534.374,606.684Z" transform="translate(-1918.614 -535.943)" fill="#f1f3f2"/>
      </g>
      <g id="_6" data-name="6" transform="translate(210.816 414.388)">
        <path id="Trazado_686321" data-name="Trazado 686321" d="M705.507,1143.336s5.693-3.257,15.181,0C720.688,1143.336,714.747,1147.644,705.507,1143.336Z" transform="translate(-596.708 -1097.855)" fill="#64656e"/>
        <path id="Trazado_686322" data-name="Trazado 686322" d="M466.11,1379.959l-12.049,60.417-.273,1.371a5.035,5.035,0,0,1-.221.762l-21.593,56.122a7.867,7.867,0,0,1-14.686-5.648l21.573-56.129-1.747-59.461a14.641,14.641,0,0,1,29.276-.6A15.433,15.433,0,0,1,466.11,1379.959Z" transform="translate(-396.128 -1251.073)" fill="#f69d85"/>
        <path id="Trazado_686323" data-name="Trazado 686323" d="M483.994,1031.014s-10.053-3.615-16.062,4.6-1.56,16.614-2.042,22.38-6.86,7.551-7.537,15.6,6.208,10.6,11.836,8.324c0,0-.564,11.16,8.891,10.4s25.075-5.549,28.591-20.946S508.569,1032.7,483.994,1031.014Z" transform="translate(-424.988 -1020.284)" fill="#b74f2a"/>
        <path id="Trazado_686324" data-name="Trazado 686324" d="M371.767,1347.353s2.8,6.023,12.823,6.475C384.59,1353.828,385.886,1344.355,371.767,1347.353Z" transform="translate(-364.872 -1240.175)" fill="#64656e"/>
        <path id="Trazado_686325" data-name="Trazado 686325" d="M572.889,1210.016a2.109,2.109,0,1,1,2.109-2.109A2.111,2.111,0,0,1,572.889,1210.016Zm0-3.8a1.692,1.692,0,1,0,1.692,1.692A1.694,1.694,0,0,0,572.889,1206.216Z" transform="translate(-503.118 -1142.251)" fill="#263656"/>
        <path id="Trazado_686326" data-name="Trazado 686326" d="M621.047,1138.459l-2.122-44.3a5.564,5.564,0,0,0-11.118.463l1.253,35.427-35.252-13.7c-.2-.078-.422-.153-.633-.215a7.831,7.831,0,0,0-4.407,15.029l44.561,13.066.3.09a5.816,5.816,0,0,0,7.417-5.863Z" transform="translate(-497.811 -1061.02)" fill="#f69d85"/>
        <rect id="Rectángulo_320019" data-name="Rectángulo 320019" width="12.741" height="19.972" transform="translate(57.149 37.607)" fill="#f69d85"/>
        <path id="Trazado_686327" data-name="Trazado 686327" d="M578.077,1154.538s12.794-2.3,38.255,12.292l.655-20.2s6.392,2.717,15.181,0c0,0,7.671,30.842-.77,39.2-7.025,6.955-43.192-2.994-43.192-2.994Z" transform="translate(-508.187 -1101.148)" fill="#30313c"/>
        <path id="Trazado_686328" data-name="Trazado 686328" d="M548.783,1146.8a18,18,0,0,0,8.944.91v-6.5Z" transform="translate(-487.838 -1097.383)" fill="#d1836b"/>
        <path id="Trazado_686329" data-name="Trazado 686329" d="M524.152,1083.659h0a13.4,13.4,0,0,0,9.244-16.537l-1.893-6.692a13.4,13.4,0,0,0-16.537-9.245h0a13.4,13.4,0,0,0-9.244,16.538l1.893,6.692A13.4,13.4,0,0,0,524.152,1083.659Z" transform="translate(-457.571 -1034.493)" fill="#f69d85"/>
        <path id="Trazado_686330" data-name="Trazado 686330" d="M584.005,1090.38a3.559,3.559,0,1,0,2.456-4.393A3.559,3.559,0,0,0,584.005,1090.38Z" transform="translate(-512.211 -1058.928)" fill="#f69d85"/>
        <path id="Trazado_686331" data-name="Trazado 686331" d="M507.939,1246.536c11.768,0,26.839-2.829,22.259-18.983-2.352-8.3-2.869-19.9-.479-34.757,1.869-11.618-14.961-24.027-19.133-24.027h-.773c-11.768,0-19.873,12.092-18.661,23.8,1.562,15.086,8.082,18.479.635,33.6C481.862,1246.313,507.939,1246.536,507.939,1246.536Z" transform="translate(-446.68 -1116.527)" fill="#f69d85"/>
        <path id="Trazado_686332" data-name="Trazado 686332" d="M415.618,1184.922a7.867,7.867,0,0,0-11.031-1.454l-28.581,21.924-.4.3a5.774,5.774,0,0,0-1.72,2.168l-16.818,36.643a5.07,5.07,0,0,0,8.877,4.85l21.749-33.949,26.465-19.453A7.867,7.867,0,0,0,415.618,1184.922Z" transform="translate(-354.343 -1125.609)" fill="#f69d85"/>
        <path id="Trazado_686333" data-name="Trazado 686333" d="M540.492,1100.156c.272.962.094,1.853-.4,1.992s-1.108-.529-1.379-1.491-.094-1.853.4-1.992S540.22,1099.195,540.492,1100.156Z" transform="translate(-480.757 -1067.817)" fill="#30313c"/>
        <path id="Trazado_686334" data-name="Trazado 686334" d="M565.985,1092.958c.271.962.094,1.853-.4,1.992s-1.108-.529-1.379-1.49-.094-1.853.4-1.992S565.713,1092,565.985,1092.958Z" transform="translate(-498.466 -1062.817)" fill="#30313c"/>
        <path id="Trazado_686335" data-name="Trazado 686335" d="M529.77,1116.667a1.425,1.425,0,1,0,1.259-1.451A1.361,1.361,0,0,0,529.77,1116.667Z" transform="translate(-474.624 -1079.319)" fill="#d1836b"/>
        <path id="Trazado_686336" data-name="Trazado 686336" d="M577.779,1105.089a1.425,1.425,0,1,0,1.259-1.451A1.361,1.361,0,0,0,577.779,1105.089Z" transform="translate(-507.975 -1071.277)" fill="#d1836b"/>
        <path id="Trazado_686337" data-name="Trazado 686337" d="M511.756,1172.53s13.853,12.373,17.621,25.3c1.735,5.954-3.385,12.742-4.422,19.041-.961,5.838.429,13.293.429,13.293s-11.217,2.241-17.062,2.241c-13.971,0-21.349-3.629-21.349-3.629s6.667-15-2.025-27.979c-6.911-10.319,2.561-24.679,14.058-28.269,0,0,5.364,5.578,9.716,5.011C512.374,1177.065,511.756,1172.53,511.756,1172.53Z" transform="translate(-441.866 -1119.14)" fill="#30313c"/>
        <path id="Trazado_686338" data-name="Trazado 686338" d="M496.943,1112.646a3.559,3.559,0,1,0,2.456-4.393A3.559,3.559,0,0,0,496.943,1112.646Z" transform="translate(-451.733 -1074.396)" fill="#f69d85"/>
        <path id="Trazado_686339" data-name="Trazado 686339" d="M501.8,1030.406s1.451-10.8,12.906-10.638,14.091,10.256,9.161,14.3c-3.434,2.816-14.063,2.8-18.6,1.25,0,0,.64,5.472-5.532,8.043S489.858,1034,501.8,1030.406Z" transform="translate(-449.756 -1013.021)" fill="#b74f2a"/>
        <path id="Trazado_686340" data-name="Trazado 686340" d="M422.012,1172.53a95.285,95.285,0,0,0-21.083,10.711c-6.641,4.649-13.945,11.176-17.5,15.652s-11.659,27.424-11.659,27.424,6.166-1.216,12.823,6.475c0,0,11.446-19,13.4-21.635s14.8-7.944,20.08-14.6S422.012,1172.53,422.012,1172.53Z" transform="translate(-364.872 -1119.14)" fill="#30313c"/>
        <path id="Trazado_686341" data-name="Trazado 686341" d="M552.547,1125.02c.015.581,1.012,1.026,2.227.994s2.187-.529,2.172-1.11-1.012-1.026-2.227-.994S552.531,1124.439,552.547,1125.02Z" transform="translate(-490.452 -1085.365)" fill="#db7777"/>
        <path id="Trazado_686342" data-name="Trazado 686342" d="M550.61,1125.612a8.116,8.116,0,0,1-2.269-.6.208.208,0,1,1,.162-.384,7.562,7.562,0,0,0,6.3-.17.208.208,0,0,1,.209.361A7.682,7.682,0,0,1,550.61,1125.612Z" transform="translate(-487.443 -1085.728)" fill="#af5945"/>
        <path id="Trazado_686343" data-name="Trazado 686343" d="M368.988,1369.958s1.954,5.353.38,9.788-3.2,5.822-5.089,6.468-3.706-7.681-2.85-10.693S364.491,1369.4,368.988,1369.958Z" transform="translate(-357.54 -1256.24)" fill="#f69d85"/>
        <path id="Trazado_686344" data-name="Trazado 686344" d="M380.639,1369.108a25.876,25.876,0,0,1,1.99,10.064c-.028.439-.037,1.144-.1,1.578,0,.877-.353,2.007-1.444,1.864-1-.1-1.156-1.131-1.118-1.942a21.464,21.464,0,0,0-3.078-9.572C374.853,1368.392,379.479,1365.917,380.639,1369.108Z" transform="translate(-368.075 -1254.65)" fill="#f69d85"/>
        <path id="Trazado_686345" data-name="Trazado 686345" d="M378.294,1395.8a27.4,27.4,0,0,0-.478,10.685,1.129,1.129,0,0,1-2.18.523,27.714,27.714,0,0,1-1.123-4.354,30.836,30.836,0,0,1-.368-7.875C374.574,1391.62,379.376,1392.8,378.294,1395.8Z" transform="translate(-366.446 -1272.226)" fill="#f69d85"/>
        <path id="Trazado_686346" data-name="Trazado 686346" d="M369.568,1398.61a29.625,29.625,0,0,0-1.123,7.323c-.009.169-.013.515-.01.685-.252,1.279.956,3.635-.866,4.012-1.659.335-1.816-4.094-2.095-5.263a32.326,32.326,0,0,1-.017-7.913C366.005,1394.341,370.725,1395.663,369.568,1398.61Z" transform="translate(-360.325 -1274.144)" fill="#f69d85"/>
        <path id="Trazado_686347" data-name="Trazado 686347" d="M362.918,1396.294a22.32,22.32,0,0,0-2.588,10.688,1.126,1.126,0,0,1-2.229.2c-.142-.72-.275-1.627-.34-2.357a26.623,26.623,0,0,1,1.378-10.529C360.321,1391.345,364.692,1393.646,362.918,1396.294Z" transform="translate(-355.097 -1272.233)" fill="#f69d85"/>
        <path id="Trazado_686348" data-name="Trazado 686348" d="M355.94,1384.493a20.036,20.036,0,0,0-4.275,12.239,1.124,1.124,0,0,1-2.234.123,23.557,23.557,0,0,1-.245-2.852,24.717,24.717,0,0,1,3.131-11.7C353.752,1379.078,358.252,1381.82,355.94,1384.493Z" transform="translate(-349.186 -1263.846)" fill="#f69d85"/>
        <path id="Trazado_686349" data-name="Trazado 686349" d="M357.022,1411.642a.208.208,0,0,1-.208-.2,19.523,19.523,0,0,1,.606-5.694.208.208,0,0,1,.4.114,19.064,19.064,0,0,0-.591,5.555.209.209,0,0,1-.2.221Z" transform="translate(-354.473 -1281.044)" fill="#af5945"/>
        <path id="Trazado_686350" data-name="Trazado 686350" d="M366.346,1416.713a.209.209,0,0,1-.207-.183,31.572,31.572,0,0,1,0-6.167.208.208,0,1,1,.415.041,31.049,31.049,0,0,0,0,6.076.208.208,0,0,1-.182.232Z" transform="translate(-360.859 -1284.222)" fill="#af5945"/>
        <path id="Trazado_686351" data-name="Trazado 686351" d="M375.263,1414.018a.209.209,0,0,1-.206-.177,26.3,26.3,0,0,1-.262-5.041.208.208,0,1,1,.416.034,26.39,26.39,0,0,0,.259,4.945.208.208,0,0,1-.175.237Z" transform="translate(-366.946 -1283.134)" fill="#af5945"/>
        <path id="Trazado_686352" data-name="Trazado 686352" d="M712.162,1091.84s-.921-5.624,1.452-9.687,4.226-5.123,6.205-5.406,2.209,8.238.806,11.037S716.477,1093.226,712.162,1091.84Z" transform="translate(-601.209 -1052.599)" fill="#f69d85"/>
        <path id="Trazado_686353" data-name="Trazado 686353" d="M716.5,1068.173a27.408,27.408,0,0,0,2.462-10.408,1.128,1.128,0,0,1,2.24-.107,27.722,27.722,0,0,1,.292,4.487,30.853,30.853,0,0,1-1.107,7.806C719.372,1072.969,714.873,1070.919,716.5,1068.173Z" transform="translate(-604.099 -1038.686)" fill="#f69d85"/>
        <path id="Trazado_686354" data-name="Trazado 686354" d="M725.355,1066.94a29.634,29.634,0,0,0,2.469-6.985c.04-.164.109-.5.137-.671.487-1.209-.261-3.749,1.6-3.78,1.692-.02,1.021,4.361,1.077,5.561a32.315,32.315,0,0,1-1.459,7.778C728.06,1071.8,723.669,1069.619,725.355,1066.94Z" transform="translate(-610.231 -1037.846)" fill="#f69d85"/>
        <path id="Trazado_686355" data-name="Trazado 686355" d="M729.007,1070.3a22.318,22.318,0,0,0,4.535-10.018,1.126,1.126,0,0,1,2.228.216c0,.734-.034,1.649-.105,2.379a26.624,26.624,0,0,1-3.317,10.088C730.636,1075.644,726.771,1072.569,729.007,1070.3Z" transform="translate(-612.561 -1040.543)" fill="#f69d85"/>
        <path id="Trazado_686356" data-name="Trazado 686356" d="M729.715,1079.244a20.041,20.041,0,0,0,6.482-11.228,1.124,1.124,0,0,1,2.218.3,23.509,23.509,0,0,1-.291,2.848,24.717,24.717,0,0,1-5.257,10.911C730.856,1084.972,726.946,1081.439,729.715,1079.244Z" transform="translate(-612.858 -1045.935)" fill="#f69d85"/>
        <path id="Trazado_686357" data-name="Trazado 686357" d="M747.217,1077.308a.208.208,0,0,1,.168.231,19.526,19.526,0,0,1-1.657,5.481.208.208,0,0,1-.373-.186,19.089,19.089,0,0,0,1.617-5.347.208.208,0,0,1,.233-.181Z" transform="translate(-624.373 -1052.99)" fill="#af5945"/>
        <path id="Trazado_686358" data-name="Trazado 686358" d="M740.049,1069.42a.209.209,0,0,1,.169.218,31.557,31.557,0,0,1-1.15,6.059.208.208,0,1,1-.4-.117,31.017,31.017,0,0,0,1.133-5.969.209.209,0,0,1,.222-.195Z" transform="translate(-619.737 -1047.511)" fill="#af5945"/>
        <path id="Trazado_686359" data-name="Trazado 686359" d="M731.022,1072.863a.208.208,0,0,1,.169.212,26.265,26.265,0,0,1-.683,5,.208.208,0,1,1-.4-.111,26.377,26.377,0,0,0,.667-4.906.208.208,0,0,1,.216-.2Z" transform="translate(-613.791 -1049.903)" fill="#af5945"/>
        <path id="Trazado_686360" data-name="Trazado 686360" d="M503.939,1116.164a.208.208,0,0,1-.181-.165c-.216-1.026-.856-1.069-1.475-1.11a1.278,1.278,0,0,1-.933-.3.845.845,0,0,1-.166-.646,2.528,2.528,0,0,1,1.907-2.051.208.208,0,0,1,.1.4c-.061.016-1.5.4-1.594,1.679a.473.473,0,0,0,.065.341c.1.116.366.134.646.152a1.692,1.692,0,0,1,1.855,1.441.209.209,0,0,1-.227.25Z" transform="translate(-454.77 -1077.016)" fill="#af5945"/>
        <path id="Trazado_686361" data-name="Trazado 686361" d="M595.309,1094.4a.208.208,0,0,1-.181-.169,1.692,1.692,0,0,1,1.167-2.039c.253-.124.491-.242.54-.387a.474.474,0,0,0-.069-.341,2.144,2.144,0,0,0-2.114-.946.208.208,0,0,1-.058-.413,2.528,2.528,0,0,1,2.544,1.171.846.846,0,0,1,.093.661c-.1.31-.418.465-.751.628-.557.274-1.132.557-.941,1.588a.209.209,0,0,1-.167.243A.212.212,0,0,1,595.309,1094.4Z" transform="translate(-519.535 -1061.868)" fill="#af5945"/>
        <path id="Trazado_686362" data-name="Trazado 686362" d="M503.159,1131.622a1.854,1.854,0,1,1,2.049-1.636A1.856,1.856,0,0,1,503.159,1131.622Zm.367-3.27a1.437,1.437,0,1,0,1.268,1.588A1.439,1.439,0,0,0,503.525,1128.351Z" transform="translate(-455 -1088.155)" fill="#ffb12a"/>
        <path id="Trazado_686363" data-name="Trazado 686363" d="M600.756,1105.745a1.854,1.854,0,1,1,2.049-1.635A1.856,1.856,0,0,1,600.756,1105.745Zm.367-3.27a1.437,1.437,0,1,0,1.268,1.588A1.438,1.438,0,0,0,601.123,1102.475Z" transform="translate(-522.797 -1070.18)" fill="#ffb12a"/>
        <path id="Trazado_686364" data-name="Trazado 686364" d="M532.509,1094.376a.35.35,0,0,1-.243-.554,5.161,5.161,0,0,1,3.679-1.978.35.35,0,0,1,.03.7,4.5,4.5,0,0,0-3.143,1.691A.349.349,0,0,1,532.509,1094.376Z" transform="translate(-476.318 -1063.091)" fill="#af5945"/>
        <path id="Trazado_686365" data-name="Trazado 686365" d="M557.939,1087.532a.35.35,0,0,1-.16-.635,4.09,4.09,0,0,1,3.692-.289.35.35,0,1,1-.257.651,3.39,3.39,0,0,0-3.039.215A.349.349,0,0,1,557.939,1087.532Z" transform="translate(-493.982 -1059.241)" fill="#af5945"/>
        <path id="Trazado_686366" data-name="Trazado 686366" d="M555.77,1105.38a.208.208,0,0,1-.066-.4c.456-.217,1.357-.8,1.23-1.2A39.382,39.382,0,0,0,554.8,1100a.208.208,0,0,1,.355-.219,41.309,41.309,0,0,1,2.177,3.885c.271.853-1.272,1.615-1.449,1.7A.2.2,0,0,1,555.77,1105.38Z" transform="translate(-491.996 -1068.532)" fill="#af5945"/>
        <path id="Trazado_686367" data-name="Trazado 686367" d="M495.168,1261.382a.209.209,0,0,1-.116-.382c.056-.037,5.584-3.759,7.117-5.534a.208.208,0,0,1,.315.272c-1.57,1.817-6.972,5.454-7.2,5.607A.206.206,0,0,1,495.168,1261.382Z" transform="translate(-450.449 -1176.702)" fill="#64656e"/>
        <path id="Trazado_686368" data-name="Trazado 686368" d="M593.1,1242.791a1.875,1.875,0,1,1,1.875-1.875A1.878,1.878,0,0,1,593.1,1242.791Zm0-3.334a1.459,1.459,0,1,0,1.458,1.459A1.46,1.46,0,0,0,593.1,1239.457Z" transform="translate(-517.32 -1165.342)" fill="#64656e"/>
        <path id="Trazado_686369" data-name="Trazado 686369" d="M594.98,1273.647a1.875,1.875,0,1,1,1.875-1.875A1.877,1.877,0,0,1,594.98,1273.647Zm0-3.334a1.458,1.458,0,1,0,1.458,1.458A1.46,1.46,0,0,0,594.98,1270.314Z" transform="translate(-518.627 -1186.777)" fill="#64656e"/>
        <path id="Trazado_686370" data-name="Trazado 686370" d="M593.1,1335.361a1.875,1.875,0,1,1,1.875-1.875A1.877,1.877,0,0,1,593.1,1335.361Zm0-3.334a1.459,1.459,0,1,0,1.458,1.459A1.46,1.46,0,0,0,593.1,1332.027Z" transform="translate(-517.32 -1229.646)" fill="#64656e"/>
        <path id="Trazado_686371" data-name="Trazado 686371" d="M593.1,1304.5a1.875,1.875,0,1,1,1.875-1.875A1.878,1.878,0,0,1,593.1,1304.5Zm0-3.334a1.458,1.458,0,1,0,1.458,1.458A1.46,1.46,0,0,0,593.1,1301.171Z" transform="translate(-517.32 -1208.212)" fill="#64656e"/>
        <path id="Trazado_686372" data-name="Trazado 686372" d="M571.5,1382.569l2.829,61.542.064,1.4a5.013,5.013,0,0,1-.031.792l-7.467,59.667a7.867,7.867,0,0,1-15.613-1.951l7.447-59.669-15.991-57.3a14.641,14.641,0,1,1,28.274-7.616A15.436,15.436,0,0,1,571.5,1382.569Z" transform="translate(-483.282 -1255.34)" fill="#f69d85"/>
        <path id="Trazado_686373" data-name="Trazado 686373" d="M559.655,1360.827s12.342,25.125,17.1,67.907c2.13,19.136-6.563,61.9-6.563,61.9s-17.85,4.9-33.22-1.029l6.727-49.44s-2.721-27.721-7.886-41.495-3.99-36.223-3.99-36.223C544.973,1363.454,559.655,1360.827,559.655,1360.827Z" transform="translate(-475.979 -1249.942)" fill="#ffb12a"/>
        <path id="Trazado_686374" data-name="Trazado 686374" d="M596.829,1826.536l-18.973-.1-4.04-8.494-1.659,8.462-5.48-.027c-5.07-10.443.2-23.562.2-23.562a57.527,57.527,0,0,0,17.464.169l-.162,8.5L598.4,1821.7A2.67,2.67,0,0,1,596.829,1826.536Z" transform="translate(-498.738 -1556.975)" fill="#404d7f"/>
        <path id="Trazado_686375" data-name="Trazado 686375" d="M576.708,1834.84a1.615,1.615,0,1,1,1.489-2.241h0a1.617,1.617,0,0,1-1.489,2.241Zm0-2.814a1.2,1.2,0,0,0-1.109.746,1.2,1.2,0,1,0,1.109-.746Z" transform="translate(-506.114 -1576.975)" fill="#606a97"/>
        <path id="Trazado_686376" data-name="Trazado 686376" d="M460.7,1359.254s1.548,27.136-4.114,69.808c-2.533,19.087-21.251,58.508-21.251,58.508s-18.506.468-32-8.985l18.416-46.374s-1.364-27.319-1.364-42.547c0-22.867,11.521-32.922,11.521-32.922C444.429,1360.88,460.7,1359.254,460.7,1359.254Z" transform="translate(-386.803 -1247.104)" fill="#ffb12a"/>
        <path id="Trazado_686377" data-name="Trazado 686377" d="M430.22,1811.268l-18.393-4.656-1.88-9.216-3.645,7.815-5.312-1.344c-2.411-11.356,5.856-22.823,5.856-22.823a57.532,57.532,0,0,0,16.911,4.363l-2.2,8.215,11.352,13.325A2.67,2.67,0,0,1,430.22,1811.268Z" transform="translate(-384.866 -1541.851)" fill="#404d7f"/>
        <path id="Trazado_686378" data-name="Trazado 686378" d="M416.726,1813.956a1.615,1.615,0,1,1,1.984-1.818h0a1.617,1.617,0,0,1-1.984,1.818Zm.676-2.732a1.2,1.2,0,1,0,.418.2A1.195,1.195,0,0,0,417.4,1811.224Z" transform="translate(-395.251 -1562.501)" fill="#606a97"/>
        <path id="Trazado_686379" data-name="Trazado 686379" d="M634.635,1026.527a2.809,2.809,0,0,0,.867,5.393l100.092-7.637-3.516-21.872Z" transform="translate(-546.27 -1000.965)" fill="#606a97"/>
        <path id="Trazado_686380" data-name="Trazado 686380" d="M804.267,1011.3c-4.967.8-7.507,4.116-6.537,10.156s4.423,8.394,9.39,7.6l42.833-4.772-3.516-21.872Z" transform="translate(-660.63 -1000.965)" fill="#606a97"/>
        <ellipse id="Elipse_7687" data-name="Elipse 7687" cx="9.109" cy="11.076" rx="9.109" ry="11.076" transform="matrix(0.987, -0.159, 0.159, 0.987, 176.815, 2.891)" fill="#99a7d8"/>
        <path id="Trazado_686381" data-name="Trazado 686381" d="M950.3,1028.458a5.446,5.446,0,0,1-3.405-.582,6.653,6.653,0,0,1-1.469-1.044,7.6,7.6,0,0,1-1.131-1.321,8.87,8.87,0,0,1-1.371-3.373c-.014-.075-.027-.15-.039-.225-.669-4.165,1.565-7.989,4.991-8.539a5.64,5.64,0,0,1,4.32,1.161,7.779,7.779,0,0,1,2.215,2.68,8.933,8.933,0,0,1,.662,1.706,9.3,9.3,0,0,1,.216,1,9.436,9.436,0,0,1,.106.987C955.6,1024.673,953.454,1027.952,950.3,1028.458Z" transform="translate(-761.524 -1008.534)" fill="#7ce1f7"/>
        <path id="Trazado_686382" data-name="Trazado 686382" d="M708.165,1092.6a25.879,25.879,0,0,1-.079-10.258c.11-.427.25-1.118.393-1.532.159-.863.721-1.906,1.766-1.562.966.281.925,1.327.737,2.117a21.463,21.463,0,0,0,1.239,9.978C713.716,1094.385,708.71,1095.953,708.165,1092.6Z" transform="translate(-598.17 -1054.296)" fill="#f69d85"/>
        <path id="Trazado_686383" data-name="Trazado 686383" d="M545.953,1168.89l1.266,9.858-7-3.137-4.71,5.6-10.334-11,3.413-2.446s5.751,7.3,10.692,5.332c2.478-.987,2.049-5.771,2.049-5.771Z" transform="translate(-471.436 -1115.527)" fill="#f1f3f2"/>
        <path id="Trazado_686384" data-name="Trazado 686384" d="M713.08,1159a32.512,32.512,0,0,1-8.6-1.166.255.255,0,0,1,.151-.488c.084.026,8.427,2.561,15.919,0a.255.255,0,1,1,.165.483A23.742,23.742,0,0,1,713.08,1159Z" transform="translate(-595.867 -1108.588)" fill="#64656e"/>
        <path id="Trazado_686385" data-name="Trazado 686385" d="M712.575,1169.929a22.919,22.919,0,0,1-8.47-1.51.255.255,0,0,1,.208-.466,23.994,23.994,0,0,0,16.615-.007.255.255,0,1,1,.175.48A24.837,24.837,0,0,1,712.575,1169.929Z" transform="translate(-595.629 -1115.945)" fill="#64656e"/>
        <path id="Trazado_686386" data-name="Trazado 686386" d="M569.281,1499.166a.255.255,0,0,1-.243-.334,68.955,68.955,0,0,0,2.393-10.739c.691-5.42,3.857-45.685,3.888-46.091a.255.255,0,0,1,.509.04c-.032.406-3.2,40.684-3.891,46.116a69.531,69.531,0,0,1-2.414,10.831A.255.255,0,0,1,569.281,1499.166Z" transform="translate(-501.899 -1306.168)" fill="#997243"/>
        <path id="Trazado_686387" data-name="Trazado 686387" d="M510.751,1370.508a89.575,89.575,0,0,1-10.2-.6,86.737,86.737,0,0,1-13.751-2.644.255.255,0,0,1,.149-.489,86.153,86.153,0,0,0,13.672,2.627c7.388.851,18.395,1.206,28.877-1.928a.255.255,0,1,1,.146.489A66.534,66.534,0,0,1,510.751,1370.508Z" transform="translate(-444.658 -1254.069)" fill="#997243"/>
        <path id="Trazado_686388" data-name="Trazado 686388" d="M448.425,1731.4h-.011a69.987,69.987,0,0,1-32.374-9.792.255.255,0,0,1,.282-.425,69.451,69.451,0,0,0,32.114,9.707.255.255,0,0,1-.011.51Z" transform="translate(-395.547 -1500.237)" fill="#997243"/>
        <path id="Trazado_686389" data-name="Trazado 686389" d="M571.429,1752.148a58.208,58.208,0,0,1-18.66-2.83.255.255,0,0,1,.166-.483c15.8,5.41,33.36,1.332,33.536,1.29a.256.256,0,0,1,.119.5A73.346,73.346,0,0,1,571.429,1752.148Z" transform="translate(-490.487 -1519.466)" fill="#997243"/>
        <path id="Trazado_686390" data-name="Trazado 686390" d="M453.919,1712.012a58.385,58.385,0,0,1-20.9-4.132,55.527,55.527,0,0,1-9.627-4.783.255.255,0,1,1,.284-.425c.145.1,14.734,9.7,32.7,8.766a.255.255,0,0,1,.027.51Q455.147,1712.012,453.919,1712.012Z" transform="translate(-400.654 -1487.378)" fill="#997243"/>
        <path id="Trazado_686391" data-name="Trazado 686391" d="M572.406,1734.095a78.531,78.531,0,0,1-17.279-1.9.255.255,0,0,1,.112-.5,75.887,75.887,0,0,0,33.944,0,.255.255,0,1,1,.14.491A68.748,68.748,0,0,1,572.406,1734.095Z" transform="translate(-492.106 -1507.564)" fill="#997243"/>
        <path id="Trazado_686392" data-name="Trazado 686392" d="M800.84,1054.414a.255.255,0,0,1-.175-.069c-6.466-6.069-2.318-14.068-2.275-14.148a.255.255,0,0,1,.451.24c-.041.076-4,7.738,2.174,13.535a.255.255,0,0,1-.175.441Z" transform="translate(-660.292 -1027.12)" fill="#394572"/>
        <path id="Trazado_686393" data-name="Trazado 686393" d="M389.348,1342.453a.255.255,0,0,1-.2-.1,18.274,18.274,0,0,0-13.348-6.738.26.26,0,0,1-.257-.253.255.255,0,0,1,.253-.258,18.811,18.811,0,0,1,13.753,6.932.256.256,0,0,1-.2.414Z" transform="translate(-367.494 -1232.076)" fill="#64656e"/>
        <path id="Trazado_686394" data-name="Trazado 686394" d="M394.891,1329.811a.257.257,0,0,1-.2-.094,19.1,19.1,0,0,0-14-7.215.262.262,0,0,1-.261-.25.256.256,0,0,1,.25-.261,19.642,19.642,0,0,1,14.4,7.4.256.256,0,0,1-.2.417Z" transform="translate(-370.893 -1222.964)" fill="#64656e"/>
        <path id="Trazado_686395" data-name="Trazado 686395" d="M622.9,1234.893a.248.248,0,0,1-.08-.013.255.255,0,0,1-.162-.322c2.161-6.536-5.413-15.954-5.49-16.049a.255.255,0,1,1,.4-.322c.321.394,7.827,9.729,5.578,16.531A.256.256,0,0,1,622.9,1234.893Z" transform="translate(-535.303 -1150.79)" fill="#64656e"/>
        <path id="Trazado_686396" data-name="Trazado 686396" d="M708.021,1215.795a.253.253,0,0,1-.173-.068,25.264,25.264,0,0,0-5.176-3.291.255.255,0,0,1,.218-.462,25.273,25.273,0,0,1,5.3,3.377.255.255,0,0,1-.173.443Z" transform="translate(-594.637 -1146.523)" fill="#64656e"/>
        <path id="Trazado_686397" data-name="Trazado 686397" d="M954.772,1020.009l-10.116,8.3a8.868,8.868,0,0,1-1.371-3.373l9.271-7.6A7.776,7.776,0,0,1,954.772,1020.009Z" transform="translate(-761.882 -1011.328)" fill="#b3f4ff"/>
        <path id="Trazado_686398" data-name="Trazado 686398" d="M961.446,1033.679l-8.5,6.969a6.659,6.659,0,0,1-1.469-1.044l9.648-7.911a9.285,9.285,0,0,1,.216,1A9.437,9.437,0,0,1,961.446,1033.679Z" transform="translate(-767.573 -1021.307)" fill="#b3f4ff"/>
      </g>
      <g id="_5" data-name="5" transform="translate(406.529 158)">
        <path id="Trazado_686399" data-name="Trazado 686399" d="M1046.911,684.722a9.755,9.755,0,0,1-2.225-.81c-4-1.758-6.026-5.587-4.267-9.588l29.812-67.83a7.911,7.911,0,0,1,7.538-4.723l53.225,1.983a7.912,7.912,0,0,1-.589,15.813l-47.851-1.783-27.648,62.907C1053.444,684.017,1050.34,685.214,1046.911,684.722Z" transform="translate(-1024.628 -466.266)" fill="#f69d85"/>
        <path id="Trazado_686400" data-name="Trazado 686400" d="M1156.9,557.953s-3.192,31.011-18.735,36.933-46.621-2.617-46.621-2.617l-22.026,49.07s-15.413-2.134-22.9-8.514c2.563-10.081,13.243-52.526,26.506-62.688,9.942-7.618,30.36-7.486,47.72-9.684C1132.437,558.985,1156.9,557.953,1156.9,557.953Z" transform="translate(-1029.377 -435.831)" fill="#30313c"/>
        <path id="Trazado_686401" data-name="Trazado 686401" d="M997.079,836.433l5.129,2.9a3.253,3.253,0,0,0,.714-.771h0a3.3,3.3,0,0,0,.425-.924l1.1-3.846C1003.387,833.5,998.587,832.442,997.079,836.433Z" transform="translate(-994.964 -627.207)" fill="#404660"/>
        <path id="Trazado_686402" data-name="Trazado 686402" d="M1020.6,837.817a3.491,3.491,0,0,1-.879.91,3.3,3.3,0,0,1-2.985.461l-23.85-8.1a2.943,2.943,0,0,1-2-2.462,3.222,3.222,0,0,1,.018-.986,3.1,3.1,0,0,1,1.853-2.362l4.313-1.865,4.636-2a61.287,61.287,0,0,0,22.024,6.074l-1.517,5.294-1.163,4.053A3.5,3.5,0,0,1,1020.6,837.817Z" transform="translate(-990.642 -618.845)" fill="#404d7f"/>
        <path id="Trazado_686403" data-name="Trazado 686403" d="M1017.9,817.021s6.551-2.871,8.408-3.458,5.11,2.053,4.184,3.432-4.316,2.906-4.316,2.906Z" transform="translate(-1009.43 -613.335)" fill="#404d7f"/>
        <path id="Trazado_686404" data-name="Trazado 686404" d="M992.31,844.973a3.235,3.235,0,0,1-2.109-3.685.217.217,0,0,1,.284-.169l29.693,10.176h0a.215.215,0,0,1,.135.135.217.217,0,0,1-.024.189,3.582,3.582,0,0,1-4.114,1.456l-23.851-8.1Z" transform="translate(-990.152 -632.527)" fill="#606a97"/>
        <path id="Trazado_686405" data-name="Trazado 686405" d="M996.707,827.849s-5.953,1.173-6.38,4.19l9.188,3.047A7.628,7.628,0,0,0,996.707,827.849Z" transform="translate(-990.273 -623.317)" fill="#606a97"/>
        <path id="Trazado_686406" data-name="Trazado 686406" d="M1075.228,857.725s-5.239-1.914-8.053,2.6l6.618,2.554A20.857,20.857,0,0,0,1075.228,857.725Z" transform="translate(-1043.657 -643.791)" fill="#606a97"/>
        <path id="Trazado_686407" data-name="Trazado 686407" d="M1234.962,716.523a10.231,10.231,0,0,1-2.424.075c-4.367-.161-7.616-2.985-7.455-7.352l2.731-74.042a7.912,7.912,0,0,1,5.268-7.168l50.213-17.762a7.912,7.912,0,1,1,5.277,14.918l-45.143,15.968-2.532,68.668C1240.763,713.459,1238.33,715.718,1234.962,716.523Z" transform="translate(-1153.345 -471.86)" fill="#f69d85"/>
        <path id="Trazado_686408" data-name="Trazado 686408" d="M1289.929,553.469s9.123,22.128-3.535,35.952c-11.233,12.268-53.576,15.8-53.576,15.8l-1.028,53.7s-14.907,3.531-24.22.358c-1.331-10.316-7.862-54.93.125-69.607,4.443-8.166,25.692-26.915,39.346-32.729Z" transform="translate(-1138.559 -432.716)" fill="#30313c"/>
        <path id="Trazado_686409" data-name="Trazado 686409" d="M1209.9,927.109a3.48,3.48,0,0,1-.482,1.169,3.3,3.3,0,0,1-2.606,1.528l-25.156,1.257a2.944,2.944,0,0,1-2.763-1.554,3.221,3.221,0,0,1-.346-.923,3.1,3.1,0,0,1,.852-2.878l3.323-3.322,3.572-3.571a61.286,61.286,0,0,0,22.713-2.466l.54,5.48.412,4.2A3.508,3.508,0,0,1,1209.9,927.109Z" transform="translate(-1120.972 -684.794)" fill="#404d7f"/>
        <path id="Trazado_686410" data-name="Trazado 686410" d="M1197.542,915.473s5.032-5.083,6.543-6.312,5.507.026,5.154,1.649-2.942,4.291-2.942,4.291Z" transform="translate(-1134.217 -679.457)" fill="#404d7f"/>
        <path id="Trazado_686411" data-name="Trazado 686411" d="M1209.732,950.954a.207.207,0,0,0-.129-.07.127.127,0,0,0-.046,0l-3,.14-3.71.175h-.009l-6.477.305-1.769.084-6.963.328-8.808.415-.62.029-.024,0a.2.2,0,0,0-.136.083.217.217,0,0,0-.041.175,3.4,3.4,0,0,0,1.718,2.313,3.1,3.1,0,0,0,1.6.339h.012l14.658-.731,10.5-.525a3.583,3.583,0,0,0,3.287-2.871s0-.027,0-.082A.182.182,0,0,0,1209.732,950.954Z" transform="translate(-1120.641 -708.781)" fill="#606a97"/>
        <path id="Trazado_686412" data-name="Trazado 686412" d="M1182.243,936.119s-5.1,3.283-4.388,6.245l9.664-.551A7.628,7.628,0,0,0,1182.243,936.119Z" transform="translate(-1120.494 -698.528)" fill="#606a97"/>
        <path id="Trazado_686413" data-name="Trazado 686413" d="M1265.734,934.3s-5.507.619-6.372,5.38l6.937-.056A34.486,34.486,0,0,0,1265.734,934.3Z" transform="translate(-1177.161 -697.262)" fill="#606a97"/>
        <path id="Trazado_686414" data-name="Trazado 686414" d="M1204.528,324.076s8.779,45.915,2.682,58.96c-5.128,10.973-49.993,19.9-49.993,19.9s1.451-5.993-1.614-14.6a186.87,186.87,0,0,1,24.554-16.384S1183.067,329.087,1204.528,324.076Z" transform="translate(-1105.084 -273.366)" fill="#60bf60"/>
        <rect id="Rectángulo_320020" data-name="Rectángulo 320020" width="12.885" height="20.198" transform="translate(101.355 34.254) rotate(-6.309)" fill="#f69d85"/>
        <path id="Trazado_686415" data-name="Trazado 686415" d="M1335.712,298a20.481,20.481,0,0,1-10.178,3.325l-.43-3.889Z" transform="translate(-1222.829 -254.861)" fill="#d1836b"/>
        <path id="Trazado_686416" data-name="Trazado 686416" d="M1320.539,391.229l-.777.086a21.548,21.548,0,0,1-23.786-19.05l-.071-18.807c-1.308-11.829,3.666-36.465,15.495-37.773l.777-.086a21.548,21.548,0,0,1,23.786,19.05l3.626,32.794A21.548,21.548,0,0,1,1320.539,391.229Z" transform="translate(-1202.404 -267.386)" fill="#f69d85"/>
        <path id="Trazado_686417" data-name="Trazado 686417" d="M1291.164,317.482s10.166,7.584,19.526-2.9c0,0,12.608,2.183,20.389,18.736,14.2,30.22,14.035,54.111,14.035,54.111s-8.519,4.572-29.58,2.557a125.811,125.811,0,0,0-32.346,1.407,363.332,363.332,0,0,1-2.849-37.175C1279.98,336.5,1284.989,326.639,1291.164,317.482Z" transform="translate(-1191.721 -266.773)" fill="#60bf60"/>
        <path id="Trazado_686418" data-name="Trazado 686418" d="M1331.975,307.756s-5.642,4.763-8.908,5.124a3.557,3.557,0,0,1-3.77-2.545l-3.465,2.4,3.634,7.607,3.392-5.051,3.227,4.785,9.274-10.239Z" transform="translate(-1216.388 -262.029)" fill="#f1f3f2"/>
        <path id="Trazado_686419" data-name="Trazado 686419" d="M1379.552,233.844a3.6,3.6,0,1,1-4.112-3A3.6,3.6,0,0,1,1379.552,233.844Z" transform="translate(-1255.682 -208.572)" fill="#f69d85"/>
        <path id="Trazado_686420" data-name="Trazado 686420" d="M1382.831,240.261a.2.2,0,0,1-.036.013.211.211,0,0,1-.256-.152,1.711,1.711,0,0,1,1.042-2.135c.246-.142.479-.276.519-.426a.482.482,0,0,0-.093-.339,2.139,2.139,0,0,0-2.2-.813.211.211,0,0,1-.086-.413,2.557,2.557,0,0,1,2.645,1.013.856.856,0,0,1,.137.66c-.084.32-.391.5-.716.684-.544.314-1.106.638-.844,1.666A.211.211,0,0,1,1382.831,240.261Z" transform="translate(-1262.045 -212.145)" fill="#af5945"/>
        <path id="Trazado_686421" data-name="Trazado 686421" d="M1283.771,250.335a3.6,3.6,0,1,1-4.112-3A3.6,3.6,0,0,1,1283.771,250.335Z" transform="translate(-1189.147 -220.027)" fill="#f69d85"/>
        <path id="Trazado_686422" data-name="Trazado 686422" d="M1282.485,256.863a.205.205,0,0,1-.071.018.211.211,0,0,1-.227-.194c-.082-1.057-.718-1.184-1.333-1.307a1.292,1.292,0,0,1-.9-.418.854.854,0,0,1-.082-.67,2.556,2.556,0,0,1,2.181-1.807.211.211,0,1,1,.051.418c-.063.008-1.555.209-1.819,1.475a.481.481,0,0,0,.021.351c.086.129.349.182.628.238a1.711,1.711,0,0,1,1.672,1.688A.211.211,0,0,1,1282.485,256.863Z" transform="translate(-1191.389 -223.634)" fill="#af5945"/>
        <path id="Trazado_686423" data-name="Trazado 686423" d="M1306.559,224.263h0a13.548,13.548,0,0,1-15.479-11.292l-1.086-6.948a13.548,13.548,0,0,1,11.292-15.479h0a13.548,13.548,0,0,1,15.479,11.292l1.086,6.948A13.548,13.548,0,0,1,1306.559,224.263Z" transform="translate(-1198.326 -180.492)" fill="#f69d85"/>
        <path id="Trazado_686424" data-name="Trazado 686424" d="M1331.116,264.551a3.6,3.6,0,0,1-1.419,2.951,7.782,7.782,0,0,1-6.446,1.273,3.228,3.228,0,0,1-1.787-1.668,1.065,1.065,0,0,1,.231-1.372c.9-.6,3.674-.284,5.378-1.132,1.834-.913,3.174-1.4,3.757-.751A1.257,1.257,0,0,1,1331.116,264.551Z" transform="translate(-1220.205 -231.324)" fill="#d1836b"/>
        <path id="Trazado_686425" data-name="Trazado 686425" d="M1331.116,264.551c-3.71,2.357-9.057,2.543-9.652,2.557a1.065,1.065,0,0,1,.231-1.372c.9-.6,3.674-.284,5.378-1.132,1.834-.913,3.174-1.4,3.757-.751A1.257,1.257,0,0,1,1331.116,264.551Z" transform="translate(-1220.205 -231.324)" fill="#fff"/>
        <path id="Trazado_686426" data-name="Trazado 686426" d="M1328.09,267.975a7.91,7.91,0,0,1-5.391.521,3.445,3.445,0,0,1-1.905-1.783,1.267,1.267,0,0,1,.308-1.628,5.679,5.679,0,0,1,2.265-.485,9.461,9.461,0,0,0,3.136-.66c1.981-.986,3.344-1.448,4.008-.7a1.466,1.466,0,0,1,.339.812,3.766,3.766,0,0,1-1.49,3.136A5.3,5.3,0,0,1,1328.09,267.975Zm-6.617-2.615a1,1,0,0,0-.138.075c-.446.3-.229.929-.153,1.116a3,3,0,0,0,1.669,1.551,7.567,7.567,0,0,0,6.231-1.236,3.392,3.392,0,0,0,1.349-2.766h0a1.051,1.051,0,0,0-.234-.582c-.513-.575-1.987.045-3.506.8a9.8,9.8,0,0,1-3.282.7A7.271,7.271,0,0,0,1321.473,265.36Z" transform="translate(-1219.729 -230.848)" fill="#af5945"/>
        <path id="Trazado_686427" data-name="Trazado 686427" d="M1354.571,246.15a1.441,1.441,0,1,1-1.77-.8A1.377,1.377,0,0,1,1354.571,246.15Z" transform="translate(-1241.361 -218.624)" fill="#d1836b"/>
        <path id="Trazado_686428" data-name="Trazado 686428" d="M1307.34,257.606a1.441,1.441,0,1,1-1.77-.8A1.377,1.377,0,0,1,1307.34,257.606Z" transform="translate(-1208.552 -226.582)" fill="#d1836b"/>
        <path id="Trazado_686429" data-name="Trazado 686429" d="M1296.919,165.843s1.042-4.733-1.576-6.343c-2.67-1.643-5.857,1.151-7.095,3.336a15.231,15.231,0,0,0-2.5-3.661c-2.792-2.946-8.934-.122-4.165,5.95,0,0-2.358-2.921-6.872-1.193s-1.6,6.779,2.534,7.266c0,0-5.074-.485-6.086,3.81-.48,2.038.611,3.317,2.472,3.8.319,1.641,1.213,4.709,3.6,6.565,0,0-.042-4.163,1.431-6.787a15.373,15.373,0,0,0,2.9-1.115,24.124,24.124,0,0,0,8.047-6.24,7.184,7.184,0,0,0,4.6,3.511,9.3,9.3,0,0,0,4.726-.245l-.06.082a18.342,18.342,0,0,1,5.054,6.139s3.167-5.411-1.122-8.751C1304.931,169.431,1302.7,163.534,1296.919,165.843Z" transform="translate(-1185.274 -158)" fill="#5e3628"/>
        <path id="Trazado_686430" data-name="Trazado 686430" d="M1328.8,247.537a.209.209,0,0,1-.1.019c-.2-.009-1.934-.12-2.013-1.023a41.832,41.832,0,0,1,.521-4.474.211.211,0,1,1,.416.067,39.755,39.755,0,0,0-.517,4.37c.037.424,1.1.613,1.613.638a.211.211,0,0,1,.077.4Z" transform="translate(-1223.926 -216.269)" fill="#af5945"/>
        <path id="Trazado_686431" data-name="Trazado 686431" d="M1313.65,240.387c.217.987.8,1.7,1.3,1.587s.735-1,.518-1.987-.8-1.7-1.3-1.587S1313.433,239.4,1313.65,240.387Z" transform="translate(-1214.817 -213.842)" fill="#30313c"/>
        <path id="Trazado_686432" data-name="Trazado 686432" d="M1338.074,235.828c.217.987.8,1.7,1.3,1.587s.735-1,.518-1.987-.8-1.7-1.3-1.587S1337.857,234.842,1338.074,235.828Z" transform="translate(-1231.783 -210.676)" fill="#30313c"/>
        <path id="Trazado_686433" data-name="Trazado 686433" d="M1308.653,228.04a.358.358,0,0,1-.16.032,6.482,6.482,0,0,0-4.093,1.609.354.354,0,0,1-.481-.519,7.128,7.128,0,0,1,4.6-1.8.354.354,0,0,1,.134.675Z" transform="translate(-1208.034 -206.183)" fill="#af5945"/>
        <path id="Trazado_686434" data-name="Trazado 686434" d="M1339.928,223.669a.354.354,0,0,1-.273.009c-2.774-1.049-4.169.143-4.183.155a.354.354,0,0,1-.468-.53c.069-.061,1.732-1.486,4.9-.287a.354.354,0,0,1,.022.652Z" transform="translate(-1229.623 -202.832)" fill="#af5945"/>
        <path id="Trazado_686435" data-name="Trazado 686435" d="M1368.081,494.366s-.632,10.6,7.888,15.8C1375.969,510.162,1378.619,497.762,1368.081,494.366Z" transform="translate(-1252.676 -391.66)" fill="#339e33"/>
        <path id="Trazado_686436" data-name="Trazado 686436" d="M1314.427,237.542l-2.443-.924a6.429,6.429,0,0,0-2.912-.142,6.014,6.014,0,0,0-1.594.557,17.577,17.577,0,0,1-7.068,1.863l-.03,0a6.374,6.374,0,0,0-3.637,1.464l-1.358,1.4c-1.469-1.935-1.852-4.008-2.508-5.475-.664-1.483-1.553-3.5-1.553-3.5s-.69,7.389,2.765,12.832c5.014,7.9,16.042,6.861,21.058,2.063,6.754-6.459,2.617-19.781,2.617-19.781a12.366,12.366,0,0,0-1.42,4.127C1315.83,236.77,1314.427,237.542,1314.427,237.542Zm-2.831,1.389c.422,1.322-1.163,5.079-5.528,5.976-4.634.953-6.473-.664-7.234-2.326a1.73,1.73,0,0,1-.156-.853,1.878,1.878,0,0,1,1.829-1.678,21.438,21.438,0,0,0,8.2-2.267,1.9,1.9,0,0,1,1.373-.129A2.123,2.123,0,0,1,1311.6,238.93Z" transform="translate(-1199.324 -206.557)" fill="#5e3628"/>
        <path id="Trazado_686437" data-name="Trazado 686437" d="M1394.724,381.48l-43.944,16.846a5.591,5.591,0,1,1-4-10.441l36.94-14.16-23.7-30.8a5.591,5.591,0,1,1,8.862-6.82l28.278,36.745a5.591,5.591,0,0,1-2.43,8.63Z" transform="translate(-1235.39 -280.207)" fill="#f69d85"/>
        <path id="Trazado_686438" data-name="Trazado 686438" d="M1339.927,522.883a23.127,23.127,0,0,1-9.114,2.427c-4.829.23-6.5-.959-8.008-2.431s5.186-7.064,8.34-7.669S1338.249,518.4,1339.927,522.883Z" transform="translate(-1221.081 -406.095)" fill="#f69d85"/>
        <path id="Trazado_686439" data-name="Trazado 686439" d="M1325.647,536.672a14.6,14.6,0,0,0-6.988,2.349c-.943.635-2.533,2.695-3.8,1.331-1.588-1.978,7.294-7.571,9.026-8.265C1328.267,529.522,1330,536.668,1325.647,536.672Z" transform="translate(-1215.58 -417.477)" fill="#f69d85"/>
        <path id="Trazado_686440" data-name="Trazado 686440" d="M1317.911,533.516a17.062,17.062,0,0,0-7.044,2.035c-1.233.392-2.753,2.53-3.921,1.042-1.048-1.645,3.612-4.241,4.787-5.115a19.058,19.058,0,0,1,5.734-2.352A2.207,2.207,0,0,1,1317.911,533.516Z" transform="translate(-1210.11 -415.797)" fill="#f69d85"/>
        <path id="Trazado_686441" data-name="Trazado 686441" d="M1313.112,526.769a16.924,16.924,0,0,0-10.638,3.4,1.171,1.171,0,0,1-1.525-1.757,18.865,18.865,0,0,1,3.929-3.194,21.055,21.055,0,0,1,8.25-2.871C1316.3,522.114,1316.286,527.025,1313.112,526.769Z" transform="translate(-1205.816 -411.091)" fill="#f69d85"/>
        <path id="Trazado_686442" data-name="Trazado 686442" d="M1315.288,514.211a25.678,25.678,0,0,0-11.666,2.2,14.364,14.364,0,0,0-3.281,2.161,1.171,1.171,0,0,1-1.683-.086c-1.606-2.22,5.947-6.016,7.664-6.634a35.1,35.1,0,0,1,9.684-2.024C1319.157,509.734,1318.429,514.56,1315.288,514.211Z" transform="translate(-1204.304 -402.398)" fill="#f69d85"/>
        <path id="Trazado_686443" data-name="Trazado 686443" d="M1320.677,543.084a.152.152,0,0,1-.123-.263,16.965,16.965,0,0,1,4.7-2.823.152.152,0,0,1,.114.283,16.643,16.643,0,0,0-4.6,2.765A.15.15,0,0,1,1320.677,543.084Z" transform="translate(-1219.635 -423.351)" fill="#af5945"/>
        <path id="Trazado_686444" data-name="Trazado 686444" d="M1313.517,536.123a.153.153,0,0,1-.115-.27,26.949,26.949,0,0,1,5.224-3.115.152.152,0,1,1,.127.277,26.648,26.648,0,0,0-5.159,3.075A.15.15,0,0,1,1313.517,536.123Z" transform="translate(-1214.661 -418.306)" fill="#af5945"/>
        <path id="Trazado_686445" data-name="Trazado 686445" d="M1310.265,528.227a.153.153,0,0,1-.1-.28,38.051,38.051,0,0,1,4.883-2.61.153.153,0,0,1,.118.281,37.64,37.64,0,0,0-4.836,2.585A.152.152,0,0,1,1310.265,528.227Z" transform="translate(-1212.402 -413.166)" fill="#af5945"/>
        <path id="Trazado_686446" data-name="Trazado 686446" d="M1371.671,313.529s12.024-3.64,25.176,9.475,26.592,30.379,23.924,41.243c-2.784,11.34-44.778,19.973-44.778,19.973s.878-8.353-7.889-15.8l24.13-10.9S1363.2,324.328,1371.671,313.529Z" transform="translate(-1252.7 -265.718)" fill="#60bf60"/>
        <path id="Trazado_686447" data-name="Trazado 686447" d="M1214.4,617.188a.231.231,0,0,1-.108-.016.228.228,0,0,1-.125-.3c4.792-11.712,25.762-25.419,25.973-25.556a.228.228,0,0,1,.248.383c-.21.136-21.062,13.766-25.8,25.346A.227.227,0,0,1,1214.4,617.188Z" transform="translate(-1145.757 -458.984)" fill="#64656e"/>
        <path id="Trazado_686448" data-name="Trazado 686448" d="M1073.549,797.16a.226.226,0,0,1-.036,0c-11.959-.757-23.848-8.163-23.967-8.238a.228.228,0,1,1,.243-.386c.118.074,11.911,7.419,23.753,8.169a.228.228,0,0,1,.007.454Z" transform="translate(-1031.336 -595.984)" fill="#64656e"/>
        <path id="Trazado_686449" data-name="Trazado 686449" d="M1077.573,784.472a.219.219,0,0,1-.047,0c-12.391-1.332-24.381-8.582-24.5-8.656a.228.228,0,1,1,.237-.389c.119.072,12.024,7.27,24.312,8.591a.228.228,0,0,1,0,.454Z" transform="translate(-1033.752 -586.878)" fill="#64656e"/>
        <path id="Trazado_686450" data-name="Trazado 686450" d="M1231.205,886.391a63.764,63.764,0,0,1-17.234-.5.228.228,0,0,1,.093-.446,67.257,67.257,0,0,0,24.7-.653.228.228,0,1,1,.092.446A71.486,71.486,0,0,1,1231.205,886.391Z" transform="translate(-1145.504 -662.87)" fill="#64656e"/>
        <path id="Trazado_686451" data-name="Trazado 686451" d="M1229.985,873.413a60.855,60.855,0,0,1-17.315-.9.228.228,0,0,1,.1-.445c.128.029,12.907,2.9,25.155-.573a.228.228,0,1,1,.125.438A45.509,45.509,0,0,1,1229.985,873.413Z" transform="translate(-1144.603 -653.629)" fill="#64656e"/>
        <path id="Trazado_686452" data-name="Trazado 686452" d="M1367.608,411.237a.228.228,0,0,1-.116-.435l23.874-10.78c-1.535-2.095-13.2-18.046-17.718-25.3a.228.228,0,0,1,.387-.241c4.81,7.721,17.735,25.324,17.865,25.5a.228.228,0,0,1-.09.343l-24.13,10.9A.231.231,0,0,1,1367.608,411.237Z" transform="translate(-1252.181 -308.304)" fill="#339e33"/>
        <path id="Trazado_686453" data-name="Trazado 686453" d="M1282.032,423.34a.228.228,0,0,1-.248-.2c-2.7-23.079,3.5-39.569,3.565-39.733a.228.228,0,1,1,.426.163c-.062.163-6.222,16.556-3.538,39.517a.228.228,0,0,1-.2.253Z" transform="translate(-1192.265 -314.479)" fill="#339e33"/>
        <path id="Trazado_686454" data-name="Trazado 686454" d="M1155.572,492.109l-54.894,6.069-11.17-31.478a4.489,4.489,0,0,1,3.737-5.964l45.725-5.056a4.49,4.49,0,0,1,4.725,2.962l11.261,31.736Z" transform="translate(-1058.989 -364.767)" fill="#404660"/>
        <path id="Trazado_686455" data-name="Trazado 686455" d="M1151.435,493.607l-50.757,5.612-11.17-31.478a4.489,4.489,0,0,1,3.737-5.964l41.588-4.6a4.49,4.49,0,0,1,4.725,2.961Z" transform="translate(-1058.989 -365.808)" fill="#606a97"/>
        <rect id="Rectángulo_320021" data-name="Rectángulo 320021" width="30.865" height="3.576" transform="translate(93.701 124.063) rotate(-6.309)" fill="#404660"/>
        <path id="Trazado_686456" data-name="Trazado 686456" d="M1393.442,525.944a.228.228,0,0,1-.064-.451,171.6,171.6,0,0,0,29.239-8.717.228.228,0,0,1,.175.421,172.094,172.094,0,0,1-29.329,8.744Z" transform="translate(-1270.128 -407.215)" fill="#339e33"/>
      </g>
      <g id="_4" data-name="4" transform="translate(840.221 424.325)">
        <path id="Trazado_686457" data-name="Trazado 686457" d="M2466.838,1079.935s-8.768.073-14.23,6.926C2452.608,1086.861,2461.3,1089.034,2466.838,1079.935Z" transform="translate(-2439.752 -1064.756)" fill="#997243"/>
        <path id="Trazado_686458" data-name="Trazado 686458" d="M2657.647,1041.045s5.4,3.709,9.072,13.123c2.663,6.816,9.5,18.091,12.342,24.65,11.5,26.5,1.449,40.361-33.847,39.3-16.674-.5-20.449-13.394-17.724-24.71,2.709-11.254,6.045-22.111,3.273-34.493,0,0,2.716-11.013,9.226-13.068S2657.647,1041.045,2657.647,1041.045Z" transform="translate(-2560.677 -1037.741)" fill="#2a3047"/>
        <rect id="Rectángulo_320022" data-name="Rectángulo 320022" width="19.855" height="12.666" transform="translate(80.593 47.924) rotate(-87.896)" fill="#f69d85"/>
        <path id="Trazado_686459" data-name="Trazado 686459" d="M2684.428,1147.367a12.4,12.4,0,0,1-9.166,1.971l.254-6.907Z" transform="translate(-2594.422 -1108.169)" fill="#d1836b"/>
        <path id="Trazado_686460" data-name="Trazado 686460" d="M2658.63,1085.178h0A13.318,13.318,0,0,1,2646,1071.209l.346-6.9a13.318,13.318,0,0,1,13.969-12.633h0a13.318,13.318,0,0,1,12.634,13.969l-.346,6.9A13.318,13.318,0,0,1,2658.63,1085.178Z" transform="translate(-2574.08 -1045.11)" fill="#f69d85"/>
        <path id="Trazado_686461" data-name="Trazado 686461" d="M2637.574,1247.88c-11.691-.43-28.953-4.263-23.813-20.145,2.639-8.156,5.969-19.192,4.137-34.039-1.432-11.611,7.987-23.237,19.885-23.172l.769.028c11.4.6,16.586,12.185,14.955,23.769a64.076,64.076,0,0,0,3.844,33.115C2665.139,1248.363,2637.574,1247.88,2637.574,1247.88Z" transform="translate(-2551.051 -1127.684)" fill="#f69d85"/>
        <path id="Trazado_686462" data-name="Trazado 686462" d="M2523.015,1105.481a7.821,7.821,0,0,0-6.721-8.785l-35.033-4.663-19.244-29.677a5.041,5.041,0,0,0-8.8,4.862l16.623,35.877a6.911,6.911,0,0,0,5.3,3.9l39.091,5.2A7.821,7.821,0,0,0,2523.015,1105.481Z" transform="translate(-2439.849 -1050.948)" fill="#f69d85"/>
        <path id="Trazado_686463" data-name="Trazado 686463" d="M2696.874,1099.083c-.049.992.321,1.817.827,1.842s.956-.759,1.005-1.751-.321-1.817-.827-1.842S2696.923,1098.09,2696.874,1099.083Z" transform="translate(-2609.431 -1076.84)" fill="#30313c"/>
        <path id="Trazado_686464" data-name="Trazado 686464" d="M2520.5,1108.519s-13.922-2.965-37.734-3.959c0,0-9.789-16.216-15.926-24.624a21.412,21.412,0,0,1-14.23,6.926s10.462,31.487,19.233,35.1,34.016,7.193,34.016,7.193Z" transform="translate(-2439.752 -1064.756)" fill="#ffb12a"/>
        <path id="Trazado_686465" data-name="Trazado 686465" d="M2670.572,1097.775c-.049.992.321,1.817.827,1.842s.956-.759,1.005-1.751-.321-1.817-.827-1.842S2670.622,1096.783,2670.572,1097.775Z" transform="translate(-2591.16 -1075.931)" fill="#30313c"/>
        <path id="Trazado_686466" data-name="Trazado 686466" d="M2708.7,1113.037a1.417,1.417,0,1,1-1.543-1.126A1.353,1.353,0,0,1,2708.7,1113.037Z" transform="translate(-2615.696 -1086.962)" fill="#e58a76"/>
        <path id="Trazado_686467" data-name="Trazado 686467" d="M2659.607,1112.491a1.417,1.417,0,1,1-1.543-1.126A1.353,1.353,0,0,1,2659.607,1112.491Z" transform="translate(-2581.594 -1086.583)" fill="#e58a76"/>
        <path id="Trazado_686468" data-name="Trazado 686468" d="M2631.754,1173.547s-6.368,1.177-12.891,10.351c-1.789,2.515-5.907,9.255-6.055,13.281-.161,4.377,4.213,7.025,3.921,14.95-.289,7.858-6.223,12.687-3.011,17.707,1.889,2.953,31.2,7.959,43.831.459,7.029-4.172-4.495-13.616-1.01-35.163,2.654-16.409-6.358-19.372-12.118-21.119,0,0-4.938,12.364-9.284,11.982C2630.674,1185.6,2631.754,1173.547,2631.754,1173.547Z" transform="translate(-2551.009 -1129.784)" fill="#ffb12a"/>
        <path id="Trazado_686469" data-name="Trazado 686469" d="M2731.414,1103.148a3.538,3.538,0,1,1-3.356-3.711A3.538,3.538,0,0,1,2731.414,1103.148Z" transform="translate(-2628.515 -1078.3)" fill="#f69d85"/>
        <path id="Trazado_686470" data-name="Trazado 686470" d="M2647.367,1041.726a9.458,9.458,0,0,0-10.375,3.638c-3.727,5.008-2.209,10.511.071,15.637C2637.064,1061,2645.576,1049.833,2647.367,1041.726Z" transform="translate(-2566.27 -1037.955)" fill="#2a3047"/>
        <path id="Trazado_686471" data-name="Trazado 686471" d="M2641.884,1100.578a3.538,3.538,0,1,1-3.356-3.711A3.538,3.538,0,0,1,2641.884,1100.578Z" transform="translate(-2566.323 -1076.514)" fill="#f69d85"/>
        <path id="Trazado_686472" data-name="Trazado 686472" d="M2682.493,1127.3a2.044,2.044,0,0,1-4.046-.031,1.531,1.531,0,0,1,.137-.621,2.032,2.032,0,0,1,1.9-1.114,2.09,2.09,0,0,1,1.755.905A1.554,1.554,0,0,1,2682.493,1127.3Z" transform="translate(-2596.634 -1096.429)" fill="#d1836b"/>
        <path id="Trazado_686473" data-name="Trazado 686473" d="M2682.551,1126.435c-2.377,1.047-3.653.211-3.653.211v0a2.033,2.033,0,0,1,1.9-1.114A2.09,2.09,0,0,1,2682.551,1126.435Z" transform="translate(-2596.946 -1096.429)" fill="#fff"/>
        <path id="Trazado_686474" data-name="Trazado 686474" d="M2640.892,1105.366a.207.207,0,0,1-.166-.216c.063-1.04-.539-1.25-1.122-1.453-.348-.121-.677-.235-.817-.529a.842.842,0,0,1,.011-.663,2.514,2.514,0,0,1,2.368-1.465.207.207,0,0,1-.007.414,2.1,2.1,0,0,0-1.971,1.19.472.472,0,0,0-.027.344c.065.138.315.224.579.316a1.682,1.682,0,0,1,1.4,1.87.207.207,0,0,1-.219.194Z" transform="translate(-2569.04 -1079.417)" fill="#af5945"/>
        <path id="Trazado_686475" data-name="Trazado 686475" d="M2734.32,1107.859a.207.207,0,0,1-.166-.184,1.682,1.682,0,0,1,1.34-1.912c.261-.1.508-.194.569-.334a.469.469,0,0,0-.037-.343,2.132,2.132,0,0,0-2.007-1.128.207.207,0,0,1-.02-.414,2.513,2.513,0,0,1,2.412,1.39.838.838,0,0,1,.032.662c-.131.3-.456.422-.8.554-.576.221-1.172.449-1.076,1.487a.207.207,0,0,1-.187.225A.215.215,0,0,1,2734.32,1107.859Z" transform="translate(-2635.086 -1081.154)" fill="#af5945"/>
        <path id="Trazado_686476" data-name="Trazado 686476" d="M2660.454,1038.015s2.755,7.261,10.024,7.438c8.537.209,12.044,11.071,12.044,11.071s4.936-8.185,3.517-14.051C2682.793,1029.055,2668.934,1025.732,2660.454,1038.015Z" transform="translate(-2584.135 -1030.337)" fill="#2a3047"/>
        <path id="Trazado_686477" data-name="Trazado 686477" d="M2666.606,1085.533a.342.342,0,0,1-.128-.054.347.347,0,0,1-.091-.482,3.36,3.36,0,0,1,2.1-1.362,2.777,2.777,0,0,1,2.206.784.348.348,0,0,1-.456.525,2.121,2.121,0,0,0-1.657-.621,2.692,2.692,0,0,0-1.616,1.066A.349.349,0,0,1,2666.606,1085.533Z" transform="translate(-2588.214 -1067.311)" fill="#af5945"/>
        <path id="Trazado_686478" data-name="Trazado 686478" d="M2692.827,1085.835a.348.348,0,0,1-.188-.575,2.749,2.749,0,0,1,1.941-.835,3.087,3.087,0,0,1,2.266,1.309.348.348,0,0,1-.537.442,2.443,2.443,0,0,0-1.74-1.056,2.067,2.067,0,0,0-1.417.61A.349.349,0,0,1,2692.827,1085.835Z" transform="translate(-2606.429 -1067.874)" fill="#af5945"/>
        <path id="Trazado_686479" data-name="Trazado 686479" d="M2681.325,1108.079a.177.177,0,0,1-.031-.009c-.183-.067-1.779-.682-1.588-1.551a40.991,40.991,0,0,1,1.8-4.043.207.207,0,0,1,.371.184,39.04,39.04,0,0,0-1.771,3.948c-.09.409.854.9,1.325,1.073a.207.207,0,0,1-.112.4Z" transform="translate(-2597.498 -1080.334)" fill="#af5945"/>
        <path id="Trazado_686480" data-name="Trazado 686480" d="M2625.117,1275.522a11.361,11.361,0,0,1-5.178-2.435.207.207,0,0,1,.281-.3,11.668,11.668,0,0,0,8.024,2.545.207.207,0,0,1,.023.414A12.5,12.5,0,0,1,2625.117,1275.522Z" transform="translate(-2555.944 -1198.681)" fill="#dbbfb2"/>
        <path id="Trazado_686481" data-name="Trazado 686481" d="M2691.844,1281.911c-.35-.07-.54-.122-.549-.125a.207.207,0,1,1,.113-.4,24.961,24.961,0,0,0,12.563-.657.207.207,0,0,1,.117.4A26.443,26.443,0,0,1,2691.844,1281.911Z" transform="translate(-2605.453 -1204.235)" fill="#997243"/>
        <path id="Trazado_686482" data-name="Trazado 686482" d="M2447.28,1056.093s-2.954-4.834-7.377-6.356-6.508-1.118-8.181-.047,3.68,7.638,6.553,8.837S2444.929,1059.936,2447.28,1056.093Z" transform="translate(-2425.024 -1043.084)" fill="#f69d85"/>
        <path id="Trazado_686483" data-name="Trazado 686483" d="M2433.016,1042.182l-.137-.276c-.044-.089-.077-.148-.112-.211s-.069-.126-.1-.184c-.068-.118-.136-.238-.206-.351-.137-.231-.279-.454-.421-.676s-.292-.438-.437-.656l-.454-.639a27.449,27.449,0,0,0-1.986-2.413,22.714,22.714,0,0,0-2.266-2.156l-.61-.493-.638-.461-.318-.228-.334-.21-.666-.417a1.217,1.217,0,0,0-1.444,1.951l.073.063.511.443.255.22.242.239.481.474.313.345c-.18-.088-.36-.182-.541-.275-.39-.205-.777-.422-1.162-.647-.77-.449-1.52-.94-2.249-1.461-.369-.256-.719-.533-1.077-.8l-.52-.425-.26-.214-.251-.223a23.753,23.753,0,0,1-1.92-1.882l-.036-.039a1.119,1.119,0,0,0-1.757,1.372,26.271,26.271,0,0,0,1.731,2.427l.232.293.241.283.17.2-.164-.114-.547-.4-.274-.2-.264-.213a24.618,24.618,0,0,1-2.038-1.8l-.037-.036a1.119,1.119,0,0,0-1.682,1.464,27.032,27.032,0,0,0,1.872,2.353l.238.27-.188-.118-.562-.4-.283-.2-.267-.215-.537-.433-.068-.055a1.117,1.117,0,0,0-1.539,1.608l.522.592.263.3.278.279.56.557.587.526c.315.274.637.537.965.8l-.487-.317-.345-.225-.323-.25-.652-.5-.083-.065a1.115,1.115,0,0,0-1.479,1.662l.66.679.333.34.355.313.717.625.758.571c.128.094.252.195.384.282l.4.26c.267.169.527.355.8.511l.824.471c.276.158.562.288.844.433a26.012,26.012,0,0,0,3.515,1.422l.911.275c.308.08.613.17.925.242s.623.147.943.21c.157.034.323.062.485.091.08.015.165.028.252.042s.167.026.286.039l.274.03a2.135,2.135,0,1,0-.02-4.244c-.027,0-.084,0-.141,0a2.109,2.109,0,0,0,.081-1.379,2.477,2.477,0,0,1,2.345-1.711,2.207,2.207,0,0,0,.062-.257c.407.631.787,1.281,1.132,1.946l.3.606c.094.2.194.407.283.611s.18.409.261.612c.044.1.081.2.119.3.021.051.038.1.054.145s.036.1.041.12a2.245,2.245,0,0,0,.175.5,2.14,2.14,0,1,0,3.833-1.906Z" transform="translate(-2410.506 -1030.222)" fill="#f69d85"/>
        <path id="Trazado_686484" data-name="Trazado 686484" d="M2427.122,1064.442a.212.212,0,0,1-.04-.012,19.4,19.4,0,0,1-4.8-3.054.207.207,0,1,1,.277-.307,18.974,18.974,0,0,0,4.687,2.979.207.207,0,0,1-.12.395Z" transform="translate(-2418.636 -1051.613)" fill="#af5945"/>
        <path id="Trazado_686485" data-name="Trazado 686485" d="M2428.271,1053.892a.205.205,0,0,1-.072-.029,31.288,31.288,0,0,1-4.8-3.819.207.207,0,0,1,.3-.29,30.882,30.882,0,0,0,4.726,3.761.208.208,0,0,1-.153.377Z" transform="translate(-2419.423 -1043.747)" fill="#af5945"/>
        <path id="Trazado_686486" data-name="Trazado 686486" d="M2437.064,1049.444a.2.2,0,0,1-.075-.031,26.129,26.129,0,0,1-3.759-3.325.207.207,0,0,1,.3-.282,26.211,26.211,0,0,0,3.686,3.263.207.207,0,0,1-.156.375Z" transform="translate(-2426.253 -1041.002)" fill="#af5945"/>
        <path id="Trazado_686487" data-name="Trazado 686487" d="M2452.895,1061a.207.207,0,0,1-.048-.391,6.689,6.689,0,0,1,2.64-.486,8.852,8.852,0,0,1-1.184-3.079.207.207,0,0,1,.409-.068,8.122,8.122,0,0,0,1.353,3.234.207.207,0,0,1-.174.338,7.018,7.018,0,0,0-2.868.437A.208.208,0,0,1,2452.895,1061Z" transform="translate(-2439.836 -1048.684)" fill="#af5945"/>
        <path id="Trazado_686488" data-name="Trazado 686488" d="M2614.99,1219.449a.187.187,0,0,1-.049-.016.207.207,0,0,1-.1-.276,40.919,40.919,0,0,1,5.984-8.7.207.207,0,1,1,.307.279,40.454,40.454,0,0,0-5.917,8.6A.207.207,0,0,1,2614.99,1219.449Z" transform="translate(-2552.437 -1155.375)" fill="#997243"/>
        <path id="Trazado_686489" data-name="Trazado 686489" d="M2456.409,1097.552a.207.207,0,0,1,.029-.41c.1-.005,9.907-.628,15-7.41a.207.207,0,0,1,.331.249c-5.211,6.939-15.208,7.569-15.309,7.575A.189.189,0,0,1,2456.409,1097.552Z" transform="translate(-2442.277 -1071.504)" fill="#997243"/>
        <path id="Trazado_686490" data-name="Trazado 686490" d="M2674.847,1389.85l12.383,59.845.281,1.358a5,5,0,0,0,.224.754l21.82,55.516a7.8,7.8,0,0,0,14.528-5.707l-21.8-55.523,1.308-58.995c.105-8.02-6.214-11.639-14.235-11.745s-14.7,3.342-14.81,11.363A15.268,15.268,0,0,0,2674.847,1389.85Z" transform="translate(-2593.924 -1269.969)" fill="#f69d85"/>
        <path id="Trazado_686491" data-name="Trazado 686491" d="M2610.754,1386.11l-2.367,61.067-.053,1.386a4.9,4.9,0,0,0,.036.786l7.833,59.133a7.8,7.8,0,0,0,15.474-2.047l-7.813-59.135,15.453-56.95a14.523,14.523,0,1,0-28.1-7.353A15.316,15.316,0,0,0,2610.754,1386.11Z" transform="translate(-2547.927 -1267.742)" fill="#f69d85"/>
        <path id="Trazado_686492" data-name="Trazado 686492" d="M2581.394,1826.483l18.819-.232,3.947-8.454,1.706,8.382,5.435-.066c4.955-10.4-.363-23.37-.363-23.37a57.077,57.077,0,0,1-17.323.293l.222,8.433-14.035,10.225A2.648,2.648,0,0,0,2581.394,1826.483Z" transform="translate(-2527.348 -1566.861)" fill="#404d7f"/>
        <path id="Trazado_686493" data-name="Trazado 686493" d="M2672.268,1834.442a1.6,1.6,0,0,1-.871-2.091h0a1.6,1.6,0,1,1,.871,2.091Zm.153-2.578a1.181,1.181,0,1,0,.449-.092A1.179,1.179,0,0,0,2672.421,1831.864Z" transform="translate(-2591.653 -1586.739)" fill="#606a97"/>
        <path id="Trazado_686494" data-name="Trazado 686494" d="M2576,1428.716c4.419-42.471,16.482-67.482,16.482-67.482s4.063.7,9.816,1.194c1.425.12,16.636,1.287,28.433-2.707,0,0,11.5,9.892,11.663,32.574.109,15.106-1.049,42.214-1.049,42.214l18.6,45.869c-36.19,17.108-76.991,9.693-76.991,9.693S2574.022,1447.713,2576,1428.716Z" transform="translate(-2525.268 -1259.111)" fill="#3e8edd"/>
        <path id="Trazado_686495" data-name="Trazado 686495" d="M2751.255,1810.212l18.212-4.749,1.8-9.155,3.671,7.726,5.26-1.371c2.311-11.281-5.972-22.6-5.972-22.6a57.063,57.063,0,0,1-16.744,4.448l2.242,8.133-11.165,13.3A2.648,2.648,0,0,0,2751.255,1810.212Z" transform="translate(-2644.899 -1551.108)" fill="#404d7f"/>
        <path id="Trazado_686496" data-name="Trazado 686496" d="M2830.8,1812.737a1.6,1.6,0,0,1-1.349-1.82h0a1.6,1.6,0,1,1,1.349,1.82Zm-.472-2.539a1.179,1.179,0,1,0,.414-.2A1.2,1.2,0,0,0,2830.331,1810.2Z" transform="translate(-2701.52 -1571.59)" fill="#606a97"/>
        <path id="Trazado_686497" data-name="Trazado 686497" d="M2653.3,1253.566l-15.194.148h0a2.154,2.154,0,0,1,2.133-2.175l10.886-.106a2.154,2.154,0,0,1,2.175,2.133Z" transform="translate(-2568.61 -1183.888)" fill="#3e8edd"/>
        <rect id="Rectángulo_320023" data-name="Rectángulo 320023" width="32.532" height="41.787" rx="12.763" transform="translate(61.181 69.82) rotate(-0.558)" fill="#606a97"/>
        <path id="Trazado_686498" data-name="Trazado 686498" d="M2697.485,1243.635l-11.614-31.252a7.821,7.821,0,1,0-14.663,5.448l8.165,21.972-30.38,5.317a5.04,5.04,0,0,0,1.051,10l40.745-1.473a7.625,7.625,0,0,0,2.32-.461A7.43,7.43,0,0,0,2697.485,1243.635Z" transform="translate(-2573.276 -1153.219)" fill="#f69d85"/>
        <path id="Trazado_686499" data-name="Trazado 686499" d="M2641.995,1333.451s-5.147-2.367-9.668-1.165-6.026,2.7-6.818,4.522,7.313,4.29,10.366,3.684S2642.184,1337.952,2641.995,1333.451Z" transform="translate(-2559.822 -1239.817)" fill="#f69d85"/>
        <path id="Trazado_686500" data-name="Trazado 686500" d="M2644.868,1330.166a22.281,22.281,0,0,0-7.906-3.591c-.369-.067-.959-.194-1.332-.229-.875,0-1.973-.376-1.825-1.453.238-1.581,2.4-1,3.527-1.064a25.363,25.363,0,0,1,10.08,2.935C2650.113,1328.384,2647.191,1332.3,2644.868,1330.166Z" transform="translate(-2565.614 -1234.142)" fill="#f69d85"/>
        <path id="Trazado_686501" data-name="Trazado 686501" d="M2620.888,1336.217a30.428,30.428,0,0,1-11.705-2.471,1.122,1.122,0,0,1,.694-2.119,25.617,25.617,0,0,0,3.027.55,28.382,28.382,0,0,0,7.6-.163C2623.771,1331.184,2624.262,1336.388,2620.888,1336.217Z" transform="translate(-2548.059 -1239.569)" fill="#f69d85"/>
        <path id="Trazado_686502" data-name="Trazado 686502" d="M2617.261,1345.134a31.72,31.72,0,0,1-11.907-1.926,1.122,1.122,0,0,1,.581-2.153,24.988,24.988,0,0,0,3.427.416,29.459,29.459,0,0,0,7.347-.523C2619.909,1340.034,2620.594,1345.147,2617.261,1345.134Z" transform="translate(-2545.363 -1245.995)" fill="#f69d85"/>
        <path id="Trazado_686503" data-name="Trazado 686503" d="M2619.21,1349.191a25.381,25.381,0,0,1-12.564-.092,1.121,1.121,0,0,1,.468-2.185c.245.023.8.069,1.029.09a22.891,22.891,0,0,0,9.683-1.8C2620.8,1343.608,2622.53,1348.545,2619.21,1349.191Z" transform="translate(-2546.195 -1248.807)" fill="#f69d85"/>
        <path id="Trazado_686504" data-name="Trazado 686504" d="M2627.023,1352.707a24.609,24.609,0,0,1-11.157,2.339,19.592,19.592,0,0,1-3.754-.525,1.118,1.118,0,0,1,.3-2.2l.927.06a19.581,19.581,0,0,0,9.5-2.15,17.735,17.735,0,0,0,2.043-1.161C2627.462,1347.026,2630.052,1351.409,2627.023,1352.707Z" transform="translate(-2549.956 -1251.34)" fill="#f69d85"/>
        <path id="Trazado_686505" data-name="Trazado 686505" d="M2622.668,1360.77a.207.207,0,0,1,.071-.408,18.96,18.96,0,0,0,5.551-.139.207.207,0,1,1,.08.407,19.413,19.413,0,0,1-5.69.142Z" transform="translate(-2557.771 -1259.458)" fill="#af5945"/>
        <path id="Trazado_686506" data-name="Trazado 686506" d="M2617.3,1351.059l-.009,0a.207.207,0,0,1,.082-.406l.01,0a31.012,31.012,0,0,0,6.012.487.207.207,0,1,1,.007.414A31.437,31.437,0,0,1,2617.3,1351.059Z" transform="translate(-2554.04 -1252.808)" fill="#af5945"/>
        <path id="Trazado_686507" data-name="Trazado 686507" d="M2624.031,1342.462c-.451-.09-.744-.158-.78-.167a.207.207,0,0,1,.095-.4,26.259,26.259,0,0,0,4.879.654.207.207,0,1,1,0,.414A23.431,23.431,0,0,1,2624.031,1342.462Z" transform="translate(-2558.18 -1246.722)" fill="#af5945"/>
        <path id="Trazado_686508" data-name="Trazado 686508" d="M2691.077,1175.07s15.736-.287,23.679,16.564,11.084,30.959,8.232,37.491c-3.6,8.255-40.427,7.542-40.427,7.542s-4.2-6.227-1.979-16.9a193.31,193.31,0,0,1,20.168-3.24S2689.479,1187.785,2691.077,1175.07Z" transform="translate(-2597.666 -1130.842)" fill="#ffb12a"/>
        <path id="Trazado_686509" data-name="Trazado 686509" d="M2717.454,1260.2a.208.208,0,0,1,.013-.409c2.93-.39,7.745-1,8.934-1.149-2.76-6.623-6.685-22.278-6.725-22.437a.207.207,0,0,1,.4-.1c.04.161,4.058,16.191,6.811,22.627a.206.206,0,0,1-.164.287c-.058.007-5.86.739-9.2,1.184A.214.214,0,0,1,2717.454,1260.2Z" transform="translate(-2623.615 -1173.133)" fill="#997243"/>
        <path id="Trazado_686510" data-name="Trazado 686510" d="M2696.478,1336.132a.206.206,0,0,1-.143-.107c-3.833-7.272-2.039-17.791-2.02-17.9a.207.207,0,0,1,.24-.168.21.21,0,0,1,.168.24c-.018.1-1.788,10.487,1.979,17.632a.207.207,0,0,1-.086.28A.2.2,0,0,1,2696.478,1336.132Z" transform="translate(-2607.354 -1230.1)" fill="#997243"/>
        <path id="Trazado_686511" data-name="Trazado 686511" d="M2672.486,1187.119a4.636,4.636,0,0,1-2.843-1.84c-3.057-4.047-1.85-12.968-1.8-13.346a.207.207,0,1,1,.41.057c-.012.091-1.236,9.13,1.718,13.039a4.22,4.22,0,0,0,2.857,1.728c6.472.9,11.272-13.782,11.32-13.931a.207.207,0,0,1,.395.127c-.2.619-4.957,15.159-11.772,14.214C2672.677,1187.154,2672.581,1187.138,2672.486,1187.119Z" transform="translate(-2589.076 -1128.539)" fill="#997243"/>
        <path id="Trazado_686512" data-name="Trazado 686512" d="M2679.508,1128.718a2.04,2.04,0,0,1-1.739-1.926,1.722,1.722,0,0,1,.156-.705,2.227,2.227,0,0,1,2.09-1.235,2.306,2.306,0,0,1,1.927,1,1.77,1.77,0,0,1,.287.974h0a1.831,1.831,0,0,1-.675,1.389,2.387,2.387,0,0,1-1.571.551A2.532,2.532,0,0,1,2679.508,1128.718Zm.9-3.411a2.082,2.082,0,0,0-.4-.041,1.838,1.838,0,0,0-1.709.991,1.312,1.312,0,0,0-.119.538,1.7,1.7,0,0,0,1.8,1.557,1.971,1.971,0,0,0,1.3-.453,1.425,1.425,0,0,0,.53-1.076,1.345,1.345,0,0,0-.221-.747A1.823,1.823,0,0,0,2680.408,1125.307Z" transform="translate(-2596.163 -1095.958)" fill="#af5945"/>
        <path id="Trazado_686513" data-name="Trazado 686513" d="M2616.452,1750.216a143.405,143.405,0,0,0,32.64-3.873,125.668,125.668,0,0,0,22.684-7.464.25.25,0,0,0-.215-.452,125.24,125.24,0,0,1-22.6,7.433c-12.639,2.984-32.142,5.774-53.284,2.114a.25.25,0,1,0-.085.493A122.381,122.381,0,0,0,2616.452,1750.216Z" transform="translate(-2538.934 -1522.166)" fill="#305777"/>
      </g>
      <g id="_3" data-name="3" transform="translate(584.184 406.9)">
        <path id="Trazado_686514" data-name="Trazado 686514" d="M1644.791,1302.408s-1.756,7.286,4,15.015A14.9,14.9,0,0,0,1644.791,1302.408Z" transform="translate(-1622.383 -1201.873)" fill="#818496"/>
        <path id="Trazado_686515" data-name="Trazado 686515" d="M1609.506,1322.641s-5.546-1.344-9.783.72-5.435,3.835-5.866,5.79,8.06,2.826,10.962,1.636S1610.565,1327.054,1609.506,1322.641Z" transform="translate(-1587.165 -1215.629)" fill="#f69d85"/>
        <path id="Trazado_686516" data-name="Trazado 686516" d="M1608.028,1318.224a25.912,25.912,0,0,0-10.238-.851c-.435.077-1.135.165-1.56.277-.874.094-1.958.577-1.693,1.646.208.985,1.255,1.023,2.058.895a21.494,21.494,0,0,1,9.872,1.989C1609.39,1323.9,1611.333,1319.021,1608.028,1318.224Z" transform="translate(-1587.62 -1212.145)" fill="#f69d85"/>
        <path id="Trazado_686517" data-name="Trazado 686517" d="M1586.222,1325.329a27.442,27.442,0,0,1-10.58,1.675,1.131,1.131,0,0,0-.276,2.229,27.76,27.76,0,0,0,4.459.63,30.892,30.892,0,0,0,7.879-.517C1590.795,1328.563,1589.086,1323.916,1586.222,1325.329Z" transform="translate(-1573.73 -1217.611)" fill="#f69d85"/>
        <path id="Trazado_686518" data-name="Trazado 686518" d="M1583.3,1330.574a24.013,24.013,0,0,1-6.836,2.211c-1.328.553-4.326-.5-4.486,1.443.052,1.962,5.5,1.319,6.945,1.36a25.343,25.343,0,0,0,6.428-1.239C1588.419,1333.156,1585.973,1328.647,1583.3,1330.574Z" transform="translate(-1571.976 -1221.111)" fill="#f69d85"/>
        <path id="Trazado_686519" data-name="Trazado 686519" d="M1585.284,1335.081a17.676,17.676,0,0,1-9.816,3.4,1.129,1.129,0,0,0-.1,2.241,19.049,19.049,0,0,0,4.639.115,21.022,21.022,0,0,0,8.2-2.531C1591.26,1336.409,1587.469,1332.226,1585.284,1335.081Z" transform="translate(-1573.675 -1223.897)" fill="#f69d85"/>
        <path id="Trazado_686520" data-name="Trazado 686520" d="M1592.707,1337.11a21.253,21.253,0,0,1-9.531,5.12c-1.339.658-4.722-.37-4.821,1.5.2,2.511,7.746.9,9.418.4a25.13,25.13,0,0,0,7.984-4.016C1598.2,1338.088,1594.7,1334.634,1592.707,1337.11Z" transform="translate(-1576.407 -1225.382)" fill="#f69d85"/>
        <path id="Trazado_686521" data-name="Trazado 686521" d="M1584.779,1336.649a13.643,13.643,0,0,0,2.5-.66.209.209,0,0,0-.151-.389,20.245,20.245,0,0,1-5.716.969.209.209,0,1,0,.008.417A23.941,23.941,0,0,0,1584.779,1336.649Z" transform="translate(-1578.388 -1224.92)" fill="#af5945"/>
        <path id="Trazado_686522" data-name="Trazado 686522" d="M1584.92,1345.354a16.932,16.932,0,0,0,2.36-.565.208.208,0,0,0,.132-.264.211.211,0,0,0-.264-.132,26.966,26.966,0,0,1-4.978.9.206.206,0,0,0-.19.226.209.209,0,0,0,.226.19C1582.285,1345.706,1583.526,1345.6,1584.92,1345.354Z" transform="translate(-1578.924 -1231.031)" fill="#af5945"/>
        <path id="Trazado_686523" data-name="Trazado 686523" d="M1591.63,1353.09h.006a20.486,20.486,0,0,0,3.786-1.175.209.209,0,0,0-.176-.379,20.433,20.433,0,0,1-3.694,1.145.209.209,0,0,0,.078.41Z" transform="translate(-1585.459 -1235.987)" fill="#af5945"/>
        <path id="Trazado_686524" data-name="Trazado 686524" d="M1624.561,1205.377l40.264-9.487a6.031,6.031,0,0,0,3.144-1.878l.36-.406,33.261-37.5c.056-.064.135-.156.19-.222a8.313,8.313,0,0,0-12.819-10.588l-30.744,37.222-36.489,13.446a4.925,4.925,0,0,0,2.832,9.414Z" transform="translate(-1604.298 -1090.636)" fill="#f69d85"/>
        <path id="Trazado_686525" data-name="Trazado 686525" d="M1713.388,1121.758s13.685,14.816,5.789,26.694-23.886,32.044-32.906,36.106-36.9,7.374-36.9,7.374.851-8.194-4-15.015l29.071-11.582s14.879-22.785,21.273-30.568A46.092,46.092,0,0,1,1713.388,1121.758Z" transform="translate(-1622.956 -1076.383)" fill="#f1f3f2"/>
        <path id="Trazado_686526" data-name="Trazado 686526" d="M1653.323,1298.468a.227.227,0,0,0,.049.1,19.572,19.572,0,0,1,4.445,15.479.227.227,0,1,0,.444.1,20.038,20.038,0,0,0-4.541-15.867.227.227,0,0,0-.4.188Z" transform="translate(-1628.482 -1198.949)" fill="#818496"/>
        <path id="Trazado_686527" data-name="Trazado 686527" d="M1664.557,1293.992a.225.225,0,0,0,.054.109c5.985,6.663,4.547,16.274,4.532,16.37a.227.227,0,0,0,.449.071c.016-.1,1.485-9.924-4.643-16.745a.227.227,0,0,0-.392.194Z" transform="translate(-1636.285 -1195.839)" fill="#818496"/>
        <path id="Trazado_686528" data-name="Trazado 686528" d="M1825.068,1617.678l6.576,64.753c4.383,9.3,23.237,9.84,20.515.139l-8.259-68.523Z" transform="translate(-1747.789 -1418.356)" fill="#f69d85"/>
        <path id="Trazado_686529" data-name="Trazado 686529" d="M1845.672,1845.081a3.5,3.5,0,0,1-.542,1.148,3.313,3.313,0,0,1-2.689,1.4l-25.279-.01a2.955,2.955,0,0,1-2.691-1.7,3.243,3.243,0,0,1-.3-.943,3.117,3.117,0,0,1,1-2.842l8.876-6.649a47.644,47.644,0,0,0,20.4-1.108l.265,1.251a52.329,52.329,0,0,1,1.079,8.368h0A3.506,3.506,0,0,1,1845.672,1845.081Z" transform="translate(-1740.19 -1571.412)" fill="#606a97"/>
        <path id="Trazado_686530" data-name="Trazado 686530" d="M1845.765,1869.193a3.372,3.372,0,0,1-3.231,2.548l-25.279-.01a3.037,3.037,0,0,1-2.991-2.64Z" transform="translate(-1740.283 -1595.525)" fill="#404d7f"/>
        <path id="Trazado_686531" data-name="Trazado 686531" d="M1977.16,1617.678l12.636,64.753c4.383,9.3,23.237,9.84,20.514.139l-14.318-68.523Z" transform="translate(-1853.441 -1418.356)" fill="#f69d85"/>
        <path id="Trazado_686532" data-name="Trazado 686532" d="M2017.609,1845.081a3.5,3.5,0,0,1-.542,1.148,3.312,3.312,0,0,1-2.689,1.4l-25.279-.01a2.955,2.955,0,0,1-2.691-1.7,3.229,3.229,0,0,1-.3-.943,3.116,3.116,0,0,1,1-2.842l8.876-6.649a47.644,47.644,0,0,0,20.4-1.108l.265,1.251a52.426,52.426,0,0,1,1.078,8.368h0A3.51,3.51,0,0,1,2017.609,1845.081Z" transform="translate(-1859.628 -1571.412)" fill="#606a97"/>
        <path id="Trazado_686533" data-name="Trazado 686533" d="M2017.7,1869.193a3.371,3.371,0,0,1-3.231,2.548l-25.278-.01a3.037,3.037,0,0,1-2.992-2.64Z" transform="translate(-1859.72 -1595.525)" fill="#404d7f"/>
        <path id="Trazado_686534" data-name="Trazado 686534" d="M1838.174,1410.849l-3.184,124.06s-11.693,4.291-27.264,1.021l-9.474-127.015Z" transform="translate(-1729.161 -1275.859)" fill="#60bf60"/>
        <path id="Trazado_686535" data-name="Trazado 686535" d="M1926.221,1415.114s21.253,95.012,25.276,122.164c0,0-11.692,4.292-27.264,1.022l-36.246-125.038Z" transform="translate(-1791.496 -1278.879)" fill="#60bf60"/>
        <rect id="Rectángulo_320024" data-name="Rectángulo 320024" width="20.002" height="12.76" transform="translate(94.809 49.987) rotate(-87.227)" fill="#f69d85"/>
        <path id="Trazado_686536" data-name="Trazado 686536" d="M1894.316,1100.641a21.621,21.621,0,0,1-10.6,1.783l.188-3.87Z" transform="translate(-1788.532 -1060.264)" fill="#d1836b"/>
        <path id="Trazado_686537" data-name="Trazado 686537" d="M1862.071,1021.776a10.474,10.474,0,0,1-.6-7.138l4.029.947A19.045,19.045,0,0,0,1862.071,1021.776Z" transform="translate(-1772.802 -1001.971)" fill="#2a3047"/>
        <path id="Trazado_686538" data-name="Trazado 686538" d="M1872.163,1030.686h0A13.417,13.417,0,0,1,1861,1015.343l1.085-6.88a13.417,13.417,0,0,1,15.343-11.163h0a13.417,13.417,0,0,1,11.163,15.343l-1.085,6.879A13.417,13.417,0,0,1,1872.163,1030.686Z" transform="translate(-1772.634 -989.812)" fill="#f69d85"/>
        <path id="Trazado_686539" data-name="Trazado 686539" d="M1948.429,1054.761a3.564,3.564,0,1,1-2.965-4.076A3.564,3.564,0,0,1,1948.429,1054.761Z" transform="translate(-1828.561 -1026.981)" fill="#f69d85"/>
        <path id="Trazado_686540" data-name="Trazado 686540" d="M1857.927,1041.99a3.564,3.564,0,1,1-2.965-4.076A3.564,3.564,0,0,1,1857.927,1041.99Z" transform="translate(-1765.693 -1018.109)" fill="#f69d85"/>
        <path id="Trazado_686541" data-name="Trazado 686541" d="M1845.563,1195.629l-.773-.037a21.339,21.339,0,0,1-20.282-22.347l1.581-32.636c.57-11.771,12.028-20.32,22.347-20.282l.774.038c9.829.476,20.852,10.575,20.282,22.347l-1.581,32.636A21.34,21.34,0,0,1,1845.563,1195.629Z" transform="translate(-1747.381 -1075.388)" fill="#f69d85"/>
        <path id="Trazado_686542" data-name="Trazado 686542" d="M1913.567,1045.788c-.156.989.127,1.854.631,1.933s1.039-.658,1.194-1.646-.127-1.854-.631-1.934S1913.722,1044.8,1913.567,1045.788Z" transform="translate(-1809.236 -1022.462)" fill="#30313c"/>
        <path id="Trazado_686543" data-name="Trazado 686543" d="M1887.359,1041.667c-.156.989.127,1.854.631,1.933s1.039-.658,1.194-1.646-.127-1.854-.631-1.933S1887.515,1040.679,1887.359,1041.667Z" transform="translate(-1791.03 -1019.599)" fill="#30313c"/>
        <path id="Trazado_686544" data-name="Trazado 686544" d="M1842.891,982.052c2.971-4.485,7.72-2.527,11.1-5.394,2.492-2.111,10.065-4.975,14.879-2.621a9.768,9.768,0,0,1,5.465,7.755,8.076,8.076,0,0,1,4.355,6.416c.509,4.118-3.236,8.645-3.236,8.645a11.188,11.188,0,0,1-5.342-6.274,18.186,18.186,0,0,1-1-5.6,33.828,33.828,0,0,0-6.076-.265c-6.193.5-6.649,4.549-12.935,5.42C1842.83,991.14,1840.83,985.162,1842.891,982.052Z" transform="translate(-1759.638 -973.153)" fill="#2a3047"/>
        <path id="Trazado_686545" data-name="Trazado 686545" d="M1924.1,1061.126a1.427,1.427,0,1,1-1.425-1.292A1.363,1.363,0,0,1,1924.1,1061.126Z" transform="translate(-1814.607 -1033.367)" fill="#d1836b"/>
        <path id="Trazado_686546" data-name="Trazado 686546" d="M1874.98,1055.334a1.427,1.427,0,1,1-1.425-1.292A1.363,1.363,0,0,1,1874.98,1055.334Z" transform="translate(-1780.487 -1029.343)" fill="#d1836b"/>
        <path id="Trazado_686547" data-name="Trazado 686547" d="M1857.174,1046.535a.209.209,0,0,0,.205-.178,1.694,1.694,0,0,0-1.238-2c-.257-.116-.5-.225-.553-.369a.475.475,0,0,1,.058-.344,2.119,2.119,0,0,1,2.083-1.019.209.209,0,0,0,.044-.415,2.532,2.532,0,0,0-2.506,1.26.846.846,0,0,0-.07.664c.115.307.435.451.773.6.567.255,1.153.519,1,1.557a.209.209,0,0,0,.175.237Z" transform="translate(-1768.69 -1021.117)" fill="#af5945"/>
        <path id="Trazado_686548" data-name="Trazado 686548" d="M1951.628,1060.069h.016a.209.209,0,0,0,.191-.225c-.084-1.047.519-1.27,1.1-1.485.348-.129.677-.25.813-.549a.846.846,0,0,0-.024-.667,2.533,2.533,0,0,0-2.413-1.429.208.208,0,0,0-.2.216.212.212,0,0,0,.216.2,2.118,2.118,0,0,1,2.008,1.16.476.476,0,0,1,.034.347c-.064.14-.313.232-.577.33a1.7,1.7,0,0,0-1.373,1.911A.209.209,0,0,0,1951.628,1060.069Z" transform="translate(-1835.346 -1030.504)" fill="#af5945"/>
        <path id="Trazado_686549" data-name="Trazado 686549" d="M1820.795,1122.169s-14.355,2.709-19.975,19.556c-6.307,18.9-9.44,49.648-6.087,70.626.52,3.254,13.939,5.562,24.485,6.072,13.632.661,36.183-1.8,41.276-5.52,6.461-4.717-5.182-31.853-6.43-46.13-1.7-19.486.032-36.193-20.524-43.986C1833.54,1122.787,1823.176,1129.333,1820.795,1122.169Z" transform="translate(-1725.769 -1076.668)" fill="#f1f3f2"/>
        <path id="Trazado_686550" data-name="Trazado 686550" d="M1893.674,1071.6a7.616,7.616,0,0,0,2.446-.41.209.209,0,1,0-.135-.4,7.516,7.516,0,0,1-5.836-.484.209.209,0,0,0-.214.358A7.771,7.771,0,0,0,1893.674,1071.6Z" transform="translate(-1792.779 -1040.623)" fill="#af5945"/>
        <path id="Trazado_686551" data-name="Trazado 686551" d="M1896.673,1053.526a.209.209,0,0,0,.083-.4c-.465-.2-1.387-.747-1.274-1.153a39.41,39.41,0,0,1,2-3.872.209.209,0,0,0-.363-.206,41.368,41.368,0,0,0-2.039,3.967c-.241.864,1.331,1.57,1.51,1.648A.206.206,0,0,0,1896.673,1053.526Z" transform="translate(-1796.405 -1024.999)" fill="#af5945"/>
        <path id="Trazado_686552" data-name="Trazado 686552" d="M1883.347,1033.882a.35.35,0,0,0,.144-.031,6.266,6.266,0,0,1,4.27-.005.35.35,0,0,0,.253-.654,6.876,6.876,0,0,0-4.813.021.35.35,0,0,0,.146.669Z" transform="translate(-1788.029 -1014.553)" fill="#af5945"/>
        <path id="Trazado_686553" data-name="Trazado 686553" d="M1914.708,1037.677a.35.35,0,0,0,.22-.622,7.445,7.445,0,0,0-4.79-1.511.35.35,0,1,0,.047.7,6.9,6.9,0,0,1,4.3,1.357A.349.349,0,0,0,1914.708,1037.677Z" transform="translate(-1806.656 -1016.483)" fill="#af5945"/>
        <path id="Trazado_686554" data-name="Trazado 686554" d="M2054.254,1402.138s6.833,3.078,15.5-1.146A14.9,14.9,0,0,0,2054.254,1402.138Z" transform="translate(-1906.995 -1269.202)" fill="#818496"/>
        <path id="Trazado_686555" data-name="Trazado 686555" d="M2071.708,1412.654s-2.351,5.2-1.11,9.747,2.759,6.053,4.6,6.839,4.274-7.4,3.644-10.467S2076.241,1412.434,2071.708,1412.654Z" transform="translate(-1918.097 -1278.449)" fill="#f69d85"/>
        <path id="Trazado_686556" data-name="Trazado 686556" d="M2064.584,1415.236a25.908,25.908,0,0,0-2.738,9.9c0,.441-.049,1.146-.017,1.584-.071.876.2,2.031,1.3,1.969,1.007-.021,1.239-1.043,1.262-1.856a21.49,21.49,0,0,1,3.787-9.33C2070.416,1414.953,2065.981,1412.136,2064.584,1415.236Z" transform="translate(-1912.249 -1279.304)" fill="#f69d85"/>
        <path id="Trazado_686557" data-name="Trazado 686557" d="M2070.531,1438.578a27.445,27.445,0,0,1-.32,10.707,1.13,1.13,0,0,0,2.139.685,27.772,27.772,0,0,0,1.446-4.264,30.9,30.9,0,0,0,.956-7.837C2074.557,1434.685,2069.674,1435.5,2070.531,1438.578Z" transform="translate(-1918.055 -1294.564)" fill="#f69d85"/>
        <path id="Trazado_686558" data-name="Trazado 686558" d="M2075.675,1442.552a24.02,24.02,0,0,1,.9,7.128c.3,1.408-1.295,4.158.584,4.676,1.937.314,2.318-5.157,2.626-6.572a25.316,25.316,0,0,0-.023-6.546C2079.163,1438,2074.278,1439.566,2075.675,1442.552Z" transform="translate(-1921.701 -1297.064)" fill="#f69d85"/>
        <path id="Trazado_686559" data-name="Trazado 686559" d="M2080.452,1441.174a17.675,17.675,0,0,1,1.516,10.276,1.129,1.129,0,0,0,2.184.51,19.015,19.015,0,0,0,.974-4.537,21.021,21.021,0,0,0-.965-8.523C2082.867,1435.55,2078.053,1438.5,2080.452,1441.174Z" transform="translate(-1924.735 -1295.649)" fill="#f69d85"/>
        <path id="Trazado_686560" data-name="Trazado 686560" d="M2085.254,1426.815a21.262,21.262,0,0,1,3.26,10.316c.4,1.438-1.241,4.572.575,5.015,2.5.268,2.324-7.444,2.145-9.179a25.142,25.142,0,0,0-2.463-8.592C2087.235,1421.6,2083.19,1424.4,2085.254,1426.815Z" transform="translate(-1928.13 -1285.797)" fill="#f69d85"/>
        <path id="Trazado_686561" data-name="Trazado 686561" d="M2078.923,1460.622a13.659,13.659,0,0,0-.184-2.578.209.209,0,1,0-.411.076,20.213,20.213,0,0,1-.11,5.8.209.209,0,0,0,.412.07A23.973,23.973,0,0,0,2078.923,1460.622Z" transform="translate(-1923.64 -1309.868)" fill="#af5945"/>
        <path id="Trazado_686562" data-name="Trazado 686562" d="M2087.347,1463.8a17.047,17.047,0,0,0-.116-2.424.209.209,0,0,0-.414.057,27,27,0,0,1-.037,5.06.207.207,0,0,0,.187.229.209.209,0,0,0,.229-.186C2087.2,1466.456,2087.328,1465.216,2087.347,1463.8Z" transform="translate(-1929.589 -1312.177)" fill="#af5945"/>
        <path id="Trazado_686563" data-name="Trazado 686563" d="M2095.735,1461.522v-.006a20.487,20.487,0,0,0-.452-3.938.209.209,0,0,0-.4.1,20.463,20.463,0,0,1,.438,3.842.209.209,0,0,0,.418,0Z" transform="translate(-1935.21 -1309.554)" fill="#af5945"/>
        <path id="Trazado_686564" data-name="Trazado 686564" d="M1987.2,1223.715l-1.843-41.325a6.026,6.026,0,0,0-1.261-3.438l-.332-.429-30.671-39.648c-.053-.067-.128-.162-.183-.228a8.313,8.313,0,0,0-12.785,10.63l30.864,37.122,6.435,38.351a4.924,4.924,0,0,0,9.776-1.035Z" transform="translate(-1826.378 -1086.032)" fill="#f69d85"/>
        <path id="Trazado_686565" data-name="Trazado 686565" d="M1924.929,1124a34.054,34.054,0,0,1,25.228,9c10.348,9.817,27.05,29.422,29.366,39.04s.392,37.63.392,37.63-7.893-2.358-15.5,1.146l-5.981-30.717s-24.327-25.4-28.068-34.755S1924.929,1124,1924.929,1124Z" transform="translate(-1817.158 -1077.883)" fill="#f1f3f2"/>
        <path id="Trazado_686566" data-name="Trazado 686566" d="M1872.713,1114.533l-4.838,2.139,4.144,8.446,3.885-3.15,1.89,4.078,11.188-8.622-3.561-2.516s-4.413,3.969-9.038,3.4C1873.414,1117.946,1872.713,1114.533,1872.713,1114.533Z" transform="translate(-1777.525 -1071.364)" fill="#30313c"/>
        <path id="Trazado_686567" data-name="Trazado 686567" d="M1958.187,1216.448a.227.227,0,0,0,.171-.377c-.1-.115-10.167-11.636-14.395-19.173a.227.227,0,0,0-.4.222c4.252,7.579,14.348,19.135,14.449,19.25A.227.227,0,0,0,1958.187,1216.448Z" transform="translate(-1830.084 -1128.499)" fill="#818496"/>
        <path id="Trazado_686568" data-name="Trazado 686568" d="M2051.948,1393.177a.226.226,0,0,0,.11-.029,19.57,19.57,0,0,1,16.036-1.493.227.227,0,0,0,.177-.418,20.039,20.039,0,0,0-16.435,1.514.227.227,0,0,0,.111.426Z" transform="translate(-1905.235 -1262.82)" fill="#818496"/>
        <path id="Trazado_686569" data-name="Trazado 686569" d="M1910.483,1492.36a.223.223,0,0,0,.063-.009.228.228,0,0,0,.155-.281l-6.123-21.121a.227.227,0,0,0-.437.127l6.122,21.121A.228.228,0,0,0,1910.483,1492.36Z" transform="translate(-1802.712 -1318.837)" fill="#339e33"/>
        <path id="Trazado_686570" data-name="Trazado 686570" d="M2015.361,1542.565a.231.231,0,0,0,.047,0,.227.227,0,0,0,.176-.269l-23.893-115.429a.227.227,0,1,0-.445.092l23.893,115.43A.227.227,0,0,0,2015.361,1542.565Z" transform="translate(-1863.222 -1288.2)" fill="#339e33"/>
        <path id="Trazado_686571" data-name="Trazado 686571" d="M1825.691,1404.028a139.389,139.389,0,0,0,14.367-.77,153.405,153.405,0,0,0,23.391-4.225.227.227,0,1,0-.124-.437,153.058,153.058,0,0,1-23.323,4.211c-12.276,1.279-30.039,1.588-44.945-4.2a.227.227,0,0,0-.165.424C1804.719,1402.845,1815.771,1404.028,1825.691,1404.028Z" transform="translate(-1726.726 -1268.685)" fill="#818496"/>
        <path id="Trazado_686572" data-name="Trazado 686572" d="M1824.618,1384.209c5.216,0,10.049-.3,14.2-.713a145.89,145.89,0,0,0,22.5-3.913.227.227,0,1,0-.123-.438,145.437,145.437,0,0,1-22.435,3.9c-12.01,1.184-29.712,1.47-45.846-3.9a.227.227,0,1,0-.143.431C1803.4,1383.114,1814.7,1384.209,1824.618,1384.209Z" transform="translate(-1725.251 -1255.173)" fill="#818496"/>
        <path id="Trazado_686573" data-name="Trazado 686573" d="M2049.636,1381.38a.225.225,0,0,0,.117-.033c7.659-4.644,16.835-1.446,16.927-1.413a.227.227,0,1,0,.154-.428c-.094-.034-9.476-3.3-17.316,1.452a.227.227,0,0,0,.118.421Z" transform="translate(-1903.629 -1254.647)" fill="#818496"/>
        <path id="Trazado_686574" data-name="Trazado 686574" d="M1838.836,1805.249a54.891,54.891,0,0,1-11.579-1.058.249.249,0,1,1,.118-.485c.116.028,11.771,2.77,27.716-.743a.25.25,0,1,1,.107.488A76.3,76.3,0,0,1,1838.836,1805.249Z" transform="translate(-1749.177 -1549.584)" fill="#339e33"/>
        <path id="Trazado_686575" data-name="Trazado 686575" d="M2011.289,1803.667c-5.674,0-9.76-.437-9.839-.446a.249.249,0,0,1,.055-.5c.151.016,15.221,1.627,27.748-1.4a.25.25,0,1,1,.117.486A79.83,79.83,0,0,1,2011.289,1803.667Z" transform="translate(-1870.16 -1548.449)" fill="#339e33"/>
        <path id="Trazado_686576" data-name="Trazado 686576" d="M1794.178,1235.113h-.015a.25.25,0,0,1-.235-.265,119.734,119.734,0,0,1,8.2-36.191.25.25,0,1,1,.459.2,119.211,119.211,0,0,0-8.155,36.021A.25.25,0,0,1,1794.178,1235.113Z" transform="translate(-1726.157 -1129.697)" fill="#818496"/>
      </g>
      <g id="_2" data-name="2" transform="translate(451.573 481.529)">
        <path id="Trazado_686577" data-name="Trazado 686577" d="M1466.162,1494.05a1.389,1.389,0,0,1-1.389-1.389V1325.872a1.389,1.389,0,1,1,2.779,0V1492.66A1.389,1.389,0,0,1,1466.162,1494.05Z" transform="translate(-1364.896 -1291.837)" fill="#2a3047"/>
        <path id="Trazado_686578" data-name="Trazado 686578" d="M1269.879,1348.736H1170l-6.371-29.033-21.413-97.588H1242.1l21.412,97.588Z" transform="translate(-1140.83 -1220.725)" fill="#f1f3f2"/>
        <path id="Trazado_686579" data-name="Trazado 686579" d="M1510.157,1419.78a1.389,1.389,0,0,1-1.355-1.09l-44-199.434a1.389,1.389,0,0,1,2.713-.6l44,199.434a1.391,1.391,0,0,1-1.358,1.689Z" transform="translate(-1364.896 -1217.567)" fill="#2a3047"/>
        <path id="Trazado_686580" data-name="Trazado 686580" d="M1183.056,1419.779a1.389,1.389,0,0,1-1.355-1.09L1140.45,1231.7V1418.77a1.389,1.389,0,1,1-2.778,0V1218.956a1.389,1.389,0,0,1,2.746-.3l44,199.434a1.39,1.39,0,0,1-1.358,1.688Z" transform="translate(-1137.672 -1217.566)" fill="#2a3047"/>
        <path id="Trazado_686581" data-name="Trazado 686581" d="M1266.722,1634.681h0l-127.66-.153a1.389,1.389,0,0,1,0-2.779h0l127.661.154a1.389,1.389,0,0,1,0,2.778Z" transform="translate(-1137.672 -1505.282)" fill="#2a3047"/>
        <path id="Trazado_686582" data-name="Trazado 686582" d="M1335.052,1430.307a27.858,27.858,0,1,1-29.482-27.81,1.541,1.541,0,0,1,1.623,1.542v23.69a1.488,1.488,0,0,0,2.232,1.289l20.523-11.846a1.542,1.542,0,0,1,2.148.635A27.727,27.727,0,0,1,1335.052,1430.307Z" transform="translate(-1236.081 -1346.028)" fill="#3e8edd"/>
        <path id="Trazado_686583" data-name="Trazado 686583" d="M1399.965,1405.162l-20.6,11.891a1.476,1.476,0,0,1-2.214-1.278v-23.783a1.473,1.473,0,0,1,1.547-1.475,27.837,27.837,0,0,1,21.766,12.56A1.476,1.476,0,0,1,1399.965,1405.162Z" transform="translate(-1304.028 -1337.706)" fill="#ff593a"/>
        <path id="Trazado_686584" data-name="Trazado 686584" d="M1280.425,1314.613h-72.054a.834.834,0,0,1,0-1.668h72.054a.834.834,0,1,1,0,1.668Z" transform="translate(-1186.204 -1283.822)" fill="#3e8edd"/>
        <path id="Trazado_686585" data-name="Trazado 686585" d="M1409.378,1344.111h-18.734a.834.834,0,1,1,0-1.668h18.734a.834.834,0,0,1,0,1.668Z" transform="translate(-1312.822 -1304.313)" fill="#3e8edd"/>
        <path id="Trazado_686586" data-name="Trazado 686586" d="M1262.184,1344.111h-46.167a.834.834,0,0,1,0-1.668h46.167a.834.834,0,0,1,0,1.668Z" transform="translate(-1191.516 -1304.313)" fill="#3e8edd"/>
        <path id="Trazado_686587" data-name="Trazado 686587" d="M1322.7,1287.3h-51.071a.834.834,0,0,1,0-1.668H1322.7a.834.834,0,1,1,0,1.668Z" transform="translate(-1230.149 -1264.849)" fill="#3e8edd"/>
        <path id="Trazado_686588" data-name="Trazado 686588" d="M1216.851,1287.3h-13.943a.834.834,0,1,1,0-1.668h13.943a.834.834,0,0,1,0,1.668Z" transform="translate(-1182.41 -1264.849)" fill="#3e8edd"/>
      </g>
      <path id="_1" data-name="1" d="M1079.682,1879.1H170.327a.667.667,0,1,1,0-1.334h909.354a.667.667,0,1,1,0,1.334Z" transform="translate(-13.661 -1194.654)" fill="#30313c"/>
    </g>
  </g>
</svg>
