<svg xmlns="http://www.w3.org/2000/svg" width="61.966" height="63.288" viewBox="0 0 61.966 63.288">
  <g id="Grupo_907997" data-name="Grupo 907997" transform="translate(-309 -7029.742)">
    <path id="Icon_metro-chart-bars" data-name="Icon metro-chart-bars" d="M2.571,48.385H64.537v7.746H2.571Zm7.746-15.491h7.746V44.512H10.316ZM21.935,17.4h7.746v27.11H21.935ZM33.554,29.021H41.3V44.512H33.554ZM45.172,5.784h7.746V44.512H45.172Z" transform="translate(306.429 7036.899)" fill="#f6f6f6"/>
    <g id="Grupo_907996" data-name="Grupo 907996" transform="translate(316.436 7030)">
      <circle id="Elipse_7511" data-name="Elipse 7511" cx="2" cy="2" r="2" transform="translate(-0.47 17.742)" fill="#fff"/>
      <ellipse id="Elipse_7512" data-name="Elipse 7512" cx="1.5" cy="2" rx="1.5" ry="2" transform="translate(14.53 4.742)" fill="#fff"/>
      <ellipse id="Elipse_7513" data-name="Elipse 7513" cx="2" cy="1.5" rx="2" ry="1.5" transform="translate(24.53 17.742)" fill="#fff"/>
      <ellipse id="Elipse_7514" data-name="Elipse 7514" cx="1.5" cy="2" rx="1.5" ry="2" transform="translate(37.53 -0.258)" fill="#fff"/>
      <path id="Trazado_675008" data-name="Trazado 675008" d="M-8056-4649.858l14.253-13.689,10.471,12.668,12.539-17.322" transform="translate(8057.653 4669.688)" fill="none" stroke="#fff" stroke-width="1"/>
    </g>
  </g>
</svg>
