<svg xmlns="http://www.w3.org/2000/svg" width="240" height="235.76" viewBox="0 0 240 235.76">
  <g id="Grupo_913742" data-name="Grupo 913742" transform="translate(-183 -802.13)">
    <g id="Grupo_907384" data-name="Grupo 907384" transform="translate(-22.12 -853.109)">
      <g id="Grupo_109984" data-name="Grupo 109984" transform="translate(29.12 203.09)">
        <g id="image-from-rawpixel-id-5912401-jpeg" transform="translate(199.746 1467.416)" fill="#fff" stroke="#4dd0e1" stroke-width="4">
          <rect width="216.255" height="220.495" rx="49" stroke="none"/>
          <rect x="2" y="2" width="212.255" height="216.495" rx="47" fill="none"/>
        </g>
        <path id="Trazado_114005" data-name="Trazado 114005" d="M162.125,0V139.21s2.421,48.454-45.717,48.188S0,187.4,0,187.4" transform="translate(354.41 1648.031) rotate(180)" fill="none" stroke="#0b5999" stroke-width="4"/>
        <path id="Trazado_114006" data-name="Trazado 114006" d="M31.935,21.014,20.954,32.028a5.83,5.83,0,0,1-8.261,0L1.711,21.014a5.871,5.871,0,0,1,0-8.285L12.693,1.716a5.83,5.83,0,0,1,8.261,0L31.935,12.729A5.87,5.87,0,0,1,31.935,21.014Z" transform="translate(209.647 1667.047) rotate(180)" fill="#0b5999" opacity="0.999"/>
        <path id="Trazado_114007" data-name="Trazado 114007" d="M15.968,10.507l-5.491,5.507a2.915,2.915,0,0,1-4.131,0L.855,10.507a2.936,2.936,0,0,1,0-4.143L6.346.858a2.915,2.915,0,0,1,4.131,0l5.491,5.507A2.935,2.935,0,0,1,15.968,10.507Z" transform="translate(370.248 1469.022) rotate(180)" fill="#0b5999" opacity="0.999"/>
      </g>
    </g>
    <g id="Grupo_913699" data-name="Grupo 913699" transform="translate(194.539 837.023)">
      <g id="Objects" transform="translate(19.462 26.66)">
        <g id="Grupo_910905" data-name="Grupo 910905">
          <g id="Grupo_910842" data-name="Grupo 910842" transform="translate(0 61.96)">
            <g id="Grupo_910839" data-name="Grupo 910839" transform="translate(0 8.195)">
              <rect id="Rectángulo_304301" data-name="Rectángulo 304301" width="33.03" height="14.522" transform="translate(24.239 33.095) rotate(-137.21)" fill="#62d9cb"/>
              <path id="Trazado_683324" data-name="Trazado 683324" d="M37.007,277.782l20.138,18.642a1.736,1.736,0,0,0,.095,2.453l-6.37,6.882a1.736,1.736,0,0,0-2.453.095L28.278,287.212a1.736,1.736,0,0,0-.095-2.454l6.37-6.882A1.736,1.736,0,0,0,37.007,277.782Z" transform="translate(-25.659 -275.27)" fill="#fefefe"/>
              <path id="Trazado_683325" data-name="Trazado 683325" d="M52.675,306.881a2.333,2.333,0,0,0-2.349.09l-19.4-17.955a2.323,2.323,0,0,0-.091-2.351l5.684-6.139a2.333,2.333,0,0,0,2.349-.091l19.4,17.955a2.324,2.324,0,0,0,.091,2.351Z" transform="translate(-27.547 -277.156)" fill="#228f82"/>
              <path id="Trazado_683326" data-name="Trazado 683326" d="M61.882,310.061a5.175,5.175,0,1,1,.282,7.314A5.175,5.175,0,0,1,61.882,310.061Z" transform="translate(-48.628 -297.03)" fill="#62d9cb"/>
              <path id="Trazado_683327" data-name="Trazado 683327" d="M63.272,311.428a4.74,4.74,0,1,1,.258,6.7A4.739,4.739,0,0,1,63.272,311.428Z" transform="translate(-49.698 -298.1)" fill="#fefefe"/>
              <g id="Grupo_910838" data-name="Grupo 910838" transform="translate(14.577 13.929)">
                <path id="Trazado_683328" data-name="Trazado 683328" d="M72.64,317.314a1.649,1.649,0,0,1,1.032.307.047.047,0,0,0,.056-.007l.313-.349a.087.087,0,0,1,.122,0l.53.49a.085.085,0,0,1,.028.06.084.084,0,0,1-.023.062l-.329.345a.047.047,0,0,0,0,.056,1.718,1.718,0,0,1,.363,1.025,1.366,1.366,0,0,1-.395.941l-.108.116a.085.085,0,0,1-.06.028.083.083,0,0,1-.062-.023l-.572-.529a.086.086,0,0,1,0-.122l.074-.08a.6.6,0,0,0,.145-.528,1.09,1.09,0,0,0-.374-.616.784.784,0,0,0-.51-.251.521.521,0,0,0-.4.174.419.419,0,0,0-.119.288.946.946,0,0,0,.078.357q.079.2.273.591a5.5,5.5,0,0,1,.347.782,1.627,1.627,0,0,1,.074.712,1.214,1.214,0,0,1-.341.692,1.3,1.3,0,0,1-.871.447,1.592,1.592,0,0,1-.985-.268.048.048,0,0,0-.056.007l-.347.4a.087.087,0,0,1-.122,0l-.529-.49a.086.086,0,0,1,0-.122l.373-.391a.048.048,0,0,0,0-.057,1.675,1.675,0,0,1-.343-1.03,1.423,1.423,0,0,1,.4-.957l.073-.08a.086.086,0,0,1,.122,0l.577.534a.086.086,0,0,1,0,.122l-.039.042a.667.667,0,0,0-.176.54.939.939,0,0,0,.332.6.786.786,0,0,0,.469.237.479.479,0,0,0,.4-.168.45.45,0,0,0,.129-.293.942.942,0,0,0-.078-.377q-.085-.216-.3-.632a7.518,7.518,0,0,1-.341-.757,1.516,1.516,0,0,1-.076-.66,1.178,1.178,0,0,1,.34-.7A1.334,1.334,0,0,1,72.64,317.314Z" transform="translate(-69.835 -317.238)" fill="#228f82"/>
              </g>
            </g>
            <g id="Grupo_910841" data-name="Grupo 910841" transform="translate(12.398 0)">
              <rect id="Rectángulo_304302" data-name="Rectángulo 304302" width="33.03" height="14.522" transform="matrix(-0.448, -0.894, 0.894, -0.448, 14.791, 36.036)" fill="#62d9cb"/>
              <path id="Trazado_683329" data-name="Trazado 683329" d="M80.7,248.807,92.99,273.343a1.736,1.736,0,0,0-.775,2.33l-8.385,4.2a1.736,1.736,0,0,0-2.33-.775L69.212,254.561a1.736,1.736,0,0,0,.775-2.33l8.385-4.2A1.736,1.736,0,0,0,80.7,248.807Z" transform="translate(-67.213 -245.934)" fill="#fefefe"/>
              <path id="Trazado_683330" data-name="Trazado 683330" d="M85.851,280.956a2.323,2.323,0,0,0-2.233-.743L71.783,256.582a2.122,2.122,0,0,0,.16-.154,2.324,2.324,0,0,0,.581-2.078l7.481-3.746a2.323,2.323,0,0,0,2.233.743l11.835,23.632q-.084.073-.161.154a2.323,2.323,0,0,0-.581,2.077Z" transform="translate(-69.04 -247.762)" fill="#228f82"/>
              <path id="Trazado_683331" data-name="Trazado 683331" d="M95.268,285.708a5.176,5.176,0,1,1-2.31,6.945A5.176,5.176,0,0,1,95.268,285.708Z" transform="translate(-83.698 -272.318)" fill="#62d9cb"/>
              <path id="Trazado_683332" data-name="Trazado 683332" d="M96.533,287.17a4.74,4.74,0,1,1-2.116,6.36A4.74,4.74,0,0,1,96.533,287.17Z" transform="translate(-84.768 -273.389)" fill="#fefefe"/>
              <g id="Grupo_910840" data-name="Grupo 910840" transform="translate(10.772 15.747)">
                <path id="Trazado_683333" data-name="Trazado 683333" d="M103.765,295.257a1.651,1.651,0,0,1,.858.651.046.046,0,0,0,.055.013l.416-.216a.083.083,0,0,1,.066,0,.085.085,0,0,1,.05.043l.323.645a.084.084,0,0,1,.005.066.086.086,0,0,1-.043.05l-.429.207a.046.046,0,0,0-.022.051,1.716,1.716,0,0,1-.021,1.087,1.366,1.366,0,0,1-.7.743l-.142.071a.08.08,0,0,1-.066,0,.082.082,0,0,1-.05-.043l-.349-.7a.085.085,0,0,1-.005-.066.086.086,0,0,1,.044-.05l.1-.048a.6.6,0,0,0,.322-.444,1.092,1.092,0,0,0-.133-.708.783.783,0,0,0-.389-.414.52.52,0,0,0-.437.021.418.418,0,0,0-.213.228.956.956,0,0,0-.053.361c0,.141.02.357.047.65a5.482,5.482,0,0,1,.049.855,1.625,1.625,0,0,1-.181.692,1.215,1.215,0,0,1-.563.528,1.3,1.3,0,0,1-.972.112,1.593,1.593,0,0,1-.828-.6.047.047,0,0,0-.055-.013l-.464.249a.084.084,0,0,1-.066.005.082.082,0,0,1-.05-.044l-.324-.645a.085.085,0,0,1,0-.066.082.082,0,0,1,.044-.05l.487-.236a.048.048,0,0,0,.023-.052,1.677,1.677,0,0,1,.041-1.085,1.429,1.429,0,0,1,.716-.754l.1-.048a.081.081,0,0,1,.066,0,.085.085,0,0,1,.05.043l.352.7a.086.086,0,0,1-.039.116l-.051.026a.664.664,0,0,0-.354.444.94.94,0,0,0,.1.675.792.792,0,0,0,.355.387.48.48,0,0,0,.435-.016.45.45,0,0,0,.224-.229.94.94,0,0,0,.059-.381q0-.232-.058-.7a7.436,7.436,0,0,1-.052-.829,1.514,1.514,0,0,1,.161-.645,1.177,1.177,0,0,1,.564-.532A1.332,1.332,0,0,1,103.765,295.257Z" transform="translate(-99.532 -295.203)" fill="#228f82"/>
              </g>
            </g>
          </g>
          <g id="Grupo_910846" data-name="Grupo 910846" transform="translate(156.903 36.999)">
            <g id="Grupo_910843" data-name="Grupo 910843" transform="translate(9.701 28.674)">
              <path id="Trazado_683334" data-name="Trazado 683334" d="M595.209,273.608s22.749-2.039,30.169-11.952S609.809,246.439,595.209,273.608Z" transform="translate(-595.209 -253.613)" fill="#3fb8a9"/>
              <path id="Trazado_683335" data-name="Trazado 683335" d="M595.209,285.179s16.542-14.894,27.9-15.277C623.114,269.9,611.316,269.093,595.209,285.179Z" transform="translate(-595.209 -265.183)" fill="#d3d3d3" opacity="0.56" style="mix-blend-mode: multiply;isolation: isolate"/>
            </g>
            <g id="Grupo_910844" data-name="Grupo 910844" transform="translate(6.928 6.172)">
              <path id="Trazado_683336" data-name="Trazado 683336" d="M585.625,220.486s28.56-17.835,31.718-35.814S586.73,175.029,585.625,220.486Z" transform="translate(-585.625 -175.85)" fill="#62d9cb"/>
              <path id="Trazado_683337" data-name="Trazado 683337" d="M585.625,235.113s11.836-30.607,26.524-38.68C612.149,196.433,596.094,203.227,585.625,235.113Z" transform="translate(-585.625 -190.477)" fill="#d3d3d3" opacity="0.56" style="mix-blend-mode: multiply;isolation: isolate"/>
            </g>
            <g id="Grupo_910845" data-name="Grupo 910845">
              <path id="Trazado_683338" data-name="Trazado 683338" d="M567.883,206.523s18.372-28.218,13.651-45.851S549.711,164.842,567.883,206.523Z" transform="translate(-561.684 -154.52)" fill="#3fb8a9"/>
              <path id="Trazado_683339" data-name="Trazado 683339" d="M581.1,220.631s-2.179-32.743,7.733-46.258C588.832,174.373,577.141,187.305,581.1,220.631Z" transform="translate(-574.899 -168.628)" fill="#d3d3d3" opacity="0.56" style="mix-blend-mode: multiply;isolation: isolate"/>
            </g>
          </g>
          <g id="Grupo_910855" data-name="Grupo 910855" transform="translate(126.284)">
            <g id="Grupo_910850" data-name="Grupo 910850" transform="translate(21.827 10.609)">
              <g id="Grupo_910847" data-name="Grupo 910847" transform="translate(0.057)">
                <path id="Trazado_683340" data-name="Trazado 683340" d="M553.716,101.939l.509-3.933a.683.683,0,0,1,.543-.577,14.569,14.569,0,0,0,1.741-.474.679.679,0,0,1,.763.226l1.923,2.509a.678.678,0,0,0,.952.125l6.051-4.639a.679.679,0,0,0,.126-.953l-1.947-2.539a.685.685,0,0,1-.023-.792c.331-.5.757-1.121.757-1.121l3.887.506a.679.679,0,0,0,.763-.582l1.085-8.476a.682.682,0,0,0-.585-.763l-3.169-.418a.681.681,0,0,1-.574-.542,15.288,15.288,0,0,0-.474-1.741.68.68,0,0,1,.225-.762l2.509-1.923a.681.681,0,0,0,.125-.95l-4.642-6.055a.675.675,0,0,0-.95-.125l-2.539,1.947a.684.684,0,0,1-.792.023,15.638,15.638,0,0,0-1.563-.9.685.685,0,0,1-.381-.7l.414-3.132a.681.681,0,0,0-.585-.763l-8.511-1.089a.677.677,0,0,0-.76.585l-.515,3.9s-.67.218-1.239.411a.688.688,0,0,1-.765-.226l-1.923-2.509a.674.674,0,0,0-.949-.125L537.153,70a.678.678,0,0,0-.126.952l1.947,2.539a.684.684,0,0,1,.02.792,15.1,15.1,0,0,0-.9,1.563.679.679,0,0,1-.7.38l-4.081-.539a.677.677,0,0,0-.76.583L531.5,84.295l4.759.845a.682.682,0,0,1,.578.542,15.144,15.144,0,0,0,.473,1.741.679.679,0,0,1-.225.762l-2.509,1.923a.681.681,0,0,0-.126.949l4.642,6.055a.68.68,0,0,0,.95.125l2.539-1.947a.679.679,0,0,1,.793-.023,15.474,15.474,0,0,0,1.563.9.684.684,0,0,1,.38.7l-.5,3.9a.68.68,0,0,0,.582.762l7.561,1A.681.681,0,0,0,553.716,101.939ZM541.141,81.2a10.627,10.627,0,1,1,9.144,11.927A10.626,10.626,0,0,1,541.141,81.2Z" transform="translate(-531.497 -63.322)" fill="#5d95f9"/>
              </g>
              <g id="Grupo_910849" data-name="Grupo 910849" transform="translate(0 0.849)">
                <g id="Grupo_910848" data-name="Grupo 910848">
                  <path id="Trazado_683341" data-name="Trazado 683341" d="M552.606,104.019l.418-3.168a.684.684,0,0,1,.543-.578,14.618,14.618,0,0,0,1.741-.474.678.678,0,0,1,.762.226l1.923,2.509a.679.679,0,0,0,.953.125L565,98.02a.678.678,0,0,0,.126-.952l-1.947-2.54a.684.684,0,0,1-.023-.792,14.419,14.419,0,0,0,.9-1.563.679.679,0,0,1,.7-.38l3.13.414a.678.678,0,0,0,.763-.582l1-7.562a.682.682,0,0,0-.585-.763l-3.168-.418a.682.682,0,0,1-.574-.542,15.241,15.241,0,0,0-.474-1.742.678.678,0,0,1,.226-.762l2.509-1.923a.68.68,0,0,0,.125-.949l-4.642-6.055a.674.674,0,0,0-.949-.126l-2.539,1.947a.684.684,0,0,1-.792.023,15.621,15.621,0,0,0-1.563-.9.685.685,0,0,1-.38-.7l.414-3.132a.681.681,0,0,0-.585-.763l-7.561-1a.678.678,0,0,0-.76.585l-.419,3.168a.685.685,0,0,1-.545.577,14.551,14.551,0,0,0-1.739.474.688.688,0,0,1-.765-.226l-1.923-2.509a.674.674,0,0,0-.949-.125l-6.051,4.639a.678.678,0,0,0-.126.952l1.947,2.54a.682.682,0,0,1,.02.792,15.015,15.015,0,0,0-.9,1.563.681.681,0,0,1-.7.38l-3.132-.414a.676.676,0,0,0-.76.583l-1,7.562a.678.678,0,0,0,.581.762l3.168.419a.682.682,0,0,1,.578.542,15.116,15.116,0,0,0,.474,1.742.68.68,0,0,1-.225.762l-2.509,1.923a.68.68,0,0,0-.125.949l4.642,6.055a.681.681,0,0,0,.95.125l2.539-1.947a.679.679,0,0,1,.792-.023,15.362,15.362,0,0,0,1.564.9.684.684,0,0,1,.379.7l-.414,3.133a.68.68,0,0,0,.582.762l7.561,1A.682.682,0,0,0,552.606,104.019ZM539.94,84.04a10.627,10.627,0,1,1,9.144,11.927A10.626,10.626,0,0,1,539.94,84.04Z" transform="translate(-531.3 -66.256)" fill="#9dc0fc"/>
                </g>
              </g>
            </g>
            <g id="Grupo_910854" data-name="Grupo 910854">
              <g id="Grupo_910851" data-name="Grupo 910851" transform="translate(0.83)">
                <path id="Trazado_683342" data-name="Trazado 683342" d="M466.258,50.485l1.493-2.058a.439.439,0,0,1,.483-.159,9.464,9.464,0,0,0,1.126.267.435.435,0,0,1,.36.361l.313,2a.435.435,0,0,0,.5.363l4.831-.756a.434.434,0,0,0,.363-.5l-.318-2.027a.439.439,0,0,1,.23-.453,4.638,4.638,0,0,0,.692-.476l1.945,1.412a.435.435,0,0,0,.608-.094l3.378-4.3a.437.437,0,0,0-.1-.609l-1.656-1.207a.438.438,0,0,1-.156-.482,9.7,9.7,0,0,0,.267-1.126.435.435,0,0,1,.361-.36l2-.314a.436.436,0,0,0,.362-.5l-.757-4.833a.433.433,0,0,0-.5-.362l-2.027.318a.439.439,0,0,1-.453-.23,10.114,10.114,0,0,0-.6-.985.438.438,0,0,1,0-.51l1.193-1.637a.437.437,0,0,0-.1-.609l-4.459-3.223a.434.434,0,0,0-.607.1L473.55,29.54s-.444-.083-.823-.148a.442.442,0,0,1-.361-.362l-.314-2a.433.433,0,0,0-.5-.361l-4.83.756a.435.435,0,0,0-.362.5l.317,2.027a.438.438,0,0,1-.231.452,9.425,9.425,0,0,0-.985.6.437.437,0,0,1-.51,0l-2.132-1.555a.433.433,0,0,0-.607.095l-3.057,4.193,2.42,1.935a.438.438,0,0,1,.159.482,9.559,9.559,0,0,0-.267,1.127.437.437,0,0,1-.361.36l-2,.313a.437.437,0,0,0-.362.5l.757,4.833a.437.437,0,0,0,.5.362l2.027-.317a.435.435,0,0,1,.453.229,9.933,9.933,0,0,0,.605.985.439.439,0,0,1,0,.51l-1.48,2.04a.436.436,0,0,0,.094.607l3.951,2.882A.437.437,0,0,0,466.258,50.485Zm-.72-15.537a6.814,6.814,0,1,1,1.492,9.52A6.814,6.814,0,0,1,465.538,34.948Z" transform="translate(-458.739 -26.66)" fill="#5d95f9"/>
              </g>
              <g id="Grupo_910853" data-name="Grupo 910853" transform="translate(0 0.102)">
                <g id="Grupo_910852" data-name="Grupo 910852">
                  <path id="Trazado_683343" data-name="Trazado 683343" d="M463.676,50.436l1.207-1.656a.438.438,0,0,1,.483-.159,9.4,9.4,0,0,0,1.125.267.435.435,0,0,1,.36.361l.314,2a.434.434,0,0,0,.5.363l4.83-.757a.434.434,0,0,0,.363-.5l-.317-2.027a.438.438,0,0,1,.229-.453,9.127,9.127,0,0,0,.987-.6.436.436,0,0,1,.511,0L475.9,48.47a.434.434,0,0,0,.608-.094l2.882-3.952a.437.437,0,0,0-.1-.609l-1.656-1.207a.437.437,0,0,1-.157-.482A9.822,9.822,0,0,0,477.749,41a.434.434,0,0,1,.361-.36l2-.314a.436.436,0,0,0,.362-.5L479.717,35a.432.432,0,0,0-.5-.361l-2.027.317a.438.438,0,0,1-.453-.23,10.016,10.016,0,0,0-.6-.985.438.438,0,0,1,0-.51l1.194-1.637a.437.437,0,0,0-.1-.609L473.283,28.1a.434.434,0,0,0-.607.1l-1.208,1.656a.439.439,0,0,1-.484.157,9.374,9.374,0,0,0-1.125-.266.441.441,0,0,1-.361-.362l-.314-2a.432.432,0,0,0-.5-.362l-4.83.757a.435.435,0,0,0-.363.5l.318,2.027a.439.439,0,0,1-.232.452,9.486,9.486,0,0,0-.986.605.437.437,0,0,1-.51,0l-1.637-1.194a.433.433,0,0,0-.606.095l-2.881,3.952a.434.434,0,0,0,.093.608l1.656,1.208a.438.438,0,0,1,.159.482,9.634,9.634,0,0,0-.267,1.126.437.437,0,0,1-.361.36l-2,.313a.437.437,0,0,0-.362.5l.757,4.833a.436.436,0,0,0,.5.362l2.027-.317a.434.434,0,0,1,.453.23,10.1,10.1,0,0,0,.605.985.438.438,0,0,1,0,.51l-1.194,1.637a.436.436,0,0,0,.095.608l3.95,2.882A.438.438,0,0,0,463.676,50.436ZM462.671,35.3a6.814,6.814,0,1,1,1.491,9.52A6.814,6.814,0,0,1,462.671,35.3Z" transform="translate(-455.872 -27.013)" fill="#9dc0fc"/>
                </g>
              </g>
            </g>
          </g>
          <g id="Grupo_910857" data-name="Grupo 910857" transform="translate(20.087 6.362)">
            <path id="Trazado_683344" data-name="Trazado 683344" d="M133.517,57.357v48.326H88.877V48.646h35.929Z" transform="translate(-88.877 -48.646)" fill="#b0c0d2"/>
            <g id="Grupo_910856" data-name="Grupo 910856" transform="translate(3.971 4.63)">
              <rect id="Rectángulo_304303" data-name="Rectángulo 304303" width="12.81" height="15.706" fill="#4dd0e1"/>
              <rect id="Rectángulo_304304" data-name="Rectángulo 304304" width="20.96" height="2.253" transform="translate(16.349 3.242)" fill="#fff"/>
              <rect id="Rectángulo_304305" data-name="Rectángulo 304305" width="20.96" height="2.253" transform="translate(16.349 7.799)" fill="#fff"/>
              <path id="Trazado_683345" data-name="Trazado 683345" d="M120.718,73.491a2.758,2.758,0,1,1-2.744-2.772A2.758,2.758,0,0,1,120.718,73.491Z" transform="translate(-111.555 -68.962)" fill="#fefefe"/>
              <path id="Trazado_683346" data-name="Trazado 683346" d="M117.29,93.984a5.113,5.113,0,1,0-10.226,0Z" transform="translate(-105.772 -81.843)" fill="#fefefe"/>
            </g>
            <path id="Trazado_683347" data-name="Trazado 683347" d="M221.751,57.357H213.04V48.646Z" transform="translate(-177.111 -48.646)" fill="#8c9cae"/>
          </g>
          <g id="Grupo_910873" data-name="Grupo 910873" transform="translate(10.984 84.366)">
            <g id="Grupo_910862" data-name="Grupo 910862">
              <g id="Grupo_910861" data-name="Grupo 910861">
                <path id="Trazado_683348" data-name="Trazado 683348" d="M85.127,332.116A13.781,13.781,0,0,1,81.5,341.4a13.6,13.6,0,0,1-1.005,1c-.256.231-.523.452-.8.658A13.848,13.848,0,1,1,64.75,319.846c.3-.166.618-.317.935-.457a12.918,12.918,0,0,1,1.317-.5,13.857,13.857,0,0,1,18.125,13.23Z" transform="translate(-57.422 -318.213)" fill="#f48003" style="isolation: isolate"/>
                <path id="Trazado_683349" data-name="Trazado 683349" d="M86.826,334.981a12.684,12.684,0,1,1-12.635-12.733A12.684,12.684,0,0,1,86.826,334.981Z" transform="translate(-60.29 -321.08)" fill="#ffc639"/>
                <path id="Trazado_683350" data-name="Trazado 683350" d="M87.343,335.85a12.33,12.33,0,1,1-12.282-12.377A12.33,12.33,0,0,1,87.343,335.85Z" transform="translate(-61.161 -321.951)" fill="#fea839"/>
                <g id="Grupo_910859" data-name="Grupo 910859" transform="translate(9.692 5.747)">
                  <g id="Grupo_910858" data-name="Grupo 910858">
                    <path id="Trazado_683351" data-name="Trazado 683351" d="M98.34,350.217a3.8,3.8,0,0,1-2.227,1.086c-.056.022-.083.055-.083.1l.012,1.078a.189.189,0,0,1-.058.141.194.194,0,0,1-.142.058l-1.659-.006a.194.194,0,0,1-.141-.059.192.192,0,0,1-.058-.14l.021-1.1c0-.044-.027-.078-.082-.1a3.949,3.949,0,0,1-2.21-1.17,3.143,3.143,0,0,1-.8-2.21v-.365a.2.2,0,0,1,.2-.2l1.792.007a.192.192,0,0,1,.141.058.194.194,0,0,1,.057.142v.249a1.375,1.375,0,0,0,.576,1.122,2.511,2.511,0,0,0,1.591.462,1.8,1.8,0,0,0,1.254-.369,1.2,1.2,0,0,0,.41-.919.962.962,0,0,0-.246-.673,2.177,2.177,0,0,0-.687-.484q-.439-.208-1.383-.577a12.575,12.575,0,0,1-1.806-.786,3.747,3.747,0,0,1-1.232-1.092,2.793,2.793,0,0,1-.5-1.7,3,3,0,0,1,.78-2.112,3.664,3.664,0,0,1,2.087-1.079c.055-.022.083-.055.083-.1l-.029-1.211a.2.2,0,0,1,.2-.2l1.659.007a.2.2,0,0,1,.2.2l-.021,1.245c0,.044.027.078.082.1a3.852,3.852,0,0,1,2.186,1.211,3.277,3.277,0,0,1,.8,2.252v.248a.2.2,0,0,1-.2.2l-1.808-.007a.2.2,0,0,1-.2-.2v-.133A1.533,1.533,0,0,0,96.364,342a2.159,2.159,0,0,0-1.491-.5,1.819,1.819,0,0,0-1.163.328,1.106,1.106,0,0,0-.418.911,1.039,1.039,0,0,0,.238.7,2.178,2.178,0,0,0,.72.517q.48.234,1.491.6a17.158,17.158,0,0,1,1.756.754,3.5,3.5,0,0,1,1.157,1,2.71,2.71,0,0,1,.508,1.711A3.068,3.068,0,0,1,98.34,350.217Z" transform="translate(-90.916 -338.072)" fill="#f48003" style="isolation: isolate"/>
                  </g>
                </g>
                <g id="Grupo_910860" data-name="Grupo 910860" transform="translate(4.016 0.673)" opacity="0.2">
                  <path id="Trazado_683352" data-name="Trazado 683352" d="M89.562,347.064a13.868,13.868,0,0,1-3.614,2.006L71.3,326.326a13.773,13.773,0,0,1,3.312-2.469Z" transform="translate(-71.301 -322.897)" fill="#fff"/>
                  <path id="Trazado_683353" data-name="Trazado 683353" d="M101.8,343.053l-1.005,1L85.978,321.043a12.918,12.918,0,0,1,1.317-.5Z" transform="translate(-81.731 -320.54)" fill="#fff"/>
                </g>
              </g>
            </g>
            <g id="Grupo_910867" data-name="Grupo 910867" transform="translate(2.956 0.662)">
              <g id="Grupo_910866" data-name="Grupo 910866">
                <path id="Trazado_683354" data-name="Trazado 683354" d="M95.343,334.4a13.782,13.782,0,0,1-3.624,9.284,13.419,13.419,0,0,1-1.005,1c-.256.231-.523.452-.8.658a13.848,13.848,0,1,1-14.949-23.207c.3-.166.618-.317.935-.457a12.918,12.918,0,0,1,1.317-.5A13.858,13.858,0,0,1,95.343,334.4Z" transform="translate(-67.638 -320.501)" fill="#f48003" style="isolation: isolate"/>
                <path id="Trazado_683355" data-name="Trazado 683355" d="M97.042,337.269a12.684,12.684,0,1,1-12.635-12.733A12.684,12.684,0,0,1,97.042,337.269Z" transform="translate(-70.506 -323.368)" fill="#ffc639"/>
                <path id="Trazado_683356" data-name="Trazado 683356" d="M97.559,338.138a12.33,12.33,0,1,1-12.282-12.377A12.33,12.33,0,0,1,97.559,338.138Z" transform="translate(-71.377 -324.239)" fill="#fea839"/>
                <g id="Grupo_910864" data-name="Grupo 910864" transform="translate(9.692 5.747)">
                  <g id="Grupo_910863" data-name="Grupo 910863">
                    <path id="Trazado_683357" data-name="Trazado 683357" d="M108.556,352.505a3.794,3.794,0,0,1-2.228,1.086c-.056.022-.083.055-.083.1l.012,1.078a.192.192,0,0,1-.059.141.194.194,0,0,1-.141.058l-1.659-.006a.193.193,0,0,1-.141-.059.191.191,0,0,1-.058-.14l.021-1.1c0-.044-.027-.078-.083-.1a3.949,3.949,0,0,1-2.21-1.17,3.144,3.144,0,0,1-.8-2.21v-.365a.2.2,0,0,1,.2-.2l1.791.007a.192.192,0,0,1,.141.058.2.2,0,0,1,.057.142v.249a1.375,1.375,0,0,0,.576,1.122,2.511,2.511,0,0,0,1.591.462,1.8,1.8,0,0,0,1.254-.369,1.2,1.2,0,0,0,.41-.918.963.963,0,0,0-.246-.673,2.171,2.171,0,0,0-.687-.484q-.439-.209-1.383-.578a12.6,12.6,0,0,1-1.806-.786,3.748,3.748,0,0,1-1.232-1.092,2.791,2.791,0,0,1-.5-1.7,3,3,0,0,1,.78-2.112,3.662,3.662,0,0,1,2.086-1.079c.055-.022.083-.055.083-.1l-.029-1.211a.2.2,0,0,1,.2-.2l1.659.007a.191.191,0,0,1,.141.058.193.193,0,0,1,.057.141l-.021,1.245c0,.044.027.078.082.1a3.853,3.853,0,0,1,2.186,1.211,3.278,3.278,0,0,1,.8,2.252v.248a.2.2,0,0,1-.2.2l-1.809-.007a.2.2,0,0,1-.2-.2v-.133a1.531,1.531,0,0,0-.543-1.188,2.157,2.157,0,0,0-1.491-.5,1.819,1.819,0,0,0-1.163.328,1.107,1.107,0,0,0-.418.911,1.037,1.037,0,0,0,.238.7,2.177,2.177,0,0,0,.72.517q.48.234,1.491.6a17.143,17.143,0,0,1,1.756.754,3.5,3.5,0,0,1,1.157,1,2.712,2.712,0,0,1,.508,1.711A3.068,3.068,0,0,1,108.556,352.505Z" transform="translate(-101.132 -340.36)" fill="#f48003" style="isolation: isolate"/>
                  </g>
                </g>
                <g id="Grupo_910865" data-name="Grupo 910865" transform="translate(4.017 0.673)" opacity="0.2">
                  <path id="Trazado_683358" data-name="Trazado 683358" d="M99.779,349.353a13.869,13.869,0,0,1-3.614,2.006L81.518,328.614a13.756,13.756,0,0,1,3.312-2.468Z" transform="translate(-81.518 -325.186)" fill="#fff"/>
                  <path id="Trazado_683359" data-name="Trazado 683359" d="M112.012,345.342l-1.005,1L96.194,323.331a12.925,12.925,0,0,1,1.317-.5Z" transform="translate(-91.947 -322.828)" fill="#fff"/>
                </g>
              </g>
            </g>
            <g id="Grupo_910872" data-name="Grupo 910872" transform="translate(5.833 1.741)">
              <g id="Grupo_910871" data-name="Grupo 910871">
                <path id="Trazado_683360" data-name="Trazado 683360" d="M105.285,338.132a13.782,13.782,0,0,1-3.624,9.284,13.593,13.593,0,0,1-1.005,1c-.256.231-.523.452-.8.658a13.848,13.848,0,1,1-14.948-23.207c.3-.166.618-.317.935-.457a12.854,12.854,0,0,1,1.317-.5,13.857,13.857,0,0,1,18.125,13.229Z" transform="translate(-77.58 -324.229)" fill="#f48003" style="isolation: isolate"/>
                <path id="Trazado_683361" data-name="Trazado 683361" d="M106.984,341a12.684,12.684,0,1,1-12.635-12.733A12.685,12.685,0,0,1,106.984,341Z" transform="translate(-80.448 -327.097)" fill="#ffc639"/>
                <path id="Trazado_683362" data-name="Trazado 683362" d="M107.5,341.867A12.33,12.33,0,1,1,95.219,329.49,12.33,12.33,0,0,1,107.5,341.867Z" transform="translate(-81.319 -327.967)" fill="#fea839"/>
                <g id="Grupo_910869" data-name="Grupo 910869" transform="translate(9.692 5.747)">
                  <g id="Grupo_910868" data-name="Grupo 910868">
                    <path id="Trazado_683363" data-name="Trazado 683363" d="M118.5,356.234a3.8,3.8,0,0,1-2.227,1.086q-.083.033-.083.1l.012,1.079a.2.2,0,0,1-.2.2l-1.659-.006a.193.193,0,0,1-.141-.059.191.191,0,0,1-.058-.141l.021-1.1c0-.044-.027-.078-.082-.1a3.951,3.951,0,0,1-2.21-1.17,3.144,3.144,0,0,1-.8-2.21v-.365a.2.2,0,0,1,.2-.2l1.792.007a.192.192,0,0,1,.141.058.2.2,0,0,1,.057.142v.249a1.376,1.376,0,0,0,.576,1.122,2.511,2.511,0,0,0,1.591.462,1.8,1.8,0,0,0,1.254-.368,1.2,1.2,0,0,0,.41-.919.964.964,0,0,0-.246-.673,2.18,2.18,0,0,0-.687-.484q-.439-.208-1.383-.577a12.61,12.61,0,0,1-1.806-.787,3.74,3.74,0,0,1-1.232-1.092,2.792,2.792,0,0,1-.5-1.7,3,3,0,0,1,.78-2.112,3.661,3.661,0,0,1,2.087-1.079c.055-.022.083-.055.083-.1l-.029-1.212a.2.2,0,0,1,.2-.2l1.659.007a.2.2,0,0,1,.2.2l-.021,1.245c0,.044.027.078.082.1a3.852,3.852,0,0,1,2.186,1.212,3.278,3.278,0,0,1,.8,2.252v.248a.2.2,0,0,1-.2.2l-1.809-.007a.2.2,0,0,1-.2-.2v-.133a1.531,1.531,0,0,0-.543-1.188,2.158,2.158,0,0,0-1.491-.5,1.821,1.821,0,0,0-1.163.328,1.106,1.106,0,0,0-.418.911,1.038,1.038,0,0,0,.238.7,2.183,2.183,0,0,0,.72.517q.48.233,1.491.6a17.066,17.066,0,0,1,1.756.754,3.49,3.49,0,0,1,1.157,1,2.71,2.71,0,0,1,.508,1.711A3.066,3.066,0,0,1,118.5,356.234Z" transform="translate(-111.074 -344.089)" fill="#f48003" style="isolation: isolate"/>
                  </g>
                </g>
                <g id="Grupo_910870" data-name="Grupo 910870" transform="translate(4.016 0.674)" opacity="0.2">
                  <path id="Trazado_683364" data-name="Trazado 683364" d="M109.72,353.081a13.865,13.865,0,0,1-3.614,2.006L91.459,332.342a13.774,13.774,0,0,1,3.312-2.468Z" transform="translate(-91.459 -328.914)" fill="#fff"/>
                  <path id="Trazado_683365" data-name="Trazado 683365" d="M121.954,349.07l-1.005,1L106.136,327.06a12.854,12.854,0,0,1,1.317-.5Z" transform="translate(-101.889 -326.557)" fill="#fff"/>
                </g>
              </g>
            </g>
          </g>
          <g id="Grupo_910876" data-name="Grupo 910876" transform="translate(156.074 81.622)">
            <path id="Rectángulo_304306" data-name="Rectángulo 304306" d="M3.48,0h35.3a3.48,3.48,0,0,1,3.48,3.48V19.362a3.48,3.48,0,0,1-3.48,3.48H3.481A3.481,3.481,0,0,1,0,19.361V3.48A3.48,3.48,0,0,1,3.48,0Z" transform="translate(42.261 22.843) rotate(180)" fill="#fea839"/>
            <rect id="Rectángulo_304307" data-name="Rectángulo 304307" width="42.261" height="4.83" transform="translate(42.261 17.56) rotate(180)" fill="#f48003" style="isolation: isolate"/>
            <g id="Grupo_910875" data-name="Grupo 910875" transform="translate(2.798 2.569)">
              <rect id="Rectángulo_304308" data-name="Rectángulo 304308" width="10.129" height="7.136" rx="3.254" transform="translate(36.664 7.136) rotate(180)" fill="#f48003" style="isolation: isolate"/>
              <g id="Grupo_910874" data-name="Grupo 910874" transform="translate(0 1.376)">
                <rect id="Rectángulo_304309" data-name="Rectángulo 304309" width="23.687" height="1.506" transform="translate(23.687 4.385) rotate(180)" fill="#f48003" style="isolation: isolate"/>
                <rect id="Rectángulo_304310" data-name="Rectángulo 304310" width="23.687" height="1.505" transform="translate(23.687 1.505) rotate(180)" fill="#f48003" style="isolation: isolate"/>
              </g>
            </g>
          </g>
          <g id="Grupo_910882" data-name="Grupo 910882" transform="translate(38.142 30.472)">
            <path id="Trazado_683366" data-name="Trazado 683366" d="M342.362,396.1H297.524l2.79-6.916,4.057-10.05h31.145l2.813,6.968Z" transform="translate(-255.204 -307.608)" fill="#d6d6d6"/>
            <path id="Trazado_683367" data-name="Trazado 683367" d="M345.179,386.1c-5.3.477-31.006,2.526-38.014,3.082l4.057-10.05h31.145Z" transform="translate(-262.055 -307.608)" fill="#d6d6d6" style="mix-blend-mode: multiply;isolation: isolate"/>
            <rect id="Rectángulo_304311" data-name="Rectángulo 304311" width="129.479" height="77.511" rx="2.008" fill="#fff"/>
            <path id="Rectángulo_304312" data-name="Rectángulo 304312" d="M1.951,0H121.216a1.951,1.951,0,0,1,1.951,1.951V61.942a1.952,1.952,0,0,1-1.952,1.952H1.952A1.952,1.952,0,0,1,0,61.942V1.951A1.951,1.951,0,0,1,1.951,0Z" transform="translate(3.156 2.686)" fill="#b0c0d2"/>
            <path id="Rectángulo_304313" data-name="Rectángulo 304313" d="M1.92,0H118.471a1.919,1.919,0,0,1,1.919,1.919V60.252a1.919,1.919,0,0,1-1.919,1.919H1.919A1.919,1.919,0,0,1,0,60.252V1.92A1.92,1.92,0,0,1,1.92,0Z" transform="translate(5.792 4.409)" fill="#dee4f0"/>
            <circle id="Elipse_7631" data-name="Elipse 7631" cx="2.621" cy="2.621" r="2.621" transform="translate(61.712 73.898) rotate(-80.237)" fill="#b7b7b7"/>
            <rect id="Rectángulo_304314" data-name="Rectángulo 304314" width="76.494" height="2.969" rx="1.484" transform="translate(26.492 85.52)" fill="#fff"/>
            <g id="Grupo_910881" data-name="Grupo 910881" transform="translate(33.493 14.77)">
              <g id="Grupo_910877" data-name="Grupo 910877">
                <path id="Trazado_683368" data-name="Trazado 683368" d="M301.643,188.831v-5.044a.788.788,0,0,0-.8-.78H274.1a.788.788,0,0,0-.8.78V221.94a.788.788,0,0,0,.8.78h59.082a.788.788,0,0,0,.8-.78V190.39a.788.788,0,0,0-.8-.779H302.439A.788.788,0,0,1,301.643,188.831Z" transform="translate(-271.486 -183.007)" fill="#f48003" style="isolation: isolate"/>
                <path id="Trazado_683369" data-name="Trazado 683369" d="M341.69,208.8h35.677v22H340.13Z" transform="translate(-318.974 -201.335)" fill="#fefefe"/>
                <path id="Trazado_683370" data-name="Trazado 683370" d="M293.329,199.655v-4.629a.759.759,0,0,0-.8-.715H267.814a.759.759,0,0,0-.8.715v35.011a.759.759,0,0,0,.8.716H326.9a.759.759,0,0,0,.8-.716V201.086a.759.759,0,0,0-.8-.715H294.124A.759.759,0,0,1,293.329,199.655Z" transform="translate(-267.018 -191.04)" fill="#fea839"/>
              </g>
              <g id="Grupo_910880" data-name="Grupo 910880" transform="translate(23.422 12.172)">
                <path id="Rectángulo_304315" data-name="Rectángulo 304315" d="M1.041,0h13.32A1.041,1.041,0,0,1,15.4,1.041V12.782a1.042,1.042,0,0,1-1.042,1.042H1.042A1.042,1.042,0,0,1,0,12.782V1.041A1.041,1.041,0,0,1,1.041,0Z" transform="translate(0 7.392)" fill="#db1111"/>
                <g id="Grupo_910878" data-name="Grupo 910878" transform="translate(11.393)">
                  <path id="Trazado_683371" data-name="Trazado 683371" d="M387.333,233.316h1.824v-2.66a3.762,3.762,0,0,1,7.524,0H398.5a5.586,5.586,0,1,0-11.171,0Z" transform="translate(-387.333 -225.07)" fill="#db1111"/>
                </g>
                <g id="Grupo_910879" data-name="Grupo 910879" transform="translate(5.007 9.762)">
                  <circle id="Elipse_7632" data-name="Elipse 7632" cx="2.241" cy="2.241" r="2.241" transform="translate(0 4.363) rotate(-76.762)" fill="#fea839"/>
                  <path id="Trazado_683372" data-name="Trazado 683372" d="M371.975,278.484H368.4l.956-5.333h1.658Z" transform="translate(-367.495 -268.999)" fill="#fea839"/>
                </g>
              </g>
            </g>
          </g>
          <g id="Grupo_910893" data-name="Grupo 910893" transform="translate(31.64 53.466)">
            <g id="Grupo_910883" data-name="Grupo 910883" transform="translate(36.938 60.65)">
              <path id="Trazado_683373" data-name="Trazado 683373" d="M266.628,421.02l1.549,2.342-1.262,2.85-3.113-3.97Z" transform="translate(-261.676 -421.02)" fill="#303135"/>
              <path id="Trazado_683374" data-name="Trazado 683374" d="M265.547,430.286c.273.552.739,1.229-.968,2.16a11.405,11.405,0,0,0-3.639,3.028c-1.608,1.713-3.7,2.014-4.269,1.216-.516-.725-.118-1.445,1.18-2.913.036-.044.076-.091.118-.135.1-.109.2-.223.306-.34s.212-.241.312-.362l.112-.136c.161-.208.309-.411.446-.612.033-.048.066-.1.093-.145.133-.2.247-.393.352-.582l.08-.146a8.078,8.078,0,0,0,.71-1.736c1.181,1.033,2.362-1.466,2.362-1.466A15.341,15.341,0,0,1,265.547,430.286Z" transform="translate(-256.453 -426.063)" fill="#202228"/>
              <path id="Trazado_683375" data-name="Trazado 683375" d="M264.581,436.7a11.4,11.4,0,0,0-3.639,3.027c-1.482,1.579-3.371,1.956-4.105,1.381a1.34,1.34,0,0,0,.108.182c.572.8,2.661.5,4.269-1.217a11.4,11.4,0,0,1,3.639-3.028c1.707-.932,1.241-1.609.968-2.16a1.309,1.309,0,0,0-.247-.3C265.847,435.128,266.238,435.792,264.581,436.7Z" transform="translate(-256.725 -430.66)" fill="#303135" opacity="0.3" style="mix-blend-mode: multiply;isolation: isolate"/>
            </g>
            <path id="Trazado_683376" data-name="Trazado 683376" d="M214.651,315.366c2.731,6.062,1.831,6.138,2.83,16.2a32.073,32.073,0,0,1,4.2,5.064c2.363,3.515,3.559,7.049,6.221,10.779l-3.56,2.584s-10.763-12.662-12.283-14.521c-1.789-2.188-2.026-3.617-5.459-13.855Z" transform="translate(-184.085 -285.289)" fill="#151e35"/>
            <g id="Grupo_910884" data-name="Grupo 910884" transform="translate(5.337 65.878)">
              <path id="Trazado_683377" data-name="Trazado 683377" d="M176.83,440.33l-.735,2.7-3,.994.92-4.937Z" transform="translate(-165.617 -439.09)" fill="#303135"/>
              <path id="Trazado_683378" data-name="Trazado 683378" d="M158.033,453.206c-.234.57-.435,1.365-2.279.745a11.592,11.592,0,0,0-4.72-.621c-2.368-.022-3.992-1.343-3.772-2.3.2-.863,1.013-1.056,2.989-1.1.058,0,.12-.007.181,0,.147,0,.3-.006.461,0s.324-.007.482-.016l.177-.01c.265-.022.517-.051.761-.086.058-.008.117-.017.172-.03.239-.036.462-.084.675-.134l.164-.04a8.424,8.424,0,0,0,1.787-.648c.009,1.555,2.686.738,2.686.738A14.889,14.889,0,0,1,158.033,453.206Z" transform="translate(-147.243 -446.108)" fill="#202228"/>
              <path id="Trazado_683379" data-name="Trazado 683379" d="M155.834,458.108a11.583,11.583,0,0,0-4.72-.621c-2.184-.02-3.73-1.144-3.786-2.067a1.379,1.379,0,0,0-.065.2c-.22.953,1.4,2.274,3.772,2.3a11.592,11.592,0,0,1,4.72.621c1.844.619,2.045-.175,2.279-.745a1.292,1.292,0,0,0,.06-.38C157.866,457.977,157.626,458.709,155.834,458.108Z" transform="translate(-147.243 -450.694)" fill="#303135" opacity="0.3" style="mix-blend-mode: multiply;isolation: isolate"/>
            </g>
            <path id="Trazado_683380" data-name="Trazado 683380" d="M190.51,337.7c-2.275,6.926-4.059,6.886-10.837,14.51,0,0-.709,3.368-1.579,6.967-.992,4.106-2.056,7.23-3,11.7l-4.63-1.013s2.361-15.89,2.7-18.254c.4-2.783.735-2.694,6.233-13.9Z" transform="translate(-158.407 -301.163)" fill="#1c243f"/>
            <g id="Grupo_910885" data-name="Grupo 910885" transform="translate(0.191 14.486)">
              <path id="Trazado_683381" data-name="Trazado 683381" d="M137.472,303.114l-5.5,3.293-2.506.233.217,3.038,3.044-1.636s8.48-1.916,11.591-4.226c.479-.356.114-.785-.2-1.276C142.557,300.141,141.675,300.89,137.472,303.114Z" transform="translate(-129.462 -289.609)" fill="#ffaeae"/>
              <path id="Trazado_683382" data-name="Trazado 683382" d="M177.1,268.949c-.277.6-.552,1.148-.8,1.574-.863,1.48-3.314,5.236-3.314,5.236a4.178,4.178,0,0,1-3.4-2.772s1.82-4.507,2.313-5.828a39.479,39.479,0,0,1,2.324-4.7c.582-1.07,2.228-1.055,2.955-.865s1.357.748,1.543,2.521A16.94,16.94,0,0,1,177.1,268.949Z" transform="translate(-157.975 -261.49)" fill="#3f4045"/>
            </g>
            <path id="Trazado_683383" data-name="Trazado 683383" d="M189.931,252.534c-.39-.079-2.581,1.058-4.185,4.321a.243.243,0,0,0-.018.036c-.686,2.314.253,7.8.5,8.925.6,2.7,3.448,11.5,3.448,11.5s2.173-.587,5.616-1.79a14.422,14.422,0,0,0,5.084-2.948S197.607,254.1,189.931,252.534Z" transform="translate(-169.081 -240.636)" fill="#202228"/>
            <path id="Trazado_683384" data-name="Trazado 683384" d="M213.773,283.381a15.105,15.105,0,0,1-5.272,15.074c.865-.248,1.927-.577,3.151-1a14.423,14.423,0,0,0,5.084-2.948A58.845,58.845,0,0,0,213.773,283.381Z" transform="translate(-185.438 -262.56)" fill="#3f4045" opacity="0.1" style="mix-blend-mode: multiply;isolation: isolate"/>
            <path id="Trazado_683385" data-name="Trazado 683385" d="M189.981,246.727s-3.375,6.947-3.705,3.375a8.639,8.639,0,0,0-.245-1.482c-.019-.064-.037-.127-.056-.2-.089-.292-.178-.587-.271-.842,0-.009,0-.014,0-.018-.038-.109-.075-.214-.112-.3l.023-.023.321-.319,1.7-1.716.833-.837A8.749,8.749,0,0,0,189.981,246.727Z" transform="translate(-169.154 -234.833)" fill="#ffaeae"/>
            <path id="Trazado_683386" data-name="Trazado 683386" d="M188.477,246.447a5.2,5.2,0,0,1-2.447,3.653c-.019-.064-.037-.127-.056-.2-.089-.292-.178-.587-.271-.842,0-.009,0-.014,0-.018a1.252,1.252,0,0,0-.089-.328.333.333,0,0,0-.023-.059l.345-.26Z" transform="translate(-169.154 -236.314)" fill="#ffaeae" opacity="0.3" style="mix-blend-mode: multiply;isolation: isolate"/>
            <g id="Grupo_910886" data-name="Grupo 910886" transform="translate(9.426)">
              <path id="Trazado_683387" data-name="Trazado 683387" d="M163.806,221.219s-2.369-.077-1.853-2.746a1.624,1.624,0,0,0,2.277-.211,4.734,4.734,0,0,1,5.221-.852s1.638-2.6,2.81-.916c1.581,2.274.374,5.19.138,6.854-.087.614-.915.937-1.718.714A50.289,50.289,0,0,1,163.806,221.219Z" transform="translate(-161.734 -214.624)" fill="#ff4c48"/>
              <path id="Trazado_683388" data-name="Trazado 683388" d="M161.526,216.166c0-.1-.563-1.819.493-2.154a1.644,1.644,0,0,1,1.672.57c-.005-.076-1.884-1.7.608-2.249,1.054-.231,2.167.341,2.753.278,2.535-.273,2.364-1.342,3.261-1.164.877.174.434.98.434.98a1.893,1.893,0,0,1,1.372.176c.739.385.838,3.45.527,4.409s-3-2.976-3-2.976l-5.927,1.909Z" transform="translate(-161.375 -211.428)" fill="#ff4c48"/>
              <path id="Trazado_683389" data-name="Trazado 683389" d="M168.538,229.678a12.619,12.619,0,0,0,1.03,2.845c.709,1.464,1.789,3.857,4.253,3.325,2.362-.511,3.24-3.389,2.873-5.479,0,0,.3.028.485-.767s-.71-1.717-1.451-1.074c-.332.284-.2,1.05-.2,1.05l-.213.115a2.769,2.769,0,0,0-.584-1.033c-.313-.221-.967-.439-1.211-.83C173.524,227.83,170.516,229.995,168.538,229.678Z" transform="translate(-166.465 -223.084)" fill="#ffaeae"/>
              <path id="Trazado_683390" data-name="Trazado 683390" d="M172.437,244.037s.127,1.772.154,1.854a.978.978,0,0,0,1.094-.217C174.11,245.249,172.437,244.037,172.437,244.037Z" transform="translate(-169.236 -234.601)" fill="#ffaeae"/>
              <path id="Trazado_683391" data-name="Trazado 683391" d="M176.349,233.32l-5.633,3.22s-.1-.161-.2-.339c-.085-.144-.174-.3-.212-.383-.03-.062-.071-.162-.112-.276a5.971,5.971,0,0,1-.2-.828l6.224-1.782Z" transform="translate(-167.495 -226.71)" fill="#202228"/>
            </g>
            <g id="Grupo_910888" data-name="Grupo 910888" transform="translate(0.414 21.533)">
              <g id="Grupo_910887" data-name="Grupo 910887">
                <path id="Trazado_683392" data-name="Trazado 683392" d="M165.784,305.135l-34.723-.174a.832.832,0,0,1-.828-.836l.088-17.456a.832.832,0,0,1,.836-.828l34.723.175a.832.832,0,0,1,.828.836l-.088,17.456A.832.832,0,0,1,165.784,305.135Z" transform="translate(-130.233 -285.84)" fill="#4dd0e1"/>
              </g>
            </g>
            <g id="Grupo_910889" data-name="Grupo 910889" transform="translate(0 30.997)">
              <path id="Trazado_683393" data-name="Trazado 683393" d="M131.283,319.189c-.237-.949-1.881-.711-2.267-.145s-.217,4.027.221,4.016C129.909,323.044,131.795,320.98,131.283,319.189Z" transform="translate(-128.801 -318.548)" fill="#ffaeae"/>
            </g>
            <g id="Grupo_910891" data-name="Grupo 910891" transform="translate(3.267 23.37)">
              <rect id="Rectángulo_304316" data-name="Rectángulo 304316" width="1.688" height="15.581" transform="translate(11.524 0) rotate(0.288)" fill="#fefefe" opacity="0.5"/>
              <rect id="Rectángulo_304317" data-name="Rectángulo 304317" width="1.688" height="15.581" transform="translate(16.547 0.025) rotate(0.288)" fill="#fefefe" opacity="0.5"/>
              <rect id="Rectángulo_304318" data-name="Rectángulo 304318" width="1.688" height="15.581" transform="translate(21.57 0.051) rotate(0.288)" fill="#fefefe" opacity="0.5"/>
              <rect id="Rectángulo_304319" data-name="Rectángulo 304319" width="1.688" height="15.582" transform="translate(26.594 0.076) rotate(0.298)" fill="#fefefe" opacity="0.5"/>
              <g id="Grupo_910890" data-name="Grupo 910890" transform="translate(0 7.167)" opacity="0.5">
                <path id="Trazado_683394" data-name="Trazado 683394" d="M142.368,323.529a2.266,2.266,0,1,1-2.277,2.254A2.266,2.266,0,0,1,142.368,323.529Z" transform="translate(-140.091 -321.627)" fill="#fefefe"/>
                <path id="Trazado_683395" data-name="Trazado 683395" d="M159.2,316.955a4.2,4.2,0,1,0-.042,8.4Z" transform="translate(-150.672 -316.955)" fill="#fefefe"/>
              </g>
            </g>
            <g id="Grupo_910892" data-name="Grupo 910892" transform="translate(7.738 15.728)">
              <path id="Trazado_683396" data-name="Trazado 683396" d="M173.557,317.581l-3.751,5.169,1.364,1.184s7.065-5.1,9-8.431c.3-.513-.214-.757-.707-1.076C177.051,312.868,176.54,313.9,173.557,317.581Z" transform="translate(-165.679 -299.851)" fill="#ffaeae"/>
              <path id="Trazado_683397" data-name="Trazado 683397" d="M198.694,273.044c-.06.681-.133,1.316-.223,1.819-.315,1.748-1.362,6.275-1.362,6.275a4.211,4.211,0,0,1-4.176-1.562s.2-5.643.221-7.109a23.679,23.679,0,0,1,.745-4.636,2.776,2.776,0,0,1,2.357-2.043c.756-.061,1.544.272,2.325,1.951C198.872,268.358,198.869,270.934,198.694,273.044Z" transform="translate(-182.114 -265.781)" fill="#3f4045"/>
              <path id="Trazado_683398" data-name="Trazado 683398" d="M161.356,345.112a4.581,4.581,0,0,1-1.546,2.024,6.787,6.787,0,0,1-.638.4c-1.525.819-3.955-.534-3.591-1.238.94-.109,1.715-.178,2.138-.249a1.754,1.754,0,0,0,.491-.2c.387-.2.927-.491.783-.684s-.628.183-1.157.289-1.171.134-1.206-.048,1.793-1.042,2.05-1.17a8.911,8.911,0,0,1,1.314-.3Z" transform="translate(-155.544 -321.316)" fill="#ffaeae"/>
            </g>
          </g>
          <g id="Grupo_910896" data-name="Grupo 910896" transform="translate(95.058 14.573)">
            <path id="Trazado_683399" data-name="Trazado 683399" d="M360.934,78.21a.64.64,0,0,1,1.109-.005L368.6,89.43l6.554,11.225a.64.64,0,0,1-.55.963l-13,.064-13,.064a.641.641,0,0,1-.559-.958L354.49,89.5Z" transform="translate(-347.961 -77.637)" fill="#d9e4fc" style="mix-blend-mode: multiply;isolation: isolate"/>
            <g id="Grupo_910895" data-name="Grupo 910895" transform="translate(1.139)">
              <path id="Trazado_683400" data-name="Trazado 683400" d="M364.595,77.338a.627.627,0,0,1,1.086-.005L372.1,88.32l6.415,10.987a.627.627,0,0,1-.539.943l-12.723.062-12.722.063a.627.627,0,0,1-.548-.938l6.307-11.049Z" transform="translate(-351.897 -77.022)" fill="#db1111"/>
              <g id="Grupo_910894" data-name="Grupo 910894" transform="translate(12.038 6.901)">
                <path id="Trazado_683401" data-name="Trazado 683401" d="M396.094,110.515l-1.283.006-.367-9.642,1.923-.009Z" transform="translate(-394.17 -100.87)" fill="#fff"/>
                <path id="Trazado_683402" data-name="Trazado 683402" d="M396.084,138.436a1.293,1.293,0,1,1-1.3-1.287A1.293,1.293,0,0,1,396.084,138.436Z" transform="translate(-393.498 -126.652)" fill="#fff"/>
              </g>
            </g>
          </g>
          <g id="Grupo_910904" data-name="Grupo 910904" transform="translate(114.554 49.481)">
            <g id="Grupo_910897" data-name="Grupo 910897" transform="translate(24.09 15.68)">
              <path id="Trazado_683403" data-name="Trazado 683403" d="M502.728,254.855s-.978-1.938-1.977-1.9c-.841.028-2.015,1.4-2.158,1.9-.035.122-.019,1.19,2.93,1.881,1.415,1.651,6.838,8.19,10.417,8.97,2.142.466,12.221-10.554,9.319-13.579-2.136-2.226-8.247,9.442-8.9,9.324C509.138,260.863,502.728,254.855,502.728,254.855Z" transform="translate(-498.586 -251.845)" fill="#ffaeae"/>
            </g>
            <path id="Trazado_683404" data-name="Trazado 683404" d="M444.6,255.39a5.966,5.966,0,0,0-6.581,3.314l-21.444-4.33L416.247,256s-.889,4.4-.889,4.4a1.044,1.044,0,1,0,2.047.413l.716-3.548,1.846.373-.717,3.548a1.044,1.044,0,1,0,2.047.413l.717-3.549,15.438,3.118a5.966,5.966,0,1,0,7.147-5.775Zm3,5.175-.716,3.027a.868.868,0,0,1-1.69-.4l.716-3.027a.868.868,0,1,1,1.69.4Z" transform="translate(-415.337 -237.963)" fill="#fefefe"/>
            <path id="Trazado_683405" data-name="Trazado 683405" d="M440.464,264.777l-21.172-4.2s-1.061,5.457-1.061,5.457a1.045,1.045,0,0,0,1.231-.817l.716-3.548,1.846.373-.717,3.548a1.044,1.044,0,1,0,2.047.413l.717-3.549,15.438,3.118a5.966,5.966,0,0,0,10.447,4.015C444.275,272.734,440.078,268.345,440.464,264.777Z" transform="translate(-417.393 -242.373)" fill="#d9e4fc" opacity="0.6"/>
            <g id="Grupo_910903" data-name="Grupo 910903" transform="translate(20.722 0)">
              <g id="Grupo_910902" data-name="Grupo 910902">
                <g id="Grupo_910898" data-name="Grupo 910898" transform="translate(21.928 68.886)">
                  <path id="Trazado_683406" data-name="Trazado 683406" d="M583.479,435.712l.593,2.7-2.169,2.171-1.453-4.751Z" transform="translate(-575.321 -435.712)" fill="#303135"/>
                  <path id="Trazado_683407" data-name="Trazado 683407" d="M573.194,446.857c.055.6.243,1.391-1.655,1.642a11.23,11.23,0,0,0-4.417,1.492c-2.084,1-4.11.54-4.354-.4-.216-.849.4-1.369,2.118-2.257.049-.028.1-.057.156-.082.129-.065.26-.135.4-.2s.281-.146.416-.222l.151-.085c.222-.134.43-.268.627-.4.047-.033.095-.065.137-.1.193-.135.365-.274.53-.41l.126-.107a7.942,7.942,0,0,0,1.267-1.343c.72,1.368,2.69-.51,2.69-.51A15.125,15.125,0,0,1,573.194,446.857Z" transform="translate(-562.726 -441.509)" fill="#202228"/>
                  <path id="Trazado_683408" data-name="Trazado 683408" d="M571.431,454.535a11.224,11.224,0,0,0-4.417,1.492c-1.921.925-3.79.6-4.261-.187a1.3,1.3,0,0,0,.034.205c.244.935,2.27,1.4,4.354.4a11.23,11.23,0,0,1,4.417-1.492c1.9-.251,1.71-1.038,1.655-1.642a1.3,1.3,0,0,0-.122-.361C573.151,453.542,573.275,454.291,571.431,454.535Z" transform="translate(-562.745 -447.959)" fill="#303135" opacity="0.3" style="mix-blend-mode: multiply;isolation: isolate"/>
                </g>
                <path id="Trazado_683409" data-name="Trazado 683409" d="M569.54,322.672c.111,5.427-.558,7.921-2.351,16.526,0,0,.475,2.428,1.392,6.114,1.045,4.2.782,9.28,1.638,12.691l-3.8.849s-4.378-14.83-5.181-17.145c-.946-2.726-.294-3.053-.712-15.8Z" transform="translate(-539.233 -286.496)" fill="#151e35"/>
                <g id="Grupo_910899" data-name="Grupo 910899" transform="translate(8.598 69.693)">
                  <path id="Trazado_683410" data-name="Trazado 683410" d="M544.481,439.182l-.211,2.75-2.715,1.516-.023-4.946Z" transform="translate(-534.334 -438.502)" fill="#303135"/>
                  <path id="Trazado_683411" data-name="Trazado 683411" d="M527.478,451.957c-.122.595-.168,1.4-2.067,1.143a11.4,11.4,0,0,0-4.68.271c-2.295.416-4.11-.562-4.073-1.524.037-.873.785-1.209,2.689-1.612.055-.014.115-.028.174-.038.143-.028.289-.061.446-.09s.312-.066.463-.1l.17-.042c.252-.07.49-.145.72-.224.055-.019.11-.037.161-.06.224-.079.431-.167.628-.254l.151-.069a8.3,8.3,0,0,0,1.608-.957c.3,1.5,2.734.217,2.734.217A14.668,14.668,0,0,1,527.478,451.957Z" transform="translate(-516.657 -445.533)" fill="#202228"/>
                  <path id="Trazado_683412" data-name="Trazado 683412" d="M525.409,460.485a11.41,11.41,0,0,0-4.68.272c-2.115.384-3.819-.418-4.044-1.3a1.325,1.325,0,0,0-.027.206c-.037.962,1.778,1.941,4.073,1.524a11.4,11.4,0,0,1,4.68-.271c1.9.258,1.945-.548,2.067-1.143a1.289,1.289,0,0,0-.013-.378C527.35,459.984,527.252,460.736,525.409,460.485Z" transform="translate(-516.657 -453.35)" fill="#303135" opacity="0.3" style="mix-blend-mode: multiply;isolation: isolate"/>
                </g>
                <path id="Trazado_683413" data-name="Trazado 683413" d="M549.551,326.978c-.921,7.41-2.333,7.319-7.48,16.3,0,0-.385,3.919-.561,7.711a92.2,92.2,0,0,1-1.248,11.63l-3.542-.209s-1.055-15.656-1.164-18.1c-.127-2.879,0-2.845,3.245-15.178Z" transform="translate(-521.468 -289.556)" fill="#1c243f"/>
                <path id="Trazado_683414" data-name="Trazado 683414" d="M553.758,243.333a5.32,5.32,0,0,0-5.316,2.828c-1.777,3.042-2.113,10.062-2.165,11.393-.128,3.205.081,12.479.081,12.479s2.609-.014,6.826-.344a16.714,16.714,0,0,0,6.572-1.8s.982-11.849-1.7-19.326A8.308,8.308,0,0,0,553.758,243.333Z" transform="translate(-529.078 -230.061)" fill="#202228"/>
                <path id="Trazado_683415" data-name="Trazado 683415" d="M566.948,281.709c-.182,4.179.5,9.62-1.955,12.469-1.679,1.952-5.324,2.427-7.986,3.031,1.044-.023,2.331-.077,3.83-.194a16.718,16.718,0,0,0,6.572-1.8A97.766,97.766,0,0,0,566.948,281.709Z" transform="translate(-536.734 -257.387)" fill="#3f4045" opacity="0.1" style="mix-blend-mode: multiply;isolation: isolate"/>
                <path id="Trazado_683416" data-name="Trazado 683416" d="M561.458,234.018c-.741,1.381-4.073,1.555-4.089.944a7.084,7.084,0,0,0-.393-3l3.616-1.909S560.784,233.074,561.458,234.018Z" transform="translate(-536.711 -220.679)" fill="#ffaeae"/>
                <g id="Grupo_910900" data-name="Grupo 910900" transform="translate(15.979)">
                  <path id="Trazado_683417" data-name="Trazado 683417" d="M553.528,200.149a1.4,1.4,0,0,0-1.719-.811s-.607-1.752-3.033-1.406a2.859,2.859,0,0,0-4.115,2.036,4.037,4.037,0,0,0-1.648-.338c-1.042.05-1.416,2.531.6,3.3.917,2.511,2.047,4.4,4.323,5.68.494,1.514,2.86,1.153,3.9-.209C554.109,206.578,554.3,201.479,553.528,200.149Z" transform="translate(-542.166 -197.657)" fill="#894509" style="isolation: isolate"/>
                  <path id="Trazado_683418" data-name="Trazado 683418" d="M547.345,215.315a11.877,11.877,0,0,0,.253,2.838c.293,1.5,1.393,4.7,2.786,4.493a1.978,1.978,0,0,0,1.23-1.429,7.174,7.174,0,0,0,.028-1.829,1.373,1.373,0,0,0,.539-2.112c-.455-.743-.931-.425-1.222-.136a1.565,1.565,0,0,0-.072,1.176c-.362-.006-.706-1.007-1.3-1.357C548.842,216.525,548.083,216.665,547.345,215.315Z" transform="translate(-545.84 -210.205)" fill="#ffaeae"/>
                  <path id="Trazado_683419" data-name="Trazado 683419" d="M550.462,222.041l-.289-.392s-1.989-.259-2.658-.277a2.561,2.561,0,0,0,.2,1.188C548.877,222.306,550.172,222.132,550.462,222.041Z" transform="translate(-545.957 -214.51)" fill="#202228"/>
                </g>
                <g id="Grupo_910901" data-name="Grupo 910901" transform="translate(0 17.754)">
                  <path id="Trazado_683420" data-name="Trazado 683420" d="M498.071,268.539l-.723,1.821s7.725,6.493,11.9,6.463c2.5-.018,12.318-12.288,8.228-15.063-3.011-2.043-7.914,10.4-8.348,10.445C505.421,272.619,498.071,268.539,498.071,268.539Z" transform="translate(-494.338 -260.804)" fill="#ffaeae"/>
                  <path id="Trazado_683421" data-name="Trazado 683421" d="M547.429,266.526c-.353.556-.7,1.065-1,1.454-1.051,1.35-3.358,4.229-3.358,4.229a6.443,6.443,0,0,1-3.686-2.757s2.665-4.734,3.326-5.981a21.839,21.839,0,0,1,2.709-3.621,2.767,2.767,0,0,1,3.014-.657c.7.3,1.266.946,1.228,2.743C549.651,262.6,548.515,264.8,547.429,266.526Z" transform="translate(-524.211 -259.011)" fill="#3f4045"/>
                  <path id="Trazado_683422" data-name="Trazado 683422" d="M490.8,281.541a8.022,8.022,0,0,1-2.966-1.123c-1.452-1.192-.874-4.029-.023-3.909a2.912,2.912,0,0,0,.295,1.328c.071.129,1.356,1.346,1.536,1.222s-.172-.36-.472-.865-.235-.951-.06-1.052,1.1,1.363,1.318,1.58.966.888.966.888Z" transform="translate(-486.946 -271.443)" fill="#ffaeae"/>
                </g>
              </g>
              <path id="Trazado_683423" data-name="Trazado 683423" d="M498.223,258.163c1.73-.831,1.887-2.112,1.64-2.471a2.756,2.756,0,0,0-2.78,1.713C496.954,257.782,497.459,258.32,498.223,258.163Z" transform="translate(-494.135 -238.896)" fill="#ffaeae"/>
            </g>
          </g>
        </g>
      </g>
    </g>
  </g>
</svg>
