<svg xmlns="http://www.w3.org/2000/svg" xmlns:xlink="http://www.w3.org/1999/xlink" width="143.574" height="144.017" viewBox="0 0 143.574 144.017">
  <defs>
    <radialGradient id="radial-gradient" cx="0.5" cy="0.5" r="0.5" gradientUnits="objectBoundingBox">
      <stop offset="0" stop-color="#56fcfc"/>
      <stop offset="1" stop-color="#dcfef6"/>
    </radialGradient>
    <radialGradient id="radial-gradient-2" cx="0.5" cy="0.5" r="0.5" gradientUnits="objectBoundingBox">
      <stop offset="0" stop-color="#5efdfd"/>
      <stop offset="1" stop-color="#0c7e9b"/>
    </radialGradient>
    <linearGradient id="linear-gradient" x1="0.5" y1="0.963" x2="0.5" y2="-0.064" gradientUnits="objectBoundingBox">
      <stop offset="0" stop-color="#09feff"/>
      <stop offset="1" stop-color="#d9f3f3"/>
    </linearGradient>
  </defs>
  <g id="Grupo_913737" data-name="Grupo 913737" transform="translate(-1069.671 -149.358)">
    <g id="Grupo_909128" data-name="Grupo 909128" transform="translate(997.205 115.917)">
      <g id="Grupo_909109" data-name="Grupo 909109" transform="translate(126.246 119.02)" style="isolation: isolate">
        <ellipse id="Elipse_7543" data-name="Elipse 7543" cx="10.192" cy="17.595" rx="10.192" ry="17.595" transform="translate(0.383 58.339) rotate(-89.838)" fill="url(#radial-gradient)"/>
        <g id="Grupo_909106" data-name="Grupo 909106" transform="translate(0 25.069)" opacity="0.8">
          <path id="Trazado_678353" data-name="Trazado 678353" d="M230.27,177.789a25.874,25.874,0,0,1-12.663-3.03c-3.479-2.008-5.4-4.7-5.4-7.588,0-2.866,1.885-5.542,5.318-7.538,6.95-4.04,18.3-4.042,25.3,0,3.478,2.008,5.4,4.7,5.4,7.588,0,2.867-1.886,5.544-5.319,7.539A25.7,25.7,0,0,1,230.27,177.789Zm-.115-20.375a24.854,24.854,0,0,0-12.217,2.931c-3.168,1.842-4.911,4.265-4.908,6.825,0,2.58,1.775,5.022,4.988,6.876,6.769,3.909,17.746,3.91,24.471,0,3.168-1.841,4.912-4.264,4.909-6.825,0-2.579-1.777-5.02-4.988-6.875A25.057,25.057,0,0,0,230.155,157.414Z" transform="translate(-212.207 -156.603)" fill="#00feff"/>
        </g>
        <g id="Grupo_909107" data-name="Grupo 909107" transform="translate(0 12.535)" opacity="0.4">
          <path id="Trazado_678354" data-name="Trazado 678354" d="M230.27,167.008a25.887,25.887,0,0,1-12.663-3.029c-3.479-2.009-5.4-4.7-5.4-7.589,0-2.866,1.885-5.542,5.318-7.538,6.95-4.04,18.3-4.04,25.3,0,3.478,2.008,5.4,4.7,5.4,7.588,0,2.866-1.886,5.544-5.319,7.539A25.7,25.7,0,0,1,230.27,167.008Zm-.115-20.375a24.853,24.853,0,0,0-12.217,2.931c-3.168,1.84-4.911,4.265-4.908,6.825,0,2.58,1.775,5.022,4.988,6.876,6.769,3.909,17.746,3.911,24.471,0,3.168-1.842,4.912-4.266,4.909-6.826,0-2.579-1.777-5.02-4.988-6.875A25.044,25.044,0,0,0,230.155,146.633Z" transform="translate(-212.207 -145.823)" fill="#29cdce"/>
        </g>
        <g id="Grupo_909108" data-name="Grupo 909108" opacity="0.2">
          <path id="Trazado_678355" data-name="Trazado 678355" d="M230.27,156.227a25.875,25.875,0,0,1-12.663-3.03c-3.479-2.008-5.4-4.7-5.4-7.588,0-2.866,1.885-5.542,5.318-7.538,6.95-4.04,18.3-4.041,25.3,0,3.478,2.007,5.4,4.7,5.4,7.586,0,2.867-1.886,5.544-5.319,7.539A25.7,25.7,0,0,1,230.27,156.227Zm-.115-20.375a24.854,24.854,0,0,0-12.217,2.931c-3.168,1.842-4.911,4.265-4.908,6.825,0,2.58,1.775,5.022,4.988,6.876,6.769,3.909,17.746,3.91,24.471,0,3.168-1.841,4.912-4.264,4.909-6.825,0-2.579-1.777-5.02-4.988-6.875A25.057,25.057,0,0,0,230.155,135.852Z" transform="translate(-212.207 -135.041)" fill="#00feff"/>
        </g>
      </g>
      <g id="Grupo_909113" data-name="Grupo 909113" transform="translate(72.466 86.932)">
        <g id="Grupo_909110" data-name="Grupo 909110" transform="translate(18.037 10.414)">
          <path id="Trazado_678357" data-name="Trazado 678357" d="M187.834,143.268c0-.527.038-1.052.093-1.578l-6.376-.115c-.051.526-.081,1.051-.087,1.577Z" transform="translate(-181.464 -112.305)" fill="#00feff" style="mix-blend-mode: screen;isolation: isolate"/>
          <path id="Trazado_678360" data-name="Trazado 678360" d="M192.89,154.574c-.438-.464-.857-.931-1.244-1.406l-5.683,1.672q.588.71,1.241,1.406Z" transform="translate(-180.732 -110.419)" fill="#00feff" style="mix-blend-mode: screen;isolation: isolate"/>
          <path id="Trazado_678361" data-name="Trazado 678361" d="M198.832,159.322c-.626-.387-1.231-.78-1.811-1.181l-4.784,2.435q.876.6,1.81,1.182Z" transform="translate(-179.712 -109.61)" fill="#00feff" style="mix-blend-mode: screen;isolation: isolate"/>
          <path id="Trazado_678362" data-name="Trazado 678362" d="M195.6,157.061c-.537-.428-1.045-.865-1.534-1.307l-5.279,2.071q.738.663,1.537,1.306Z" transform="translate(-180.272 -109.998)" fill="#00feff" style="mix-blend-mode: screen;isolation: isolate"/>
          <path id="Trazado_678363" data-name="Trazado 678363" d="M188.182,146.2q-.167-.785-.256-1.572l-6.347.346q.092.787.255,1.572Z" transform="translate(-181.445 -111.808)" fill="#00feff" style="mix-blend-mode: screen;isolation: isolate"/>
          <path id="Trazado_678365" data-name="Trazado 678365" d="M189.147,149.1c-.223-.512-.427-1.024-.6-1.541l-6.224.8c.174.515.374,1.029.6,1.541Z" transform="translate(-181.324 -111.331)" fill="#00feff" style="mix-blend-mode: screen;isolation: isolate"/>
          <path id="Trazado_678379" data-name="Trazado 678379" d="M190.723,151.907c-.333-.492-.636-.987-.919-1.487l-6,1.248q.427.748.922,1.486Z" transform="translate(-181.084 -110.866)" fill="#00feff" style="mix-blend-mode: screen;isolation: isolate"/>
          <g id="Grupo_913655" data-name="Grupo 913655">
            <path id="Trazado_678356" data-name="Trazado 678356" d="M189.1,137.537q.342-.764.762-1.516l-6.125-1.028q-.413.755-.759,1.517Z" transform="translate(-181.218 -113.375)" fill="#00feff"/>
            <path id="Trazado_678358" data-name="Trazado 678358" d="M190.649,134.778c.336-.488.693-.972,1.08-1.45l-5.859-1.464c-.383.479-.741.963-1.08,1.45Z" transform="translate(-180.923 -113.884)" fill="#00feff"/>
            <path id="Trazado_678359" data-name="Trazado 678359" d="M192.791,132.151q.659-.687,1.391-1.358l-5.49-1.875q-.729.671-1.392,1.359Z" transform="translate(-180.515 -114.363)" fill="#00feff"/>
            <path id="Trazado_678364" data-name="Trazado 678364" d="M195.475,129.7q.8-.635,1.68-1.245l-5.045-2.259q-.87.612-1.678,1.246Z" transform="translate(-180.006 -114.807)" fill="#00feff"/>
            <path id="Trazado_678366" data-name="Trazado 678366" d="M188.165,140.382c.115-.522.251-1.042.419-1.559l-6.3-.577c-.164.519-.3,1.038-.422,1.559Z" transform="translate(-181.399 -112.846)" fill="#00feff"/>
            <path id="Trazado_678367" data-name="Trazado 678367" d="M240.388,121.215c.865.164,1.724.338,2.575.531l2.16-3.465q-1.278-.286-2.574-.531Z" transform="translate(-171.879 -116.18)" fill="#00feff"/>
            <path id="Trazado_678368" data-name="Trazado 678368" d="M235.434,120.49c.894.1,1.784.216,2.668.345l1.392-3.595q-1.329-.192-2.668-.344Z" transform="translate(-172.685 -116.319)" fill="#00feff"/>
            <path id="Trazado_678369" data-name="Trazado 678369" d="M230.356,120.131q1.366.051,2.723.148l.6-3.665q-1.359-.094-2.723-.148Z" transform="translate(-173.511 -116.389)" fill="#00feff"/>
            <path id="Trazado_678370" data-name="Trazado 678370" d="M245.148,122.278c.821.224,1.631.466,2.434.719l2.9-3.283q-1.205-.377-2.436-.716Z" transform="translate(-171.104 -115.978)" fill="#00feff"/>
            <path id="Trazado_678371" data-name="Trazado 678371" d="M253.214,120.63l-3.587,3.047q1.148.422,2.263.885l3.586-3.045Q254.359,121.055,253.214,120.63Z" transform="translate(-170.376 -115.712)" fill="#00feff"/>
            <path id="Trazado_678372" data-name="Trazado 678372" d="M194.174,124.854l4.511,2.6c.313-.192.617-.385.942-.572s.659-.364.991-.544l-4.51-2.6c-.33.181-.667.357-.992.544S194.488,124.663,194.174,124.854Z" transform="translate(-179.396 -115.206)" fill="#00feff"/>
            <path id="Trazado_678373" data-name="Trazado 678373" d="M225.268,120.131c.91-.031,1.821-.052,2.732-.053l-.2-3.678c-.91,0-1.821.021-2.731.05Z" transform="translate(-174.371 -116.399)" fill="#00feff"/>
            <path id="Trazado_678374" data-name="Trazado 678374" d="M220.3,120.51q1.345-.145,2.7-.242l-1-3.637q-1.355.1-2.7.243Z" transform="translate(-175.309 -116.362)" fill="#00feff"/>
            <path id="Trazado_678375" data-name="Trazado 678375" d="M202.336,125.459c.707-.336,1.425-.662,2.157-.971l-3.911-2.91q-1.1.466-2.159.969Z" transform="translate(-178.706 -115.558)" fill="#00feff"/>
            <path id="Trazado_678376" data-name="Trazado 678376" d="M206.394,123.743q1.162-.424,2.353-.8l-3.247-3.171q-1.191.384-2.353.8Z" transform="translate(-177.938 -115.852)" fill="#00feff"/>
            <path id="Trazado_678377" data-name="Trazado 678377" d="M215.449,121.25q1.3-.242,2.625-.439l-1.779-3.536q-1.322.2-2.626.438Z" transform="translate(-176.226 -116.258)" fill="#00feff"/>
            <path id="Trazado_678378" data-name="Trazado 678378" d="M210.785,122.325q1.242-.333,2.51-.622l-2.535-3.383q-1.266.293-2.511.623Z" transform="translate(-177.107 -116.088)" fill="#00feff"/>
            <path id="Trazado_678380" data-name="Trazado 678380" d="M263.468,132.039c.438.464.856.931,1.244,1.406l5.682-1.672q-.586-.71-1.241-1.406Z" transform="translate(-168.124 -114.128)" fill="#00feff"/>
            <path id="Trazado_678381" data-name="Trazado 678381" d="M257.479,127.366q.94.581,1.813,1.182l4.783-2.435q-.874-.6-1.809-1.184Z" transform="translate(-169.099 -115.012)" fill="#00feff"/>
            <path id="Trazado_678382" data-name="Trazado 678382" d="M253.76,125.382q1.045.5,2.047,1.046l4.219-2.764q-1.006-.541-2.049-1.045Z" transform="translate(-169.704 -115.388)" fill="#00feff"/>
            <path id="Trazado_678383" data-name="Trazado 678383" d="M260.739,129.594c.537.429,1.045.865,1.534,1.307l5.279-2.071q-.736-.661-1.537-1.306Z" transform="translate(-168.568 -114.59)" fill="#00feff"/>
          </g>
        </g>
        <path id="Trazado_678384" data-name="Trazado 678384" d="M193.579,123.394c-23.45,13.539-23.45,35.569,0,49.107s61.6,13.538,85.053,0,23.449-35.567,0-49.107S217.028,109.855,193.579,123.394Zm83.765,48.363c-22.74,13.129-59.738,13.129-82.477,0s-22.738-34.49,0-47.619,59.737-13.128,82.477,0S300.082,158.629,277.344,171.756Z" transform="translate(-164.318 -106.5)" fill="#53fcfc"/>
        <path id="Trazado_678385" data-name="Trazado 678385" d="M203.637,129.2c-16.536,9.548-16.537,25.081,0,34.629s43.441,9.547,59.977,0,16.537-25.081,0-34.629S220.173,119.654,203.637,129.2Zm58.688,33.885c-15.825,9.136-41.575,9.136-57.4,0s-15.825-24,0-33.141,41.575-9.136,57.4,0S278.151,153.948,262.326,163.086Z" transform="translate(-161.838 -105.068)" fill="#56fcfc"/>
        <g id="Grupo_909111" data-name="Grupo 909111" transform="translate(36.854 21.278)">
          <path id="Trazado_678386" data-name="Trazado 678386" d="M203.594,135.841q.64-.692,1.389-1.359l-2.353-.8q-.745.666-1.389,1.359Z" transform="translate(-197.064 -124.453)" fill="#fffffb" style="mix-blend-mode: screen;isolation: isolate"/>
          <path id="Trazado_678387" data-name="Trazado 678387" d="M202.175,137.658a15.894,15.894,0,0,1,1.082-1.449l-2.511-.628a17.409,17.409,0,0,0-1.081,1.449Z" transform="translate(-197.32 -124.143)" fill="#fffffb" style="mix-blend-mode: screen;isolation: isolate"/>
          <path id="Trazado_678388" data-name="Trazado 678388" d="M210.034,131.189q1.052-.514,2.159-.969l-1.678-1.249q-1.1.455-2.158.968Z" transform="translate(-195.906 -125.218)" fill="#fffffb" style="mix-blend-mode: screen;isolation: isolate"/>
          <path id="Trazado_678389" data-name="Trazado 678389" d="M205.4,134.141q.787-.638,1.678-1.246l-2.161-.969q-.888.609-1.679,1.246Z" transform="translate(-196.739 -124.738)" fill="#fffffb" style="mix-blend-mode: screen;isolation: isolate"/>
          <path id="Trazado_678390" data-name="Trazado 678390" d="M205.625,131.465l1.934,1.116c.307-.193.617-.385.942-.572s.657-.366.991-.544l-1.932-1.116c-.334.179-.667.357-.992.544S205.934,131.273,205.625,131.465Z" transform="translate(-196.351 -124.994)" fill="#fffffb" style="mix-blend-mode: screen;isolation: isolate"/>
          <path id="Trazado_678392" data-name="Trazado 678392" d="M212.783,129.979q1.153-.433,2.353-.8l-1.392-1.358q-1.2.373-2.353.8Z" transform="translate(-195.413 -125.406)" fill="#fffffb" style="mix-blend-mode: screen;isolation: isolate"/>
          <path id="Trazado_678393" data-name="Trazado 678393" d="M201.15,139.558a13.51,13.51,0,0,1,.765-1.515l-2.625-.441a14.562,14.562,0,0,0-.764,1.515Z" transform="translate(-197.505 -123.815)" fill="#fffffb" style="mix-blend-mode: screen;isolation: isolate"/>
          <path id="Trazado_678398" data-name="Trazado 678398" d="M200.559,141.515a11.513,11.513,0,0,1,.421-1.559l-2.7-.248a12.491,12.491,0,0,0-.417,1.56Z" transform="translate(-197.614 -123.472)" fill="#fffffb" style="mix-blend-mode: screen;isolation: isolate"/>
          <path id="Trazado_678400" data-name="Trazado 678400" d="M228.394,127.323l-.086-1.579q-1.367-.005-2.731.052l.086,1.578Q227.027,127.317,228.394,127.323Z" transform="translate(-193.105 -125.744)" fill="#fffffb" style="mix-blend-mode: screen;isolation: isolate"/>
          <path id="Trazado_678401" data-name="Trazado 678401" d="M243.82,128.367l-1.538,1.306c.771.276,1.528.569,2.264.886l1.539-1.308C245.347,128.936,244.589,128.644,243.82,128.367Z" transform="translate(-190.387 -125.317)" fill="#fffffb" style="mix-blend-mode: screen;isolation: isolate"/>
          <path id="Trazado_678404" data-name="Trazado 678404" d="M218.95,128.208c.866-.167,1.741-.317,2.624-.442l-.763-1.515c-.882.126-1.757.274-2.624.441Z" transform="translate(-194.307 -125.661)" fill="#fffffb" style="mix-blend-mode: screen;isolation: isolate"/>
          <path id="Trazado_678405" data-name="Trazado 678405" d="M215.773,128.982q1.237-.345,2.51-.624l-1.087-1.45q-1.271.283-2.51.624Z" transform="translate(-194.877 -125.554)" fill="#fffffb" style="mix-blend-mode: screen;isolation: isolate"/>
          <path id="Trazado_678406" data-name="Trazado 678406" d="M222.264,127.667c.894-.1,1.8-.184,2.7-.243l-.428-1.559c-.9.062-1.806.14-2.7.242Z" transform="translate(-193.714 -125.724)" fill="#fffffb" style="mix-blend-mode: screen;isolation: isolate"/>
          <path id="Trazado_678407" data-name="Trazado 678407" d="M232.583,127.567q1.345.138,2.67.342l.6-1.541q-1.325-.2-2.668-.343Z" transform="translate(-191.965 -125.698)" fill="#fffffb" style="mix-blend-mode: screen;isolation: isolate"/>
          <path id="Trazado_678408" data-name="Trazado 678408" d="M239.216,128.737c.825.217,1.637.459,2.435.719l1.242-1.407c-.8-.258-1.608-.5-2.433-.72Z" transform="translate(-190.886 -125.486)" fill="#fffffb" style="mix-blend-mode: screen;isolation: isolate"/>
          <path id="Trazado_678409" data-name="Trazado 678409" d="M229.128,127.341q1.366.04,2.722.148l.257-1.571q-1.355-.1-2.722-.148Z" transform="translate(-192.527 -125.739)" fill="#fffffb" style="mix-blend-mode: screen;isolation: isolate"/>
          <path id="Trazado_678410" data-name="Trazado 678410" d="M235.964,128.034c.868.156,1.729.329,2.575.529l.927-1.487c-.848-.2-1.708-.37-2.576-.528Z" transform="translate(-191.415 -125.613)" fill="#fffffb" style="mix-blend-mode: screen;isolation: isolate"/>
          <path id="Trazado_678413" data-name="Trazado 678413" d="M254.447,138.991a12.373,12.373,0,0,1,.593,1.541l2.67-.344a13.238,13.238,0,0,0-.594-1.541Z" transform="translate(-188.408 -123.645)" fill="#fffffb" style="mix-blend-mode: screen;isolation: isolate"/>
          <path id="Trazado_678417" data-name="Trazado 678417" d="M245.123,130.817c.7.329,1.381.68,2.044,1.048l1.809-1.184c-.664-.366-1.342-.72-2.043-1.05Z" transform="translate(-189.925 -125.111)" fill="#fffffb" style="mix-blend-mode: screen;isolation: isolate"/>
          <path id="Trazado_678419" data-name="Trazado 678419" d="M253.347,137.113a14.731,14.731,0,0,1,.916,1.487l2.572-.535a15.755,15.755,0,0,0-.914-1.488Z" transform="translate(-188.587 -123.981)" fill="#fffffb" style="mix-blend-mode: screen;isolation: isolate"/>
          <path id="Trazado_678420" data-name="Trazado 678420" d="M247.68,132.159c.636.383,1.246.775,1.815,1.181l2.053-1.046c-.571-.4-1.184-.8-1.817-1.179Z" transform="translate(-189.509 -124.87)" fill="#fffffb" style="mix-blend-mode: screen;isolation: isolate"/>
          <path id="Trazado_678421" data-name="Trazado 678421" d="M251.827,135.33a17.917,17.917,0,0,1,1.244,1.406l2.439-.717c-.379-.477-.8-.944-1.246-1.406Z" transform="translate(-188.835 -124.301)" fill="#fffffb" style="mix-blend-mode: screen;isolation: isolate"/>
          <path id="Trazado_678422" data-name="Trazado 678422" d="M249.933,133.669c.548.424,1.056.862,1.534,1.307l2.261-.888c-.48-.444-.985-.881-1.53-1.308Z" transform="translate(-189.143 -124.599)" fill="#fffffb" style="mix-blend-mode: screen;isolation: isolate"/>
          <g id="Grupo_913653" data-name="Grupo 913653">
            <path id="Trazado_678391" data-name="Trazado 678391" d="M202.53,149.353a14.337,14.337,0,0,1-.916-1.488l-2.573.535a15.534,15.534,0,0,0,.915,1.488Z" transform="translate(-197.422 -122.146)" fill="#00feff"/>
            <path id="Trazado_678394" data-name="Trazado 678394" d="M204.078,151.149a17.462,17.462,0,0,1-1.244-1.406l-2.44.719c.379.476.8.943,1.248,1.4Z" transform="translate(-197.201 -121.84)" fill="#00feff"/>
            <path id="Trazado_678395" data-name="Trazado 678395" d="M201.4,147.455a12.377,12.377,0,0,1-.593-1.541l-2.671.344a13.371,13.371,0,0,0,.594,1.541Z" transform="translate(-197.569 -122.463)" fill="#00feff"/>
            <path id="Trazado_678396" data-name="Trazado 678396" d="M200.671,145.491a11.1,11.1,0,0,1-.257-1.572l-2.721.149a12.213,12.213,0,0,0,.257,1.571Z" transform="translate(-197.641 -122.787)" fill="#00feff"/>
            <path id="Trazado_678397" data-name="Trazado 678397" d="M205.987,152.821c-.549-.426-1.057-.863-1.534-1.307l-2.263.887c.48.444.986.882,1.531,1.308Z" transform="translate(-196.909 -121.552)" fill="#00feff"/>
            <path id="Trazado_678399" data-name="Trazado 678399" d="M200.384,143.5a10.87,10.87,0,0,1,.087-1.578l-2.732-.05a11.761,11.761,0,0,0-.09,1.578Z" transform="translate(-197.648 -123.121)" fill="#00feff"/>
            <path id="Trazado_678402" data-name="Trazado 678402" d="M227.389,159.087l.086,1.579q1.366.005,2.731-.051l-.086-1.578Q228.756,159.095,227.389,159.087Z" transform="translate(-192.81 -120.328)" fill="#00feff"/>
            <path id="Trazado_678403" data-name="Trazado 678403" d="M255.4,142.915a11.017,11.017,0,0,1-.088,1.577l2.732.05a11.754,11.754,0,0,0,.091-1.578Z" transform="translate(-188.268 -122.95)" fill="#00feff"/>
            <path id="Trazado_678411" data-name="Trazado 678411" d="M254.712,146.9a13.417,13.417,0,0,1-.765,1.516l2.625.439a14.579,14.579,0,0,0,.765-1.515Z" transform="translate(-188.489 -122.303)" fill="#00feff"/>
            <path id="Trazado_678412" data-name="Trazado 678412" d="M255.266,144.92a11.51,11.51,0,0,1-.42,1.559l2.7.248a12.683,12.683,0,0,0,.417-1.56Z" transform="translate(-188.344 -122.625)" fill="#00feff"/>
            <path id="Trazado_678414" data-name="Trazado 678414" d="M255.135,140.933a11.089,11.089,0,0,1,.257,1.571l2.721-.148a12.2,12.2,0,0,0-.257-1.572Z" transform="translate(-188.296 -123.297)" fill="#00feff"/>
            <path id="Trazado_678415" data-name="Trazado 678415" d="M253.715,148.815a16.049,16.049,0,0,1-1.081,1.45l2.511.627a17.214,17.214,0,0,0,1.081-1.449Z" transform="translate(-188.703 -121.991)" fill="#00feff"/>
            <path id="Trazado_678416" data-name="Trazado 678416" d="M252.319,150.644q-.642.692-1.391,1.359l2.353.8q.746-.666,1.391-1.359Z" transform="translate(-188.98 -121.693)" fill="#00feff"/>
            <path id="Trazado_678418" data-name="Trazado 678418" d="M250.525,152.351q-.787.638-1.679,1.246l2.163.969q.886-.609,1.678-1.246Z" transform="translate(-189.319 -121.416)" fill="#00feff"/>
            <path id="Trazado_678423" data-name="Trazado 678423" d="M233.563,158.767q-1.343.155-2.7.243l.427,1.559c.9-.062,1.807-.14,2.7-.241Z" transform="translate(-192.245 -120.372)" fill="#00feff"/>
            <path id="Trazado_678424" data-name="Trazado 678424" d="M216.686,157.743q-1.238-.326-2.433-.719l-1.242,1.407c.8.258,1.608.5,2.432.721Z" transform="translate(-195.148 -120.655)" fill="#00feff"/>
            <path id="Trazado_678425" data-name="Trazado 678425" d="M219.915,158.431c-.869-.156-1.729-.33-2.577-.529l-.927,1.486c.849.2,1.709.371,2.576.528Z" transform="translate(-194.596 -120.513)" fill="#00feff"/>
            <path id="Trazado_678426" data-name="Trazado 678426" d="M223.262,158.88q-1.345-.14-2.668-.343l-.6,1.541q1.324.2,2.668.343Z" transform="translate(-194.013 -120.409)" fill="#00feff"/>
            <path id="Trazado_678427" data-name="Trazado 678427" d="M213.638,156.816c-.77-.276-1.527-.569-2.264-.885l-1.538,1.307c.737.315,1.5.607,2.265.884Z" transform="translate(-195.665 -120.833)" fill="#00feff"/>
            <path id="Trazado_678428" data-name="Trazado 678428" d="M226.678,159.083q-1.366-.04-2.723-.149L223.7,160.5q1.357.1,2.723.149Z" transform="translate(-193.41 -120.345)" fill="#00feff"/>
            <path id="Trazado_678429" data-name="Trazado 678429" d="M210.805,155.678c-.7-.328-1.382-.68-2.045-1.048l-1.808,1.185c.664.365,1.342.719,2.042,1.049Z" transform="translate(-196.135 -121.045)" fill="#00feff"/>
            <path id="Trazado_678430" data-name="Trazado 678430" d="M208.25,154.334c-.637-.383-1.246-.776-1.815-1.18l-2.054,1.045c.572.4,1.184.8,1.817,1.179Z" transform="translate(-196.553 -121.285)" fill="#00feff"/>
            <path id="Trazado_678431" data-name="Trazado 678431" d="M245.891,155.3q-1.052.515-2.158.97l1.678,1.248q1.1-.455,2.158-.969Z" transform="translate(-190.151 -120.936)" fill="#00feff"/>
            <path id="Trazado_678432" data-name="Trazado 678432" d="M243.129,156.505q-1.151.434-2.353.8l1.392,1.358q1.2-.371,2.353-.8Z" transform="translate(-190.632 -120.74)" fill="#00feff"/>
            <path id="Trazado_678433" data-name="Trazado 678433" d="M236.913,158.248q-1.3.253-2.625.442l.763,1.516c.884-.126,1.758-.276,2.625-.442Z" transform="translate(-191.688 -120.456)" fill="#00feff"/>
            <path id="Trazado_678434" data-name="Trazado 678434" d="M250.305,155.029l-1.934-1.116c-.307.193-.619.385-.942.572s-.657.366-.992.544l1.934,1.116c.334-.178.666-.357.991-.544S250,155.222,250.305,155.029Z" transform="translate(-189.711 -121.161)" fill="#00feff"/>
            <path id="Trazado_678435" data-name="Trazado 678435" d="M240.118,157.49q-1.235.345-2.509.624l1.086,1.45q1.271-.283,2.51-.624Z" transform="translate(-191.147 -120.58)" fill="#00feff"/>
          </g>
        </g>
        <g id="Grupo_909112" data-name="Grupo 909112" transform="translate(0 0)">
          <path id="Trazado_678436" data-name="Trazado 678436" d="M173.8,139.1c.126-.541.276-1.08.443-1.618l-7.278-.665c-.165.538-.32,1.077-.448,1.617Z" transform="translate(-165.859 -102.664)" fill="#fffffb" style="mix-blend-mode: screen;isolation: isolate"/>
          <path id="Trazado_678437" data-name="Trazado 678437" d="M173.723,147.03q-.162-.814-.264-1.631l-7.338.4q.1.816.264,1.631Z" transform="translate(-165.923 -101.268)" fill="#fffffb" style="mix-blend-mode: screen;isolation: isolate"/>
          <path id="Trazado_678438" data-name="Trazado 678438" d="M173.315,143.038c.009-.545.035-1.092.085-1.637l-7.37-.134c-.049.545-.067,1.092-.079,1.637Z" transform="translate(-165.951 -101.941)" fill="#fffffb" style="mix-blend-mode: screen;isolation: isolate"/>
          <path id="Trazado_678439" data-name="Trazado 678439" d="M177.281,131.474c.355-.506.735-1.006,1.129-1.5l-6.764-1.689c-.393.5-.772,1-1.129,1.5Z" transform="translate(-165.208 -104.053)" fill="#fffffb" style="mix-blend-mode: screen;isolation: isolate"/>
          <path id="Trazado_678440" data-name="Trazado 678440" d="M180.256,127.908q.692-.712,1.444-1.409l-6.347-2.167q-.748.7-1.444,1.409Z" transform="translate(-164.656 -104.696)" fill="#fffffb" style="mix-blend-mode: screen;isolation: isolate"/>
          <path id="Trazado_678441" data-name="Trazado 678441" d="M175.137,135.229q.363-.792.785-1.574l-7.081-1.187c-.28.522-.538,1.046-.782,1.574Z" transform="translate(-165.608 -103.372)" fill="#fffffb" style="mix-blend-mode: screen;isolation: isolate"/>
          <path id="Trazado_678442" data-name="Trazado 678442" d="M183.617,161.849c-.551-.445-1.087-.9-1.6-1.352l-6.1,2.394c.515.457,1.057.9,1.606,1.351Z" transform="translate(-164.33 -98.812)" fill="#fffffb" style="mix-blend-mode: screen;isolation: isolate"/>
          <path id="Trazado_678444" data-name="Trazado 678444" d="M187.964,164.952c-.644-.4-1.265-.814-1.873-1.229l-5.531,2.815c.61.415,1.228.827,1.871,1.231Z" transform="translate(-163.574 -98.288)" fill="#fffffb" style="mix-blend-mode: screen;isolation: isolate"/>
          <path id="Trazado_678445" data-name="Trazado 678445" d="M177.072,154.808q-.509-.767-.959-1.542l-6.939,1.442c.3.517.624,1.03.962,1.542Z" transform="translate(-165.427 -99.989)" fill="#fffffb" style="mix-blend-mode: screen;isolation: isolate"/>
          <path id="Trazado_678446" data-name="Trazado 678446" d="M179.96,158.452c-.449-.483-.873-.971-1.282-1.461l-6.569,1.932c.41.491.831.979,1.278,1.463Z" transform="translate(-164.949 -99.383)" fill="#fffffb" style="mix-blend-mode: screen;isolation: isolate"/>
          <path id="Trazado_678447" data-name="Trazado 678447" d="M174.968,150.982c-.226-.53-.424-1.064-.609-1.6l-7.192.929c.187.535.383,1.068.606,1.6Z" transform="translate(-165.753 -100.621)" fill="#fffffb" style="mix-blend-mode: screen;isolation: isolate"/>
          <path id="Trazado_678448" data-name="Trazado 678448" d="M204.97,114.637q1.292-.342,2.6-.651l-2.928-3.907c-.873.206-1.739.426-2.6.652Z" transform="translate(-160.08 -107.014)" fill="#fffffb" style="mix-blend-mode: screen;isolation: isolate"/>
          <path id="Trazado_678449" data-name="Trazado 678449" d="M238.591,112.3c.927.107,1.851.222,2.771.352l1.609-4.155c-.92-.129-1.845-.241-2.772-.349Z" transform="translate(-154.134 -107.329)" fill="#fffffb" style="mix-blend-mode: screen;isolation: isolate"/>
          <path id="Trazado_678450" data-name="Trazado 678450" d="M231.692,111.778q1.416.059,2.825.152l.694-4.237q-1.411-.092-2.825-.152Z" transform="translate(-155.257 -107.427)" fill="#fffffb" style="mix-blend-mode: screen;isolation: isolate"/>
          <path id="Trazado_678451" data-name="Trazado 678451" d="M245.317,113.311q1.345.258,2.671.553l2.5-4c-.886-.2-1.774-.383-2.669-.556Z" transform="translate(-153.04 -107.14)" fill="#fffffb" style="mix-blend-mode: screen;isolation: isolate"/>
          <path id="Trazado_678452" data-name="Trazado 678452" d="M251.769,114.791q1.277.354,2.531.741l3.348-3.795c-.836-.258-1.682-.5-2.532-.738Z" transform="translate(-151.99 -106.865)" fill="#fffffb" style="mix-blend-mode: screen;isolation: isolate"/>
          <path id="Trazado_678453" data-name="Trazado 678453" d="M224.767,111.744c.944-.029,1.889-.043,2.835-.049l-.231-4.252c-.945.007-1.891.017-2.835.045Z" transform="translate(-156.421 -107.443)" fill="#fffffb" style="mix-blend-mode: screen;isolation: isolate"/>
          <path id="Trazado_678454" data-name="Trazado 678454" d="M261.989,113.2l-4.147,3.523c.791.3,1.57.606,2.343.924l4.144-3.521C263.555,113.805,262.779,113.492,261.989,113.2Z" transform="translate(-151.003 -106.507)" fill="#fffffb" style="mix-blend-mode: screen;isolation: isolate"/>
          <path id="Trazado_678455" data-name="Trazado 678455" d="M217.983,112.232q1.4-.145,2.8-.257l-1.153-4.2c-.936.074-1.87.164-2.8.258Z" transform="translate(-157.674 -107.39)" fill="#fffffb" style="mix-blend-mode: screen;isolation: isolate"/>
          <path id="Trazado_678456" data-name="Trazado 678456" d="M198.957,116.536q1.209-.434,2.44-.835l-3.753-3.664q-1.233.4-2.442.834Z" transform="translate(-161.192 -106.696)" fill="#fffffb" style="mix-blend-mode: screen;isolation: isolate"/>
          <g id="Grupo_913656" data-name="Grupo 913656">
            <path id="Trazado_678443" data-name="Trazado 678443" d="M183.961,124.578c.562-.437,1.137-.87,1.737-1.3l-5.825-2.609c-.6.427-1.173.859-1.736,1.3Z" transform="translate(-163.969 -105.29)" fill="#00feff"/>
            <path id="Trazado_678457" data-name="Trazado 678457" d="M183.162,118.538l5.213,3.01c.328-.2.642-.4.978-.594s.686-.374,1.028-.564l-5.213-3.01c-.341.19-.692.37-1.028.564S183.49,118.342,183.162,118.538Z" transform="translate(-163.151 -105.826)" fill="#00feff"/>
          </g>
          <path id="Trazado_678458" data-name="Trazado 678458" d="M193.385,118.844c.737-.345,1.487-.678,2.244-1l-4.518-3.362c-.756.324-1.506.657-2.243,1Z" transform="translate(-162.223 -106.298)" fill="#fffffb" style="mix-blend-mode: screen;isolation: isolate"/>
          <path id="Trazado_678460" data-name="Trazado 678460" d="M211.351,113.2q1.357-.244,2.726-.453l-2.057-4.087q-1.369.211-2.726.452Z" transform="translate(-158.9 -107.245)" fill="#fffffb" style="mix-blend-mode: screen;isolation: isolate"/>
          <path id="Trazado_678468" data-name="Trazado 678468" d="M263.429,119.071q1.079.527,2.13,1.082l4.879-3.2c-.7-.371-1.414-.728-2.134-1.08Z" transform="translate(-150.094 -106.071)" fill="#5f75e0"/>
          <path id="Trazado_678469" data-name="Trazado 678469" d="M268.46,121.8c.644.4,1.266.814,1.874,1.229l5.53-2.815c-.609-.415-1.228-.827-1.871-1.231Z" transform="translate(-149.275 -105.566)" fill="#5f75e0"/>
          <g id="Grupo_913654" data-name="Grupo 913654">
            <path id="Trazado_678459" data-name="Trazado 678459" d="M192.941,167.709c-.72-.351-1.432-.709-2.13-1.081l-4.879,3.194c.7.371,1.414.728,2.132,1.08Z" transform="translate(-162.7 -97.814)" fill="#00feff"/>
            <path id="Trazado_678461" data-name="Trazado 678461" d="M217.411,174.515c-.928-.107-1.852-.222-2.772-.351l-1.608,4.154c.92.129,1.845.242,2.772.349Z" transform="translate(-158.292 -96.589)" fill="#00feff"/>
            <path id="Trazado_678462" data-name="Trazado 678462" d="M283.115,143.392c-.008.545-.034,1.092-.084,1.637l7.37.134c.048-.545.067-1.092.078-1.637Z" transform="translate(-146.905 -101.595)" fill="#00feff"/>
            <path id="Trazado_678463" data-name="Trazado 678463" d="M282.729,139.436c.109.543.2,1.086.265,1.631l7.336-.4q-.1-.816-.263-1.631Z" transform="translate(-146.954 -102.304)" fill="#00feff"/>
            <path id="Trazado_678464" data-name="Trazado 678464" d="M282.668,147.4c-.127.541-.277,1.08-.444,1.618l7.278.665c.165-.538.32-1.077.449-1.617Z" transform="translate(-147.036 -100.943)" fill="#00feff"/>
            <path id="Trazado_678465" data-name="Trazado 678465" d="M281.352,151.34c-.242.527-.5,1.051-.786,1.573l7.081,1.188c.281-.522.539-1.048.784-1.574Z" transform="translate(-147.306 -100.302)" fill="#00feff"/>
            <path id="Trazado_678466" data-name="Trazado 678466" d="M281.513,135.554c.224.53.424,1.065.608,1.6l7.192-.928c-.186-.536-.381-1.07-.6-1.6Z" transform="translate(-147.151 -103.021)" fill="#00feff"/>
            <path id="Trazado_678467" data-name="Trazado 678467" d="M279.211,155.156c-.355.5-.734,1-1.129,1.5l6.766,1.689c.392-.5.772-1,1.128-1.5Z" transform="translate(-147.71 -99.681)" fill="#00feff"/>
            <path id="Trazado_678470" data-name="Trazado 678470" d="M276.223,158.774q-.692.712-1.444,1.409l6.347,2.167q.748-.7,1.444-1.409Z" transform="translate(-148.247 -99.093)" fill="#00feff"/>
            <path id="Trazado_678471" data-name="Trazado 678471" d="M276.528,128.206c.448.482.873.97,1.282,1.46l6.569-1.932c-.412-.491-.832-.979-1.279-1.463Z" transform="translate(-147.963 -104.38)" fill="#00feff"/>
            <path id="Trazado_678472" data-name="Trazado 678472" d="M272.849,124.857c.551.445,1.088.9,1.6,1.352l6.1-2.394c-.514-.456-1.056-.9-1.6-1.351Z" transform="translate(-148.562 -104.999)" fill="#00feff"/>
            <path id="Trazado_678473" data-name="Trazado 678473" d="M198.455,170.085c-.791-.3-1.571-.606-2.343-.923l-4.145,3.521c.774.316,1.551.629,2.34.927Z" transform="translate(-161.719 -97.402)" fill="#00feff"/>
            <path id="Trazado_678474" data-name="Trazado 678474" d="M279.421,131.792q.509.766.959,1.542l6.939-1.443c-.3-.516-.624-1.029-.962-1.541Z" transform="translate(-147.492 -103.717)" fill="#00feff"/>
            <path id="Trazado_678475" data-name="Trazado 678475" d="M237.958,174.574q-1.4.147-2.8.257l1.153,4.2c.937-.074,1.87-.163,2.8-.258Z" transform="translate(-154.693 -96.522)" fill="#00feff"/>
            <path id="Trazado_678476" data-name="Trazado 678476" d="M231.051,175.04q-1.416.044-2.835.049l.231,4.252c.945-.006,1.891-.017,2.835-.045Z" transform="translate(-155.822 -96.446)" fill="#00feff"/>
            <path id="Trazado_678477" data-name="Trazado 678477" d="M224.188,175.018q-1.414-.058-2.825-.152l-.693,4.237q1.411.092,2.825.152Z" transform="translate(-157.05 -96.475)" fill="#00feff"/>
            <path id="Trazado_678478" data-name="Trazado 678478" d="M272.485,162.15c-.562.437-1.137.871-1.736,1.3l5.824,2.608c.6-.427,1.173-.859,1.737-1.3Z" transform="translate(-148.902 -98.543)" fill="#00feff"/>
            <path id="Trazado_678479" data-name="Trazado 678479" d="M204.442,172.026q-1.275-.354-2.53-.741l-3.35,3.8c.837.257,1.682.5,2.533.738Z" transform="translate(-160.646 -97.058)" fill="#00feff"/>
            <path id="Trazado_678480" data-name="Trazado 678480" d="M210.794,173.511q-1.345-.26-2.671-.555l-2.5,4c.886.2,1.774.383,2.669.556Z" transform="translate(-159.497 -96.785)" fill="#00feff"/>
            <path id="Trazado_678481" data-name="Trazado 678481" d="M262.949,167.949c-.737.346-1.487.678-2.244,1l4.518,3.364c.756-.326,1.506-.658,2.244-1Z" transform="translate(-150.537 -97.6)" fill="#00feff"/>
            <path id="Trazado_678482" data-name="Trazado 678482" d="M273.237,168.227l-5.215-3.01c-.327.2-.641.4-.977.594s-.687.376-1.029.564l5.213,3.01c.342-.189.692-.37,1.029-.564S272.908,168.425,273.237,168.227Z" transform="translate(-149.673 -98.044)" fill="#00feff"/>
            <path id="Trazado_678483" data-name="Trazado 678483" d="M257.3,170.276q-1.209.433-2.442.834l3.754,3.665q1.231-.4,2.442-.835Z" transform="translate(-151.488 -97.222)" fill="#00feff"/>
            <path id="Trazado_678484" data-name="Trazado 678484" d="M251.192,172.183c-.86.228-1.728.448-2.6.651l2.928,3.907c.874-.206,1.741-.426,2.6-.652Z" transform="translate(-152.508 -96.911)" fill="#00feff"/>
            <path id="Trazado_678485" data-name="Trazado 678485" d="M244.706,173.617q-1.355.246-2.725.453l2.056,4.087c.914-.141,1.823-.29,2.728-.452Z" transform="translate(-153.583 -96.678)" fill="#00feff"/>
          </g>
        </g>
      </g>
      <path id="Trazado_678486" data-name="Trazado 678486" d="M233.7,141.818a11.075,11.075,0,0,0-10.048,0c-2.765,1.607-2.751,4.214.033,5.82a11.075,11.075,0,0,0,10.048,0C236.494,146.031,236.479,143.424,233.7,141.818Z" transform="translate(-84.435 -15.115)" fill="url(#radial-gradient-2)"/>
      <g id="Grupo_909127" data-name="Grupo 909127" transform="translate(104.825)">
        <path id="Trazado_678487" data-name="Trazado 678487" d="M232.714,133.831l0-41.184L230.017,94.2l0,41.184-2.062,1.19,3.433,4.805,3.384-8.741Z" transform="translate(-188.223 -22.918)" fill="url(#linear-gradient)"/>
        <path id="Trazado_678488" data-name="Trazado 678488" d="M228.535,101.734,225.1,96.929l-3.384,8.741,2.062-1.19,0,41.184,2.694-1.555,0-41.184Z" transform="translate(-189.239 -22.222)" fill="#00feff"/>
        <g id="Grupo_909126" data-name="Grupo 909126">
          <g id="Grupo_909125" data-name="Grupo 909125" transform="translate(59.508 33.441)">
            <path id="Trazado_678501" data-name="Trazado 678501" d="M261,69.823,245.688,62.16l3.888,19.929,2.6-5.606,4.17,5.993,3.981-4.275-4.17-5.993Z" transform="translate(-244.847 -61.319)" fill="#00feff"/>
            <path id="Trazado_678502" data-name="Trazado 678502" d="M256.464,83.434l-.058,0a.84.84,0,0,1-.63-.358l-3.336-4.793-1.986,4.28a.84.84,0,0,1-1.586-.193L244.98,62.438a.84.84,0,0,1,1.2-.912l15.311,7.663a.839.839,0,0,1,0,1.5l-3.965,1.954,3.611,5.191a.842.842,0,0,1-.074,1.053l-3.981,4.274A.839.839,0,0,1,256.464,83.434Zm-4.169-7.674a.838.838,0,0,1,.688.36l3.576,5.138,2.809-3.016-3.782-5.437a.84.84,0,0,1,.317-1.234l3.323-1.637-12.27-6.142L250.02,79.5l1.511-3.257a.84.84,0,0,1,.689-.483Q252.258,75.76,252.295,75.76Z" transform="translate(-244.965 -61.437)" fill="#fff"/>
          </g>
        </g>
      </g>
    </g>
    <path id="Trazado_678572" data-name="Trazado 678572" d="M281,111.13V109.2c0-1.287-1.048-1.73-2.333-.987a4.847,4.847,0,0,0-2.334,3.681v1.923a1.339,1.339,0,0,0-.581.974v4.489c0,.362.293.485.655.277l4.489-2.592a1.357,1.357,0,0,0,.653-1.032v-4.489C281.545,111.122,281.306,111,281,111.13Zm-1.875,4.5a.984.984,0,0,1-.474.748c-.262.151-.474.062-.474-.2v-1.094a.984.984,0,0,1,.474-.748c.262-.151.474-.062.474.2Zm1.1-4.068-3.111,1.8v-1.908a3.231,3.231,0,0,1,1.556-2.454c.857-.5,1.556-.2,1.556.658Z" transform="translate(921.581 95.473)" fill="#fff"/>
  </g>
</svg>
