<svg xmlns="http://www.w3.org/2000/svg" xmlns:xlink="http://www.w3.org/1999/xlink" width="375.387" height="416.477" viewBox="0 0 375.387 416.477">
  <defs>
    <linearGradient id="linear-gradient" x1="-1.508" y1="0.5" x2="-0.508" y2="0.5" gradientUnits="objectBoundingBox">
      <stop offset="0" stop-color="#ebe6e2"/>
      <stop offset="1" stop-color="#fcf7f1"/>
    </linearGradient>
    <linearGradient id="linear-gradient-2" x1="-2.503" y1="0.5" x2="-1.503" y2="0.5" xlink:href="#linear-gradient"/>
    <linearGradient id="linear-gradient-3" y1="0.5" x2="1" y2="0.5" gradientUnits="objectBoundingBox">
      <stop offset="0" stop-color="#cec9c1"/>
      <stop offset="0.283" stop-color="#d7d2ca"/>
      <stop offset="1" stop-color="#ece7de"/>
    </linearGradient>
    <linearGradient id="linear-gradient-4" y1="0.5" x2="1" y2="0.5" gradientUnits="objectBoundingBox">
      <stop offset="0" stop-color="#25c9c9"/>
      <stop offset="1" stop-color="#bbfffa"/>
    </linearGradient>
    <linearGradient id="linear-gradient-6" y1="0.5" x2="1" y2="0.5" gradientUnits="objectBoundingBox">
      <stop offset="0" stop-color="#02dde5"/>
      <stop offset="1" stop-color="#e8f8ed"/>
    </linearGradient>
    <linearGradient id="linear-gradient-8" x1="-0.116" y1="0.634" x2="1.05" y2="0.719" gradientUnits="objectBoundingBox">
      <stop offset="0" stop-color="#0aa0a1"/>
      <stop offset="0.431" stop-color="#48fcfc"/>
      <stop offset="1" stop-color="#a7f9f9"/>
    </linearGradient>
    <radialGradient id="radial-gradient" cx="0.5" cy="0.5" r="0.5" gradientUnits="objectBoundingBox">
      <stop offset="0" stop-color="#5efdfd"/>
      <stop offset="1" stop-color="#0c7e9b"/>
    </radialGradient>
    <linearGradient id="linear-gradient-10" x1="-1.426" y1="0.5" x2="-0.426" y2="0.5" xlink:href="#linear-gradient"/>
    <linearGradient id="linear-gradient-11" x1="-2.367" y1="0.5" x2="-1.367" y2="0.5" xlink:href="#linear-gradient"/>
    <linearGradient id="linear-gradient-12" y1="0.5" x2="1" y2="0.5" gradientUnits="objectBoundingBox">
      <stop offset="0" stop-color="#d9d6d0"/>
      <stop offset="1" stop-color="#eeebe5"/>
    </linearGradient>
  </defs>
  <g id="Grupo_913739" data-name="Grupo 913739" transform="translate(-934.862 -115.917)">
    <g id="Grupo_913738" data-name="Grupo 913738">
      <g id="_1" data-name="1" transform="translate(906.833 105.566)">
        <path id="Trazado_678274" data-name="Trazado 678274" d="M95.334,289.986,78.688,299.6l10.568,6.1h4.612Z" transform="translate(-17.309 19.535)" fill="#3b8a80"/>
        <path id="Trazado_678275" data-name="Trazado 678275" d="M255.009,372.229l-22.522,13,14.3,8.255h6.239Z" transform="translate(7.711 32.914)" fill="#0b5999" opacity="0.54"/>
        <path id="Trazado_678276" data-name="Trazado 678276" d="M124.369,258.445l-20.635,11.914,14.513,8.379h6.333Z" transform="translate(-13.234 14.404)" fill="#3b8a80"/>
        <path id="Trazado_678277" data-name="Trazado 678277" d="M366.82,313.652l-16.646,9.611,10.568,6.1h4.612Z" transform="translate(26.856 23.384)" fill="#0b5999" opacity="0.61"/>
        <g id="Grupo_909076" data-name="Grupo 909076" transform="translate(381.887 335.821)">
          <path id="Cube_face_-_left" data-name="Cube face - left" d="M364.673,328.628l-10.321-5.959v-4.5l10.321,5.959Z" transform="translate(-354.352 -311.702)" fill="#c0bbb1"/>
          <path id="Cube_face_-_right" data-name="Cube face - right" d="M374.436,322.229,363.229,328.7v-4.5l11.207-6.471Z" transform="translate(-352.908 -311.773)" fill="#ece7de"/>
          <path id="Cube_face_-_top" data-name="Cube face - top" d="M364.673,325.037l-10.321-5.959,11.207-6.471,10.321,5.959Z" transform="translate(-354.352 -312.607)" fill="#faf6f0"/>
        </g>
        <path id="Trazado_678278" data-name="Trazado 678278" d="M308.446,268.889,291.8,278.5l10.568,6.1h4.612Z" transform="translate(17.36 16.103)" fill="#0b5999" opacity="0.51"/>
        <g id="Grupo_909077" data-name="Grupo 909077" transform="translate(314.017 283.777)">
          <path id="Cube_face_-_left-2" data-name="Cube face - left" d="M306.3,283.866l-10.321-5.959v-4.5l10.321,5.959Z" transform="translate(-295.978 -266.939)" fill="#c0bbb1"/>
          <path id="Cube_face_-_right-2" data-name="Cube face - right" d="M316.062,277.467l-11.207,6.471v-4.5l11.207-6.471Z" transform="translate(-294.534 -267.011)" fill="#ece7de"/>
          <path id="Cube_face_-_top-2" data-name="Cube face - top" d="M306.3,280.274l-10.321-5.959,11.207-6.47,10.321,5.959Z" transform="translate(-295.978 -267.845)" fill="#faf6f0"/>
        </g>
        <g id="Grupo_909078" data-name="Grupo 909078" transform="translate(66.237 308.306)">
          <path id="Cube_face_-_left-3" data-name="Cube face - left" d="M93.187,304.963,82.866,299v-4.5l10.321,5.959Z" transform="translate(-82.866 -288.036)" fill="#c0bbb1"/>
          <path id="Cube_face_-_right-3" data-name="Cube face - right" d="M102.951,298.564l-11.207,6.471v-4.5l11.207-6.47Z" transform="translate(-81.422 -288.108)" fill="#ece7de"/>
          <path id="Cube_face_-_top-3" data-name="Cube face - top" d="M93.187,301.371l-10.321-5.959,11.207-6.471,10.321,5.959Z" transform="translate(-82.866 -288.942)" fill="#faf6f0"/>
        </g>
        <g id="Grupo_909079" data-name="Grupo 909079" transform="translate(246.771 403.499)">
          <path id="Cube_face_-_left-4" data-name="Cube face - left" d="M252.1,392.492l-13.964-8.062v-6.084l13.964,8.062Z" transform="translate(-238.141 -369.591)" fill="#c0bbb1"/>
          <path id="Cube_face_-_right-4" data-name="Cube face - right" d="M265.315,383.835l-15.163,8.755V386.5l15.163-8.755Z" transform="translate(-236.187 -369.688)" fill="#ece7de"/>
          <path id="Cube_face_-_top-4" data-name="Cube face - top" d="M252.1,387.633l-13.964-8.062,15.163-8.755,13.964,8.062Z" transform="translate(-238.141 -370.816)" fill="#faf6f0"/>
        </g>
        <g id="Grupo_909091" data-name="Grupo 909091" transform="translate(336.392 259.237)">
          <path id="Trazado_678279" data-name="Trazado 678279" d="M346.156,305.35c-3.013,1.416,5.037,6.783-5.466,6.783-14.066,0-25.468-5.9-25.468-13.167s11.4-13.167,25.468-13.167c7.025,0,14.9,1.289,20.719,5.508a11.168,11.168,0,0,1,4.483,5.746c.451,1.624.234,2.227-1.125,2.7a20.494,20.494,0,0,1-2.493.171,23.452,23.452,0,0,0-8.9,2.107C350.316,303.426,347.361,304.782,346.156,305.35Z" transform="translate(-315.222 -240.384)" fill="#0b5999" opacity="0.38"/>
          <g id="_2" data-name="2" transform="translate(10.808)">
            <g id="Grupo_909081" data-name="Grupo 909081" transform="translate(30.832 50.759)">
              <g id="Grupo_909080" data-name="Grupo 909080">
                <path id="Trazado_678280" data-name="Trazado 678280" d="M360.744,292.865a37.739,37.739,0,0,0-5.191-2.47c-1.268,1.359-2.218,2.63-3.467,4.011,6.209,3.333,9.032,4.575,10.533,2.4C363.5,295.026,362.37,293.863,360.744,292.865Z" transform="translate(-350.865 -290.395)" fill="#4ba093"/>
                <path id="Trazado_678281" data-name="Trazado 678281" d="M360.012,293.083A33.288,33.288,0,0,0,355.156,291c-.975,1.022-1.961,2.036-2.911,3.086-.41.455-.808.917-1.209,1.379,1.824.993,3.669,1.071,5.046,1.635,3.516,1.442,5.279,1.288,6.6-.088C363.781,295.874,361.7,293.946,360.012,293.083Z" transform="translate(-351.036 -290.296)" fill="#f8f3ed"/>
              </g>
            </g>
            <path id="Trazado_678282" data-name="Trazado 678282" d="M343.091,278.72c-.217-.136-3.208,1.48-4.518,3.724-1.878,3.215-1.9,6.8-1.65,7.155.366.521,11.851,2.83,17.059,3.937l8.735-7.3C360.832,284.482,346.014,280.54,343.091,278.72Z" transform="translate(-322.518 -241.537)" fill="#403642"/>
            <path id="Trazado_678283" data-name="Trazado 678283" d="M361.109,284.692a30.952,30.952,0,0,0-13.5,6.368,109.047,109.047,0,0,1-10.7,7.991s2.823,5.62,3.9,5.409c10.3-6.19,24.486-10.314,23.7-16.068C364.011,284.815,361.515,284.609,361.109,284.692Z" transform="translate(-322.502 -240.566)" fill="#403642"/>
            <g id="Grupo_909082" data-name="Grupo 909082" transform="translate(11.633 60.553)">
              <path id="Trazado_678284" data-name="Trazado 678284" d="M335.61,301.221a43.031,43.031,0,0,0,2.81,7.069c.657,1.329,1.942,2.477,3.7,1.318,2.639-1.738,1.285-4.893-2.593-10.79C338.238,299.646,336.918,300.424,335.61,301.221Z" transform="translate(-334.346 -298.819)" fill="#f8f3ed"/>
              <path id="Trazado_678285" data-name="Trazado 678285" d="M334.523,301.126c1.028,2.21,2.639,4.837,3.569,6.719a4.074,4.074,0,0,0,1.878,2,1.72,1.72,0,0,0,2.37-.928c.531-1.736-.884-4.795-3.855-9.356C337.226,300.331,335.768,300.334,334.523,301.126Z" transform="translate(-334.523 -298.698)" fill="#4ba093"/>
            </g>
            <path id="Trazado_678286" data-name="Trazado 678286" d="M327.993,296.6c-.466,8.729,3.078,10.022,4.546,10.286,3.63.651,9.151-4.044,12.98-7.442,3.622-3.215,4.854-5.194,6.506-6.623-3.349.149-10.834,1.089-11.929,1.189,0,0,.866-11.912-.785-12.813a2.8,2.8,0,0,0-1.384-.23,43.876,43.876,0,0,0-4.8.31c-1.03.124-4.673.243-4.673.243.114.827-.026,3.745-.049,4.264C328.32,287.668,328.151,293.63,327.993,296.6Z" transform="translate(-323.959 -241.17)" fill="#403642"/>
            <g id="Grupo_909083" data-name="Grupo 909083" transform="translate(13.735 6.714)">
              <path id="Trazado_678287" data-name="Trazado 678287" d="M346.547,270.907c-.217-1.8-.623-6.509-.623-6.509s-.522-1.293-1.2-.86a20.077,20.077,0,0,1-5.877,2.851c.989,2.992,1.99,5.752,2.528,7.206.293.792,5.685,10.594,5.867,11.5l3.537-1.614C350.337,283.157,346.587,271.239,346.547,270.907Z" transform="translate(-335.921 -250.733)" fill="#fbbd9e"/>
              <path id="Trazado_678288" data-name="Trazado 678288" d="M338.413,270.7c.607,2.142,9.033.05,9.336-1.739-.044-3.678-3.438-17.419-8.284-16.395C339.466,252.567,333.177,252.8,338.413,270.7Z" transform="translate(-336.331 -252.512)" fill="#3b3caa"/>
            </g>
            <path id="Trazado_678289" data-name="Trazado 678289" d="M326.424,261.09c-3.188,3.959.691,10,1.687,13.459,1.093,3.794.677,6.5.533,10.818-.214,6.382,20.886,2.718,17.1-4.322a12.941,12.941,0,0,1-1.2-2.68c-.5-1.837,1.07-8.262,2.235-15.695a10,10,0,0,0,.107-1.956,11.443,11.443,0,0,0-.26-2.3c-.279-1.168-2.332-3.938-3.46-4.352C339.354,252.661,327.668,259.543,326.424,261.09Z" transform="translate(-324.408 -245.577)" fill="#3b3caa"/>
            <g id="Grupo_909088" data-name="Grupo 909088" transform="translate(10.293 41.106)">
              <g id="Grupo_909084" data-name="Grupo 909084" style="isolation: isolate">
                <path id="Trazado_678290" data-name="Trazado 678290" d="M333.371,290.422v.431a.238.238,0,0,0,.142.2l10.912,6.3a.752.752,0,0,0,.686,0l15.437-8.97a.239.239,0,0,0,.141-.2v-.43Z" transform="translate(-333.37 -281.172)" fill="#e6e1e0"/>
                <path id="Trazado_678291" data-name="Trazado 678291" d="M360.545,288.474l-10.912-6.3a.756.756,0,0,0-.685,0l-15.437,8.971a.21.21,0,0,0,0,.4l10.912,6.3a.759.759,0,0,0,.686,0l15.437-8.971C360.737,288.762,360.735,288.584,360.545,288.474Z" transform="translate(-333.37 -282.092)" fill="url(#linear-gradient)"/>
              </g>
              <path id="Trazado_678292" data-name="Trazado 678292" d="M347.595,287.256,342.5,290.2a.455.455,0,0,1-.414,0l-3.375-1.949a.127.127,0,0,1,0-.24l5.091-2.94a.466.466,0,0,1,.415,0l3.375,1.949A.127.127,0,0,1,347.595,287.256Z" transform="translate(-332.515 -281.616)" fill="#e6e1e0" opacity="0.3" style="mix-blend-mode: multiply;isolation: isolate"/>
              <path id="Trazado_678293" data-name="Trazado 678293" d="M340.114,293.448l-.686.4a.268.268,0,0,1-.242,0l-.577-.332a.073.073,0,0,1,0-.14l.686-.4a.268.268,0,0,1,.242,0l.577.334C340.181,293.348,340.181,293.41,340.114,293.448Zm1.108-.779-.577-.333a.261.261,0,0,0-.242,0l-.686.4c-.067.04-.067.1,0,.14l.577.334a.268.268,0,0,0,.242,0l.686-.4A.073.073,0,0,0,341.222,292.669Zm1.108-.639-.577-.334a.268.268,0,0,0-.242,0l-.686.4a.074.074,0,0,0,0,.14l.577.334a.268.268,0,0,0,.242,0l.686-.4A.073.073,0,0,0,342.33,292.03Zm1.109-.639-.578-.334a.268.268,0,0,0-.242,0l-.686.4a.074.074,0,0,0,0,.139l.578.334a.266.266,0,0,0,.241,0l.687-.4A.074.074,0,0,0,343.439,291.39Zm1.108-.641-.578-.333a.269.269,0,0,0-.242,0l-.686.4c-.066.038-.066.1,0,.139l.578.333a.266.266,0,0,0,.241,0l.687-.4C344.613,290.851,344.613,290.789,344.547,290.749Zm1.108-.639-.578-.333a.259.259,0,0,0-.241,0l-.687.4a.074.074,0,0,0,0,.14l.578.334a.266.266,0,0,0,.241,0l.687-.4A.074.074,0,0,0,345.655,290.11Zm1.108-.639-.578-.334a.266.266,0,0,0-.241,0l-.687.4a.074.074,0,0,0,0,.14l.578.334a.266.266,0,0,0,.241,0l.687-.4A.074.074,0,0,0,346.763,289.47Zm1.108-.639-.578-.334a.266.266,0,0,0-.241,0l-.687.4a.074.074,0,0,0,0,.14l.578.333a.261.261,0,0,0,.242,0l.686-.4C347.937,288.931,347.937,288.869,347.871,288.831Zm1.108-.641-.577-.333a.269.269,0,0,0-.242,0l-.686.4c-.067.038-.067.1,0,.138l.577.334a.269.269,0,0,0,.242,0l.686-.4A.074.074,0,0,0,348.979,288.19Zm1.465-.845-.577-.334a.268.268,0,0,0-.242,0l-1.043.6a.073.073,0,0,0,0,.14l.577.334a.269.269,0,0,0,.242,0l1.043-.6A.073.073,0,0,0,350.444,287.345Zm4.162,1.106-.577-.333a.261.261,0,0,0-.242,0l-.686.4a.073.073,0,0,0,0,.139l.577.334a.269.269,0,0,0,.242,0l.686-.4A.073.073,0,0,0,354.606,288.451Zm1.108-.639-.577-.334a.269.269,0,0,0-.242,0l-.686.4a.074.074,0,0,0,0,.14l.577.334a.268.268,0,0,0,.242,0l.686-.4A.073.073,0,0,0,355.714,287.811Zm1.108-.639-.577-.334a.269.269,0,0,0-.242,0l-.686.4c-.066.038-.066.1,0,.139l.577.333a.269.269,0,0,0,.242,0l.686-.4C356.89,287.272,356.89,287.21,356.822,287.172Zm-1.2,1.864-.578-.334a.268.268,0,0,0-.242,0l-.686.4c-.066.04-.066.1,0,.14l.578.334a.266.266,0,0,0,.241,0l.687-.4A.074.074,0,0,0,355.62,289.036Zm1.108-.64-.578-.334a.266.266,0,0,0-.241,0l-.687.4a.074.074,0,0,0,0,.14l.578.334a.266.266,0,0,0,.241,0l.687-.4A.074.074,0,0,0,356.728,288.4Zm1.108-.639-.578-.334a.266.266,0,0,0-.241,0l-.687.4a.074.074,0,0,0,0,.139l.578.333a.266.266,0,0,0,.241,0l.687-.4A.073.073,0,0,0,357.836,287.757ZM341.5,293.682l-.577-.334a.269.269,0,0,0-.242,0l-1.044.6a.073.073,0,0,0,0,.138l.578.334a.268.268,0,0,0,.242,0l1.043-.6A.073.073,0,0,0,341.5,293.682Zm1.108-.64-.577-.334a.269.269,0,0,0-.242,0l-.686.4a.073.073,0,0,0,0,.14l.577.333a.269.269,0,0,0,.242,0l.686-.4C342.678,293.142,342.678,293.081,342.611,293.042Zm1.108-.641-.577-.333a.269.269,0,0,0-.242,0l-.686.4a.073.073,0,0,0,0,.138l.577.334a.268.268,0,0,0,.242,0l.686-.4A.073.073,0,0,0,343.719,292.4Zm1.108-.639-.577-.334a.268.268,0,0,0-.242,0l-.686.4a.074.074,0,0,0,0,.14l.577.334a.268.268,0,0,0,.242,0l.686-.4A.073.073,0,0,0,344.827,291.762Zm1.109-.64-.578-.334a.268.268,0,0,0-.242,0l-.686.4a.074.074,0,0,0,0,.14l.578.334a.266.266,0,0,0,.241,0l.687-.4A.074.074,0,0,0,345.936,291.123Zm1.108-.639-.578-.334a.266.266,0,0,0-.241,0l-.687.4c-.066.038-.066.1,0,.139l.578.332a.266.266,0,0,0,.241,0l.687-.4A.073.073,0,0,0,347.044,290.483Zm1.108-.641-.578-.333a.259.259,0,0,0-.241,0l-.687.4c-.066.04-.066.1,0,.14l.578.334a.266.266,0,0,0,.241,0l.687-.4A.074.074,0,0,0,348.152,289.842Zm1.108-.639-.578-.334a.266.266,0,0,0-.241,0l-.687.4a.074.074,0,0,0,0,.14l.578.334a.269.269,0,0,0,.242,0l.686-.4A.074.074,0,0,0,349.26,289.2Zm1.108-.639-.578-.334a.266.266,0,0,0-.241,0l-.687.4a.074.074,0,0,0,0,.14l.578.332a.261.261,0,0,0,.242,0l.686-.4C350.435,288.664,350.435,288.6,350.368,288.564Zm1.108-.641-.577-.333a.269.269,0,0,0-.242,0l-.686.4c-.067.038-.067.1,0,.139l.577.333a.268.268,0,0,0,.242,0l.686-.4C351.543,288.024,351.543,287.962,351.476,287.923Zm-9.349,6.549-.577-.334a.268.268,0,0,0-.242,0l-.686.4a.073.073,0,0,0,0,.139l.577.332a.268.268,0,0,0,.242,0l.686-.4C342.195,294.572,342.195,294.511,342.127,294.472Zm1.108-.641-.577-.333a.261.261,0,0,0-.242,0l-.686.4c-.067.04-.067.1,0,.14l.577.334a.269.269,0,0,0,.242,0l.686-.4A.073.073,0,0,0,343.235,293.832Zm1.108-.64-.577-.334a.268.268,0,0,0-.242,0l-.686.4a.074.074,0,0,0,0,.14l.577.334a.269.269,0,0,0,.242,0l.686-.4A.073.073,0,0,0,344.343,293.192Zm1.108-.639-.577-.334a.268.268,0,0,0-.242,0l-.686.4a.074.074,0,0,0,0,.14l.577.332a.268.268,0,0,0,.242,0l.686-.4A.073.073,0,0,0,345.451,292.553Zm-1.314,3.079-.578-.333a.269.269,0,0,0-.242,0l-.686.4a.073.073,0,0,0,0,.138l.578.334a.266.266,0,0,0,.241,0l.687-.4A.074.074,0,0,0,344.138,295.632Zm1.108-.64-.578-.332a.259.259,0,0,0-.241,0l-.687.4a.074.074,0,0,0,0,.14l.578.334a.266.266,0,0,0,.241,0l.687-.4A.074.074,0,0,0,345.246,294.992Zm1.108-.639-.578-.334a.266.266,0,0,0-.241,0l-.687.4a.074.074,0,0,0,0,.14l.578.334a.266.266,0,0,0,.241,0l.687-.4A.074.074,0,0,0,346.354,294.353Zm1.108-.639-.578-.334a.266.266,0,0,0-.241,0l-.687.4a.074.074,0,0,0,0,.14l.578.333a.269.269,0,0,0,.242,0l.686-.4A.073.073,0,0,0,347.462,293.713Zm7-4.041-.577-.334a.268.268,0,0,0-.242,0l-1.044.6a.074.074,0,0,0,0,.14l.578.334a.266.266,0,0,0,.241,0l1.044-.6A.074.074,0,0,0,354.461,289.672Zm-7.9,2.24-.578-.333a.269.269,0,0,0-.242,0l-.686.4c-.066.038-.066.1,0,.14l.578.333a.266.266,0,0,0,.241,0l.687-.4C346.627,292.013,346.627,291.952,346.561,291.912Zm1.108-.639-.578-.333a.259.259,0,0,0-.241,0l-.687.4a.074.074,0,0,0,0,.14l.578.334a.266.266,0,0,0,.241,0l.687-.4A.074.074,0,0,0,347.669,291.273Zm1.108-.639-.578-.334a.266.266,0,0,0-.241,0l-.687.4a.074.074,0,0,0,0,.14l.578.334a.266.266,0,0,0,.241,0l.687-.4A.074.074,0,0,0,348.777,290.633Zm1.108-.639-.578-.334a.266.266,0,0,0-.241,0l-.687.4a.074.074,0,0,0,0,.139l.578.333a.268.268,0,0,0,.242,0l.686-.4C349.951,290.094,349.951,290.032,349.885,289.994Zm1.108-.641-.578-.333a.266.266,0,0,0-.241,0l-.687.4a.073.073,0,0,0,0,.138l.578.334a.269.269,0,0,0,.242,0l.686-.4A.074.074,0,0,0,350.993,289.353Zm1.465-.845-.577-.334a.269.269,0,0,0-.242,0l-1.043.6a.073.073,0,0,0,0,.14l.577.334a.268.268,0,0,0,.242,0l1.043-.6C352.525,288.608,352.525,288.546,352.458,288.508Zm-8.941,6.337-.577-.334a.269.269,0,0,0-.242,0l-1.044.6a.074.074,0,0,0,0,.14l.578.334a.266.266,0,0,0,.241,0l1.044-.6A.074.074,0,0,0,343.517,294.844Zm1.108-.641-.577-.333a.269.269,0,0,0-.242,0l-.686.4a.073.073,0,0,0,0,.139l.577.333a.269.269,0,0,0,.242,0l.686-.4A.074.074,0,0,0,344.625,294.2Zm1.108-.639-.577-.333a.268.268,0,0,0-.242,0l-.686.4c-.067.038-.067.1,0,.138l.577.334a.269.269,0,0,0,.242,0l.686-.4A.073.073,0,0,0,345.733,293.564Zm1.108-.639-.577-.334a.268.268,0,0,0-.242,0l-.686.4a.074.074,0,0,0,0,.14l.577.334a.268.268,0,0,0,.242,0l.686-.4A.073.073,0,0,0,346.841,292.925Zm1.108-.639-.577-.334a.268.268,0,0,0-.242,0l-.686.4a.074.074,0,0,0,0,.139l.577.334a.268.268,0,0,0,.242,0l.686-.4A.073.073,0,0,0,347.949,292.285Zm1.109-.641-.578-.333a.269.269,0,0,0-.242,0l-.686.4a.073.073,0,0,0,0,.138l.578.334a.266.266,0,0,0,.241,0l.687-.4A.074.074,0,0,0,349.058,291.645Zm1.108-.639-.578-.333a.259.259,0,0,0-.241,0l-.687.4c-.066.04-.066.1,0,.14l.578.334a.266.266,0,0,0,.241,0l.687-.4A.074.074,0,0,0,350.166,291.005Zm1.108-.639-.578-.334a.266.266,0,0,0-.241,0l-.687.4a.074.074,0,0,0,0,.14l.578.334a.266.266,0,0,0,.241,0l.687-.4A.074.074,0,0,0,351.274,290.366Zm1.108-.639-.578-.334a.266.266,0,0,0-.241,0l-.687.4a.074.074,0,0,0,0,.139l.578.333a.261.261,0,0,0,.242,0l.686-.4A.073.073,0,0,0,352.382,289.726Zm1.108-.641-.577-.333a.269.269,0,0,0-.242,0l-.687.4c-.066.04-.066.1,0,.14l.578.334a.269.269,0,0,0,.242,0l.686-.4A.074.074,0,0,0,353.49,289.086Zm-1.917-2.386-.577-.334a.268.268,0,0,0-.242,0l-.686.4a.073.073,0,0,0,0,.14l.577.334a.269.269,0,0,0,.242,0l.686-.4A.073.073,0,0,0,351.573,286.7Zm1.108-.639-.577-.334a.269.269,0,0,0-.242,0l-.686.4c-.066.038-.066.1,0,.14l.577.333a.268.268,0,0,0,.242,0l.686-.4C352.748,286.16,352.748,286.1,352.681,286.06Zm1.109-.641-.578-.332a.261.261,0,0,0-.242,0l-.686.4a.073.073,0,0,0,0,.138l.578.334a.266.266,0,0,0,.241,0l.687-.4A.074.074,0,0,0,353.79,285.42Zm1.01.584-.578-.334a.266.266,0,0,0-.241,0l-.687.4a.074.074,0,0,0,0,.14l.578.334a.266.266,0,0,0,.241,0l.687-.4A.074.074,0,0,0,354.8,286Z" transform="translate(-332.526 -281.61)" fill="#fff"/>
              <g id="Grupo_909087" data-name="Grupo 909087" transform="translate(3.154 11.356)">
                <g id="Grupo_909085" data-name="Grupo 909085">
                  <path id="Trazado_678294" data-name="Trazado 678294" d="M336.181,292.069l.46.265c.054.03.1.012.1-.042a.2.2,0,0,0-.1-.154l-.46-.265c-.053-.03-.1-.012-.1.042A.2.2,0,0,0,336.181,292.069Z" transform="translate(-336.083 -291.86)" fill="#bdb7b5"/>
                </g>
                <g id="Grupo_909086" data-name="Grupo 909086" transform="translate(0.86 0.496)">
                  <path id="Trazado_678295" data-name="Trazado 678295" d="M336.92,292.5l.46.265c.053.031.1.013.1-.041a.2.2,0,0,0-.1-.153l-.46-.265c-.054-.03-.1-.013-.1.042A.2.2,0,0,0,336.92,292.5Z" transform="translate(-336.823 -292.286)" fill="#bdb7b5"/>
                </g>
                <path id="Trazado_678296" data-name="Trazado 678296" d="M339.285,293.827l-1.337-.772v-.122l1.337.772Z" transform="translate(-335.779 -291.685)" fill="#bdb7b5"/>
              </g>
            </g>
            <path id="Trazado_678297" data-name="Trazado 678297" d="M340.259,263.109a2.46,2.46,0,0,1-1.579,1.15,4.758,4.758,0,0,1-3.614-.444,5.1,5.1,0,0,1-2.5-4.936,1.1,1.1,0,0,1,.31-.658,9.22,9.22,0,0,0,2.315-4.954,1.167,1.167,0,0,1,1.872-.693c2.344,1.843,4.173,5.434,4.153,6.985A9.21,9.21,0,0,1,340.259,263.109Z" transform="translate(-323.213 -245.83)" fill="#f2a883"/>
            <g id="Grupo_909089" data-name="Grupo 909089" transform="translate(0 14.585)">
              <path id="Trazado_678298" data-name="Trazado 678298" d="M349.879,293.658a13.845,13.845,0,0,0-.944-2.778c.385,0,.692-.151.409-.584a9.008,9.008,0,0,0-2.1-2.5,5.322,5.322,0,0,0-.884-.514,2.043,2.043,0,0,0-.831-.167,5.6,5.6,0,0,1-1.449-.1c-3.072-2.274-8.495-7.454-10.09-8.842a1.139,1.139,0,0,1-.4-.864c0-1.8.135-3.688.209-5.568a1.075,1.075,0,0,0-1.545-1,20.051,20.051,0,0,1-6.169,2.1c.615,3.09,1.27,5.952,1.624,7.461a3.955,3.955,0,0,0,1.271,2.116c2.616,2.229,9.28,5.226,12.736,7.19,1.213.786,2.993,4.936,3.895,5.576.729.519,2.475.074,3.55-.274A1.061,1.061,0,0,0,349.879,293.658Z" transform="translate(-324.261 -257.436)" fill="#fbbd9e"/>
              <path id="Trazado_678299" data-name="Trazado 678299" d="M325.331,277.159c.339,2.2,8.958,1.158,9.478-.581.408-3.654-1.273-17.709-6.21-17.287C328.6,259.291,322.33,258.753,325.331,277.159Z" transform="translate(-324.517 -259.282)" fill="#3b3caa"/>
            </g>
            <path id="Trazado_678300" data-name="Trazado 678300" d="M351.844,283c-1.215-1.293-2.113-2.229-2.236-2.318a3.273,3.273,0,0,0-3.537,1.614c.124.619.493,2.21.671,2.816.3,1.034.486,5.013,1.554,5.3.9.245,5.075-1.086,4.929-2.733C353.225,287.684,353.337,284.591,351.844,283Z" transform="translate(-321.011 -241.223)" fill="#fbbd9e"/>
            <g id="Grupo_909090" data-name="Grupo 909090" transform="translate(21.824 36.981)">
              <path id="Trazado_678301" data-name="Trazado 678301" d="M343.431,297.487l3.726-10.452-.112-.109-3.726,10.453c-.047.128-.04.217.008.264l.112.109C343.392,297.7,343.385,297.615,343.431,297.487Z" transform="translate(-343.288 -277.182)" fill="#e6e1e0"/>
              <path id="Trazado_678302" data-name="Trazado 678302" d="M362.867,278.582c-.066-.065-.213-.047-.408.066l-15.13,8.735a2.062,2.062,0,0,0-.809.9l.112.109a2.055,2.055,0,0,1,.809-.9l15.13-8.735c.2-.113.342-.131.408-.066Z" transform="translate(-342.762 -278.545)" fill="url(#linear-gradient-2)"/>
              <path id="Trazado_678303" data-name="Trazado 678303" d="M363.081,278.742l-15.13,8.735a2.055,2.055,0,0,0-.809.9l-3.726,10.452c-.11.307.081.389.416.2l15.13-8.735a2.056,2.056,0,0,0,.808-.9l3.728-10.454C363.606,278.632,363.416,278.55,363.081,278.742Z" transform="translate(-343.272 -278.53)" fill="#d9d5d4"/>
              <path id="Trazado_678304" data-name="Trazado 678304" d="M353.8,287.091a2.583,2.583,0,0,1-1.238,1.73c-.685.438-1.239.373-1.239-.145a2.581,2.581,0,0,1,1.239-1.73C353.242,286.507,353.8,286.572,353.8,287.091Z" transform="translate(-341.982 -277.225)" fill="#c8c3c2"/>
            </g>
            <path id="Trazado_678305" data-name="Trazado 678305" d="M343.674,250.042a5.481,5.481,0,0,0-4.884-2.912,7.412,7.412,0,0,0-2.154.7c-2.106.76-2.5,4.253-2.585,6.23-.108,2.5-.008,5.209,1.618,7.154,3.146,3.761,6.733,4.222,7.151,1.832.037-.213.053-.477.248-.572a1.52,1.52,0,0,1,.227-.062c.35-.1.449-.549.453-.914a5.979,5.979,0,0,0-.067-.966,2.673,2.673,0,0,1-.06-.743c.067-.546.516-.953.809-1.42.7-1.113.62-2.869.516-4.127A9.848,9.848,0,0,0,343.674,250.042Z" transform="translate(-322.972 -246.674)" fill="#fbbd9e"/>
            <path id="Trazado_678306" data-name="Trazado 678306" d="M344.39,248.908a6.034,6.034,0,0,0-7.6-1.378c-5.569,1.316-5.512,7.757-2.175,11.93-.349-1.1,1.118-1.711,1.327-1.361.6,1.017.727,1.811,1.325,1.856.485.036.165-.888,1.563-1.474.244-.1,4.343-.12,6.213-1.707a1.08,1.08,0,0,0,.313-.465C345.683,255.406,347.12,251.924,344.39,248.908Z" transform="translate(-323.248 -246.738)" fill="#3b3caa"/>
            <path id="Trazado_678307" data-name="Trazado 678307" d="M335.278,256.027c-.937-1.076-2.61.3.05,3.293.269.3.618.606.967.394C337.058,259.25,335.826,256.655,335.278,256.027Z" transform="translate(-322.993 -245.286)" fill="#fbbd9e"/>
          </g>
        </g>
        <g id="Grupo_909092" data-name="Grupo 909092" transform="translate(97.171 265.925)">
          <path id="Cube_face_-_left-5" data-name="Cube face - left" d="M123.646,277.908l-14.175-8.184v-6.176l14.175,8.184Z" transform="translate(-109.472 -250.691)" fill="#c0bbb1"/>
          <path id="Cube_face_-_right-5" data-name="Cube face - right" d="M143.932,265.705l-22.268,12.857v-6.176l22.268-12.857Z" transform="translate(-107.488 -251.345)" fill="#ece7de"/>
          <path id="Cube_face_-_top-5" data-name="Cube face - top" d="M123.646,273.531l-14.175-8.184L131.74,252.49l14.175,8.184Z" transform="translate(-109.472 -252.49)" fill="#faf6f0"/>
        </g>
        <g id="Grupo_909137" data-name="Grupo 909137" transform="translate(0 0)">
          <g id="Grupo_909128" data-name="Grupo 909128" transform="translate(90.372 10.351)">
            <g id="Grupo_909105" data-name="Grupo 909105" transform="translate(0 132.6)">
              <path id="Trazado_678332" data-name="Trazado 678332" d="M200.545,268.673c-70.5,0-133.259,79.608-72.2,79.608H244.786l5.405-79.608Z" transform="translate(-103.624 -126.883)" fill="#0b5999" opacity="0.38"/>
              <g id="Grupo_909104" data-name="Grupo 909104" transform="translate(75.641 0)">
                <g id="Grupo_909097" data-name="Grupo 909097" transform="translate(0 119.126)">
                  <g id="Grupo_909096" data-name="Grupo 909096" style="isolation: isolate">
                    <path id="Trazado_678333" data-name="Trazado 678333" d="M180.384,321.96l3.782,2.917a54.037,54.037,0,0,0,6.015,4.007c24.773,14.306,64.833,14.306,89.446,0a53.694,53.694,0,0,0,5.6-3.719l3.8-2.9Z" transform="translate(-166.778 -237.34)" fill="#c0bbb1"/>
                    <path id="Trazado_678334" data-name="Trazado 678334" d="M280.647,259.909c-24.774-14.306-64.833-14.306-89.447,0s-24.486,37.508.293,51.811,64.832,14.306,89.446,0S305.425,274.212,280.647,259.909Z" transform="translate(-168.008 -249.18)" fill="#faf6f0"/>
                    <path id="Trazado_678335" data-name="Trazado 678335" d="M168.739,284.444l-.057,19.883c-.028,10.143,6.667,20.3,20.071,28.043,26.639,15.38,69.69,15.38,96.154,0,13.149-7.641,19.729-17.64,19.759-27.654l.056-19.883Z" transform="translate(-168.682 -243.443)" fill="url(#linear-gradient-3)"/>
                    <path id="Trazado_678336" data-name="Trazado 678336" d="M291.11,264.812l-3.782-2.918c17.234,13.3,16.875,31.818-1.136,44.834A54.609,54.609,0,0,1,281.6,309.7c-13.585,7.9-31.872,11.434-49.7,10.615-14.474-.666-28.645-4.2-39.746-10.614-22.73-13.121-24.72-33.732-5.891-48.091l-3.8,2.9c-20.242,15.439-18.1,37.589,6.333,51.7,11.936,6.892,27.169,10.7,42.728,11.411,19.162.881,38.821-2.923,53.426-11.411q2.642-1.536,4.931-3.193C309.252,299.014,309.637,279.109,291.11,264.812Z" transform="translate(-168.674 -247.158)" fill="#faf6f0"/>
                  </g>
                  <path id="Trazado_678337" data-name="Trazado 678337" d="M277.4,300.415a54.614,54.614,0,0,1-4.587,2.969c-13.585,7.9-31.872,11.434-49.7,10.615l-.374,7.3c19.162.881,38.821-2.923,53.426-11.411q2.642-1.536,4.931-3.193Z" transform="translate(-159.887 -240.845)" fill="#fff"/>
                  <path id="Trazado_678338" data-name="Trazado 678338" d="M172.788,264.6l-.054,18.506c-.027,9.441,6.205,18.9,18.682,26.1,24.793,14.315,64.862,14.315,89.495,0,12.237-7.112,18.362-16.418,18.389-25.739l.052-18.505Z" transform="translate(-168.023 -246.672)" fill="url(#linear-gradient-4)"/>
                </g>
                <g id="Grupo_909099" data-name="Grupo 909099" transform="translate(0 80.797)">
                  <g id="Grupo_909098" data-name="Grupo 909098" transform="translate(0 0)" style="isolation: isolate">
                    <path id="Trazado_678339" data-name="Trazado 678339" d="M180.384,289.149l3.782,2.918a54.191,54.191,0,0,0,6.015,4.005c24.773,14.306,64.833,14.306,89.446,0a53.893,53.893,0,0,0,5.6-3.721l3.8-2.9Z" transform="translate(-166.778 -204.349)" fill="#c0bbb1"/>
                    <ellipse id="Elipse_7540" data-name="Elipse 7540" cx="36.635" cy="63.249" rx="36.635" ry="63.249" transform="translate(4.709 73.271) rotate(-89.837)" fill="#faf6f0"/>
                    <path id="Trazado_678340" data-name="Trazado 678340" d="M168.739,251.633l-.057,19.883c-.028,10.144,6.667,20.3,20.071,28.043,26.639,15.38,69.69,15.38,96.154,0,13.149-7.641,19.729-17.64,19.759-27.654l.056-19.883Z" transform="translate(-168.682 -210.452)" fill="url(#linear-gradient-3)"/>
                    <path id="Trazado_678341" data-name="Trazado 678341" d="M291.11,232l-3.782-2.918c17.234,13.3,16.875,31.819-1.136,44.835q-2.129,1.538-4.587,2.969c-13.585,7.895-31.872,11.433-49.7,10.614-14.474-.665-28.645-4.2-39.746-10.614-22.73-13.121-24.72-33.732-5.891-48.091l-3.8,2.9c-20.242,15.438-18.1,37.588,6.333,51.7,11.936,6.892,27.169,10.7,42.728,11.412,19.162.88,38.821-2.924,53.426-11.412q2.642-1.536,4.931-3.193C309.252,266.2,309.637,246.3,291.11,232Z" transform="translate(-168.674 -214.167)" fill="#faf6f0"/>
                  </g>
                  <path id="Trazado_678342" data-name="Trazado 678342" d="M277.4,267.605q-2.129,1.538-4.587,2.969c-13.585,7.895-31.872,11.433-49.7,10.614l-.374,7.3c19.162.88,38.821-2.924,53.426-11.412q2.642-1.537,4.931-3.193Z" transform="translate(-159.887 -207.854)" fill="#fff"/>
                  <path id="Trazado_678343" data-name="Trazado 678343" d="M172.788,231.789l-.054,18.505c-.027,9.441,6.205,18.9,18.682,26.1,24.793,14.315,64.862,14.315,89.495,0,12.237-7.112,18.362-16.418,18.389-25.738l.052-18.506Z" transform="translate(-168.023 -213.68)" fill="url(#linear-gradient-6)"/>
                </g>
                <g id="Grupo_909101" data-name="Grupo 909101" transform="translate(0 41.149)">
                  <g id="Grupo_909100" data-name="Grupo 909100" style="isolation: isolate">
                    <path id="Trazado_678344" data-name="Trazado 678344" d="M180.384,255.048l3.782,2.918a54.182,54.182,0,0,0,6.015,4.005c24.773,14.306,64.833,14.306,89.446,0a53.892,53.892,0,0,0,5.6-3.72l3.8-2.9Z" transform="translate(-166.778 -170.248)" fill="#c0bbb1"/>
                    <ellipse id="Elipse_7541" data-name="Elipse 7541" cx="36.635" cy="63.248" rx="36.635" ry="63.248" transform="translate(4.709 73.271) rotate(-89.837)" fill="#faf6f0"/>
                    <path id="Trazado_678345" data-name="Trazado 678345" d="M168.739,217.532l-.057,19.883c-.028,10.144,6.667,20.3,20.071,28.043,26.639,15.38,69.69,15.38,96.154,0,13.149-7.641,19.729-17.64,19.759-27.654l.056-19.883Z" transform="translate(-168.682 -176.351)" fill="url(#linear-gradient-3)"/>
                    <path id="Trazado_678346" data-name="Trazado 678346" d="M291.11,197.9l-3.782-2.918c17.234,13.3,16.875,31.819-1.136,44.835q-2.129,1.538-4.587,2.969c-13.585,7.895-31.872,11.433-49.7,10.614-14.474-.665-28.645-4.2-39.746-10.614-22.73-13.121-24.72-33.732-5.891-48.091l-3.8,2.9c-20.242,15.438-18.1,37.588,6.333,51.7,11.936,6.892,27.169,10.7,42.728,11.41,19.162.881,38.821-2.923,53.426-11.41q2.642-1.535,4.931-3.193C309.252,232.1,309.637,212.2,291.11,197.9Z" transform="translate(-168.674 -180.066)" fill="#faf6f0"/>
                  </g>
                  <path id="Trazado_678347" data-name="Trazado 678347" d="M277.4,233.5q-2.129,1.538-4.587,2.969c-13.585,7.895-31.872,11.433-49.7,10.614l-.374,7.3c19.162.881,38.821-2.923,53.426-11.41q2.642-1.535,4.931-3.193Z" transform="translate(-159.887 -173.753)" fill="#fff"/>
                  <path id="Trazado_678348" data-name="Trazado 678348" d="M172.788,197.688l-.054,18.505c-.027,9.441,6.205,18.9,18.682,26.1,24.793,14.315,64.862,14.315,89.495,0,12.237-7.112,18.362-16.418,18.389-25.739l.052-18.505Z" transform="translate(-168.023 -179.58)" fill="url(#linear-gradient-8)"/>
                </g>
                <g id="Grupo_909103" data-name="Grupo 909103">
                  <g id="Grupo_909102" data-name="Grupo 909102" style="isolation: isolate">
                    <path id="Trazado_678349" data-name="Trazado 678349" d="M180.384,219.656l3.782,2.918a54.022,54.022,0,0,0,6.015,4.007c24.773,14.306,64.833,14.306,89.446,0a53.893,53.893,0,0,0,5.6-3.719l3.8-2.9Z" transform="translate(-166.778 -134.857)" fill="#c0bbb1"/>
                    <path id="Trazado_678350" data-name="Trazado 678350" d="M168.739,182.141l-.057,19.883c-.028,10.143,6.667,20.3,20.071,28.043,26.639,15.38,69.69,15.379,96.154,0,13.149-7.64,19.729-17.639,19.759-27.654l.056-19.882Z" transform="translate(-168.682 -140.96)" fill="url(#linear-gradient-3)"/>
                    <path id="Trazado_678351" data-name="Trazado 678351" d="M291.11,162.508l-3.782-2.918-101.06-.286-3.8,2.9c-20.242,15.438-18.1,37.588,6.333,51.7,11.936,6.891,27.169,10.7,42.728,11.411,19.162.88,38.821-2.923,53.426-11.412q2.642-1.535,4.931-3.192C309.252,196.711,309.637,176.806,291.11,162.508Z" transform="translate(-168.674 -144.675)" fill="#faf6f0"/>
                    <ellipse id="Elipse_7542" data-name="Elipse 7542" cx="36.635" cy="63.248" rx="36.635" ry="63.248" transform="translate(4.709 73.27) rotate(-89.837)" fill="#fffef9"/>
                  </g>
                  <path id="Trazado_678352" data-name="Trazado 678352" d="M277.4,198.112q-2.129,1.538-4.587,2.969c-13.585,7.9-31.872,11.434-49.7,10.614l-.374,7.3c19.162.881,38.821-2.923,53.426-11.412q2.642-1.535,4.931-3.192Z" transform="translate(-159.887 -138.362)" fill="#fff"/>
                </g>
              </g>
            </g>
            <path id="Trazado_678486" data-name="Trazado 678486" d="M233.7,141.818a11.075,11.075,0,0,0-10.048,0c-2.765,1.607-2.751,4.214.033,5.82a11.075,11.075,0,0,0,10.048,0C236.494,146.031,236.479,143.424,233.7,141.818Z" transform="translate(-84.435 -15.115)" fill="url(#radial-gradient)"/>
            <g id="Grupo_909127" data-name="Grupo 909127" transform="translate(104.825)">
              <g id="Grupo_909126" data-name="Grupo 909126">
                <g id="Grupo_909124" data-name="Grupo 909124">
                  <g id="Grupo_909121" data-name="Grupo 909121" transform="translate(8.091)">
                    <g id="Grupo_909119" data-name="Grupo 909119">
                      <g id="Grupo_909114" data-name="Grupo 909114">
                        <path id="Trazado_678489" data-name="Trazado 678489" d="M216.647,103.944a16.086,16.086,0,0,1-8.139-2.032c-5.009-2.892-7.767-8.646-7.767-16.2,0-16.883,13.707-38.533,30.554-48.26,9.018-5.206,17.631-6.2,23.63-2.74,5.008,2.892,7.765,8.646,7.765,16.2,0,16.883-13.707,38.533-30.555,48.26C226.659,102.333,221.331,103.944,216.647,103.944Zm30.13-69.594c-4.379,0-9.418,1.537-14.64,4.553-16.384,9.46-29.715,30.456-29.715,46.8,0,6.932,2.46,12.171,6.926,14.75,5.467,3.156,13.466,2.157,21.948-2.742,16.386-9.458,29.716-30.456,29.716-46.8,0-6.933-2.459-12.171-6.926-14.75A14.456,14.456,0,0,0,246.777,34.349Z" transform="translate(-200.742 -32.674)" fill="#e8e8e8"/>
                      </g>
                      <g id="Grupo_909115" data-name="Grupo 909115" transform="translate(3.826 4.908)">
                        <path id="Trazado_678490" data-name="Trazado 678490" d="M204.874,68.958a.84.84,0,0,1-.421-1.568l52.622-30.381a.84.84,0,1,1,.841,1.456L205.293,68.846A.848.848,0,0,1,204.874,68.958Z" transform="translate(-204.032 -36.896)" fill="#e8e8e8"/>
                      </g>
                      <g id="Grupo_909116" data-name="Grupo 909116" transform="translate(3.826 34.296)">
                        <path id="Trazado_678491" data-name="Trazado 678491" d="M204.874,94.234a.841.841,0,0,1-.421-1.568l52.622-30.381a.84.84,0,1,1,.841,1.454L205.293,94.121A.849.849,0,0,1,204.874,94.234Z" transform="translate(-204.032 -62.172)" fill="#e8e8e8"/>
                      </g>
                      <g id="Grupo_909117" data-name="Grupo 909117" transform="translate(30.137 4.658)">
                        <path id="Trazado_678492" data-name="Trazado 678492" d="M227.5,53.8a.84.84,0,0,1-.841-.839V37.522a.84.84,0,1,1,1.68,0V52.963A.84.84,0,0,1,227.5,53.8Z" transform="translate(-226.662 -36.681)" fill="#e8e8e8"/>
                      </g>
                      <g id="Grupo_909118" data-name="Grupo 909118" transform="translate(30.137 49.486)">
                        <path id="Trazado_678493" data-name="Trazado 678493" d="M227.5,92.359a.84.84,0,0,1-.841-.841V76.076a.84.84,0,0,1,1.68,0V91.518A.84.84,0,0,1,227.5,92.359Z" transform="translate(-226.662 -75.237)" fill="#fff"/>
                      </g>
                    </g>
                    <g id="Grupo_909120" data-name="Grupo 909120" transform="translate(13.122 3.095)">
                      <path id="Trazado_678494" data-name="Trazado 678494" d="M224.592,100.416a8.633,8.633,0,0,1-2.888-.491c-3.171-1.117-5.749-4.046-7.46-8.468A38.882,38.882,0,0,1,212.028,77.7a63.608,63.608,0,0,1,2.185-16.158c3.065-11.467,8.907-20.867,15.247-24.527a10.178,10.178,0,0,1,8.6-1.187c3.171,1.118,5.751,4.048,7.46,8.472a38.866,38.866,0,0,1,2.214,13.754,63.58,63.58,0,0,1-2.184,16.155c-3.064,11.469-8.907,20.868-15.248,24.529A11.45,11.45,0,0,1,224.592,100.416Zm10.556-63.407a9.724,9.724,0,0,0-4.847,1.46c-5.968,3.445-11.51,12.452-14.464,23.5A61.85,61.85,0,0,0,213.709,77.7a37.229,37.229,0,0,0,2.1,13.153c1.528,3.95,3.758,6.539,6.452,7.489,2.209.779,4.631.424,7.2-1.058,5.97-3.446,11.513-12.453,14.466-23.508a61.9,61.9,0,0,0,2.127-15.721,37.211,37.211,0,0,0-2.1-13.149c-1.527-3.952-3.758-6.542-6.453-7.493A7,7,0,0,0,235.148,37.009Z" transform="translate(-212.028 -35.336)" fill="#e8e8e8"/>
                    </g>
                  </g>
                  <g id="Grupo_909122" data-name="Grupo 909122" transform="translate(0 4.064)">
                    <path id="Trazado_678495" data-name="Trazado 678495" d="M194.506,97.988l77.081-44.5V36.893L194.506,81.4Z" transform="translate(-193.665 -36.053)" fill="#4cc9d9"/>
                    <path id="Trazado_678496" data-name="Trazado 678496" d="M194.624,98.946a.84.84,0,0,1-.841-.841V81.513a.843.843,0,0,1,.42-.728l77.081-44.5a.84.84,0,0,1,1.26.728V53.6a.839.839,0,0,1-.42.728l-77.081,44.5A.848.848,0,0,1,194.624,98.946ZM195.463,82V96.651l75.4-43.533V38.466Z" transform="translate(-193.783 -36.17)" fill="#e8e8e8"/>
                  </g>
                  <g id="Grupo_909123" data-name="Grupo 909123" transform="translate(6.171 13.249)">
                    <path id="Trazado_678497" data-name="Trazado 678497" d="M218.517,64.72l-4.624,15.154-2.1,1.212-3-6.3-1.129,3.7c-.6,1.959-1.288,4.143-1.852,6.046l-2.1,1.213-4.623-9.816L202,74.254l2.769,5.84.442-1.416c.758-2.45,1.571-5.155,2.329-7.623l2.524-1.457,2.786,5.831.441-1.416c.76-2.451,1.571-5.155,2.329-7.623Z" transform="translate(-199.091 -40.711)" fill="#e8e8e8"/>
                    <path id="Trazado_678498" data-name="Trazado 678498" d="M236.4,54.4,231.776,69.55l-2.1,1.21-3-6.3-1.129,3.7c-.6,1.959-1.288,4.141-1.852,6.046l-2.1,1.212-4.623-9.816,2.911-1.68,2.769,5.84.442-1.417c.758-2.45,1.571-5.154,2.329-7.621l2.523-1.458,2.786,5.832.442-1.417c.76-2.451,1.571-5.154,2.329-7.621Z" transform="translate(-196.182 -42.39)" fill="#e8e8e8"/>
                    <path id="Trazado_678499" data-name="Trazado 678499" d="M254.283,44.07l-4.624,15.155-2.1,1.212-3-6.3-1.129,3.7c-.6,1.959-1.287,4.143-1.852,6.046l-2.1,1.213-4.622-9.818,2.911-1.68,2.769,5.84.442-1.416c.758-2.45,1.57-5.155,2.328-7.623l2.524-1.457,2.786,5.831.442-1.416c.759-2.451,1.571-5.155,2.329-7.623Z" transform="translate(-193.273 -44.07)" fill="#e8e8e8"/>
                    <path id="Trazado_678500" data-name="Trazado 678500" d="M255.726,53l-2.7,1.557V51.9l2.7-1.558Z" transform="translate(-190.317 -43.05)" fill="#e8e8e8"/>
                  </g>
                </g>
              </g>
            </g>
          </g>
          <path id="Trazado_678527" data-name="Trazado 678527" d="M53.482,188.861,50,190.87v-3.478l3.478-2.008Z" transform="translate(-21.975 2.518)" fill="#5f75e0"/>
        </g>
        <g id="Grupo_909153" data-name="Grupo 909153" transform="translate(54.162 302.5)">
          <path id="Trazado_678573" data-name="Trazado 678573" d="M121.177,343.576l-18.786-10.058L72.48,350.787l30.079,17.366h26.954Z" transform="translate(-72.48 -275.884)" fill="#0b5999" opacity="0.42"/>
          <g id="Axonometric_Cube" data-name="Axonometric Cube" transform="translate(27.655 23.407)">
            <path id="Cube_face_-_left-6" data-name="Cube face - left" d="M125.644,369.214,96.266,352.253V327l29.378,16.961Z" transform="translate(-96.266 -300.352)" fill="#c0bbb1"/>
            <path id="Trazado_678574" data-name="Trazado 678574" d="M121.533,345.314v25.256l46.152-26.646V318.668Z" transform="translate(-92.156 -301.707)" fill="#ece7de"/>
            <path id="Cube_face_-_top-6" data-name="Cube face - top" d="M125.644,347.687,96.266,330.726l46.152-26.646L171.8,321.041Z" transform="translate(-96.266 -304.08)" fill="#faf6f0"/>
          </g>
          <g id="Grupo_909152" data-name="Grupo 909152" transform="translate(52.183)">
            <path id="Trazado_678575" data-name="Trazado 678575" d="M121.63,298.923c1.024,1.856-.362,5.394-.446,6.587l1.973-1.248a6.191,6.191,0,0,0,2.878-3.2,16.9,16.9,0,0,0,1.817-4.6c.487-2.68.959-6.6.158-9.125C125.834,280.5,113.311,283.845,121.63,298.923Z" transform="translate(-117.126 -283.948)" fill="#3b3caa"/>
            <path id="Trazado_678576" data-name="Trazado 678576" d="M126.473,286.042c-.322-.565-1.3-.619-2.175-.119s-1.331,1.365-1.01,1.93,1.3.62,2.176.12S126.8,286.608,126.473,286.042Z" transform="translate(-116.414 -283.682)" fill="#faf6f0"/>
            <g id="Grupo_909138" data-name="Grupo 909138" transform="translate(25.524 77.165)">
              <path id="Trazado_678577" data-name="Trazado 678577" d="M144.046,354.261c-.52-.571-1.134-1.036-1.679-1.581a1.8,1.8,0,0,0-3.052,1.278,3.586,3.586,0,0,0,.37,1.249c.066.187.145.37.228.55a10.152,10.152,0,0,1,.8,2.629,35.989,35.989,0,0,0,3.694,2.846,4.31,4.31,0,0,0,3.571.667c.88-.243,1.606-.744,1.4-1.668C148.919,358.165,146.958,357.462,144.046,354.261Z" transform="translate(-139.315 -350.016)" fill="#403642"/>
              <path id="Trazado_678578" data-name="Trazado 678578" d="M139.626,351.633c.258.718.489,1.175.221,1.681-.19.357.045.783.273,1.117a14.675,14.675,0,0,0,2.929,3.7c1.793,1.284,4.077.412,3.274-1.122a42.9,42.9,0,0,1-2.68-3.814c-.4-.728-.785-1.879-1.162-2.816C142.319,349.974,139.626,351.633,139.626,351.633Z" transform="translate(-139.264 -350.316)" fill="#fabc9d"/>
            </g>
            <g id="Grupo_909139" data-name="Grupo 909139" transform="translate(32.193 73.77)">
              <path id="Trazado_678579" data-name="Trazado 678579" d="M149.632,351.66c-.383-.67-.882-1.256-1.3-1.907a1.8,1.8,0,0,0-3.256.587,3.616,3.616,0,0,0,.091,1.3c.023.2.062.392.1.586a10.128,10.128,0,0,1,.21,2.739c-.009.15,1.98,2.285,3.174,3.609a4.033,4.033,0,0,0,3.159,1.393c.913-.047,1.729-.38,1.729-1.327C153.546,356.524,151.784,355.414,149.632,351.66Z" transform="translate(-145.05 -347.145)" fill="#403642"/>
              <path id="Trazado_678580" data-name="Trazado 678580" d="M145.909,348.108c.1.757.223,1.255-.149,1.689-.262.307-.124.774.024,1.15.742,1.857,1.2,3.283,2.06,4.246,1.472,1.641,3.891,1.282,3.439-.388a42.778,42.778,0,0,1-1.792-4.3c-.231-.8-.36-2-.526-3C148.9,347.069,145.909,348.108,145.909,348.108Z" transform="translate(-144.959 -347.396)" fill="#fabc9d"/>
            </g>
            <path id="Trazado_678581" data-name="Trazado 678581" d="M150.751,337.44c-.334-3.152-1.728-5.485-5.47-9.36a53.468,53.468,0,0,0-8.288-7,13.886,13.886,0,0,1-3.322-3.26l-1.378-1.915c-12.545,2.39-14.3,6.716-1.91,13.579l7.223,3.544a12.657,12.657,0,0,1,7.024,9.107,15.843,15.843,0,0,0,1.72,4.837,37.808,37.808,0,0,1,2.093,4.448c.557,1.473,1.158,3.115,1.3,3.7.272,1.15,3.753.965,3.532-.32C153.27,354.8,152.571,343.96,150.751,337.44Z" transform="translate(-116.618 -278.749)" fill="#403642"/>
            <path id="Trazado_678582" data-name="Trazado 678582" d="M145.987,347.378c.009-2.526.4-5.555-.049-7.742a3.977,3.977,0,0,0-.93-1.992c-.4-.415-11.357-8.272-14.224-11.315l-5.352-5.488-5.974-1.008a12.708,12.708,0,0,0,4.805,14.928c1.739,1.177,14.137,7.448,15.357,8.177a.637.637,0,0,1,.316.315.645.645,0,0,1-.086.445,9.567,9.567,0,0,0-.886,2.845c-.365,3.657,2.7,7.573,4.183,10.6.344.7,1.3.755,2.131.6s1.553-.5,1.43-1.189C146.623,355.4,145.977,349.881,145.987,347.378Z" transform="translate(-117.147 -278.11)" fill="#403642"/>
            <g id="Grupo_909140" data-name="Grupo 909140" transform="translate(12.199 13.537)">
              <path id="Trazado_678583" data-name="Trazado 678583" d="M127.885,298.577c-.441,4.167,3.836,12.787,4.965,14.829.156.281,5.119,8.1,6.056,9.454.872,1.258,3.781-.445,3.217-1.806-1.02-2.463-5.337-10.586-5.375-10.738-1.016-4.022-2.132-12.894-3.875-14.093A3.167,3.167,0,0,0,127.885,298.577Z" transform="translate(-127.854 -295.591)" fill="#fff"/>
            </g>
            <path id="Trazado_678584" data-name="Trazado 678584" d="M119.435,324.137c.053.01,3.139,2.179,9.013,1.057,3.552-.679,6.709-2.629,5.861-4.086a7.5,7.5,0,0,1-1.079-6.182,7.928,7.928,0,0,1,1.5-3.35c3.562-4.68-.83-6.613-.488-11.434a24.032,24.032,0,0,0,.374-2.975c-.05-.924-1.127-1.409-2.153-1.467-1.754-.1-11.8,4.7-14.056,6.907a1.373,1.373,0,0,0-.392,1.156,13.406,13.406,0,0,0,1.607,3.809C123.353,315.427,121.135,317.945,119.435,324.137Z" transform="translate(-117.256 -282.036)" fill="#fff"/>
            <path id="Trazado_678585" data-name="Trazado 678585" d="M130.107,290.457l-.083.23,4.89,2.163.083-.622Z" transform="translate(-115.302 -282.889)" fill="#3b3caa"/>
            <g id="Grupo_909143" data-name="Grupo 909143" transform="translate(4.835 1.586)">
              <g id="Grupo_909141" data-name="Grupo 909141" transform="translate(3.228 9.729)">
                <path id="Trazado_678586" data-name="Trazado 678586" d="M130.231,303.349l-.269,1.991-.626-1.632c-1.9.881-5.316-1.1-5.023-4.265a1.523,1.523,0,0,1,.37-.794c.663-.658,1.138-1.927,1.682-4.071a1.2,1.2,0,0,1,1.925-.621,9.173,9.173,0,0,1,2.87,6.233c-.013.248.146,1.07.138,1.384a2.135,2.135,0,0,1-.2.971A1.54,1.54,0,0,1,130.231,303.349Z" transform="translate(-124.297 -293.679)" fill="#f7ad8d"/>
              </g>
              <g id="Grupo_909142" data-name="Grupo 909142">
                <path id="Trazado_678587" data-name="Trazado 678587" d="M130.714,301.779a1.566,1.566,0,0,0,2.47-.976,21.529,21.529,0,0,0,1.665-7.735,4.928,4.928,0,0,0-.464-2.6,4.14,4.14,0,0,0-3.7-1.732,5.243,5.243,0,0,0-4.747,2.607c-.58,1.2-2.585,2.742-2.526,4.047.035.809,1.146,1.994,2.38,2.794C126.52,300.136,128.916,301.063,130.714,301.779Z" transform="translate(-121.212 -284.755)" fill="#fabc9d"/>
                <path id="Trazado_678588" data-name="Trazado 678588" d="M127.293,296.463c-.6.4-.927-.181-1.208-.646-1.334-2.2-2.551-.376-1.831,1.049a3.526,3.526,0,0,0,1.21,1.263c.742.5.739.845.739.845l-.934.891c-4.339-3.387-4.509-8.661-2.549-11.42,2.031-2.858,6.3-4.288,9.286-1.994.123.094,1.66,1.428,1.971,1.749a3.8,3.8,0,0,1,.927,3.286c-.445-.445-2.751.234-4.462,1.48C128.639,294.279,127.759,296.154,127.293,296.463Z" transform="translate(-121.52 -285.312)" fill="#3b3caa"/>
              </g>
            </g>
            <path id="Trazado_678589" data-name="Trazado 678589" d="M129.065,297a.641.641,0,0,1-.131-.034.286.286,0,0,1-.122-.262v-.928a.332.332,0,0,1,.16-.251l2.322-1.337c.137.019.157.053.157.091v.88a1.107,1.107,0,0,1-.534.841l-1.589.917A.533.533,0,0,1,129.065,297Zm3.709-2.142a.638.638,0,0,1-.131-.033.288.288,0,0,1-.122-.263v-.927a.332.332,0,0,1,.159-.251L135,292.052c.136.019.156.053.156.091v.88a1.107,1.107,0,0,1-.533.841l-1.589.917A.546.546,0,0,1,132.774,294.862Z" transform="translate(-115.499 -282.629)" fill="#7d96ff" opacity="0.4" style="mix-blend-mode: screen;isolation: isolate"/>
            <path id="Trazado_678590" data-name="Trazado 678590" d="M135.218,291.928a.25.25,0,0,0-.25.015l-2.338,1.35a.472.472,0,0,0-.23.372.837.837,0,0,0-.485.11,1.529,1.529,0,0,0-.383.338.211.211,0,0,0-.273-.029l-2.336,1.349a.466.466,0,0,0-.231.372v.928a.418.418,0,0,0,.193.384.4.4,0,0,0,.2.051.673.673,0,0,0,.333-.1l1.591-.919a1.242,1.242,0,0,0,.6-.961V294.4a1.356,1.356,0,0,1,.426-.414.462.462,0,0,1,.363-.069v.673a.419.419,0,0,0,.194.385.4.4,0,0,0,.2.051.689.689,0,0,0,.333-.1l1.589-.919a1.242,1.242,0,0,0,.6-.962v-.928A.213.213,0,0,0,135.218,291.928Zm-3.852,3.26a1.007,1.007,0,0,1-.48.75l-1.591.918a.315.315,0,0,1-.288.049.2.2,0,0,1-.07-.172v-.928a.236.236,0,0,1,.107-.16l2.322-1.337Zm3.709-2.141a1.01,1.01,0,0,1-.481.75l-1.589.917a.312.312,0,0,1-.288.05.2.2,0,0,1-.071-.173v-.927a.231.231,0,0,1,.108-.16l2.322-1.337Z" transform="translate(-115.518 -282.654)" fill="#3b3caa"/>
            <path id="Trazado_678591" data-name="Trazado 678591" d="M124.639,293.592l-.083.23,4.89,2.163.083-.622Z" transform="translate(-116.191 -282.379)" fill="#3b3caa"/>
            <path id="Trazado_678592" data-name="Trazado 678592" d="M123.9,295.539a3.525,3.525,0,0,0,1.21,1.263l.621-2.311C124.4,292.289,123.181,294.115,123.9,295.539Z" transform="translate(-116.333 -282.399)" fill="#fabc9d"/>
            <g id="Grupo_909148" data-name="Grupo 909148" transform="translate(10.555 38.142)">
              <g id="Grupo_909144" data-name="Grupo 909144" transform="translate(0 4.363)" style="isolation: isolate">
                <path id="Trazado_678593" data-name="Trazado 678593" d="M126.441,329.318v.457a.256.256,0,0,0,.151.21l11.543,6.664a.8.8,0,0,0,.727,0l16.33-9.49a.256.256,0,0,0,.149-.208v-.457Z" transform="translate(-126.44 -319.532)" fill="#e6e1e0"/>
                <path id="Trazado_678594" data-name="Trazado 678594" d="M155.188,327.258l-11.542-6.664a.8.8,0,0,0-.726,0l-16.33,9.491a.222.222,0,0,0,0,.42l11.543,6.664a.8.8,0,0,0,.727,0l16.33-9.491C155.392,327.562,155.389,327.374,155.188,327.258Z" transform="translate(-126.44 -320.506)" fill="url(#linear-gradient-10)"/>
              </g>
              <path id="Trazado_678595" data-name="Trazado 678595" d="M141.488,325.969l-5.387,3.11a.485.485,0,0,1-.438,0l-3.571-2.061a.134.134,0,0,1,0-.253l5.387-3.11a.485.485,0,0,1,.438,0l3.571,2.061A.134.134,0,0,1,141.488,325.969Z" transform="translate(-125.535 -315.639)" fill="#e6e1e0" opacity="0.3" style="mix-blend-mode: multiply;isolation: isolate"/>
              <path id="Trazado_678596" data-name="Trazado 678596" d="M133.575,332.52l-.727.42a.283.283,0,0,1-.256,0l-.61-.353a.078.078,0,0,1,0-.148l.727-.419a.281.281,0,0,1,.255,0l.612.352A.078.078,0,0,1,133.575,332.52Zm1.172-.824-.61-.352a.283.283,0,0,0-.256,0l-.726.419a.078.078,0,0,0,0,.148l.61.352a.281.281,0,0,0,.255,0l.727-.419A.078.078,0,0,0,134.747,331.7Zm1.172-.677-.61-.353a.283.283,0,0,0-.256,0l-.726.42a.078.078,0,0,0,0,.148l.61.352a.283.283,0,0,0,.256,0l.725-.419A.078.078,0,0,0,135.919,331.019Zm1.173-.677-.612-.353a.281.281,0,0,0-.255,0l-.727.42a.078.078,0,0,0,0,.148l.61.352a.283.283,0,0,0,.256,0l.727-.42A.077.077,0,0,0,137.092,330.342Zm1.172-.677-.61-.353a.283.283,0,0,0-.256,0l-.727.42a.078.078,0,0,0,0,.148l.612.352a.281.281,0,0,0,.255,0l.727-.42A.077.077,0,0,0,138.264,329.666Zm1.172-.678-.61-.352a.283.283,0,0,0-.256,0l-.726.42c-.071.041-.071.106,0,.146l.61.353a.283.283,0,0,0,.256,0l.726-.42A.078.078,0,0,0,139.436,328.988Zm1.172-.677-.61-.352a.283.283,0,0,0-.256,0l-.726.42a.077.077,0,0,0,0,.147l.61.353a.283.283,0,0,0,.256,0l.726-.42A.078.078,0,0,0,140.608,328.311Zm1.173-.677-.612-.352a.281.281,0,0,0-.255,0l-.727.419a.078.078,0,0,0,0,.148l.61.353a.283.283,0,0,0,.256,0l.727-.42A.078.078,0,0,0,141.781,327.634Zm1.172-.677-.61-.352a.283.283,0,0,0-.256,0l-.727.419a.078.078,0,0,0,0,.148l.612.352a.281.281,0,0,0,.255,0l.727-.419A.078.078,0,0,0,142.953,326.958Zm1.55-.9-.61-.352a.283.283,0,0,0-.256,0l-1.1.637a.078.078,0,0,0,0,.148l.61.352a.283.283,0,0,0,.256,0l1.1-.637A.078.078,0,0,0,144.5,326.062Zm4.4,1.171-.61-.353a.281.281,0,0,0-.255,0l-.727.42a.078.078,0,0,0,0,.148l.61.352a.283.283,0,0,0,.256,0l.726-.419C148.977,327.339,148.977,327.274,148.906,327.233Zm1.173-.678-.61-.352a.283.283,0,0,0-.256,0l-.727.42a.078.078,0,0,0,0,.148l.61.352a.283.283,0,0,0,.256,0l.727-.42A.078.078,0,0,0,150.079,326.555Zm1.172-.677-.61-.352a.283.283,0,0,0-.256,0l-.726.42a.078.078,0,0,0,0,.148l.61.352a.281.281,0,0,0,.255,0l.727-.42A.078.078,0,0,0,151.251,325.879Zm-1.273,1.973-.61-.352a.276.276,0,0,0-.256,0l-.725.419a.078.078,0,0,0,0,.148l.61.352a.283.283,0,0,0,.256,0l.726-.419A.078.078,0,0,0,149.978,327.852Zm1.172-.677-.61-.353a.281.281,0,0,0-.255,0l-.727.42a.078.078,0,0,0,0,.148l.61.352a.283.283,0,0,0,.256,0l.726-.419C151.221,327.281,151.221,327.216,151.15,327.175Zm1.173-.677-.61-.353a.283.283,0,0,0-.256,0l-.727.42a.078.078,0,0,0,0,.148l.612.352a.281.281,0,0,0,.255,0l.727-.42A.077.077,0,0,0,152.323,326.5Zm-17.279,6.268-.61-.352a.283.283,0,0,0-.256,0l-1.1.637a.078.078,0,0,0,0,.148l.612.352a.281.281,0,0,0,.255,0l1.1-.637A.078.078,0,0,0,135.045,332.766Zm1.172-.677-.61-.353a.283.283,0,0,0-.256,0l-.725.42a.078.078,0,0,0,0,.148l.61.352a.283.283,0,0,0,.256,0l.726-.419A.078.078,0,0,0,136.217,332.09Zm1.172-.677-.61-.353a.283.283,0,0,0-.256,0l-.726.42a.078.078,0,0,0,0,.148l.61.352a.283.283,0,0,0,.256,0l.726-.42C137.46,331.519,137.46,331.454,137.389,331.413Zm1.173-.677-.612-.353a.281.281,0,0,0-.255,0l-.727.42a.078.078,0,0,0,0,.148l.61.352a.283.283,0,0,0,.256,0l.727-.42A.077.077,0,0,0,138.562,330.736Zm1.172-.678-.61-.352a.283.283,0,0,0-.256,0l-.727.42a.077.077,0,0,0,0,.147l.612.353a.281.281,0,0,0,.255,0l.727-.42A.078.078,0,0,0,139.734,330.059Zm1.172-.677-.61-.352a.284.284,0,0,0-.256,0l-.725.42c-.071.041-.071.106,0,.146l.61.353a.283.283,0,0,0,.256,0l.726-.42A.078.078,0,0,0,140.906,329.382Zm1.173-.677-.612-.352a.28.28,0,0,0-.255,0l-.727.419a.078.078,0,0,0,0,.148l.61.353a.283.283,0,0,0,.256,0l.727-.42A.078.078,0,0,0,142.079,328.705Zm1.172-.677-.61-.352a.283.283,0,0,0-.256,0l-.727.419a.078.078,0,0,0,0,.148l.612.352a.281.281,0,0,0,.255,0l.727-.419A.078.078,0,0,0,143.251,328.029Zm1.172-.677-.61-.352a.283.283,0,0,0-.256,0l-.726.419a.078.078,0,0,0,0,.148l.61.352a.283.283,0,0,0,.256,0l.726-.419A.078.078,0,0,0,144.423,327.352Zm1.172-.677-.61-.353a.283.283,0,0,0-.256,0l-.725.42a.078.078,0,0,0,0,.148l.61.352a.283.283,0,0,0,.256,0l.725-.419C145.666,326.781,145.666,326.716,145.595,326.675Zm-9.89,6.927-.61-.352a.283.283,0,0,0-.256,0l-.727.419a.078.078,0,0,0,0,.148l.612.352a.281.281,0,0,0,.255,0l.727-.419A.078.078,0,0,0,135.705,333.6Zm1.172-.677-.61-.352a.283.283,0,0,0-.256,0l-.726.419a.078.078,0,0,0,0,.148l.61.352a.284.284,0,0,0,.256,0l.726-.419A.078.078,0,0,0,136.877,332.926Zm1.172-.677-.61-.353a.281.281,0,0,0-.255,0l-.727.42a.078.078,0,0,0,0,.148l.61.352a.283.283,0,0,0,.256,0l.725-.42C138.12,332.355,138.12,332.29,138.049,332.249Zm1.173-.678-.61-.352a.283.283,0,0,0-.256,0l-.727.42a.078.078,0,0,0,0,.148l.612.352a.281.281,0,0,0,.255,0l.727-.42A.078.078,0,0,0,139.222,331.571Zm-1.392,3.258-.61-.352a.283.283,0,0,0-.256,0l-.725.42a.078.078,0,0,0,0,.148l.61.352a.283.283,0,0,0,.256,0l.726-.42C137.9,334.936,137.9,334.871,137.831,334.829Zm1.173-.677-.612-.352a.281.281,0,0,0-.255,0l-.727.42a.078.078,0,0,0,0,.148l.61.352a.284.284,0,0,0,.256,0l.727-.42A.078.078,0,0,0,139,334.152Zm1.172-.677-.61-.352a.283.283,0,0,0-.256,0l-.727.42a.077.077,0,0,0,0,.147l.612.353a.281.281,0,0,0,.255,0l.727-.42A.078.078,0,0,0,140.176,333.476Zm1.172-.677-.61-.352a.283.283,0,0,0-.256,0l-.726.42a.077.077,0,0,0,0,.147l.61.352a.277.277,0,0,0,.256,0l.725-.419A.078.078,0,0,0,141.348,332.8Zm7.405-4.275-.61-.352a.283.283,0,0,0-.256,0l-1.1.637a.078.078,0,0,0,0,.148l.612.352a.281.281,0,0,0,.255,0l1.1-.637A.078.078,0,0,0,148.753,328.524Zm-8.358,2.371-.61-.352a.283.283,0,0,0-.256,0l-.725.42a.078.078,0,0,0,0,.148l.61.352a.283.283,0,0,0,.256,0l.726-.42A.078.078,0,0,0,140.394,330.895Zm1.172-.677-.61-.352a.283.283,0,0,0-.256,0l-.726.419a.078.078,0,0,0,0,.148l.61.354a.283.283,0,0,0,.256,0l.726-.42A.078.078,0,0,0,141.566,330.218Zm1.173-.677-.612-.352a.281.281,0,0,0-.255,0l-.727.419a.078.078,0,0,0,0,.148l.61.352a.283.283,0,0,0,.256,0l.727-.419A.078.078,0,0,0,142.739,329.541Zm1.172-.677-.61-.352a.283.283,0,0,0-.256,0l-.727.419a.078.078,0,0,0,0,.148l.612.352a.281.281,0,0,0,.255,0l.727-.419A.078.078,0,0,0,143.911,328.865Zm1.172-.677-.61-.353a.284.284,0,0,0-.256,0l-.725.42a.078.078,0,0,0,0,.148l.61.352a.283.283,0,0,0,.256,0l.725-.419A.078.078,0,0,0,145.083,328.188Zm1.551-.9-.612-.352a.281.281,0,0,0-.255,0l-1.1.637a.078.078,0,0,0,0,.148l.61.352a.283.283,0,0,0,.256,0l1.1-.637A.078.078,0,0,0,146.634,327.293Zm-9.46,6.7-.61-.352a.283.283,0,0,0-.256,0l-1.1.637a.078.078,0,0,0,0,.148l.61.352a.281.281,0,0,0,.255,0l1.1-.637C137.246,334.1,137.246,334.037,137.175,334Zm1.172-.677-.61-.354a.284.284,0,0,0-.256,0l-.725.42a.078.078,0,0,0,0,.148l.61.352a.283.283,0,0,0,.256,0l.726-.42C138.418,333.426,138.418,333.361,138.347,333.32Zm1.173-.678-.612-.352a.281.281,0,0,0-.255,0l-.727.42a.078.078,0,0,0,0,.148l.61.352a.283.283,0,0,0,.256,0l.727-.42A.078.078,0,0,0,139.52,332.642Zm1.172-.677-.61-.352a.283.283,0,0,0-.256,0l-.727.42a.078.078,0,0,0,0,.148l.612.352a.281.281,0,0,0,.255,0l.727-.42A.078.078,0,0,0,140.692,331.965Zm1.172-.677-.61-.352a.283.283,0,0,0-.256,0l-.726.419a.078.078,0,0,0,0,.148l.61.353a.283.283,0,0,0,.256,0l.726-.42A.078.078,0,0,0,141.864,331.289Zm1.172-.677-.61-.352a.281.281,0,0,0-.255,0l-.727.419a.078.078,0,0,0,0,.148l.61.352a.283.283,0,0,0,.256,0l.725-.419A.078.078,0,0,0,143.036,330.612Zm1.173-.677-.61-.352a.283.283,0,0,0-.256,0l-.727.419a.078.078,0,0,0,0,.148l.61.352a.283.283,0,0,0,.256,0l.727-.419A.078.078,0,0,0,144.209,329.935Zm1.172-.677-.61-.352a.283.283,0,0,0-.256,0l-.726.419a.078.078,0,0,0,0,.148l.61.352a.281.281,0,0,0,.255,0l.727-.419A.078.078,0,0,0,145.381,329.259Zm1.172-.677-.61-.353a.283.283,0,0,0-.256,0l-.725.42a.078.078,0,0,0,0,.148l.61.352a.283.283,0,0,0,.256,0l.726-.42C146.624,328.688,146.624,328.623,146.553,328.582Zm1.173-.678-.612-.352a.281.281,0,0,0-.255,0l-.727.42a.078.078,0,0,0,0,.148l.61.352a.283.283,0,0,0,.256,0l.727-.42A.078.078,0,0,0,147.726,327.9ZM145.7,325.38l-.61-.352a.281.281,0,0,0-.255,0l-.727.419a.078.078,0,0,0,0,.148l.61.352a.276.276,0,0,0,.256,0l.726-.419A.078.078,0,0,0,145.7,325.38Zm1.173-.677-.61-.352a.283.283,0,0,0-.256,0l-.727.419a.078.078,0,0,0,0,.148l.612.352a.281.281,0,0,0,.255,0l.727-.419A.078.078,0,0,0,146.87,324.7Zm1.172-.677-.61-.352a.283.283,0,0,0-.256,0l-.725.419a.078.078,0,0,0,0,.148l.61.352a.283.283,0,0,0,.256,0l.726-.419A.078.078,0,0,0,148.042,324.027Zm1.07.617-.612-.352a.274.274,0,0,0-.255,0l-.727.419a.078.078,0,0,0,0,.148l.61.352a.283.283,0,0,0,.256,0l.727-.419A.078.078,0,0,0,149.112,324.644Z" transform="translate(-125.547 -315.632)" fill="#fff"/>
              <g id="Grupo_909147" data-name="Grupo 909147" transform="translate(3.338 16.377)">
                <g id="Grupo_909145" data-name="Grupo 909145">
                  <path id="Trazado_678597" data-name="Trazado 678597" d="M129.413,331.06l.487.281c.057.033.1.013.1-.044a.212.212,0,0,0-.1-.162l-.487-.281c-.057-.033-.1-.013-.1.044A.214.214,0,0,0,129.413,331.06Z" transform="translate(-129.311 -330.839)" fill="#bdb7b5"/>
                </g>
                <g id="Grupo_909146" data-name="Grupo 909146" transform="translate(0.909 0.525)">
                  <path id="Trazado_678598" data-name="Trazado 678598" d="M130.2,331.512l.487.28c.056.033.1.014.1-.043a.214.214,0,0,0-.1-.163l-.487-.28c-.056-.033-.1-.013-.1.043A.214.214,0,0,0,130.2,331.512Z" transform="translate(-130.093 -331.29)" fill="#bdb7b5"/>
                </g>
                <path id="Trazado_678599" data-name="Trazado 678599" d="M132.7,332.92l-1.414-.816v-.129l1.414.816Z" transform="translate(-128.99 -330.654)" fill="#bdb7b5"/>
              </g>
              <path id="Trazado_678600" data-name="Trazado 678600" d="M137.084,336.792l3.943-11.058-.119-.116-3.943,11.058c-.049.136-.042.23.009.279l.117.115C137.042,337.021,137.035,336.927,137.084,336.792Z" transform="translate(-124.733 -315.311)" fill="#e6e1e0"/>
              <path id="Trazado_678601" data-name="Trazado 678601" d="M157.646,316.793c-.071-.069-.226-.049-.431.071L141.208,326.1a2.176,2.176,0,0,0-.856.956l.119.116a2.172,2.172,0,0,1,.856-.957l16.005-9.241c.207-.119.362-.14.431-.07Z" transform="translate(-124.177 -316.753)" fill="url(#linear-gradient-11)"/>
              <path id="Trazado_678602" data-name="Trazado 678602" d="M157.871,316.962,141.866,326.2a2.172,2.172,0,0,0-.856.957l-3.943,11.058c-.116.324.086.413.439.208l16.007-9.241a2.169,2.169,0,0,0,.855-.957l3.944-11.058C158.427,316.846,158.226,316.758,157.871,316.962Z" transform="translate(-124.716 -316.737)" fill="#d9d5d4"/>
              <ellipse id="Elipse_7544" data-name="Elipse 7544" cx="1.674" cy="0.777" rx="1.674" ry="0.777" transform="matrix(0.712, -0.702, 0.702, 0.712, 21.652, 11.897)" fill="#c8c3c2"/>
            </g>
            <g id="Grupo_909151" data-name="Grupo 909151" transform="translate(0 20.169)">
              <g id="Grupo_909150" data-name="Grupo 909150">
                <g id="Grupo_909149" data-name="Grupo 909149">
                  <path id="Trazado_678603" data-name="Trazado 678603" d="M117.38,309.29a67.67,67.67,0,0,0,1.443,11.488c1.281,2.051,12.586,7.121,12.731,7.186,1.355.608,3.035-2.307,2.114-2.973-3.155-2.232-10-7.449-10-7.449-.187-3.876-.064-6.268-.066-10.149,0-3.029-.993-5.855-3.958-6.094C117.227,301.106,117.328,306.376,117.38,309.29Z" transform="translate(-117.362 -301.295)" fill="#fff"/>
                </g>
                <path id="Trazado_678604" data-name="Trazado 678604" d="M137.392,322.211a7.026,7.026,0,0,0-1.75-.8c-.338-.054-2.964.68-4.121.539-.916-.137-2.573,2.213-1.494,2.6a5.417,5.417,0,0,1,1.139.744,2.324,2.324,0,0,0,1.207.19,11.858,11.858,0,0,0,1.475-.15c.391-.064.669-.083.934.212a10.686,10.686,0,0,0,.63.984c.548.4,2.731-1.037,2.906-1.474C138.535,324.513,137.7,322.588,137.392,322.211Z" transform="translate(-115.359 -298.023)" fill="#fabc9d"/>
              </g>
              <path id="Trazado_678605" data-name="Trazado 678605" d="M143.282,320.178a30.757,30.757,0,0,0-2.739-2.194c-.729-.937-3.076.345-2.9,1.263.064.336.667.785.8,1.314a3.719,3.719,0,0,1,.038,1.308c-.083.428-.285.96.022.977a.753.753,0,0,0,.692-.3c.3-.366.294-.852.552-1.235a5.575,5.575,0,0,1,.693,1.058c.2.648.271,2.107.678,2.336s.438-.06.962-.027c.274.017.255-.187.434-.272.087-.042.192.013.287,0,.517-.074.323-.458.586-.563a.532.532,0,0,0,.335-.456A9.406,9.406,0,0,0,143.282,320.178Z" transform="translate(-114.064 -298.633)" fill="#fbbd9e"/>
            </g>
          </g>
        </g>
        <g id="Grupo_909164" data-name="Grupo 909164" transform="translate(172.854 328.076)">
          <path id="Trazado_678606" data-name="Trazado 678606" d="M196.151,372.691c-11.921,0-21.585,4.2-21.585,9.377s9.664,9.378,21.585,9.378c1.142,0,2.259-.042,3.352-.116.6-2.1-.6-9.262.016-9.262l19.556-.945c3.076.112-4.855-6.563-4.855-6.563S208.072,372.691,196.151,372.691Z" transform="translate(-174.566 -295.087)" fill="#0b5999" opacity="0.58"/>
          <g id="Grupo_909159" data-name="Grupo 909159" transform="translate(20.391 77.175)">
            <g id="Grupo_909155" data-name="Grupo 909155" transform="translate(15.555)">
              <g id="Grupo_909154" data-name="Grupo 909154">
                <path id="Trazado_678607" data-name="Trazado 678607" d="M218.028,379.922c-.029-.235.026-.867-.28-1.134a21.055,21.055,0,0,0-3.644-2.566l-8.546-1.373a7.049,7.049,0,0,0-.01,1.131,1.6,1.6,0,0,0,.994,1.61c4.434,2.713,5.041,3.074,5.845,3.472a5.222,5.222,0,0,0,4.411.341C218.007,380.865,218.083,380.362,218.028,379.922Z" transform="translate(-205.475 -371.911)" fill="#4ba093"/>
                <path id="Trazado_678608" data-name="Trazado 678608" d="M217.518,378.784c-1.089-.883-3.757-2.667-5.08-3.845a7.508,7.508,0,0,1-1.427-1.673c-.514-1.187-3.229-1.18-4.745-.391-.712.371-.842,1.593-.765,2.725a1.6,1.6,0,0,0,.994,1.611,53.58,53.58,0,0,0,6.232,3.557,4.719,4.719,0,0,0,3.358.289,2.952,2.952,0,0,0,1.56-.856A.855.855,0,0,0,217.518,378.784Z" transform="translate(-205.482 -372.322)" fill="#403642"/>
              </g>
            </g>
            <g id="Grupo_909158" data-name="Grupo 909158" transform="translate(0 8.136)">
              <g id="Grupo_909157" data-name="Grupo 909157">
                <g id="Grupo_909156" data-name="Grupo 909156">
                  <path id="Trazado_678609" data-name="Trazado 678609" d="M192.241,386.09c-.2,1.856-.241,3.769.43,4.376,1.432,1.294,4.979,1.9,5.971-.085.236-.469.055-2.335-.185-4.291Z" transform="translate(-192.102 -378.219)" fill="#4ba093"/>
                  <path id="Trazado_678610" data-name="Trazado 678610" d="M192.663,390.5c1.431,1.294,4.977,1.9,5.971-.085.463-.921-.545-7.209-.579-9.015-.009-.516-.026-1.424-.026-1.424-.133-.179-.8-.336-1-.436-.855-.424-2.424-.08-3.375-.145-.485-.033-.943,3.2-.987,3.525C192.4,384.881,191.548,389.49,192.663,390.5Z" transform="translate(-192.104 -379.32)" fill="#403642"/>
                </g>
              </g>
            </g>
          </g>
          <g id="Grupo_909160" data-name="Grupo 909160" transform="translate(34.45 7.437)">
            <path id="Trazado_678611" data-name="Trazado 678611" d="M222.946,346.345a8.249,8.249,0,0,1-1.485-1.823c-.476-.9,3.793.009,3.447-1.275-.281-1.043-4.064-.346-5.109-1.013-.458-.291-4.82-11.852-4.9-12.173-.481-1.864-2.218-7.173-2.218-7.173a19.84,19.84,0,0,1-5.64,3.152c1.148,2.9,2.294,5.566,2.908,6.971.335.766,6.221,10.137,6.453,11.02.158.6.613,2.154.823,2.742a4.366,4.366,0,0,0,2.878,2.2C221.005,349.166,222.946,346.345,222.946,346.345Z" transform="translate(-203.733 -310.626)" fill="#fbbd9e"/>
            <path id="Trazado_678612" data-name="Trazado 678612" d="M206.949,330.344c.722,2.08,8.528-.258,8.09-1.959-.5-1.648-5.039-16.841-8.089-16.01C206.95,312.375,200.753,312.966,206.949,330.344Z" transform="translate(-204.196 -312.342)" fill="#fff"/>
          </g>
          <path id="Trazado_678613" data-name="Trazado 678613" d="M214.205,358.193c.335-3.79.358-9.523-1.315-20.025a2.074,2.074,0,0,0-2.522-1.754l-13,3.082c-5.4,8.347-2.945,12.476-3.5,25.671a16.829,16.829,0,0,1-.888,4.245c-.82,2.623-1.4,3.208-.793,8.585.406,3.582.2,5.946.606,9.528-.009,2.009,5.519,2.431,5.4.5.7-4.605,1.681-14.3,2.008-15.325.109-.339.228-.678.355-1.013a31.917,31.917,0,0,0,1.415-4.6c.743-3.459,2-9.392,2.468-11.885,0,0,1.827,6.934,2.253,9.6s-.076,5.775.366,8.06a47.8,47.8,0,0,1,.573,5.744c-.041,2.366,6,2.517,6.089.417a64.75,64.75,0,0,0,.474-11.222A56.828,56.828,0,0,1,214.205,358.193Z" transform="translate(-171.741 -300.998)" fill="#3b3caa"/>
          <g id="Grupo_909161" data-name="Grupo 909161" transform="translate(22.574 10.394)">
            <path id="Trazado_678614" data-name="Trazado 678614" d="M209.539,314.992c-3.615-.877-12.942,3.88-13.8,4.366-3.7,2.1-.63,5.065.657,13.658.479,3.2-.446,9.2-1.467,13.4-1.545,6.361,19.075,5.677,18.462-.212a101.907,101.907,0,0,1-.737-13.947C212.866,324.69,213.042,315.842,209.539,314.992Z" transform="translate(-193.981 -314.884)" fill="#fff"/>
            <path id="Trazado_678615" data-name="Trazado 678615" d="M198.952,318.984c.634,1.911,3.715,6.019,7.305,4.9,3.073-.96,2.282-5.426,1.1-7.542S198.189,316.683,198.952,318.984Z" transform="translate(-193.181 -314.779)" fill="#fcbe9f"/>
          </g>
          <path id="Trazado_678616" data-name="Trazado 678616" d="M207.763,322.417a2.431,2.431,0,0,1-1.561,1.138,4.707,4.707,0,0,1-3.574-.439,5.056,5.056,0,0,1-2.5-4.419,1.951,1.951,0,0,1,.509-1.3,9.387,9.387,0,0,0,2.1-4.67,1.177,1.177,0,0,1,1.852-.741c2.323,1.822,4.138,5.381,4.118,6.918A9.113,9.113,0,0,1,207.763,322.417Z" transform="translate(-170.408 -305.001)" fill="#f2a883"/>
          <g id="Grupo_909163" data-name="Grupo 909163" transform="translate(21.822 14.984)">
            <g id="Grupo_909162" data-name="Grupo 909162" transform="translate(24.868 25.903)" style="isolation: isolate">
              <path id="Trazado_678617" data-name="Trazado 678617" d="M226.508,342.42l-.2-.572-11.576,2.117.2.572c.024.067.106.116.245.13l7.045.723a1.791,1.791,0,0,0,1.094-.342l3-2.3C226.473,342.626,226.538,342.507,226.508,342.42Z" transform="translate(-214.723 -340.991)" fill="#ece7de"/>
              <path id="Trazado_678618" data-name="Trazado 678618" d="M226.11,342.3l-3,2.3a1.791,1.791,0,0,1-1.094.342l-7.045-.723c-.316-.033-.338-.238-.051-.458l2.994-2.3a1.8,1.8,0,0,1,1.1-.343l7.045.723C226.378,341.871,226.4,342.077,226.11,342.3Z" transform="translate(-214.724 -341.111)" fill="#403642"/>
            </g>
            <path id="Trazado_678619" data-name="Trazado 678619" d="M222.1,347a1.677,1.677,0,0,1-1.2-.72c-.158-.23-.329-.484-.458-.686a4.145,4.145,0,0,0,1.41.155c.512-.019,1.493-.676.685-.979-.741-.277-2.421-.755-3.517-1.277a5.258,5.258,0,0,0-.952-.343,2.037,2.037,0,0,0-.838-.015,5.514,5.514,0,0,1-1.428.158c-3.4-1.666-10.519-6.2-12.319-7.268a1.124,1.124,0,0,1-.538-.77c-.316-1.757-.526-3.612-.787-5.455l-7.311,2.446c1.149,2.9,2.3,5.566,2.909,6.971a3.914,3.914,0,0,0,1.613,1.832c2.943,1.7,10.887,3.894,14.6,5.189,1.32.55,3.3,2.894,4.4,2.9,1.459,0,5.12-.556,6.123-1.886Z" transform="translate(-193.088 -317.048)" fill="#fbbd9e"/>
            <path id="Trazado_678620" data-name="Trazado 678620" d="M195.027,335.393c.659,2.622,8.175.735,8.043-1.838-.114-2.149-2.286-15.543-7.111-14.682C195.959,318.873,190.736,318.9,195.027,335.393Z" transform="translate(-193.335 -318.833)" fill="#fff"/>
          </g>
          <path id="Trazado_678621" data-name="Trazado 678621" d="M211.447,309.605a5.427,5.427,0,0,0-4.833-2.881,7.336,7.336,0,0,0-2.131.7c-2.082.752-2.471,4.207-2.556,6.162-.108,2.468-.008,5.153,1.6,7.076,2.333,2.792,4.75,4.15,6.068,3.455.439-.232,1.058-2.114,1.25-2.208.07-.035.664-.243.669-.6,0-.32-.152-1.807-.122-2.052.066-.541.512-.943.8-1.4.689-1.1.613-2.838.51-4.082A9.767,9.767,0,0,0,211.447,309.605Z" transform="translate(-170.12 -305.819)" fill="#fbbd9e"/>
          <path id="Trazado_678622" data-name="Trazado 678622" d="M212.4,308.049c-2.208-2.438-7.753-3.128-9.713-.06-3.157.9-3.493,6.869-.193,11-.343-1.092.583-2.2.906-1.961,1.248.93.928,2.473,1.618,2.714.429.149.6-.459.936-1.253a2.3,2.3,0,0,1,1.718-1.368c1.7-.3,4.856-.95,5.377-1.686A6.055,6.055,0,0,0,212.4,308.049Z" transform="translate(-170.401 -305.945)" fill="#2a2a7f"/>
          <path id="Trazado_678623" data-name="Trazado 678623" d="M203.141,315.525c-.927-1.063-2.582.3.05,3.259.266.3.612.6.957.389C204.9,318.714,203.684,316.147,203.141,315.525Z" transform="translate(-170.141 -304.445)" fill="#fbbd9e"/>
        </g>
        <g id="_13" data-name="13" transform="translate(285.276 308.893)">
          <g id="Grupo_909173" data-name="Grupo 909173">
            <g id="Grupo_909172" data-name="Grupo 909172">
              <g id="Grupo_909168" data-name="Grupo 909168" transform="translate(0 40.315)">
                <path id="Trazado_678624" data-name="Trazado 678624" d="M306.144,362.006c-3.511-.842-6.74-.713-10.508-.837-5.944-.2-11.993-.142-19.546,3.229-4.432,1.979-7.273,7.619-1.9,11.891,2.889,2.3,10.938,2.092,10.938,2.092a44.883,44.883,0,0,1,2.037-5.858,2.651,2.651,0,0,1,.651-1.017,2.8,2.8,0,0,1,.971-.463c1.967-.642,3.935-1.284,5.915-1.886,3.523-1.07,7.409-1.994,10.8-.556.566.241,1.106.543,1.685.749a7.715,7.715,0,0,0,2.365.385c1.4.039,2.964.035,2.964.035S309.655,362.849,306.144,362.006Z" transform="translate(-271.258 -318.104)" fill="#0b5999" opacity="0.64"/>
                <g id="Grupo_909165" data-name="Grupo 909165" transform="translate(30.919 41.22)">
                  <path id="Trazado_678625" data-name="Trazado 678625" d="M311.132,366.484a23.02,23.02,0,0,0-3.946-2.779,18.391,18.391,0,0,1-2.954.073c-2.077-.1-4.508-.366-6.3-1.56a7.684,7.684,0,0,0-.01,1.225A1.727,1.727,0,0,0,299,365.188c4.8,2.937,5.46,3.329,6.33,3.759a5.654,5.654,0,0,0,4.776.37c1.309-.584,1.392-1.127,1.332-1.6C311.4,367.457,311.462,366.773,311.132,366.484Z" transform="translate(-297.843 -359.143)" fill="#4ba093"/>
                  <path id="Trazado_678626" data-name="Trazado 678626" d="M310.883,366.465c-1.18-.956-4.068-2.888-5.5-4.164a4.533,4.533,0,0,1-.838-1.536c-.556-1.285-4.2-1.553-5.844-.7-.772.4-.912,1.724-.829,2.952a1.726,1.726,0,0,0,1.077,1.743,58.326,58.326,0,0,0,6.747,3.853,5.122,5.122,0,0,0,3.637.313,3.2,3.2,0,0,0,1.688-.927A.925.925,0,0,0,310.883,366.465Z" transform="translate(-297.851 -359.573)" fill="#f8f3ed"/>
                </g>
                <g id="Grupo_909167" data-name="Grupo 909167" transform="translate(9.882 46.294)">
                  <g id="Grupo_909166" data-name="Grupo 909166">
                    <path id="Trazado_678627" data-name="Trazado 678627" d="M280.618,376.816c1.589,1.25,5.338,1.625,6.235-.516.417-1-1.23-7.5-1.4-9.387-.047-.538-.128-1.486-.128-1.486-.151-.179-.715-.288-.931-.378-.922-.383-2.538.09-3.537.09-.509,0-.757,3.415-.78,3.754C279.939,370.966,279.381,375.843,280.618,376.816Z" transform="translate(-279.746 -363.781)" fill="#4ba093"/>
                    <path id="Trazado_678628" data-name="Trazado 678628" d="M280.544,375.854c1.588,1.25,5.337,1.624,6.234-.516.417-1-1.085-7.495-1.25-9.381-.048-.538-.128-1.486-.128-1.486-.152-.179-.86-.3-1.077-.385-.922-.383-2.538.09-3.537.09-.509,0-.757,3.415-.78,3.754C279.865,370,279.306,374.881,280.544,375.854Z" transform="translate(-279.758 -363.937)" fill="#f8f3ed"/>
                  </g>
                </g>
                <path id="Trazado_678629" data-name="Trazado 678629" d="M306.626,351.073a36.43,36.43,0,0,1-.553-4.023c-.273-4.169.988-7.155-1.431-21.073-.848-3.462-18.111-1.8-18.611,2.669a97.4,97.4,0,0,0-1.985,17.4,17.942,17.942,0,0,1-.283,4.407,19.959,19.959,0,0,1-1.2,3.092,28.747,28.747,0,0,0-2.288,10,70.239,70.239,0,0,0-.3,7.3c-.028,1.918,5.261,2.464,5.826.587,2.052-10.235,5.066-13.13,7.012-22.781.421-2.093,2.7-11.157,2.7-11.157.663,3.721,2.745,12.1,2.911,14.074a38.2,38.2,0,0,0,.548,5.13c.543,2.658,1.528,4.383,2.2,9.871.093,1.612,6.194,1.756,6.03-.381C306.479,356.849,307.087,353.669,306.626,351.073Z" transform="translate(-269.843 -324.121)" fill="#403642"/>
              </g>
              <path id="Trazado_678630" data-name="Trazado 678630" d="M312.724,307.726a72.647,72.647,0,0,0-8.576-6.215c-.772,2.337-1.456,4.362-2.163,6.721l7.387,3.2.673,5.241s1.5,2.044,2.489,1.572c.588-.28,1.018-2.1,1.3-4.622a25.274,25.274,0,0,0,.194-3.013A3.893,3.893,0,0,0,312.724,307.726Z" transform="translate(-266.26 -287.483)" fill="#fbbd9e"/>
              <path id="Trazado_678631" data-name="Trazado 678631" d="M308.438,303.684c-4.021-2.99-8.908-5.683-12.348-5.192-.745,3.332-.737,6.79,2.337,9.191l5.874,2.732C306.367,311.515,309.537,304.484,308.438,303.684Z" transform="translate(-267.285 -287.984)" fill="#fff"/>
              <path id="Trazado_678632" data-name="Trazado 678632" d="M285.134,303.105a7.333,7.333,0,0,0-2.431,2.074,6.422,6.422,0,0,0-.627,5.367c.952,3.485,5.308,5.92,4.924,13.167a56.523,56.523,0,0,1-1.232,8.9c-.835,4.82,19.25,3.98,18.549-2.754a50.843,50.843,0,0,1-.887-11.254c.191-4.087,1.288-10.77,1.567-13.894a6.607,6.607,0,0,0-.809-3.635C300.76,295.04,289.206,300.822,285.134,303.105Z" transform="translate(-269.547 -287.988)" fill="#fff"/>
              <path id="Trazado_678633" data-name="Trazado 678633" d="M283.107,334.8a9.473,9.473,0,0,1-.8-.906,1.885,1.885,0,0,1-.214-.514c.151-3.545,1-12.465,1-12.465s2.131-4.875,3.631-8.87c-2.052,0-4.7-.444-6.74-.391a63.419,63.419,0,0,0-1.632,8.657c0,1.425-.03,11.288.076,13.072a10.2,10.2,0,0,1-.5,2.783,2.165,2.165,0,0,0-.084.745,1.871,1.871,0,0,0,.814,1.207,8.309,8.309,0,0,0,2.621,1.157,1.412,1.412,0,0,0,.6.094,1.219,1.219,0,0,0,.808-.686,3.063,3.063,0,0,1,.607-.907c.1-.086.222-.154.316-.249a1.187,1.187,0,0,0,.242-.959A3.238,3.238,0,0,0,283.107,334.8Z" transform="translate(-270.188 -285.834)" fill="#fbbd9e"/>
              <g id="Grupo_909169" data-name="Grupo 909169" transform="translate(38.706 27.493)">
                <path id="Trazado_678634" data-name="Trazado 678634" d="M309.456,313.538a3.2,3.2,0,0,0-1.635-.367c-.24.052-.452.188-.687.257a8.5,8.5,0,0,1-.945.117c-1.4.249-1.428,1.539-1.6,2.678a1.393,1.393,0,0,0,.114,1.036c.1.142.26.245.329.406a1.72,1.72,0,0,1,.069.32,1.206,1.206,0,0,0,1.055.833c1.641.256,4.573-1.317,5.4-1.823a2.35,2.35,0,0,0,1.221-1.837c0-.836-.288-2.05-2.383-2.013A1.564,1.564,0,0,0,309.456,313.538Z" transform="translate(-304.548 -313.084)" fill="#fbbd9e"/>
                <path id="Trazado_678635" data-name="Trazado 678635" d="M309.557,316.716c-.577-.8-.17-1.112-1.6-.867-1.046.179-2.081.35-3.116.614a.794.794,0,0,1-.274.014.82.82,0,0,0,.134.356c.1.142.26.245.329.406a1.717,1.717,0,0,1,.069.32,1.206,1.206,0,0,0,1.055.832c1.131.177,2.866-.515,4.112-1.129A1.64,1.64,0,0,1,309.557,316.716Z" transform="translate(-304.545 -312.657)" fill="#f2a883"/>
                <path id="Trazado_678636" data-name="Trazado 678636" d="M310.912,314.043c.591.433,1.009.886.663,2.365a1.512,1.512,0,0,0,.593-1.379,1.648,1.648,0,0,0-.751-1.455,2.447,2.447,0,0,0-1.99-.441,2.072,2.072,0,0,0-.657.413A3.2,3.2,0,0,1,310.912,314.043Z" transform="translate(-303.862 -313.092)" fill="#2f2b30"/>
              </g>
              <path id="Trazado_678637" data-name="Trazado 678637" d="M298.585,300.729c.817,3.355-.98,6.712-4.016,7.5a5.886,5.886,0,0,1-6.978-4.652C286.773,300.22,297.767,297.374,298.585,300.729Z" transform="translate(-268.608 -287.855)" fill="#fbbd9e"/>
              <path id="Trazado_678638" data-name="Trazado 678638" d="M295.811,306.366c-.638.845-.887,1.172-1.425,1.278-1.678.327-4.97-2.739-4.5-6.023a.973.973,0,0,1,.3-.569,8.26,8.26,0,0,0,2.265-4.346,1.042,1.042,0,0,1,1.7-.546c2.028,1.739,3.526,5.026,3.448,6.414A12.812,12.812,0,0,1,295.811,306.366Z" transform="translate(-268.235 -288.396)" fill="#f2a883"/>
              <g id="Grupo_909170" data-name="Grupo 909170" transform="translate(20.586)">
                <path id="Trazado_678639" data-name="Trazado 678639" d="M301.107,296.247a2.506,2.506,0,0,0-.72-2.315c-1.093-.794-3.631-2.229-8.234.029a5.244,5.244,0,0,0-1.574,1.549,2.149,2.149,0,0,0-.514,1.841c.091,1.468-.162,2.079,1.815,4.551A20.722,20.722,0,0,0,296.512,306a2.849,2.849,0,0,0,2.127.359c.667-.156,1.367-.779,1.614-2.339C300.441,302.824,300.886,299.427,301.107,296.247Z" transform="translate(-288.788 -288.909)" fill="#fbbd9e"/>
                <path id="Trazado_678640" data-name="Trazado 678640" d="M293.131,299.089c.208.441,1.1.636,1.391-.365a2.237,2.237,0,0,1,2.42-1.438,8.276,8.276,0,0,0,3.8-.755,1.743,1.743,0,0,0,.553-.431s.529-.538.139-1.915a6.41,6.41,0,0,0-4.144-4.446,7.913,7.913,0,0,0-4.334.02c-5.373,1.525-3.99,8.243-3.332,9.5a10.519,10.519,0,0,0,1.98,2.614c-.267-1-1.379-3.058-.3-3.693a1.1,1.1,0,0,1,1.267.072A2.072,2.072,0,0,1,293.131,299.089Z" transform="translate(-288.964 -289.446)" fill="#2a2a7f"/>
              </g>
              <g id="Grupo_909171" data-name="Grupo 909171" transform="translate(43.526 26.975)" style="isolation: isolate">
                <path id="Trazado_678641" data-name="Trazado 678641" d="M311.513,313.026l-2.817.4.057.342c.008.053.064.1.16.12l1.359.307a.692.692,0,0,0,.534-.113l.694-.576a.149.149,0,0,0,.07-.134Z" transform="translate(-308.694 -312.585)" fill="url(#linear-gradient-12)"/>
                <path id="Trazado_678642" data-name="Trazado 678642" d="M311.353,312.968c.173.038.214.152.092.255l-.7.574a.7.7,0,0,1-.534.114l-1.359-.308c-.173-.038-.214-.152-.092-.253l.694-.576a.7.7,0,0,1,.535-.114Z" transform="translate(-308.694 -312.647)" fill="#2f2b30"/>
              </g>
              <path id="Trazado_678643" data-name="Trazado 678643" d="M310.63,314.656a8.157,8.157,0,0,0-1.7-1.169l-.087-.033c-.22-.083-1.063,2.242-1.063,2.242S311.5,315.43,310.63,314.656Z" transform="translate(-265.317 -285.541)" fill="#fbbd9e"/>
              <path id="Trazado_678644" data-name="Trazado 678644" d="M285.924,318.1c2.772-7.342,4.786-12.1,1.136-14.6-4.15-2.837-7.228,6.747-8.774,11.535C277.541,317.789,284.772,320.362,285.924,318.1Z" transform="translate(-270.124 -287.242)" fill="#fff"/>
            </g>
          </g>
        </g>
      </g>
    </g>
  </g>
</svg>
