<svg id="Grupo_909131" data-name="Grupo 909131" xmlns="http://www.w3.org/2000/svg" xmlns:xlink="http://www.w3.org/1999/xlink" width="45.623" height="167.166" viewBox="0 0 45.623 167.166">
  <defs>
    <linearGradient id="linear-gradient" x1="0.5" x2="0.5" y2="1" gradientUnits="objectBoundingBox">
      <stop offset="0" stop-color="#00feff"/>
      <stop offset="1" stop-color="#ebfbfb"/>
    </linearGradient>
    <linearGradient id="linear-gradient-22" y1="0.5" xlink:href="#linear-gradient"/>
  </defs>
  <g id="Grupo_909130" data-name="Grupo 909130" transform="translate(1.431)">
    <path id="Trazado_678506" data-name="Trazado 678506" d="M275.116,214.231l-3.051,1.761v-7.311l3.051-1.761Z" transform="translate(-272.065 -120.085)" fill="url(#linear-gradient)"/>
    <path id="Trazado_678507" data-name="Trazado 678507" d="M275.116,171.538l-3.051,1.761v-7.311l3.051-1.761Z" transform="translate(-272.065 -127.03)" fill="url(#linear-gradient)"/>
    <path id="Trazado_678508" data-name="Trazado 678508" d="M278.911,212.555l-3.051,1.761V203.323l3.051-1.761Z" transform="translate(-271.448 -120.957)" fill="url(#linear-gradient)"/>
    <path id="Trazado_678509" data-name="Trazado 678509" d="M278.911,183.03l-3.051,1.761V173.8l3.051-1.761Z" transform="translate(-271.448 -125.76)" fill="url(#linear-gradient)"/>
    <path id="Trazado_678510" data-name="Trazado 678510" d="M282.706,211.25l-3.051,1.761V195.684l3.051-1.761Z" transform="translate(-270.831 -122.199)" fill="url(#linear-gradient)"/>
    <path id="Trazado_678511" data-name="Trazado 678511" d="M282.706,193.6l-3.051,1.761V178.03l3.051-1.761Z" transform="translate(-270.831 -125.071)" fill="url(#linear-gradient)"/>
    <path id="Trazado_678512" data-name="Trazado 678512" d="M286.5,208.681l-3.051,1.761V195.819l3.051-1.761Z" transform="translate(-270.213 -122.177)" fill="url(#linear-gradient)"/>
    <path id="Trazado_678513" data-name="Trazado 678513" d="M286.5,185.724l-3.051,1.761V172.863L286.5,171.1Z" transform="translate(-270.213 -125.912)" fill="url(#linear-gradient)"/>
    <path id="Trazado_678514" data-name="Trazado 678514" d="M290.3,206.042l-3.051,1.761v-11.42l3.051-1.761Z" transform="translate(-269.596 -122.086)" fill="url(#linear-gradient)"/>
    <path id="Trazado_678515" data-name="Trazado 678515" d="M290.3,188.446l-3.051,1.761v-11.42l3.051-1.761Z" transform="translate(-269.596 -124.948)" fill="url(#linear-gradient)"/>
    <path id="Trazado_678516" data-name="Trazado 678516" d="M294.091,202.679l-3.051,1.761V201.39l3.051-1.761Z" transform="translate(-268.979 -121.271)" fill="url(#linear-gradient)"/>
    <path id="Trazado_678517" data-name="Trazado 678517" d="M294.091,163.724l-3.051,1.761v-3.051l3.051-1.761Z" transform="translate(-268.979 -127.608)" fill="url(#linear-gradient)"/>
    <path id="Trazado_678518" data-name="Trazado 678518" d="M294.091,146.32l-3.051,1.761V145.03l3.051-1.761Z" transform="translate(-268.979 -130.439)" fill="url(#linear-gradient)"/>
    <path id="Trazado_678519" data-name="Trazado 678519" d="M297.886,201.212l-3.051,1.761v-8.222l3.051-1.761Z" transform="translate(-268.361 -122.351)" fill="url(#linear-gradient)"/>
    <path id="Trazado_678520" data-name="Trazado 678520" d="M301.681,198.834,298.63,200.6v-6.887l3.051-1.761Z" transform="translate(-267.744 -122.521)" fill="url(#linear-gradient)"/>
    <path id="Trazado_678521" data-name="Trazado 678521" d="M301.681,165.94,298.63,167.7v-6.887l3.051-1.761Z" transform="translate(-267.744 -127.872)" fill="url(#linear-gradient)"/>
    <path id="Trazado_678522" data-name="Trazado 678522" d="M301.681,139.121l-3.051,1.761V134l3.051-1.761Z" transform="translate(-267.744 -132.235)" fill="url(#linear-gradient)"/>
    <path id="Trazado_678523" data-name="Trazado 678523" d="M305.476,198.515l-3.05,1.761V180.01l3.05-1.761Z" transform="translate(-267.126 -124.749)" fill="url(#linear-gradient)"/>
    <path id="Trazado_678524" data-name="Trazado 678524" d="M309.271,194.639l-3.051,1.761v-8.222l3.051-1.761Z" transform="translate(-266.509 -123.42)" fill="url(#linear-gradient)"/>
    <path id="Trazado_678525" data-name="Trazado 678525" d="M309.271,173.07l-3.051,1.761v-8.222l3.051-1.761Z" transform="translate(-266.509 -126.929)" fill="url(#linear-gradient)"/>
    <path id="Trazado_678526" data-name="Trazado 678526" d="M309.271,145.838l-3.051,1.761v-8.222l3.051-1.761Z" transform="translate(-266.509 -131.359)" fill="url(#linear-gradient)"/>
  </g>
  <g id="Grupo_909129" data-name="Grupo 909129" transform="translate(0 69.729)">
    <path id="Trazado_678503" data-name="Trazado 678503" d="M316.458,262.476l-45.623,26.341V223.637L316.458,197.3Z" transform="translate(-270.835 -191.379)" fill="#403642" opacity="0.9"/>
    <path id="Trazado_678504" data-name="Trazado 678504" d="M316.458,199.055,270.835,225.4v-6.848l45.623-26.341Z" transform="translate(-270.835 -192.207)" fill="url(#linear-gradient-22)"/>
    <path id="Trazado_678505" data-name="Trazado 678505" d="M276.36,224.876l-2.332,1.346v-1.129l2.332-1.346Zm4.931-3.976-3.414,1.971V224l3.414-1.971Zm6.717-3.877-5.2,3v1.129l5.2-3Zm8.127-4.693-6.61,3.817v1.129l6.61-3.817Zm1.517-.876v1.129l2.892-1.67v-1.129Zm-18.384,13.679-5.24,3.025v1.129l5.24-3.025Zm4.932-2.847-3.415,1.972v1.129l3.415-1.972ZM289.889,219l-4.172,2.409v1.129l4.172-2.409Zm4.1-2.368-2.586,1.493v1.129l2.586-1.493Zm1.517-.877v1.129l4.31-2.488v-1.129ZM276.36,229.876l-2.332,1.348v1.129l2.332-1.348Zm4.931-2.846L277.878,229v1.129l3.414-1.972Zm5.058-2.921-3.54,2.044v1.129l3.54-2.044Zm11.1-6.407-9.582,5.532v1.129l9.582-5.532Zm-18.18,13.56-5.24,3.026v1.129l5.24-3.026Zm4.932-2.846-3.415,1.971v1.129l3.415-1.971Zm5.689-3.286-4.172,2.409v1.129l4.172-2.409Zm4.1-2.368-2.586,1.493v1.129l2.586-1.493ZM276.36,236.006l-2.332,1.348v1.129l2.332-1.348Zm4.931-2.846-3.414,1.971v1.129l3.414-1.971Zm6.575-3.8-5.058,2.919v1.129l5.058-2.919ZM276.36,265.569l-2.332,1.346v-1.129l2.332-1.346Zm4.931-3.976-3.414,1.971v1.129l3.414-1.971Zm-2.023,4.233-5.24,3.025v1.129l5.24-3.025Zm-2.908,4.744-2.332,1.348v1.128l2.332-1.346Zm4.931-2.847-3.414,1.972v1.128l3.414-1.971Zm-2.023,4.233-5.24,3.026v1.129l5.24-3.026ZM276.36,276.7l-2.332,1.348v1.129l2.332-1.348Zm0-33.908-2.332,1.348v1.129l2.332-1.348Zm4.931-2.846-3.414,1.971v1.129l3.414-1.972Zm8.554-4.939-7.037,4.062V240.2l7.037-4.062Zm-10.577,9.171-5.24,3.026v1.129l5.24-3.026Zm4.932-2.846-3.415,1.971v1.129l3.415-1.971Zm3.326-1.922-1.809,1.045v1.129l1.809-1.045Zm-11.166,15.6-2.332,1.346v1.129l2.332-1.346Zm3.618-2.089-2.1,1.214v1.128l2.1-1.213Zm5.4-3.119-3.887,2.244v1.128l3.887-2.243Zm-7.426,7.353-3.929,2.267v1.129l3.929-2.267Zm3.355-1.938-1.839,1.062v1.129l1.839-1.061Zm2.54-1.466-1.023.591v1.129l1.023-.591Zm-7.492-5-2.332,1.346v1.129l2.332-1.348Zm3.618-2.089-2.1,1.213V249l2.1-1.214Zm-2.022,4.232-3.929,2.268v1.129l3.929-2.268Z" transform="translate(-270.315 -189.348)" fill="#fff" opacity="0.9"/>
  </g>
</svg>
