<svg id="Grupo_909136" data-name="Grupo 909136" xmlns="http://www.w3.org/2000/svg" width="68.854" height="71.876" viewBox="0 0 68.854 71.876">
  <g id="Grupo_909135" data-name="Grupo 909135">
    <g id="Grupo_909133" data-name="Grupo 909133">
      <path id="Trazado_678568" data-name="Trazado 678568" d="M266.5,112.724c-2.832,0-4.662-2.052-4.662-5.226,0-4.444,3.446-9.916,7.848-12.457l52.182-30.127a8.53,8.53,0,0,1,4.165-1.27c2.83,0,4.659,2.051,4.659,5.226,0,4.445-3.446,9.916-7.845,12.457l-52.182,30.127A8.538,8.538,0,0,1,266.5,112.724Z" transform="translate(-261.837 -63.644)" fill="#e8e8e8"/>
      <path id="Trazado_678569" data-name="Trazado 678569" d="M322.219,80.346l-52.181,30.127c-4.066,2.347-7.362.955-7.362-3.111s3.3-9.265,7.362-11.613l52.181-30.126c4.066-2.347,7.362-.955,7.362,3.111S326.285,78,322.219,80.346Z" transform="translate(-261.701 -63.508)" fill="#4cc9d9"/>
    </g>
    <g id="Grupo_909134" data-name="Grupo 909134" transform="translate(0.46 42.874)" opacity="0.9">
      <path id="Trazado_678570" data-name="Trazado 678570" d="M290.377,116.383l-20.782,12c-4.066,2.347-7.362.955-7.362-3.111s3.3-9.265,7.362-11.613l20.782-12c4.066-2.347,7.362-.955,7.362,3.111S294.443,114.035,290.377,116.383Z" transform="translate(-262.233 -100.519)" fill="#403642"/>
    </g>
  </g>
  <path id="Trazado_678571" data-name="Trazado 678571" d="M272.7,98.942a4.222,4.222,0,0,1-2.036,3.211c-1.125.65-2.037.264-2.037-.86a4.221,4.221,0,0,1,2.037-3.211C271.786,97.433,272.7,97.818,272.7,98.942Zm7.107-6.14a4.224,4.224,0,0,0-2.036,3.212c0,1.124.912,1.509,2.036.86a4.224,4.224,0,0,0,2.036-3.211C281.841,92.538,280.93,92.153,279.805,92.8Zm9.144-5.279a4.222,4.222,0,0,0-2.036,3.211c0,1.124.911,1.51,2.036.86a4.222,4.222,0,0,0,2.036-3.211C290.986,87.26,290.074,86.875,288.95,87.523Zm9.143-5.28a4.224,4.224,0,0,0-2.036,3.211c0,1.125.912,1.51,2.036.862a4.223,4.223,0,0,0,2.036-3.212C300.129,81.98,299.218,81.595,298.093,82.244Zm9.144-5.279a4.222,4.222,0,0,0-2.036,3.211c0,1.124.912,1.509,2.036.86a4.222,4.222,0,0,0,2.036-3.211C309.273,76.7,308.362,76.315,307.237,76.965Z" transform="translate(-260.733 -61.528)" fill="#e8e8e8"/>
</svg>
