<svg id="Grupo_909132" data-name="Grupo 909132" xmlns="http://www.w3.org/2000/svg" width="468.584" height="258.553" viewBox="0 0 468.584 258.553">
  <path id="Trazado_678528" data-name="Trazado 678528" d="M377.162,209.949l-6.956,4.016v-6.957l6.956-4.016Z" transform="translate(30.114 -18.187)" fill="#e7f8f8"/>
  <path id="Trazado_678529" data-name="Trazado 678529" d="M32.853,144.806,25.9,148.822v-6.957l6.957-4.016Z" transform="translate(-25.896 -28.784)" fill="#e7f8f8"/>
  <path id="Trazado_678530" data-name="Trazado 678530" d="M329.57,188.31l-3.478,2.008V186.84l3.478-2.008Z" transform="translate(22.938 -21.141)" fill="#e7f8f8"/>
  <path id="Trazado_678531" data-name="Trazado 678531" d="M130.829,180.7l-11.967,6.909V175.638l11.967-6.909Z" transform="translate(-10.773 -23.761)" fill="#e7f8f8"/>
  <path id="Trazado_678532" data-name="Trazado 678532" d="M337.169,135.346l-11.794,6.809V130.361l11.794-6.809Z" transform="translate(22.821 -31.11)" fill="#e7f8f8"/>
  <path id="Trazado_678533" data-name="Trazado 678533" d="M391.774,178.978l-11.793,6.809V173.994l11.793-6.809Z" transform="translate(31.704 -24.012)" fill="#e7f8f8"/>
  <path id="Trazado_678534" data-name="Trazado 678534" d="M85.82,87.929,81.5,90.422V86.1l4.317-2.492Z" transform="translate(-16.851 -37.607)" fill="#e7f8f8"/>
  <path id="Trazado_678535" data-name="Trazado 678535" d="M72.594,149.713,68.278,152.2v-4.317l4.317-2.492Z" transform="translate(-19.002 -27.556)" fill="#e7f8f8"/>
  <path id="Trazado_678536" data-name="Trazado 678536" d="M104.3,117.319l-9.636,5.563v-9.636l9.636-5.563Z" transform="translate(-14.71 -33.691)" fill="#e7f8f8"/>
  <path id="Trazado_678537" data-name="Trazado 678537" d="M169.168,170.175l-11.793,6.809V165.191l11.793-6.809Z" transform="translate(-4.508 -25.444)" fill="#e7f8f8"/>
  <path id="Trazado_678538" data-name="Trazado 678538" d="M141.5,196.508l-6.957,4.016v-6.957l6.957-4.016Z" transform="translate(-8.223 -20.374)" fill="#e7f8f8"/>
  <path id="Trazado_678539" data-name="Trazado 678539" d="M273.352,79.523,266.4,83.539V76.583l6.957-4.016Z" transform="translate(13.227 -39.404)" fill="#e7f8f8"/>
  <path id="Trazado_678540" data-name="Trazado 678540" d="M364.455,60.961l-3.478,2.008V59.491l3.478-2.008Z" transform="translate(28.613 -41.858)" fill="#e7f8f8"/>
  <path id="Trazado_678541" data-name="Trazado 678541" d="M429.405,109.387l-3.478,2.008v-3.478l3.478-2.008Z" transform="translate(39.179 -33.98)" fill="#e7f8f8"/>
  <path id="Trazado_678542" data-name="Trazado 678542" d="M336.06,95.494,329.1,99.51V92.554l6.957-4.016Z" transform="translate(23.428 -36.806)" fill="#e7f8f8"/>
  <path id="Trazado_678543" data-name="Trazado 678543" d="M124.087,260.81v6.957l6.957-4.016v-6.957Z" transform="translate(-9.923 -9.435)" fill="#e7f8f8"/>
  <path id="Trazado_678544" data-name="Trazado 678544" d="M134.709,265.181l-3.478,2.008v-3.478l3.478-2.008Z" transform="translate(-8.761 -8.636)" fill="#e7f8f8"/>
  <path id="Trazado_678545" data-name="Trazado 678545" d="M326.655,163.589l-7.263,4.193v-7.263l7.263-4.193Z" transform="translate(21.848 -25.778)" fill="#e7f8f8"/>
  <path id="Trazado_678546" data-name="Trazado 678546" d="M121.454,72.123l-7.263,4.193V69.054l7.263-4.193Z" transform="translate(-11.533 -40.658)" fill="#e7f8f8"/>
  <path id="Trazado_678547" data-name="Trazado 678547" d="M315.6,47.522l-3.478,2.008V46.052l3.478-2.008Z" transform="translate(20.666 -44.044)" fill="#e7f8f8"/>
  <path id="Trazado_678548" data-name="Trazado 678548" d="M92.485,213.852l-15.523,8.962V207.291l15.523-8.962Z" transform="translate(-17.589 -18.946)" fill="#e7f8f8"/>
  <path id="Trazado_678549" data-name="Trazado 678549" d="M119.089,120.593l-12.683,7.323V115.232l12.683-7.323Z" transform="translate(-12.8 -33.655)" fill="#e7f8f8"/>
  <path id="Trazado_678550" data-name="Trazado 678550" d="M344.846,231.035l-6.957,4.016v-6.957l6.957-4.016Z" transform="translate(24.857 -14.757)" fill="#e7f8f8"/>
  <path id="Trazado_678551" data-name="Trazado 678551" d="M301.972,119.9l-6.956,4.016v-6.957l6.956-4.016Z" transform="translate(17.883 -32.835)" fill="#e7f8f8"/>
  <path id="Trazado_678552" data-name="Trazado 678552" d="M158.967,153.838l-3.478,2.008v-3.478l3.478-2.008Z" transform="translate(-4.815 -26.749)" fill="#e7f8f8"/>
  <path id="Trazado_678553" data-name="Trazado 678553" d="M81.14,254.98l-5.993,3.46v-5.993l5.993-3.46Z" transform="translate(-17.885 -10.705)" fill="#e7f8f8"/>
  <path id="Trazado_678554" data-name="Trazado 678554" d="M358.471,242.242l-3.478,2.008v-3.478l3.478-2.008Z" transform="translate(27.64 -12.368)" fill="#e7f8f8"/>
  <path id="Trazado_678555" data-name="Trazado 678555" d="M93.957,220l-3.478,2.008v-3.478l3.478-2.008Z" transform="translate(-15.391 -15.986)" fill="#e7f8f8"/>
  <path id="Trazado_678556" data-name="Trazado 678556" d="M105.435,157.932l-3.478,2.008v-3.478l3.478-2.008Z" transform="translate(-13.523 -26.083)" fill="#e7f8f8"/>
  <path id="Trazado_678557" data-name="Trazado 678557" d="M35.173,131.327l-3.478,2.008v-3.478l3.478-2.008Z" transform="translate(-24.953 -30.411)" fill="#e7f8f8"/>
  <path id="Trazado_678558" data-name="Trazado 678558" d="M385.539,119.352l-3.478,2.008v-3.478l3.478-2.008Z" transform="translate(32.043 -32.359)" fill="#e7f8f8"/>
  <path id="Trazado_678559" data-name="Trazado 678559" d="M418.586,129.6l-6.957,4.016v-6.957l6.957-4.016Z" transform="translate(36.853 -31.257)" fill="#e7f8f8"/>
  <path id="Trazado_678560" data-name="Trazado 678560" d="M374.85,174.061l-3.478,2.008v-3.478l3.478-2.008Z" transform="translate(30.304 -23.459)" fill="#e7f8f8"/>
  <path id="Trazado_678561" data-name="Trazado 678561" d="M201.925,201.481l-11.793,6.809V196.5l11.793-6.809Z" transform="translate(0.821 -20.351)" fill="#e7f8f8"/>
  <path id="Trazado_678562" data-name="Trazado 678562" d="M320.341,219.383l-11.793,6.809V214.4l11.793-6.809Z" transform="translate(20.084 -17.439)" fill="#e7f8f8"/>
  <path id="Trazado_678563" data-name="Trazado 678563" d="M242.523,201.227l-6.956,4.016v-6.957l6.956-4.016Z" transform="translate(8.212 -19.606)" fill="#e7f8f8"/>
  <path id="Trazado_678564" data-name="Trazado 678564" d="M322.656,219.971l-6.957,4.016v-6.957l6.957-4.016Z" transform="translate(21.248 -16.557)" fill="#e7f8f8"/>
  <path id="Trazado_678565" data-name="Trazado 678565" d="M264.569,219.068l-3.478,2.008V217.6l3.478-2.008Z" transform="translate(12.364 -16.138)" fill="#e7f8f8"/>
  <path id="Trazado_678566" data-name="Trazado 678566" d="M144,171.924l-3.478,2.008v-3.478L144,168.446Z" transform="translate(-7.249 -23.807)" fill="#e7f8f8"/>
  <path id="Trazado_678567" data-name="Trazado 678567" d="M277.38,66.443,273.9,68.451V64.973l3.478-2.008Z" transform="translate(14.448 -40.966)" fill="#e7f8f8"/>
</svg>
