<svg xmlns="http://www.w3.org/2000/svg" xmlns:xlink="http://www.w3.org/1999/xlink" width="400" height="294.905" viewBox="0 0 400 294.905">
  <defs>
    <clipPath id="clip-path">
      <rect width="351.272" height="262.844" fill="none"/>
    </clipPath>
  </defs>
  <g id="Grupo_913742" data-name="Grupo 913742" transform="translate(-180 -1098)">
    <g id="Image_Place_Holder" data-name="Image Place Holder" transform="translate(180 1122.136)" opacity="0.1">
      <rect id="Image_Place_Holder-2" data-name="Image Place Holder" width="400" height="270.769" rx="10" fill="#feca2e"/>
    </g>
    <g id="Cuadrícula_de_repetición_2" data-name="Cuadrícula de repetición 2" transform="translate(191.606 1098)" clip-path="url(#clip-path)">
      <g id="Grupo_913697" data-name="Grupo 913697" transform="translate(-22.781 -11.495)">
        <g id="Object" transform="translate(22.781 11.496)">
          <g id="Grupo_910690" data-name="Grupo 910690" transform="translate(0)">
            <g id="Grupo_910662" data-name="Grupo 910662" transform="translate(40.369 117.37)">
              <g id="Grupo_910658" data-name="Grupo 910658" transform="translate(23.478 77.994)">
                <path id="Trazado_682995" data-name="Trazado 682995" d="M255.923,566.488l.944,21.9L254.1,625.62l-4.141.294L244.926,592.1l-6.961-28.616Z" transform="translate(-237.966 -563.481)" fill="#3b455a"/>
                <path id="Trazado_682996" data-name="Trazado 682996" d="M270.682,733.482l4.638,1.921,2.08-2.4-2.4-2.08-4.478.318Z" transform="translate(-258.541 -669.304)" fill="#2e3644"/>
              </g>
              <g id="Grupo_910659" data-name="Grupo 910659" transform="translate(11.21 71.55)">
                <path id="Trazado_682997" data-name="Trazado 682997" d="M205.539,547.673l-.909,16.552,2.7,49.216,4.147.207,6.215-32.279,5.481-35.4Z" transform="translate(-204.63 -545.97)" fill="#3b455a"/>
                <path id="Trazado_682998" data-name="Trazado 682998" d="M211.372,730.387l-4.6,2.018-2.13-2.354,2.354-2.13,4.484.224Z" transform="translate(-204.64 -660.962)" fill="#2e3644"/>
              </g>
              <g id="Grupo_910660" data-name="Grupo 910660" transform="translate(7.462 23.104)">
                <path id="Trazado_682999" data-name="Trazado 682999" d="M223.213,415.713l-12.939-1.386s-7.2.769-12.083,17.865c-2.717,9.511-3.545,24.5-3.744,35.92.306,1.63,2.081,8.768,9.588,7.557,12.892-2.079,19.754-4.159,25.369-3.119,4.783,1.04,4.378-5.545,3.853-10.57l-1.906-15.548Z" transform="translate(-194.447 -414.327)" fill="#ccd2d9"/>
              </g>
              <g id="Grupo_910661" data-name="Grupo 910661" transform="translate(16.901)">
                <path id="Trazado_683000" data-name="Trazado 683000" d="M243.373,372.639c-3.262-.719-6.618-1.363-9.883-.717a2.729,2.729,0,0,0-1.871,1.008,2.862,2.862,0,0,0-.3.788c-.824,3.063-1.869,7.6.147,10.425a5.045,5.045,0,0,0,1.456,1.312,7.162,7.162,0,0,0,2.412.947,12.955,12.955,0,0,1-.73,2.224c.746,1.126,4.229,1.261,4.874.181l.108-2.8a6.892,6.892,0,0,0,1.218-.633,7.871,7.871,0,0,0,3.039-4.132c.62-1.812,1.493-3.535,2.06-5.382a2.6,2.6,0,0,0,.015-2.049,2.776,2.776,0,0,0-1.922-1.031Z" transform="translate(-226.544 -364.255)" fill="#aa6755"/>
                <path id="Trazado_683001" data-name="Trazado 683001" d="M226.068,361.68a10.169,10.169,0,0,1,5.546-1.373c4.582.332,6.261,3.7,6.506,7.911,1.262-1.6,3.631-3.623,3.775-5.688a9.661,9.661,0,0,0-1.064-5.454c-.886-1.366-3.151-2.116-4.5-2.907l-3.81-2.238a1.927,1.927,0,0,0-1.909-.245l-9,2.327c-.577.149-1.234.367-1.446.923a1.893,1.893,0,0,0,.024,1.071,44.283,44.283,0,0,1,1.157,4.729c.183.917.73,5.617,2.354,5.075a21.112,21.112,0,0,0,.92-2.575A3.732,3.732,0,0,1,226.068,361.68Z" transform="translate(-220.095 -351.545)" fill="#3b455a"/>
              </g>
              <path id="Trazado_683002" data-name="Trazado 683002" d="M197.458,414.327l-4.783,1.456-17.467,18.3-1.04,6.03,8.35,13.787,2.255-5.054-3.535-10.189,5.614-3.951,7.486-16.843Z" transform="translate(-174.169 -391.223)" fill="#ccd2d9"/>
            </g>
            <g id="Grupo_910664" data-name="Grupo 910664" transform="translate(130.511)">
              <path id="Trazado_683003" data-name="Trazado 683003" d="M503.278,32.611l-49.5.494L419.118,68.458l.494,49.5,35.354,34.656,49.5-.494,34.656-35.354-.494-49.5Z" transform="translate(-419.118 -32.611)" fill="#efefef"/>
              <path id="Trazado_683004" data-name="Trazado 683004" d="M541.5,75.729,508.478,43.358l-46.241.461L429.866,76.843l.461,46.241,33.024,32.371,46.241-.461,32.371-33.024Z" transform="translate(-425.91 -39.403)" fill="#db1111"/>
              <g id="Grupo_910663" data-name="Grupo 910663" transform="translate(17.125 45.807)">
                <path id="Trazado_683005" data-name="Trazado 683005" d="M484.044,166.183l0,.477-5.2.052,0-.357a3.464,3.464,0,0,0-3.732-3.736c-2.462.025-3.8,1.269-3.784,2.937.055,5.521,13.249,2.132,13.348,12.141.062,6.236-3.885,8.7-9.526,8.755-5,.05-9.441-2.766-9.5-8.366,0-.318.033-.676.031-.874l5.282-.053c0,.079-.035.437-.033.636a4.037,4.037,0,0,0,4.412,4.286c3.058-.031,4.114-1.67,4.1-3.258-.065-6.474-13.252-2.49-13.356-12.856-.051-5.163,4.213-7.669,9.019-7.716C479.952,158.2,483.988,160.583,484.044,166.183Z" transform="translate(-465.652 -157.82)" fill="#fff"/>
                <path id="Trazado_683006" data-name="Trazado 683006" d="M541.4,163.256l-6.752.067.227,22.719-5.084.051-.227-22.719-6.752.067-.045-4.528,18.588-.185Z" transform="translate(-501.746 -158.123)" fill="#fff"/>
                <path id="Trazado_683007" data-name="Trazado 683007" d="M600.166,171.072c.1,9.612-4.149,14.143-11.179,14.213s-11.364-4.375-11.46-13.987,4.149-14.143,11.179-14.213S600.07,161.461,600.166,171.072Zm-17.406-.819.02,1.986c.054,5.441,2.113,8.718,6.164,8.677s6.044-3.357,5.989-8.8l-.019-1.986c-.055-5.441-2.113-8.718-6.164-8.677S582.705,164.812,582.759,170.253Z" transform="translate(-536.355 -157.085)" fill="#fff"/>
                <path id="Trazado_683008" data-name="Trazado 683008" d="M654.074,174.437,654.18,185l-5.084.051-.272-27.246,9.731-.1c5.64-.056,8.574,3.371,8.621,8.1.051,5.124-3.331,8.534-8.455,8.585Zm-.121-12.154.076,7.666,4.131-.041c2.463-.025,3.8-1.547,3.773-4.05-.022-2.224-1.427-3.64-3.849-3.616Z" transform="translate(-581.415 -157.479)" fill="#fff"/>
              </g>
            </g>
            <g id="Grupo_910671" data-name="Grupo 910671" transform="translate(209.87 116.688)">
              <g id="Grupo_910669" data-name="Grupo 910669" transform="translate(22.471)">
                <path id="Trazado_683009" data-name="Trazado 683009" d="M800.278,723.54l.332,2.585-4.837,3.25-2.917-2.253,2.253-2.917,4.838-3.25Z" transform="translate(-757.147 -584.328)" fill="#2e3644"/>
                <g id="Grupo_910665" data-name="Grupo 910665" transform="translate(22.271 59.86)">
                  <path id="Trazado_683010" data-name="Trazado 683010" d="M777.365,590.837l-3.731-32.966,4.489-36.906-1.009-7.85-20.049-.762-.723,12.778,3.366,32.791,12.662,34.6Z" transform="translate(-756.341 -512.353)" fill="#0b5999"/>
                </g>
                <g id="Grupo_910666" data-name="Grupo 910666" transform="translate(8.231 60.356)">
                  <path id="Trazado_683011" data-name="Trazado 683011" d="M718.242,516.9l-.053,33.267,6.7,42.826,4.82-.048,2.649-39.6,6.2-39.639Z" transform="translate(-718.189 -513.701)" fill="#0b5999"/>
                  <path id="Trazado_683012" data-name="Trazado 683012" d="M736.036,730.08l-5.186,2.658-2.632-2.58,2.58-2.632,5.212-.052Z" transform="translate(-724.527 -648.804)" fill="#0b5999"/>
                </g>
                <g id="Grupo_910667" data-name="Grupo 910667" transform="translate(0 23.164)">
                  <path id="Trazado_683013" data-name="Trazado 683013" d="M741.95,464.343c-.046-1.442-.126-2.645-.137-3.074-.1-3.867-.448-7.726-.932-11.566-.434-3.441-.982-11.983-1.57-15.4-.486-2.823-2.18-9.871-3.4-12.49-3.045-6.513-2.1-7.115-15.476-9.049-5.861-.848-7.246,2.8-12.038,7.005-.472.414-.446,2.881-.556,3.534-.193,1.15-.4,2.3-.637,3.441-.187.9-.392,1.794-.623,2.684h0s-4.023,18.305-6.683,22.193-8.155,9.323,1.037,12.641a32.905,32.905,0,0,0,4.964,1.3s7.518-.836,11.384-.807a65.638,65.638,0,0,1,10.637.991,22.892,22.892,0,0,1,6.824,2.053c2,1.044,3.44,2.579,5.467,3.659a1.058,1.058,0,0,0,.621.178C741.993,471.468,742.047,467.377,741.95,464.343Z" transform="translate(-695.823 -412.638)" fill="#4dd0e1"/>
                </g>
                <g id="Grupo_910668" data-name="Grupo 910668" transform="translate(6.062)">
                  <path id="Trazado_683014" data-name="Trazado 683014" d="M752.386,390.425a5.5,5.5,0,0,0,3.928-.2.868.868,0,0,0,.556-.813,22.465,22.465,0,0,0-.243-3.015c1.246-.438,2.686-1.1,2.9-2.4a3.726,3.726,0,0,0-.073-1.24l-.878-5.084a4.541,4.541,0,0,0-.528-1.692,3.815,3.815,0,0,0-2.673-1.445,9.286,9.286,0,0,0-7.519,1.832,4.071,4.071,0,0,0-1.27,1.675,5.516,5.516,0,0,0,.185,3.221l.769,2.927c.295,1.122.72,2.4,1.8,2.819.574.223,1.252.158,1.772.489C752.033,388.086,751.909,389.449,752.386,390.425Z" transform="translate(-733.857 -365.301)" fill="#eac1a4"/>
                  <path id="Trazado_683015" data-name="Trazado 683015" d="M715.68,357.916a10.97,10.97,0,0,0-.846-1.214,21.42,21.42,0,0,1-2.044-2.462,2.776,2.776,0,0,1-.082-3.017,3.309,3.309,0,0,1,1.761-1.015,12.8,12.8,0,0,1,6.732-.124c2.1.534,3.973,1.418,6.084.629,1.983-.74,3.416-.439,5.488.3,2.243.8,5.254.989,7.284,2.119a5.987,5.987,0,0,1,2.052,2.024,9.025,9.025,0,0,1,.025,9.543,12.926,12.926,0,0,1-1.4,1.771c-1.058,1.147-2.324,2.565-3.78,2.99-.035-1.3,1.151-5.408.152-6.475-1.587-1.694-5.176-1.1-7.145-.686-2.148.455-4.062,1.976-6.191,2.3a8.027,8.027,0,0,1-4.79-1.31C717.369,362.312,716.62,359.461,715.68,357.916Z" transform="translate(-712.297 -349.693)" fill="#3b455a"/>
                </g>
                <path id="Trazado_683016" data-name="Trazado 683016" d="M792.856,419.775l8.344,7.311,9.308,19.561-11.757,13.987-2.023-7.822Z" transform="translate(-757.147 -393.984)" fill="#7fc5a3"/>
              </g>
              <g id="Grupo_910670" data-name="Grupo 910670" transform="translate(0 23.896)">
                <path id="Trazado_683017" data-name="Trazado 683017" d="M638.907,427.338l-4.144-2.668,1.063-1.821,3.242,1.2.1-1.094,3.268,2.715-.85,2.042Z" transform="translate(-634.763 -419.823)" fill="#eac1a4"/>
                <path id="Trazado_683018" data-name="Trazado 683018" d="M688.6,414.627l-21.621,8.864-13.649-3.019L652,423.082l12.449,9.165,17.157-2.043Z" transform="translate(-645.656 -414.627)" fill="#4dd0e1"/>
              </g>
            </g>
            <g id="Grupo_910674" data-name="Grupo 910674" transform="translate(181.05 187.426)">
              <g id="Grupo_910672" data-name="Grupo 910672">
                <path id="Trazado_683019" data-name="Trazado 683019" d="M566.976,730.032l-.116,2.263,4.409,2.5,2.379-2.146-2.146-2.379-4.409-2.5Z" transform="translate(-563.028 -659.372)" fill="#2e3644"/>
                <path id="Trazado_683020" data-name="Trazado 683020" d="M556.8,543.9l-.354,6.872,7.63,30.249L560.2,611.83l4.442,1.129,12.333-37.012.222-11.138-3.064-22.9Z" transform="translate(-556.447 -541.911)" fill="#40495f"/>
              </g>
              <g id="Grupo_910673" data-name="Grupo 910673" transform="translate(16.278 0.64)">
                <path id="Trazado_683021" data-name="Trazado 683021" d="M618.543,544.353l3.419,28.718-1.439,37.655-4.166.447-6.3-33.926-9.374-33.6Z" transform="translate(-600.68 -543.651)" fill="#40495f"/>
                <path id="Trazado_683022" data-name="Trazado 683022" d="M643.443,727.2l4.747,1.769,2.011-2.495-2.495-2.011-4.506.484Z" transform="translate(-627.553 -657.923)" fill="#2e3644"/>
              </g>
            </g>
            <g id="Grupo_910675" data-name="Grupo 910675" transform="translate(175.348 143.492)">
              <path id="Trazado_683023" data-name="Trazado 683023" d="M582.479,463.022c-4.291-8.738-6-18.318-8.252-27.742a25.515,25.515,0,0,0-2.9-8.025,9.8,9.8,0,0,0-6.947-4.474c-3.459-.605-7.346.023-10.809.312-2.1,6.546-3.46,2.832-5.92,9.25-.51,1.33-1.958,12.853-2.495,14.173h0s-5.654,17.706-3.844,31.709c.018.139.033.274.049.41.365.063.715.126,1.043.192a70.279,70.279,0,0,0,14.841,1.456,57.877,57.877,0,0,0,13.13-1.654c5.875-1.453,12.85-.859,17.652-4.731C586.618,471.031,583.887,465.889,582.479,463.022Z" transform="translate(-540.954 -422.527)" fill="#0b5999"/>
            </g>
            <g id="Grupo_910676" data-name="Grupo 910676" transform="translate(166.315 119.804)">
              <path id="Trazado_683024" data-name="Trazado 683024" d="M516.407,384.358l4.826-26.2,4.1.792.188,19.77Z" transform="translate(-516.407 -358.158)" fill="#0b5999"/>
            </g>
            <path id="Trazado_683025" data-name="Trazado 683025" d="M516.407,417.189l23.949,15.606-3.4-15.972-14.714-6.717Z" transform="translate(-350.093 -271.185)" fill="#0b5999"/>
            <g id="Grupo_910678" data-name="Grupo 910678" transform="translate(172.781 123.672)">
              <path id="Trazado_683026" data-name="Trazado 683026" d="M581.369,387.484c-3.109-4.684-11.111-4.43-11.227,2.03a12.307,12.307,0,0,0,1.027,5.676,6.145,6.145,0,0,0,4.383,3.486l.033,0,.189,1.486a.336.336,0,0,0,.464.349l1.779-.211a1.947,1.947,0,0,0,.848-.235,1.641,1.641,0,0,0,.452-1.765c-.035-.151-.077-.3-.12-.452C582.254,395.78,583.4,390.546,581.369,387.484Z" transform="translate(-556.832 -378.533)" fill="#aa6755"/>
              <g id="Grupo_910677" data-name="Grupo 910677">
                <path id="Trazado_683027" data-name="Trazado 683027" d="M545.791,377.921c-1.405.324-2.03,2.055-2.99,3.211-.8.962-1.895,1.565-2.768,2.445a3.492,3.492,0,0,0-1.074,3.487,5.815,5.815,0,0,0-3.781.448c-1.108.7-1.66,2.571-.719,3.563.843.889,2.319.6,3.186,1.457,1.371,1.361.413,4.686,2.18,5.252.425.136.888.028,1.31.174a3.341,3.341,0,0,1,1.253,1.152,5.577,5.577,0,0,0,6.83,1.391,6.593,6.593,0,0,0,1.662-4.874c-.134-2.163-1.424-2.43-2.305-4.164a8.442,8.442,0,0,1-.515-6.243A5.387,5.387,0,0,1,550.468,382c.477-.242.484.233.891-.37a2.67,2.67,0,0,0,.208-1.336C549.81,379.747,547.639,377.5,545.791,377.921Z" transform="translate(-533.979 -374.483)" fill="#3b455a"/>
                <path id="Trazado_683028" data-name="Trazado 683028" d="M587.147,369.039a16.222,16.222,0,0,1,2.257-.368c1.149.045,1.488,1.085,2.112,1.86a10.231,10.231,0,0,0,2.6,2.5,9.968,9.968,0,0,0,2.186.623,2.5,2.5,0,0,1,1.785,1.388c.272.727.041,1.567.253,2.316a11.1,11.1,0,0,1,.838,2.817,3.587,3.587,0,0,1-.178,1.864,2.583,2.583,0,0,1-1.912,1.192,4.676,4.676,0,0,0-2.151.753c-1.3,1.094-.427,2.5-.327,3.931a3.916,3.916,0,0,1-3.638,4.172,4.328,4.328,0,0,1-3.781-3.068c-.3-.849-.268-1.758-.572-2.6-.293-.816-1.186-1.755-.707-2.682a6.283,6.283,0,0,0,.4-.638,1.275,1.275,0,0,0,.039-.625,2.49,2.49,0,0,0-1.132-1.754,5.158,5.158,0,0,1-1.283-.74,4.3,4.3,0,0,1-.66-1.658,3.6,3.6,0,0,0-3.047-2.5,9.6,9.6,0,0,1-2.485-.263c-.13-.041-2.123-.768-2.05-.47a3.194,3.194,0,0,1,.128-1.569,6.3,6.3,0,0,1,1.027-2.329c1.684-2.11,2.935.767,4.532-.3.385-.258.551-.769.84-1.148a2.706,2.706,0,0,1,2.348-.868A17.646,17.646,0,0,0,587.147,369.039Z" transform="translate(-560.308 -368.67)" fill="#3b455a"/>
              </g>
            </g>
            <g id="Grupo_910680" data-name="Grupo 910680" transform="translate(203.576 147.379)">
              <g id="Grupo_910679" data-name="Grupo 910679">
                <path id="Trazado_683029" data-name="Trazado 683029" d="M619.774,444.191c.451,1.995,2.1,3.884,3.551,5.962l5.116,7.326-5.548,17.588,3.464,1.19,10-17.547c-.01-7.009-6.267-10.6-7.908-14.536-.855-2.049-7.423-8.385-8.646-10.244-1.8-2.735.648,1.886-1.552,4.11C616.408,439.9,619.417,442.608,619.774,444.191Z" transform="translate(-617.659 -433.088)" fill="#0b5999"/>
              </g>
              <path id="Trazado_683030" data-name="Trazado 683030" d="M631.618,549.954l-.714.963-1.671-.4-1.388.918-.33-.894,2.422-2.519,1.859.634Z" transform="translate(-623.888 -505.727)" fill="#0b5999"/>
            </g>
            <path id="Trazado_683031" data-name="Trazado 683031" d="M532.037,349.348l1.8-2.995.927,2.1,1.042-.676.392,1.188-1.328,2.469-2.791-.541Z" transform="translate(-359.971 -230.894)" fill="#aa6755"/>
            <g id="Grupo_910684" data-name="Grupo 910684" transform="translate(100.21 136.958)">
              <path id="Trazado_683032" data-name="Trazado 683032" d="M414.44,721.465l4.585,2.521-.4,2.153-8.149-1.119.438-3.1Z" transform="translate(-383.357 -604.919)" fill="#2e3644"/>
              <path id="Trazado_683033" data-name="Trazado 683033" d="M358.082,727.815l-3.189-.039-.779,2.7.081.023-.02,0,5.312,3.054,2.51.246.281-2.869-.684-.487Z" transform="translate(-347.735 -608.908)" fill="#2e3644"/>
              <path id="Trazado_683034" data-name="Trazado 683034" d="M358.11,577.295c.512-.053,1.91,18.3,1.91,18.3l-9.928,33.353-5.724-1.126,3.487-33.3s-12.118-13.974-8.629-24.412C344.5,572.664,358.11,577.295,358.11,577.295Z" transform="translate(-337.928 -509.263)" fill="#4dd0e1"/>
              <path id="Trazado_683035" data-name="Trazado 683035" d="M403.812,590.06l1.159,16.364-3.194,32.57-5.893-.3s-1.42-30.848-2-31.478-5.6-16.815-5.6-16.815Z" transform="translate(-369.327 -521.872)" fill="#4dd0e1"/>
              <g id="Grupo_910681" data-name="Grupo 910681" transform="translate(0 16.951)">
                <path id="Trazado_683036" data-name="Trazado 683036" d="M363.519,509.536c-18.713-.343-20.087-9.786-24.207-10.816s-1.972-5.937-1.972-5.937.78-2.189,1.114-3.334c2.4-8.24,9.619-18.815,9.621-18.819,3.559-4.856,7.131-9.146,10.215-11.736a34.4,34.4,0,0,1,19-8.063c14.153,4.425,9.158,11.079,9.32,12.83-4.655,4.267-8.027,10.659-10.514,17.523a40.934,40.934,0,0,0-1.588,17.536c.31,2.445.668,4.564,1.023,6.41C375.6,507.54,373.282,509.691,363.519,509.536Z" transform="translate(-336.78 -450.832)" fill="#8ec3cb"/>
                <path id="Trazado_683037" data-name="Trazado 683037" d="M399.823,454.037a3.837,3.837,0,0,1,5.1,1.275c2.368,3.644-11.019,20.075-10.7,55.216-3.508.711-12.549,2.407-21.873-1.994C374.468,498.094,383.61,466.607,399.823,454.037Z" transform="translate(-359.259 -452.546)" fill="#fff"/>
              </g>
              <path id="Trazado_683038" data-name="Trazado 683038" d="M480.525,588.745l3.661,3.4,1.52-1.5-1.992-2.881,1.048-.377-3.487-2.525-1.791,1.348Z" transform="translate(-426.968 -518.584)" fill="#ebceb1"/>
              <path id="Trazado_683039" data-name="Trazado 683039" d="M459.319,468.256l1.278,2.964-1.22,21.794s6.451,18.655,6.276,18.655-4.359,1.395-4.359,1.395l-9.415-18.83V482.727Z" transform="translate(-409.522 -444.893)" fill="#8ec3cb"/>
              <g id="Grupo_910682" data-name="Grupo 910682" transform="translate(18.733)">
                <path id="Trazado_683040" data-name="Trazado 683040" d="M462.721,420.849c1.586,1.238,2.962,3.867,2.416,5.937-.263,1-.983,1.665-1.222,2.743-.48,2.124-4.173,3.688-2.62,6.153.8,1.267,2.346,1.8,3.775,2.251a1.1,1.1,0,0,0,.534.074.773.773,0,0,0,.545-.645,3.124,3.124,0,0,0-.032-.893c-.325-3.11,1.78-6.224,2.56-9.163s.738-6.283-1.3-8.72c-1.734.16-2.436-.174-3.549,1.166Z" transform="translate(-433.967 -413.503)" fill="#3b455a"/>
                <path id="Trazado_683041" data-name="Trazado 683041" d="M446.2,432.579a6.553,6.553,0,0,0,5.39-2.574,13.122,13.122,0,0,0,2.426-5.653c1.426-6.741-6.829-8.922-11.181-4.8C439.037,423.147,440.193,432.107,446.2,432.579Z" transform="translate(-421.155 -412.793)" fill="#eac1a4"/>
                <path id="Trazado_683042" data-name="Trazado 683042" d="M402.447,423.29a5.834,5.834,0,0,0,3.175-.9c1.589-1.147,2.527-3.732,3.5-5.369,1.027-1.726,2.2-3.576,4.1-4.235a4.756,4.756,0,0,1,3.5.316c.8.319.7.632,1.55.488a3.706,3.706,0,0,0,1.853-1.418,3.564,3.564,0,0,0,.322-3.062,5,5,0,0,0-2.865-3.265c-5.111-2.279-10.267-.846-13.836,3.583-1.716,2.129-2.331,5.043-4.055,7.061-1.065,1.246-2.389,1.818-3.407,3.194-2.639,3.57-6.972,7.734-8.531,11.916a.626.626,0,0,0-.039.479c.146.3.6.2.9.049l5.272-2.63a8.309,8.309,0,0,0,1.959-1.217c1.415-1.3,1.906-3.539,3.624-4.4A7.72,7.72,0,0,1,402.447,423.29Z" transform="translate(-387.685 -404.771)" fill="#3b455a"/>
              </g>
              <g id="Grupo_910683" data-name="Grupo 910683" transform="translate(8.42 5.292)">
                <path id="Trazado_683043" data-name="Trazado 683043" d="M377.557,441.231l-14.122-3.313L359.66,419.15l4.688.409,3.619,12.257,18.307.523,1.046,1.395Z" transform="translate(-359.66 -419.15)" fill="#8ec3cb"/>
              </g>
            </g>
            <path id="Trazado_683044" data-name="Trazado 683044" d="M363.221,407.054l-.462-4.921-3.486-2.666-.205,1.436,1.23,1.23a4.392,4.392,0,0,0,1.179,2.153,16.486,16.486,0,0,1-.769,2.563Z" transform="translate(-250.655 -264.461)" fill="#ebceb1"/>
            <g id="Grupo_910685" data-name="Grupo 910685" transform="translate(246.88 113.347)">
              <path id="Trazado_683045" data-name="Trazado 683045" d="M837.017,386.276,794.061,343.32a9.24,9.24,0,0,0-13.068,0l-42.956,42.956a9.24,9.24,0,0,0,0,13.068L780.993,442.3a9.24,9.24,0,0,0,13.068,0l42.956-42.956A9.241,9.241,0,0,0,837.017,386.276Z" transform="translate(-735.331 -340.613)" fill="#feca2e"/>
              <path id="Trazado_683046" data-name="Trazado 683046" d="M862.786,431.63V416.387a20.046,20.046,0,1,0-40.093,0v35.16H832.5v-35.16a10.235,10.235,0,0,1,20.47,0V431.63H842.45l15.43,19.917,15.43-19.917Z" transform="translate(-790.543 -375.833)" fill="#3b455a"/>
            </g>
            <g id="Grupo_910686" data-name="Grupo 910686" transform="translate(112.469 153.745)">
              <path id="Trazado_683047" data-name="Trazado 683047" d="M466.225,493.442a37.536,37.536,0,1,0,10.993,26.541A37.29,37.29,0,0,0,466.225,493.442Z" transform="translate(-390.351 -470.65)" fill="#efefef"/>
              <circle id="Elipse_7598" data-name="Elipse 7598" cx="34.884" cy="34.884" r="34.884" transform="translate(0 49.333) rotate(-45)" fill="#db1111"/>
              <rect id="Rectángulo_304268" data-name="Rectángulo 304268" width="53.206" height="10.949" transform="translate(22.73 43.858)" fill="#fff"/>
            </g>
            <path id="Trazado_683048" data-name="Trazado 683048" d="M312.827,311.075l1.216-5.845-2.349-2.119-1.78,2.1-.5,2.38-1.507.282.738,4.082Z" transform="translate(-218.326 -203.565)" fill="#aa6755"/>
            <path id="Trazado_683049" data-name="Trazado 683049" d="M272.1,359.155l10.666-7.6,3.254-25.923,4.176-.885-.176,26.947-2.934,6.115-12.565,11.436Z" transform="translate(-195.689 -217.242)" fill="#ccd2d9"/>
            <g id="Grupo_910687" data-name="Grupo 910687" transform="translate(0 132.865)">
              <circle id="Elipse_7599" data-name="Elipse 7599" cx="27.936" cy="27.936" r="27.936" transform="translate(0 39.508) rotate(-45)" fill="#0b5999"/>
              <path id="Trazado_683050" data-name="Trazado 683050" d="M161.362,469.226l-13.4-10.379v6.817h-3.715a12.086,12.086,0,0,0-12.073,12.073v12.14H139.3v-12.14a4.954,4.954,0,0,1,4.949-4.948h3.715V479.6Z" transform="translate(-107.263 -434.854)" fill="#fff"/>
            </g>
            <g id="Grupo_910689" data-name="Grupo 910689" transform="translate(25.951 32.065)">
              <path id="Trazado_683051" data-name="Trazado 683051" d="M229.315,196.561l-41.266-74.244a5.007,5.007,0,0,0-8.672-.142l-43.664,72.86a5.007,5.007,0,0,0,4.213,7.581L224.857,204A5.007,5.007,0,0,0,229.315,196.561Z" transform="translate(-134.993 -119.742)" fill="#feca2e"/>
              <g id="Grupo_910688" data-name="Grupo 910688" transform="translate(42.017 26.007)">
                <path id="Trazado_683052" data-name="Trazado 683052" d="M251.877,223.17l-2.71-32.759,12.635.273-3.708,32.587Zm-2.508,4.555,11.014.18-.177,10.88-11.014-.18Z" transform="translate(-249.167 -190.411)" fill="#3b455a"/>
              </g>
            </g>
          </g>
        </g>
      </g>
    </g>
  </g>
</svg>
