<svg xmlns="http://www.w3.org/2000/svg" width="240" height="235.76" viewBox="0 0 240 235.76">
  <g id="Grupo_913742" data-name="Grupo 913742" transform="translate(-1180 -5616)">
    <g id="Grupo_907401" data-name="Grupo 907401" transform="translate(974.88 3960.761)">
      <g id="Grupo_109984" data-name="Grupo 109984" transform="translate(29.12 203.09)">
        <g id="image-from-rawpixel-id-5912401-jpeg" transform="translate(199.746 1467.416)" fill="#fff" stroke="#4dd0e1" stroke-width="4">
          <rect width="216.255" height="220.495" rx="49" stroke="none"/>
          <rect x="2" y="2" width="212.255" height="216.495" rx="47" fill="none"/>
        </g>
        <path id="Trazado_114005" data-name="Trazado 114005" d="M162.125,0V139.21s2.421,48.454-45.717,48.188S0,187.4,0,187.4" transform="translate(354.41 1648.031) rotate(180)" fill="none" stroke="#0b5999" stroke-width="4"/>
        <path id="Trazado_114006" data-name="Trazado 114006" d="M31.935,21.014,20.954,32.028a5.83,5.83,0,0,1-8.261,0L1.711,21.014a5.871,5.871,0,0,1,0-8.285L12.693,1.716a5.83,5.83,0,0,1,8.261,0L31.935,12.729A5.87,5.87,0,0,1,31.935,21.014Z" transform="translate(209.647 1667.047) rotate(180)" fill="#0b5999" opacity="0.999"/>
        <path id="Trazado_114007" data-name="Trazado 114007" d="M15.968,10.507l-5.491,5.507a2.915,2.915,0,0,1-4.131,0L.855,10.507a2.936,2.936,0,0,1,0-4.143L6.346.858a2.915,2.915,0,0,1,4.131,0l5.491,5.507A2.935,2.935,0,0,1,15.968,10.507Z" transform="translate(370.248 1469.022) rotate(180)" fill="#0b5999" opacity="0.999"/>
      </g>
    </g>
    <g id="Grupo_913714" data-name="Grupo 913714" transform="translate(10308.152 10363.424)">
      <rect id="Rectángulo_302377" data-name="Rectángulo 302377" width="16.002" height="16.004" transform="translate(-9079.234 -4698.274)" fill="#0b5999"/>
      <rect id="Rectángulo_302378" data-name="Rectángulo 302378" width="16.002" height="16.004" transform="translate(-9079.234 -4679.743)" fill="#0b5999"/>
      <rect id="Rectángulo_302379" data-name="Rectángulo 302379" width="16.002" height="16.004" transform="translate(-9079.234 -4661.212)" fill="#0b5999"/>
      <rect id="Rectángulo_302380" data-name="Rectángulo 302380" width="16.002" height="16.003" transform="translate(-9079.234 -4642.681)" fill="#0b5999"/>
      <rect id="Rectángulo_302381" data-name="Rectángulo 302381" width="16.002" height="16.004" transform="translate(-9079.234 -4624.151)" fill="#0b5999"/>
      <rect id="Rectángulo_302382" data-name="Rectángulo 302382" width="16.002" height="16.003" transform="translate(-9079.234 -4605.62)" fill="#0b5999"/>
      <rect id="Rectángulo_302383" data-name="Rectángulo 302383" width="16.002" height="16.004" transform="translate(-9079.234 -4587.09)" fill="#0b5999"/>
      <rect id="Rectángulo_302384" data-name="Rectángulo 302384" width="16.002" height="16.004" transform="translate(-9079.234 -4568.559)" fill="#0b5999"/>
      <rect id="Rectángulo_302385" data-name="Rectángulo 302385" width="16.003" height="16.004" transform="translate(-9056.328 -4661.294)" fill="#feca2e"/>
      <rect id="Rectángulo_302386" data-name="Rectángulo 302386" width="16.003" height="16.003" transform="translate(-9056.328 -4642.763)" fill="#feca2e"/>
      <rect id="Rectángulo_302387" data-name="Rectángulo 302387" width="16.003" height="16.003" transform="translate(-9056.328 -4624.233)" fill="#feca2e"/>
      <rect id="Rectángulo_302388" data-name="Rectángulo 302388" width="16.003" height="16.004" transform="translate(-9056.328 -4605.703)" fill="#feca2e"/>
      <rect id="Rectángulo_302389" data-name="Rectángulo 302389" width="16.003" height="16.004" transform="translate(-9056.328 -4587.172)" fill="#feca2e"/>
      <rect id="Rectángulo_302390" data-name="Rectángulo 302390" width="16.003" height="16.004" transform="translate(-9056.328 -4568.641)" fill="#feca2e"/>
      <rect id="Rectángulo_302391" data-name="Rectángulo 302391" width="16.003" height="16.002" transform="translate(-9036.112 -4605.619)" fill="#4dd0e1"/>
      <rect id="Rectángulo_302392" data-name="Rectángulo 302392" width="16.003" height="16.004" transform="translate(-9036.112 -4587.09)" fill="#4dd0e1"/>
      <rect id="Rectángulo_302393" data-name="Rectángulo 302393" width="16.003" height="16.004" transform="translate(-9036.112 -4568.559)" fill="#4dd0e1"/>
      <rect id="Rectángulo_302394" data-name="Rectángulo 302394" width="16.003" height="16.003" transform="translate(-9016.231 -4643.423)" fill="#0b5999"/>
      <rect id="Rectángulo_302395" data-name="Rectángulo 302395" width="16.003" height="16.004" transform="translate(-9016.231 -4624.893)" fill="#0b5999"/>
      <rect id="Rectángulo_302396" data-name="Rectángulo 302396" width="16.003" height="16.004" transform="translate(-9016.231 -4606.362)" fill="#0b5999"/>
      <rect id="Rectángulo_302397" data-name="Rectángulo 302397" width="16.003" height="16.004" transform="translate(-9016.231 -4587.832)" fill="#0b5999"/>
      <rect id="Rectángulo_302398" data-name="Rectángulo 302398" width="16.003" height="16.004" transform="translate(-9016.231 -4569.301)" fill="#0b5999"/>
      <rect id="Rectángulo_302399" data-name="Rectángulo 302399" width="16.002" height="16.004" transform="translate(-8994.252 -4698.594)" fill="#4dd0e1"/>
      <rect id="Rectángulo_302400" data-name="Rectángulo 302400" width="16.002" height="16.004" transform="translate(-8994.252 -4680.064)" fill="#4dd0e1"/>
      <rect id="Rectángulo_302401" data-name="Rectángulo 302401" width="16.002" height="16.004" transform="translate(-8994.252 -4661.533)" fill="#4dd0e1"/>
      <rect id="Rectángulo_302402" data-name="Rectángulo 302402" width="16.002" height="16.003" transform="translate(-8994.252 -4643.002)" fill="#4dd0e1"/>
      <rect id="Rectángulo_302403" data-name="Rectángulo 302403" width="16.002" height="16.004" transform="translate(-8994.252 -4624.472)" fill="#4dd0e1"/>
      <rect id="Rectángulo_302404" data-name="Rectángulo 302404" width="16.002" height="16.004" transform="translate(-8994.252 -4605.941)" fill="#4dd0e1"/>
      <rect id="Rectángulo_302405" data-name="Rectángulo 302405" width="16.002" height="16.004" transform="translate(-8994.252 -4587.41)" fill="#4dd0e1"/>
      <rect id="Rectángulo_302406" data-name="Rectángulo 302406" width="16.002" height="16.004" transform="translate(-8994.252 -4568.879)" fill="#4dd0e1"/>
      <rect id="Rectángulo_302407" data-name="Rectángulo 302407" width="16.005" height="16.004" transform="translate(-8971.671 -4661.532)" fill="#fd9927"/>
      <rect id="Rectángulo_302408" data-name="Rectángulo 302408" width="16.005" height="16.004" transform="translate(-8971.671 -4643.001)" fill="#fd9927"/>
      <rect id="Rectángulo_302409" data-name="Rectángulo 302409" width="16.005" height="16.004" transform="translate(-8971.671 -4624.471)" fill="#fd9927"/>
      <rect id="Rectángulo_302410" data-name="Rectángulo 302410" width="16.005" height="16.004" transform="translate(-8971.671 -4605.941)" fill="#fd9927"/>
      <rect id="Rectángulo_302411" data-name="Rectángulo 302411" width="16.005" height="16.004" transform="translate(-8971.671 -4587.41)" fill="#fd9927"/>
      <rect id="Rectángulo_302412" data-name="Rectángulo 302412" width="16.005" height="16.004" transform="translate(-8971.671 -4568.879)" fill="#fd9927"/>
      <rect id="Rectángulo_302413" data-name="Rectángulo 302413" width="16.002" height="16.004" transform="translate(-8949.073 -4661.771)" fill="#4dd0e1"/>
      <rect id="Rectángulo_302414" data-name="Rectángulo 302414" width="16.002" height="16.004" transform="translate(-8949.073 -4643.24)" fill="#4dd0e1"/>
      <rect id="Rectángulo_302415" data-name="Rectángulo 302415" width="16.002" height="16.004" transform="translate(-8949.073 -4624.709)" fill="#4dd0e1"/>
      <rect id="Rectángulo_302416" data-name="Rectángulo 302416" width="16.002" height="16.004" transform="translate(-8949.073 -4606.18)" fill="#4dd0e1"/>
      <rect id="Rectángulo_302417" data-name="Rectángulo 302417" width="16.002" height="16.004" transform="translate(-8949.073 -4587.649)" fill="#4dd0e1"/>
      <rect id="Rectángulo_302418" data-name="Rectángulo 302418" width="16.002" height="16.004" transform="translate(-8949.073 -4569.119)" fill="#4dd0e1"/>
      <rect id="Rectángulo_302419" data-name="Rectángulo 302419" width="16.005" height="16.004" transform="translate(-8928.72 -4606.18)" fill="#0b5999"/>
      <rect id="Rectángulo_302420" data-name="Rectángulo 302420" width="16.005" height="16.004" transform="translate(-8928.72 -4587.649)" fill="#0b5999"/>
      <rect id="Rectángulo_302421" data-name="Rectángulo 302421" width="16.005" height="16.004" transform="translate(-8928.72 -4569.119)" fill="#0b5999"/>
    </g>
  </g>
</svg>
