<svg xmlns="http://www.w3.org/2000/svg" width="129" height="129" viewBox="0 0 129 129">
  <g id="Grupo_913745" data-name="Grupo 913745" transform="translate(-276 -6919)">
    <g id="Elipse_7683" data-name="Elipse 7683" transform="translate(276 6919)" fill="#f6f6f6" stroke="#fd9927" stroke-width="2">
      <circle cx="64.5" cy="64.5" r="64.5" stroke="none"/>
      <circle cx="64.5" cy="64.5" r="63.5" fill="none"/>
    </g>
    <g id="Grupo_913705" data-name="Grupo 913705" transform="translate(9676.564 11647.979)">
      <g id="Grupo_907968" data-name="Grupo 907968" transform="translate(-9386.309 -4707.968)">
        <g id="Grupo_907742" data-name="Grupo 907742" transform="translate(50.476 42.482)">
          <path id="Trazado_642022" data-name="Trazado 642022" d="M238,116.441a16.184,16.184,0,0,0,15.389-19.05l23-3.206a39.966,39.966,0,0,1,.465,6.083,39.39,39.39,0,0,1-38.707,39.384Z" transform="translate(-238.001 -94.185)" fill="#4dd0e1"/>
        </g>
        <g id="Grupo_907743" data-name="Grupo 907743" transform="translate(59.45 16.762)">
          <path id="Trazado_642023" data-name="Trazado 642023" d="M254.955,93.01a16.181,16.181,0,0,0-6.427-10.286l13.73-18.71a39.362,39.362,0,0,1,15.706,25.878C271.665,90.751,262.67,91.968,254.955,93.01Z" transform="translate(-248.528 -64.014)" fill="#fd9927"/>
        </g>
        <g id="Grupo_907744" data-name="Grupo 907744" transform="translate(21.775 9.173)">
          <path id="Trazado_642024" data-name="Trazado 642024" d="M232.5,55.112A39.206,39.206,0,0,1,255.74,62.7l-13.73,18.71a16.171,16.171,0,0,0-20.74,1.441L204.334,66.968A39.265,39.265,0,0,1,232.5,55.112Z" transform="translate(-204.334 -55.112)" fill="#0b5999"/>
        </g>
        <g id="Grupo_907745" data-name="Grupo 907745" transform="translate(10.547 20.722)">
          <path id="Trazado_642025" data-name="Trazado 642025" d="M219.451,84.73a16.18,16.18,0,0,0-2.217,20.967l-18.828,13.572A39.395,39.395,0,0,1,202.69,68.66Z" transform="translate(-191.163 -68.66)" fill="#feca2e"/>
        </g>
        <g id="Grupo_907746" data-name="Grupo 907746" transform="translate(17.789 57.759)">
          <path id="Trazado_642026" data-name="Trazado 642026" d="M199.659,125.677l18.828-13.572a16.169,16.169,0,0,0,13.322,6.992c.18,0,.358-.008.539-.014l.149,23.211c-.228,0-.459.008-.688.008A39.339,39.339,0,0,1,199.659,125.677Z" transform="translate(-199.659 -112.105)" fill="#d2e1f1"/>
        </g>
        <g id="Grupo_907747" data-name="Grupo 907747" transform="translate(72.754 65.216)">
          <path id="Trazado_642027" data-name="Trazado 642027" d="M278.043,141.669H264.134V120.852h.852v19.965h13.056Z" transform="translate(-264.134 -120.852)" fill="#636363"/>
        </g>
        <g id="Grupo_907748" data-name="Grupo 907748" transform="translate(78.553 13.903)">
          <path id="Trazado_642028" data-name="Trazado 642028" d="M271.789,81.682h-.853V60.66H283.7v.852H271.789Z" transform="translate(-270.936 -60.66)" fill="#636363"/>
        </g>
        <g id="Grupo_907749" data-name="Grupo 907749" transform="translate(0 26.188)">
          <path id="Trazado_642029" data-name="Trazado 642029" d="M191.557,96.094H190.7V75.924H178.792v-.852h12.766Z" transform="translate(-178.792 -75.072)" fill="#636363"/>
        </g>
        <g id="Grupo_907750" data-name="Grupo 907750" transform="translate(47.051 0)">
          <path id="Trazado_642030" data-name="Trazado 642030" d="M234.835,65.374h-.852V44.352h12.766V45.2H234.835Z" transform="translate(-233.983 -44.352)" fill="#616161"/>
        </g>
        <g id="Grupo_907751" data-name="Grupo 907751" transform="translate(19.627 72.116)">
          <path id="Trazado_642031" data-name="Trazado 642031" d="M218.317,149.968h-16.5v-.852h15.65V128.946h.852Z" transform="translate(-201.814 -128.946)" fill="#616161"/>
        </g>
      </g>
      <g id="Grupo_907970" data-name="Grupo 907970" transform="translate(-9339.156 -4714.153)">
        <path id="Trazado_642061" data-name="Trazado 642061" d="M236.884,38.511a1.047,1.047,0,0,1-.886,1.05,1.051,1.051,0,0,1,1.029,1.1,1.414,1.414,0,0,1-1.554,1.4,1.719,1.719,0,0,1-1.37-.613l.375-.348a1.28,1.28,0,0,0,.974.449.844.844,0,0,0,.92-.893c0-.627-.354-.818-.906-.818h-.341l.075-.483h.232a.766.766,0,0,0,.824-.8.679.679,0,0,0-.756-.695,1.283,1.283,0,0,0-.94.409l-.327-.375a1.842,1.842,0,0,1,1.3-.539A1.206,1.206,0,0,1,236.884,38.511Z" transform="translate(-234.103 -37.134)" fill="#616161"/>
        <path id="Trazado_642062" data-name="Trazado 642062" d="M241.469,39.7c0,1.513-.5,2.358-1.527,2.358s-1.527-.845-1.527-2.358.5-2.352,1.527-2.352S241.469,38.2,241.469,39.7Zm-2.4,0c0,1.343.3,1.86.872,1.86s.873-.517.873-1.86-.307-1.854-.873-1.854S239.07,38.367,239.07,39.7Z" transform="translate(-234.739 -37.134)" fill="#616161"/>
        <path id="Trazado_642063" data-name="Trazado 642063" d="M245.015,38.467a1.109,1.109,0,1,1-1.112-1.153A1.074,1.074,0,0,1,245.015,38.467Zm-1.664,0c0,.354.117.729.552.729s.552-.361.552-.729-.109-.73-.552-.73S243.351,38.1,243.351,38.467Zm3.756-1.084-3.156,4.771-.436-.286L246.67,37.1Zm.709,3.49a1.109,1.109,0,1,1-1.1-1.152A1.069,1.069,0,0,1,247.816,40.873Zm-1.656,0c0,.355.116.729.552.729s.552-.361.552-.729-.109-.723-.552-.723S246.16,40.5,246.16,40.873Z" transform="translate(-235.386 -37.096)" fill="#616161"/>
      </g>
      <g id="Grupo_907971" data-name="Grupo 907971" transform="translate(-9307.214 -4699.85)">
        <path id="Trazado_642064" data-name="Trazado 642064" d="M273.535,58.77h-.627V54.878l-1.063.648-.273-.443,1.411-.873h.552Z" transform="translate(-271.572 -53.924)" fill="#636363"/>
        <path id="Trazado_642065" data-name="Trazado 642065" d="M278.25,56.482c0,1.513-.5,2.358-1.527,2.358S275.2,58,275.2,56.482s.5-2.352,1.527-2.352S278.25,54.976,278.25,56.482Zm-2.4,0c0,1.343.3,1.861.873,1.861s.872-.518.872-1.861-.307-1.854-.872-1.854S275.85,55.146,275.85,56.482Z" transform="translate(-272.107 -53.912)" fill="#636363"/>
        <path id="Trazado_642066" data-name="Trazado 642066" d="M281.795,55.245a1.108,1.108,0,1,1-1.111-1.153A1.074,1.074,0,0,1,281.795,55.245Zm-1.663,0c0,.354.116.729.552.729s.552-.361.552-.729-.109-.73-.552-.73S280.132,54.877,280.132,55.245Zm3.756-1.084-3.156,4.772-.436-.286,3.156-4.772Zm.708,3.49a1.108,1.108,0,1,1-1.1-1.152A1.068,1.068,0,0,1,284.6,57.651Zm-1.656,0c0,.355.115.73.552.73s.552-.361.552-.73-.109-.723-.552-.723S282.941,57.282,282.941,57.651Z" transform="translate(-272.753 -53.874)" fill="#636363"/>
      </g>
      <g id="Grupo_907972" data-name="Grupo 907972" transform="translate(-9311.442 -4629.037)">
        <path id="Trazado_642067" data-name="Trazado 642067" d="M269.761,140.7h-.593v1.124h-.606V140.7h-1.95v-.45l1.37-3.054.525.218-1.234,2.789h1.3l.055-1.228h.545V140.2h.593Z" transform="translate(-266.612 -136.978)" fill="#636363"/>
        <path id="Trazado_642068" data-name="Trazado 642068" d="M274.042,139.548c0,1.513-.5,2.358-1.527,2.358s-1.527-.845-1.527-2.358.5-2.352,1.527-2.352S274.042,138.042,274.042,139.548Zm-2.4,0c0,1.343.3,1.861.873,1.861s.872-.518.872-1.861-.307-1.854-.872-1.854S271.642,138.212,271.642,139.548Z" transform="translate(-267.257 -136.978)" fill="#636363"/>
        <path id="Trazado_642069" data-name="Trazado 642069" d="M277.587,138.311a1.108,1.108,0,1,1-1.111-1.153A1.074,1.074,0,0,1,277.587,138.311Zm-1.663,0c0,.354.116.729.552.729s.552-.361.552-.729-.109-.73-.552-.73S275.924,137.943,275.924,138.311Zm3.756-1.084L276.524,142l-.436-.286,3.156-4.772Zm.708,3.49a1.108,1.108,0,1,1-1.1-1.152A1.068,1.068,0,0,1,280.388,140.717Zm-1.656,0c0,.355.115.729.552.729s.552-.361.552-.729-.108-.723-.552-.723S278.733,140.348,278.733,140.717Z" transform="translate(-267.904 -136.94)" fill="#636363"/>
      </g>
      <g id="Grupo_907973" data-name="Grupo 907973" transform="translate(-9365.591 -4622.079)">
        <path id="Trazado_642070" data-name="Trazado 642070" d="M205.057,150h-.627v-3.892l-1.063.647-.273-.443,1.411-.872h.552Z" transform="translate(-203.094 -145.152)" fill="#616161"/>
        <path id="Trazado_642071" data-name="Trazado 642071" d="M209.171,145.929h-1.779v1.343a1.577,1.577,0,0,1,.73-.177,1.283,1.283,0,0,1,1.295,1.445,1.485,1.485,0,0,1-1.581,1.54,1.787,1.787,0,0,1-1.35-.579l.382-.369a1.228,1.228,0,0,0,.961.436c.573,0,.933-.374.933-1.043,0-.7-.361-.947-.831-.947a1.419,1.419,0,0,0-.648.157h-.49v-2.3h2.467Z" transform="translate(-203.594 -145.152)" fill="#616161"/>
        <path id="Trazado_642072" data-name="Trazado 642072" d="M212.861,146.472a1.108,1.108,0,1,1-1.111-1.152A1.074,1.074,0,0,1,212.861,146.472Zm-1.663,0c0,.355.116.73.552.73s.552-.361.552-.73-.108-.729-.552-.729S211.2,146.1,211.2,146.472Zm3.756-1.084L211.8,150.16l-.436-.286,3.156-4.771Zm.708,3.49a1.108,1.108,0,1,1-1.1-1.152A1.069,1.069,0,0,1,215.662,148.879Zm-1.656,0c0,.355.116.729.552.729s.552-.361.552-.729-.109-.723-.552-.723S214.006,148.51,214.006,148.879Z" transform="translate(-204.208 -145.102)" fill="#616161"/>
      </g>
      <g id="Grupo_907974" data-name="Grupo 907974" transform="translate(-9386.889 -4688.111)">
        <path id="Trazado_642073" data-name="Trazado 642073" d="M181.26,71.4h-.592v1.124h-.607V71.4h-1.95v-.45l1.37-3.054.525.218-1.234,2.789h1.295l.055-1.228h.546v1.228h.592Z" transform="translate(-178.111 -67.682)" fill="#636363"/>
        <path id="Trazado_642074" data-name="Trazado 642074" d="M185.541,70.252c0,1.513-.5,2.358-1.527,2.358s-1.527-.845-1.527-2.358.5-2.352,1.527-2.352S185.541,68.746,185.541,70.252Zm-2.4,0c0,1.343.3,1.861.872,1.861s.873-.518.873-1.861-.307-1.854-.873-1.854S183.142,68.916,183.142,70.252Z" transform="translate(-178.756 -67.682)" fill="#636363"/>
        <path id="Trazado_642075" data-name="Trazado 642075" d="M189.087,69.015a1.109,1.109,0,1,1-1.111-1.153A1.074,1.074,0,0,1,189.087,69.015Zm-1.663,0c0,.354.116.729.552.729s.552-.361.552-.729-.109-.73-.552-.73S187.423,68.647,187.423,69.015Zm3.755-1.084L188.023,72.7l-.436-.286,3.156-4.772Zm.709,3.49a1.109,1.109,0,1,1-1.1-1.152A1.068,1.068,0,0,1,191.888,71.421Zm-1.656,0c0,.355.116.73.552.73s.552-.361.552-.73-.109-.723-.552-.723S190.232,71.052,190.232,71.421Z" transform="translate(-179.403 -67.644)" fill="#636363"/>
      </g>
    </g>
  </g>
</svg>
