<svg xmlns="http://www.w3.org/2000/svg" width="235.76" height="240" viewBox="0 0 235.76 240">
  <g id="Grupo_913751" data-name="Grupo 913751" transform="translate(-205 -7719)">
    <g id="Grupo_109893" data-name="Grupo 109893" transform="translate(1892.911 7543) rotate(90)">
      <g id="image-from-rawpixel-id-5912401-jpeg" transform="translate(199.746 1467.416)" fill="#fff" stroke="#4dd0e1" stroke-width="4">
        <rect width="216.255" height="220.495" rx="49" stroke="none"/>
        <rect x="2" y="2" width="212.255" height="216.495" rx="47" fill="none"/>
      </g>
      <path id="Trazado_114005" data-name="Trazado 114005" d="M162.125,0V139.21s2.421,48.454-45.717,48.188S0,187.4,0,187.4" transform="translate(354.41 1648.031) rotate(180)" fill="none" stroke="#0b5999" stroke-width="4"/>
      <path id="Trazado_114006" data-name="Trazado 114006" d="M31.935,21.014,20.954,32.028a5.83,5.83,0,0,1-8.261,0L1.711,21.014a5.871,5.871,0,0,1,0-8.285L12.693,1.716a5.83,5.83,0,0,1,8.261,0L31.935,12.729A5.87,5.87,0,0,1,31.935,21.014Z" transform="translate(209.647 1667.047) rotate(180)" fill="#0b5999" opacity="0.999"/>
      <path id="Trazado_114007" data-name="Trazado 114007" d="M15.968,10.507l-5.491,5.507a2.915,2.915,0,0,1-4.131,0L.855,10.507a2.936,2.936,0,0,1,0-4.143L6.346.858a2.915,2.915,0,0,1,4.131,0l5.491,5.507A2.935,2.935,0,0,1,15.968,10.507Z" transform="translate(370.248 1469.022) rotate(180)" fill="#0b5999" opacity="0.999"/>
    </g>
    <g id="Grupo_909508" data-name="Grupo 909508" transform="translate(194 7665.672)">
      <g id="Grupo_909373" data-name="Grupo 909373" transform="translate(187.794 189.242)">
        <path id="Trazado_679381" data-name="Trazado 679381" d="M333.535,250.185l-6.831,6.807-6.863-10.8,3.859-3.981Z" transform="translate(-319.841 -242.207)" fill="#fd8753"/>
      </g>
      <g id="Grupo_909375" data-name="Grupo 909375" transform="translate(190.628 179.04)">
        <g id="Grupo_909374" data-name="Grupo 909374">
          <path id="Trazado_679382" data-name="Trazado 679382" d="M332.172,223.9c.7-.243,3.694,3.131,4.056,3.309s-.488,2.837.315,3.026,2.272-.135,3.448.155c1.1.268,13.558,11.169,15.7,13.59a.486.486,0,0,1-.077.7,17.813,17.813,0,0,1-2.581,1.77,7.744,7.744,0,0,1-4.067,1.162c-3.2-.227-7.764-3.166-10.078-3.476s-6,.6-6.5-.612-.394-4.683-3.045-6.471-4.262-2.166-4.409-3.307c-.1-.771,2.931-4.893,5.118-7.55A13.7,13.7,0,0,1,332.172,223.9Z" transform="translate(-324.931 -223.889)" fill="#636363"/>
        </g>
      </g>
      <g id="Grupo_909376" data-name="Grupo 909376" transform="translate(195.748 179.04)">
        <path id="Trazado_679383" data-name="Trazado 679383" d="M336.245,223.9c.7-.243,3.694,3.131,4.056,3.309s-.488,2.837.315,3.026,2.272-.135,3.448.155c1.1.268,13.558,11.169,15.7,13.59a.486.486,0,0,1-.077.7,17.81,17.81,0,0,1-2.581,1.77L334.124,226.2A13.7,13.7,0,0,1,336.245,223.9Z" transform="translate(-334.124 -223.889)" fill="#fff"/>
      </g>
      <g id="Grupo_909377" data-name="Grupo 909377" transform="translate(170.568 231.12)">
        <path id="Trazado_679384" data-name="Trazado 679384" d="M288.913,321.79l1.424,4.057,8.092,2.592,3.883-1.735-2.069-9.3Z" transform="translate(-288.913 -317.4)" fill="#fd8753"/>
      </g>
      <g id="Grupo_909378" data-name="Grupo 909378" transform="translate(167.536 166.615)">
        <path id="Trazado_679385" data-name="Trazado 679385" d="M301.029,206.3s1.455,7.28,2.141,13.467,1.792,14.495,1.792,14.495,5.081,19.041-7.124,20.723c-15.133,2.087-14.363-15.857-14.363-15.857l4.552-37.553Z" transform="translate(-283.468 -201.579)" fill="#b58712"/>
      </g>
      <g id="Grupo_909379" data-name="Grupo 909379" transform="translate(184.447 189.52)">
        <path id="Trazado_679386" data-name="Trazado 679386" d="M331.1,253.512l-12.525-10.806-3.731,5.26-1.01,24.581S319.282,271.813,331.1,253.512Z" transform="translate(-313.832 -242.706)" fill="#b58712"/>
      </g>
      <g id="Grupo_909380" data-name="Grupo 909380" transform="translate(157.131 169.635)">
        <path id="Trazado_679387" data-name="Trazado 679387" d="M268.55,207s-5.05,20.132-3.452,34.979,8.961,33.053,8.961,33.053l19.647-3.66-6.565-22.006L282.4,207.985Z" transform="translate(-264.786 -207.002)" fill="#b58712"/>
      </g>
      <g id="Grupo_909382" data-name="Grupo 909382" transform="translate(154.603 237.658)">
        <g id="Grupo_909381" data-name="Grupo 909381">
          <path id="Trazado_679388" data-name="Trazado 679388" d="M291.577,343.646c-.356.649-4.84.145-5.229.255s-1.535-2.434-2.259-2.038-1.6,1.62-2.666,2.192c-1,.538-17.549.773-20.758.4a.487.487,0,0,1-.411-.572,17.832,17.832,0,0,1,.734-3.042,7.739,7.739,0,0,1,2.244-3.586c2.53-1.973,7.888-2.843,9.816-4.16s4.058-4.459,5.236-3.893,3.427,3.216,6.594,2.77,4.616-1.243,5.489-.493c.589.508,1.1,5.6,1.25,9.036A13.738,13.738,0,0,1,291.577,343.646Z" transform="translate(-260.247 -329.139)" fill="#636363"/>
        </g>
      </g>
      <g id="Grupo_913690" data-name="Grupo 913690">
        <g id="Grupo_909383" data-name="Grupo 909383" transform="translate(160.956 180.032)">
          <path id="Trazado_679389" data-name="Trazado 679389" d="M291.488,265.925a13.734,13.734,0,0,1-11.043-5.489c-6.407-8.454-2.625-31.179-2.155-33.838l-6.45-.521a.2.2,0,0,1-.187-.218.2.2,0,0,1,.219-.186l6.673.539a.2.2,0,0,1,.145.079.2.2,0,0,1,.039.16c-.046.25-4.518,25.089,2.039,33.74a13.312,13.312,0,0,0,11.8,5.272.2.2,0,0,1,.059.4A9.17,9.17,0,0,1,291.488,265.925Z" transform="translate(-271.653 -225.671)" fill="#fff"/>
        </g>
        <g id="Grupo_909384" data-name="Grupo 909384" transform="translate(183.209 191.059)">
          <path id="Trazado_679390" data-name="Trazado 679390" d="M312.432,252.7a.776.776,0,0,1-.466-.158.869.869,0,0,1-.355-.678c-.115-1.861,4.409-6.161,4.6-6.344a.2.2,0,0,1,.332.213c-.222.654-2.217,6.409-3.858,6.926A.872.872,0,0,1,312.432,252.7Zm3.434-6.271c-1.488,1.5-3.922,4.214-3.848,5.41a.466.466,0,0,0,.19.375.371.371,0,0,0,.357.057C313.625,251.943,315.107,248.476,315.865,246.434Z" transform="translate(-311.609 -245.47)" fill="#fff"/>
        </g>
        <g id="Grupo_909385" data-name="Grupo 909385" transform="translate(179.348 174.483)">
          <path id="Trazado_679391" data-name="Trazado 679391" d="M309.334,220.8a.2.2,0,0,1-.089-.021c-2.726-1.33-4.473-4.64-4.546-4.78a.2.2,0,0,1,.361-.188c.017.033,1.76,3.333,4.364,4.6a.2.2,0,0,1-.089.386Z" transform="translate(-304.676 -215.707)" fill="#fff"/>
        </g>
      </g>
      <g id="Grupo_909386" data-name="Grupo 909386" transform="translate(154.603 249.039)">
        <path id="Trazado_679392" data-name="Trazado 679392" d="M291.577,352.7c-.356.649-4.84.145-5.229.255s-1.535-2.434-2.259-2.038-1.6,1.62-2.666,2.192c-1,.538-17.549.773-20.758.4a.487.487,0,0,1-.411-.572,17.832,17.832,0,0,1,.734-3.042l30.628-.326A13.738,13.738,0,0,1,291.577,352.7Z" transform="translate(-260.247 -349.574)" fill="#fff"/>
      </g>
      <g id="Grupo_909387" data-name="Grupo 909387" transform="translate(160.896 141.093)">
        <path id="Trazado_679393" data-name="Trazado 679393" d="M291.94,158.779a17.593,17.593,0,0,1,12.2,11.812c3.06,9.846-9.284,20.224-9.284,20.224l-23.314-6.52s2.794-25.281,5.588-27.809S291.94,158.779,291.94,158.779Z" transform="translate(-271.545 -155.754)" fill="#2c0b7d"/>
      </g>
      <g id="Grupo_909388" data-name="Grupo 909388" transform="translate(141.47 126.684)">
        <path id="Trazado_679394" data-name="Trazado 679394" d="M269.49,141.864s-1.246-9.434-13.4-11.74-19.426,12.784-19.426,12.784l35.79,6.554Z" transform="translate(-236.666 -129.883)" fill="#2c0b7d"/>
      </g>
      <g id="Grupo_909389" data-name="Grupo 909389" transform="translate(172.456 128.063)">
        <path id="Trazado_679395" data-name="Trazado 679395" d="M295.027,138.833s-3.886-2.694-2.375-5.25,5.277-.318,5.277-.318a2.8,2.8,0,0,1,3.365-.5c2.06,1,2.475,3.749,2.475,3.749s2.016-.184,2.3,2.265-2.212,4.818-2.212,4.818Z" transform="translate(-292.303 -132.359)" fill="#12263f"/>
      </g>
      <g id="Grupo_909391" data-name="Grupo 909391" transform="translate(176.272 140.791)">
        <g id="Grupo_909390" data-name="Grupo 909390" transform="translate(0 0)">
          <path id="Trazado_679396" data-name="Trazado 679396" d="M304.987,155.213l.366,4.679s-.739,1.411-3.458,1.848a2.527,2.527,0,0,1-2.742-.97l.062-1.5.1-2.332,4.857-1.474Z" transform="translate(-299.154 -155.213)" fill="#fd8753"/>
        </g>
      </g>
      <g id="Grupo_909393" data-name="Grupo 909393" transform="translate(176.334 141.04)">
        <g id="Grupo_909392" data-name="Grupo 909392">
          <path id="Trazado_679397" data-name="Trazado 679397" d="M304.222,155.659a1.53,1.53,0,0,1-.1.462c-.864,2.419-3.686,3.147-4.856,3.344l.1-2.332Z" transform="translate(-299.265 -155.659)"/>
        </g>
      </g>
      <g id="Grupo_909395" data-name="Grupo 909395" transform="translate(173.386 129.974)">
        <g id="Grupo_909394" data-name="Grupo 909394">
          <path id="Trazado_679398" data-name="Trazado 679398" d="M295.141,137.747s-2,6.058-.773,9.242,4.154,2.389,5.877,1.59a5.924,5.924,0,0,0,2.447-1.97,2.68,2.68,0,0,0,1.813-4.929,2.625,2.625,0,0,0-2.055.475l.727-1.774S298.642,132.135,295.141,137.747Z" transform="translate(-293.971 -135.791)" fill="#fd8753"/>
        </g>
      </g>
      <g id="Grupo_909396" data-name="Grupo 909396" transform="translate(182.017 136.78)">
        <path id="Trazado_679399" data-name="Trazado 679399" d="M309.672,150.1a.2.2,0,0,1-.131-.358l1.989-1.681a.2.2,0,1,1,.262.31L309.8,150.05A.2.2,0,0,1,309.672,150.1Z" transform="translate(-309.469 -148.011)"/>
      </g>
      <g id="Grupo_909397" data-name="Grupo 909397" transform="translate(182.52 138.036)">
        <path id="Trazado_679400" data-name="Trazado 679400" d="M311.992,150.92a.187.187,0,0,1-.035,0l-1.416-.248a.2.2,0,1,1,.07-.4l1.416.248a.2.2,0,0,1-.035.4Z" transform="translate(-310.372 -150.266)"/>
      </g>
      <g id="Grupo_909398" data-name="Grupo 909398" transform="translate(176.813 133.224)">
        <path id="Trazado_679401" data-name="Trazado 679401" d="M301.965,142.51a.2.2,0,0,1-.151-.067,1.055,1.055,0,0,0-1.375-.267.2.2,0,1,1-.221-.341,1.466,1.466,0,0,1,1.9.336.2.2,0,0,1-.15.339Z" transform="translate(-300.125 -141.625)"/>
      </g>
      <g id="Grupo_909399" data-name="Grupo 909399" transform="translate(173.894 133.52)">
        <path id="Trazado_679402" data-name="Trazado 679402" d="M295.088,142.882a.2.2,0,0,1-.141-.349,1.316,1.316,0,0,1,1.465-.256.2.2,0,1,1-.178.365.916.916,0,0,0-1.005.183A.2.2,0,0,1,295.088,142.882Z" transform="translate(-294.885 -142.157)"/>
      </g>
      <g id="Grupo_909400" data-name="Grupo 909400" transform="translate(174.958 135.818)">
        <path id="Trazado_679403" data-name="Trazado 679403" d="M297.219,149.592a.2.2,0,0,1-.189-.13,2.931,2.931,0,0,1,.493-3.118.2.2,0,0,1,.288.287,2.532,2.532,0,0,0-.4,2.685.2.2,0,0,1-.19.276Z" transform="translate(-296.795 -146.284)"/>
      </g>
      <g id="Grupo_909401" data-name="Grupo 909401" transform="translate(174.091 134.988)">
        <path id="Trazado_679404" data-name="Trazado 679404" d="M295.442,146.3a.18.18,0,0,1-.038,0,.2.2,0,0,1-.162-.237l.209-1.1a.2.2,0,0,1,.4.076l-.209,1.1A.2.2,0,0,1,295.442,146.3Z" transform="translate(-295.238 -144.793)"/>
      </g>
      <g id="Grupo_909402" data-name="Grupo 909402" transform="translate(177.057 134.815)">
        <path id="Trazado_679405" data-name="Trazado 679405" d="M300.766,145.984a.175.175,0,0,1-.038,0,.2.2,0,0,1-.161-.237l.209-1.1a.2.2,0,1,1,.4.076l-.209,1.1A.2.2,0,0,1,300.766,145.984Z" transform="translate(-300.563 -144.482)"/>
      </g>
      <g id="Grupo_909403" data-name="Grupo 909403" transform="translate(173.556 128.824)">
        <path id="Trazado_679406" data-name="Trazado 679406" d="M294.887,138.193a1.981,1.981,0,0,1,1.6-1.079,2.53,2.53,0,0,1,1.913.669,2.88,2.88,0,0,0,1.31,2.925,3.891,3.891,0,0,0,2.874.532l1.119-.5.713-1.748-3.611-3.328-4.488-1.938-2.041,2.166Z" transform="translate(-294.277 -133.725)" fill="#12263f"/>
      </g>
      <g id="Grupo_909404" data-name="Grupo 909404" transform="translate(176.337 139.01)">
        <path id="Trazado_679407" data-name="Trazado 679407" d="M299.49,153.41a.208.208,0,0,1-.22-.206.214.214,0,0,1,.206-.2,1.36,1.36,0,0,0,1.279-.858.2.2,0,1,1,.38.143A1.784,1.784,0,0,1,299.49,153.41Z" transform="translate(-299.27 -152.014)"/>
      </g>
      <g id="Grupo_909405" data-name="Grupo 909405" transform="translate(119.117 136.726)">
        <rect id="Rectángulo_304221" data-name="Rectángulo 304221" width="48.343" height="41.501" rx="5.053" transform="translate(48.343 41.501) rotate(180)" fill="#403642"/>
      </g>
      <g id="Grupo_909406" data-name="Grupo 909406" transform="translate(158.889 153.421)">
        <path id="Trazado_679408" data-name="Trazado 679408" d="M280.859,181.286s-5.854-3.1-7.628-3.371-4.813,1.686-4.813,1.686l1.53.887s-2.395,5.234-1.952,6.032,1.6,0,1.6,0,2.75,2.838,3.548,2.927,5.056-1.6,5.056-1.6Z" transform="translate(-267.943 -177.89)" fill="#fd8753"/>
      </g>
      <g id="Grupo_909407" data-name="Grupo 909407" transform="translate(166.75 144.444)">
        <path id="Trazado_679409" data-name="Trazado 679409" d="M286.315,172.9,299,177.427l-1.3-15.655s9.728,2.97,12.3,12.993-1.153,18.007-9.136,18.717-18.805-10.467-18.805-10.467Z" transform="translate(-282.057 -161.772)" fill="#2b0b7d"/>
      </g>
      <g id="Grupo_909408" data-name="Grupo 909408" transform="translate(142.169 131.714)">
        <path id="Trazado_679410" data-name="Trazado 679410" d="M243.747,140.134s1.418-2.388,2.726-.389.189,7.7-.872,7.964c-1.143.283-1.854-1.891-1.854-1.891s-.218,1.858-1.417,1.891-1.745-1.891-1.745-1.891-.6,2.174-1.636,1.891c-1.143-.311-1.745-7.575.436-8.33,1.045-.362,1.636.755,1.636.755s.406-1.383,1.606-1.2A1.166,1.166,0,0,1,243.747,140.134Z" transform="translate(-237.92 -138.915)" fill="#fd8753"/>
      </g>
      <g id="Grupo_909409" data-name="Grupo 909409" transform="translate(155.57 153.422)">
        <path id="Trazado_679411" data-name="Trazado 679411" d="M267.309,180.488l-4.24-2.6-1.085,2.164,4.394,2.616Z" transform="translate(-261.983 -177.891)" fill="#fff"/>
      </g>
      <g id="Grupo_909411" data-name="Grupo 909411" transform="translate(153.322 151.499)">
        <g id="Grupo_909410" data-name="Grupo 909410">
          <path id="Trazado_679412" data-name="Trazado 679412" d="M258.84,179.252a2.619,2.619,0,0,0,2.479-1.27c.754-1.5-.258-3.339-.376-3.544l-1.41.81a2.666,2.666,0,0,1,.333,2.006c-.219.436-1.178.4-1.583.317l-.337,1.591A4.363,4.363,0,0,0,258.84,179.252Z" transform="translate(-257.947 -174.438)" fill="#fff"/>
        </g>
      </g>
      <g id="Grupo_909412" data-name="Grupo 909412" transform="translate(160.693 154.298)">
        <path id="Trazado_679413" data-name="Trazado 679413" d="M271.383,181.389a.2.2,0,0,1-.165-.321l1.087-1.517a.2.2,0,0,1,.33.236l-1.087,1.518A.2.2,0,0,1,271.383,181.389Z" transform="translate(-271.18 -179.465)"/>
      </g>
      <g id="Grupo_909413" data-name="Grupo 909413" transform="translate(160.338 160.982)">
        <path id="Trazado_679414" data-name="Trazado 679414" d="M270.746,192.737a.2.2,0,0,1-.165-.321l.618-.865a.2.2,0,1,1,.331.236l-.618.865A.2.2,0,0,1,270.746,192.737Z" transform="translate(-270.543 -191.465)"/>
      </g>
      <g id="Grupo_909414" data-name="Grupo 909414" transform="translate(147.792 132.731)">
        <path id="Trazado_679415" data-name="Trazado 679415" d="M248.221,146.576a.2.2,0,0,1-.2-.2v-5.43a.2.2,0,0,1,.407,0v5.43A.2.2,0,0,1,248.221,146.576Z" transform="translate(-248.018 -140.74)"/>
      </g>
      <g id="Grupo_909415" data-name="Grupo 909415" transform="translate(144.63 132.731)">
        <path id="Trazado_679416" data-name="Trazado 679416" d="M242.543,146.83a.206.206,0,0,1-.2-.219l.436-5.683a.209.209,0,0,1,.218-.187.2.2,0,0,1,.187.218l-.436,5.684A.2.2,0,0,1,242.543,146.83Z" transform="translate(-242.34 -140.74)"/>
      </g>
      <g id="Grupo_909416" data-name="Grupo 909416" transform="translate(176.069 145.267)">
        <path id="Trazado_679417" data-name="Trazado 679417" d="M301.21,165.515h-.09a3.163,3.163,0,0,1-2.275-1.044.2.2,0,0,1,.3-.28,3.09,3.09,0,0,0,3.8.508,8.4,8.4,0,0,0,2.112-1.394.2.2,0,1,1,.28.295A7.077,7.077,0,0,1,301.21,165.515Z" transform="translate(-298.789 -163.249)" fill="#fff"/>
      </g>
      <g id="Grupo_909417" data-name="Grupo 909417" transform="translate(173.353 156.11)">
        <path id="Trazado_679418" data-name="Trazado 679418" d="M307.332,187.126a.2.2,0,0,1-.079-.016,90.986,90.986,0,0,0-13.181-3.991.2.2,0,0,1-.155-.242.2.2,0,0,1,.242-.155,91.365,91.365,0,0,1,13.253,4.014.2.2,0,0,1-.08.39Z" transform="translate(-293.913 -182.717)" fill="#fff"/>
      </g>
      <g id="Grupo_909418" data-name="Grupo 909418" transform="translate(181.702 157.276)">
        <path id="Trazado_679419" data-name="Trazado 679419" d="M311.221,186.349c-.809,0-1.586-.029-2.124-.055a.2.2,0,0,1-.073-.389c.17-.076,4.185-1.851,5.576-.715.269.22.268.415.221.54C314.629,186.23,312.858,186.349,311.221,186.349Zm-1.151-.426c2.085.055,4.136-.045,4.367-.334-.01,0-.033-.036-.094-.085C313.55,184.857,311.446,185.42,310.07,185.923Z" transform="translate(-308.904 -184.811)" fill="#fff"/>
      </g>
      <g id="Grupo_909419" data-name="Grupo 909419" transform="translate(161.502 133.216)">
        <path id="Trazado_679420" data-name="Trazado 679420" d="M273.295,145.324a.2.2,0,0,1-.195-.145c-.138-.463-.8-2.8-.257-3.4a.507.507,0,0,1,.49-.153.665.665,0,0,1,.459.33c.482.819-.222,2.989-.3,3.233A.2.2,0,0,1,273.295,145.324Zm-.08-3.307a.081.081,0,0,0-.07.03c-.228.253-.073,1.346.158,2.317a3.946,3.946,0,0,0,.138-2.206.255.255,0,0,0-.183-.136A.22.22,0,0,0,273.215,142.017Z" transform="translate(-272.634 -141.612)" fill="#fff"/>
      </g>
      <g id="Grupo_909420" data-name="Grupo 909420" transform="translate(167.943 166.834)">
        <path id="Trazado_679421" data-name="Trazado 679421" d="M293.272,209.032a.194.194,0,0,1-.091-.022c-.057-.028-5.76-2.94-8.934-6.7a.2.2,0,1,1,.31-.262c3.12,3.7,8.751,6.574,8.807,6.6a.2.2,0,0,1-.092.384Z" transform="translate(-284.199 -201.974)" fill="#fff"/>
      </g>
      <g id="Grupo_909421" data-name="Grupo 909421" transform="translate(147.009 189.287)">
        <path id="Trazado_679422" data-name="Trazado 679422" d="M246.815,244.8a.2.2,0,0,1-.151-.339l1.9-2.1a.2.2,0,0,1,.3.272l-1.9,2.1A.2.2,0,0,1,246.815,244.8Z" transform="translate(-246.612 -242.288)" fill="#fff"/>
      </g>
      <g id="Grupo_909422" data-name="Grupo 909422" transform="translate(147.009 189.287)">
        <path id="Trazado_679423" data-name="Trazado 679423" d="M248.712,244.8a.2.2,0,0,1-.151-.067l-1.9-2.1a.2.2,0,0,1,.3-.272l1.9,2.1a.2.2,0,0,1-.151.339Z" transform="translate(-246.612 -242.287)" fill="#fff"/>
      </g>
      <g id="Grupo_909505" data-name="Grupo 909505" transform="translate(21.805 122.663)">
        <g id="Grupo_909427" data-name="Grupo 909427" transform="translate(80.496 68.396)">
          <g id="Grupo_909423" data-name="Grupo 909423">
            <path id="Trazado_679424" data-name="Trazado 679424" d="M199.262,274.7h-30.8a2.127,2.127,0,0,1-2.124-2.124V247.594a2.127,2.127,0,0,1,2.124-2.124h30.8a2.127,2.127,0,0,1,2.124,2.124V272.58A2.127,2.127,0,0,1,199.262,274.7Zm-30.8-28.827a1.72,1.72,0,0,0-1.718,1.718V272.58a1.719,1.719,0,0,0,1.718,1.717h30.8a1.719,1.719,0,0,0,1.718-1.717V247.594a1.72,1.72,0,0,0-1.718-1.718Z" transform="translate(-166.337 -245.47)" fill="#e2209e"/>
          </g>
          <g id="Grupo_909424" data-name="Grupo 909424" transform="translate(0 5.372)">
            <path id="Trazado_679425" data-name="Trazado 679425" d="M201.183,255.522H166.54a.2.2,0,0,1,0-.407h34.643a.2.2,0,0,1,0,.407Z" transform="translate(-166.337 -255.115)" fill="#e2209e"/>
          </g>
          <g id="Grupo_909425" data-name="Grupo 909425" transform="translate(2.22 1.675)">
            <path id="Trazado_679426" data-name="Trazado 679426" d="M172.371,251.056a.2.2,0,0,1-.155-.072l-1.846-2.172a.2.2,0,0,1,.31-.263l1.846,2.173a.2.2,0,0,1-.023.287A.207.207,0,0,1,172.371,251.056Z" transform="translate(-170.323 -248.477)" fill="#e2209e"/>
          </g>
          <g id="Grupo_909426" data-name="Grupo 909426" transform="translate(2.22 1.675)">
            <path id="Trazado_679427" data-name="Trazado 679427" d="M170.526,251.056a.207.207,0,0,1-.131-.048.2.2,0,0,1-.023-.287l1.846-2.173a.2.2,0,0,1,.31.263l-1.846,2.172A.2.2,0,0,1,170.526,251.056Z" transform="translate(-170.323 -248.477)" fill="#e2209e"/>
          </g>
        </g>
        <g id="Grupo_909428" data-name="Grupo 909428" transform="translate(0 83.253)">
          <rect id="Rectángulo_304222" data-name="Rectángulo 304222" width="39.587" height="45.916" rx="8.902" transform="translate(39.587 45.916) rotate(180)" fill="#727997"/>
        </g>
        <g id="Grupo_909429" data-name="Grupo 909429" transform="translate(2.984 83.253)">
          <rect id="Rectángulo_304223" data-name="Rectángulo 304223" width="39.587" height="45.916" rx="8.902" transform="translate(39.587 45.916) rotate(180)" fill="#0b5999"/>
        </g>
        <g id="Grupo_909430" data-name="Grupo 909430" transform="translate(71.231 12.589)">
          <path id="Trazado_679428" data-name="Trazado 679428" d="M149.9,208.649a.2.2,0,0,1-.2-.2V145.47a.2.2,0,0,1,.407,0v62.773l49.643-.034V172.091a.2.2,0,1,1,.406,0v36.321a.2.2,0,0,1-.2.2l-50.049.034Z" transform="translate(-149.701 -145.267)" fill="#4dd0e1"/>
        </g>
        <g id="Grupo_909431" data-name="Grupo 909431" transform="translate(46.151 111.256)">
          <path id="Trazado_679429" data-name="Trazado 679429" d="M104.67,323.6l2.368,8.038,10.045-1.716-2.3-7.5Z" transform="translate(-104.67 -322.425)" fill="#fd8753"/>
        </g>
        <g id="Grupo_909432" data-name="Grupo 909432" transform="translate(29.395 110.975)">
          <path id="Trazado_679430" data-name="Trazado 679430" d="M75.675,321.92,74.585,331.1l10.042,1.925.934-8.6Z" transform="translate(-74.585 -321.92)" fill="#fd8753"/>
        </g>
        <g id="Grupo_909433" data-name="Grupo 909433" transform="translate(60.476 29.235)">
          <path id="Trazado_679431" data-name="Trazado 679431" d="M132.9,175.155s1.021,3.214-.742,3.876a1.194,1.194,0,0,1-1.77-1.171l1.09-2.3Z" transform="translate(-130.39 -175.155)" fill="#fd8753"/>
        </g>
        <g id="Grupo_909434" data-name="Grupo 909434" transform="translate(54.86 27.935)">
          <path id="Trazado_679432" data-name="Trazado 679432" d="M120.307,180.509s2.306-5.944,4.4-6.979,6.094-.905,6.7.182-1.219,1.111-1.693,1a3.085,3.085,0,0,0-2.236.687,8.873,8.873,0,0,0-.474,2.525s1.558.315,2.235-.252,1.355-1.591,1.829-.842-1.422,4.678-2.777,5.762a25.929,25.929,0,0,1-4.809,2.438Z" transform="translate(-120.307 -172.821)" fill="#fd8753"/>
        </g>
        <g id="Grupo_909435" data-name="Grupo 909435" transform="translate(61.362 29.725)">
          <path id="Trazado_679433" data-name="Trazado 679433" d="M132.185,179.547a.206.206,0,0,1-.2-.222,15.222,15.222,0,0,1,.317-1.815,1.933,1.933,0,0,1,1.437-1.471.2.2,0,0,1,.08.4A1.525,1.525,0,0,0,132.7,177.6a15.339,15.339,0,0,0-.309,1.762A.2.2,0,0,1,132.185,179.547Z" transform="translate(-131.982 -176.035)"/>
        </g>
        <g id="Grupo_909436" data-name="Grupo 909436" transform="translate(67.052 24.561)">
          <rect id="Rectángulo_304224" data-name="Rectángulo 304224" width="8.764" height="8.764" rx="1.301" transform="translate(0)" fill="#0b5999"/>
        </g>
        <g id="Grupo_909437" data-name="Grupo 909437" transform="translate(67.052 35.758)">
          <rect id="Rectángulo_304225" data-name="Rectángulo 304225" width="8.764" height="8.764" rx="1.301" transform="translate(0)" fill="#0b5999"/>
        </g>
        <g id="Grupo_909438" data-name="Grupo 909438" transform="translate(67.052 46.955)">
          <rect id="Rectángulo_304226" data-name="Rectángulo 304226" width="8.764" height="8.764" rx="1.301" transform="translate(0)" fill="#0b5999"/>
        </g>
        <g id="Grupo_909440" data-name="Grupo 909440" transform="translate(63.75 29.088)">
          <g id="Grupo_909439" data-name="Grupo 909439">
            <path id="Trazado_679434" data-name="Trazado 679434" d="M140.364,179.709l-4.095-3.462L137.319,175l2.9,2.456,2.362-2.57,1.2,1.1Z" transform="translate(-136.269 -174.891)" fill="#f6f6f6"/>
          </g>
        </g>
        <g id="Grupo_909442" data-name="Grupo 909442" transform="translate(67.973 37.552)">
          <g id="Grupo_909441" data-name="Grupo 909441" transform="translate(0)">
            <path id="Trazado_679435" data-name="Trazado 679435" d="M147.218,195.954l-3.366-2.862,1.053-1.238,2.052,1.744,2.642-3.51,1.3.978Z" transform="translate(-143.851 -190.088)" fill="#f6f6f6"/>
          </g>
        </g>
        <g id="Grupo_909444" data-name="Grupo 909444" transform="translate(67.973 48.748)">
          <g id="Grupo_909443" data-name="Grupo 909443" transform="translate(0)">
            <path id="Trazado_679436" data-name="Trazado 679436" d="M147.218,216.057l-3.366-2.861,1.053-1.238,2.052,1.744,2.642-3.51,1.3.978Z" transform="translate(-143.851 -210.192)" fill="#f6f6f6"/>
          </g>
        </g>
        <g id="Grupo_909445" data-name="Grupo 909445" transform="translate(59.239)">
          <rect id="Rectángulo_304227" data-name="Rectángulo 304227" width="24.655" height="15.014" rx="2.862" fill="#0b5999"/>
        </g>
        <g id="Grupo_909446" data-name="Grupo 909446" transform="translate(64.274 65.465)">
          <path id="Trazado_679437" data-name="Trazado 679437" d="M204.453,243.856V277.45a3.9,3.9,0,0,1-4.1,3.65H141.315a3.9,3.9,0,0,1-4.1-3.65V243.856a3.9,3.9,0,0,1,4.1-3.649h59.043A3.894,3.894,0,0,1,204.453,243.856Z" transform="translate(-137.21 -240.207)" fill="#403642"/>
        </g>
        <g id="Grupo_909448" data-name="Grupo 909448" transform="translate(46.901 113.872)">
          <g id="Grupo_909447" data-name="Grupo 909447">
            <path id="Trazado_679438" data-name="Trazado 679438" d="M108.581,341.329a1.436,1.436,0,0,1-1.473-1.318c-.347-3.1-1.5-10-.939-10.064.721-.081,8.181,1.085,8.181,1.085s-.274-4.316,2.8-3.879c2.359.335,5.32,2.769,6.57,3.883a2.6,2.6,0,0,0,1.386.646c2.195.3,8.266,1.391,8.7,4.534.534,3.841-1.061,3.573-1.782,3.654C131.407,339.938,113.609,341.023,108.581,341.329Z" transform="translate(-106.016 -327.122)" fill="#ffb700"/>
          </g>
        </g>
        <g id="Grupo_909450" data-name="Grupo 909450" transform="translate(25.961 114.12)">
          <g id="Grupo_909449" data-name="Grupo 909449">
            <path id="Trazado_679439" data-name="Trazado 679439" d="M69.294,338.935a1.435,1.435,0,0,1-.8-1.808c.962-2.966,2.757-9.731,3.3-9.555.69.224,7,4.366,7,4.366s1.532-4.044,4.151-2.378c2.01,1.279,3.7,4.717,4.382,6.248a2.6,2.6,0,0,0,1,1.16c1.878,1.175,6.955,4.678,6.056,7.72-1.1,3.719-2.442,2.817-3.132,2.593C90.659,347.088,74,340.731,69.294,338.935Z" transform="translate(-68.419 -327.568)" fill="#ffb700"/>
          </g>
        </g>
        <g id="Grupo_909451" data-name="Grupo 909451" transform="translate(9.303 22.877)">
          <path id="Trazado_679440" data-name="Trazado 679440" d="M51.151,163.962a10.558,10.558,0,0,0-10.479,3.857c-4.469,5.474-1.692,12.212,5.389,12.019s8.728-7.43,8.728-7.43Z" transform="translate(-38.509 -163.739)" fill="#feca2e"/>
        </g>
        <g id="Grupo_909452" data-name="Grupo 909452" transform="translate(18.969 17.778)">
          <path id="Trazado_679441" data-name="Trazado 679441" d="M67.861,164.411a5.909,5.909,0,0,0,1.282-4.691A4.009,4.009,0,0,0,68,157.127s1.368-2.625-2.554-2.54-7.136-.249-8.883,3.124c-1.03,1.987-.62,6.3-.62,6.3Z" transform="translate(-55.864 -154.584)" fill="#feca2e"/>
        </g>
        <g id="Grupo_909456" data-name="Grupo 909456" transform="translate(22.301 30.669)">
          <g id="Grupo_909455" data-name="Grupo 909455">
            <g id="Grupo_909454" data-name="Grupo 909454">
              <g id="Grupo_909453" data-name="Grupo 909453">
                <path id="Trazado_679442" data-name="Trazado 679442" d="M61.847,177.729l.028,4.786s.871,1.371,3.672,1.582c2.087.157,2.741-.918,2.741-.918l-.53-4.185L62.7,177.911Z" transform="translate(-61.847 -177.729)" fill="#fd8753"/>
              </g>
            </g>
          </g>
        </g>
        <g id="Grupo_909460" data-name="Grupo 909460" transform="translate(22.307 30.376)">
          <g id="Grupo_909459" data-name="Grupo 909459">
            <g id="Grupo_909458" data-name="Grupo 909458">
              <g id="Grupo_909457" data-name="Grupo 909457">
                <path id="Trazado_679443" data-name="Trazado 679443" d="M61.857,177.2a1.562,1.562,0,0,0,.142.461c1.085,2.385,4.859,3.358,6.065,3.459l-.3-2.363Z" transform="translate(-61.857 -177.204)"/>
              </g>
            </g>
          </g>
        </g>
        <g id="Grupo_909464" data-name="Grupo 909464" transform="translate(18.892 19.258)">
          <g id="Grupo_909463" data-name="Grupo 909463">
            <g id="Grupo_909462" data-name="Grupo 909462">
              <g id="Grupo_909461" data-name="Grupo 909461">
                <path id="Trazado_679444" data-name="Trazado 679444" d="M66.05,159s2.547,5.987,1.576,9.326-4.017,2.784-5.836,2.118a6.042,6.042,0,0,1-2.655-1.793,2.733,2.733,0,0,1-2.264-4.854A2.678,2.678,0,0,1,59,164.1l-.891-1.741S62.012,153.6,66.05,159Z" transform="translate(-55.726 -157.241)" fill="#fd8753"/>
              </g>
            </g>
          </g>
        </g>
        <g id="Grupo_909468" data-name="Grupo 909468" transform="translate(20.712 18.422)">
          <g id="Grupo_909467" data-name="Grupo 909467">
            <g id="Grupo_909466" data-name="Grupo 909466">
              <g id="Grupo_909465" data-name="Grupo 909465">
                <path id="Trazado_679445" data-name="Trazado 679445" d="M60.447,163.44a4.353,4.353,0,0,0,4.389-2.251c1.835-2.818,1.694-3.992,1.694-3.992l1.717,2.979a5.426,5.426,0,0,0-.355-3.351c-.791-1.317-1.645-1.064-1.645-1.064l-5.678,1.3-1.575,4.5Z" transform="translate(-58.994 -155.741)" fill="#feca2e"/>
              </g>
            </g>
          </g>
        </g>
        <g id="Grupo_909469" data-name="Grupo 909469" transform="translate(28.265 25.728)">
          <path id="Trazado_679446" data-name="Trazado 679446" d="M72.887,171.733a.209.209,0,0,1-.063-.01.2.2,0,0,1-.13-.256,3.846,3.846,0,0,0-.124-2.329.2.2,0,0,1,.376-.154,4.213,4.213,0,0,1,.133,2.608A.2.2,0,0,1,72.887,171.733Z" transform="translate(-72.555 -168.858)"/>
        </g>
        <g id="Grupo_909470" data-name="Grupo 909470" transform="translate(20.075 26.778)">
          <path id="Trazado_679447" data-name="Trazado 679447" d="M59.645,172.892a.2.2,0,0,1-.15-.066L57.9,171.083a.2.2,0,0,1,.3-.274l1.591,1.742a.2.2,0,0,1-.15.34Z" transform="translate(-57.85 -170.743)"/>
        </g>
        <g id="Grupo_909471" data-name="Grupo 909471" transform="translate(19.959 27.882)">
          <path id="Trazado_679448" data-name="Trazado 679448" d="M57.846,173.282a.2.2,0,0,1-.027-.4l1.123-.151a.2.2,0,1,1,.055.4l-1.123.151Z" transform="translate(-57.643 -172.725)"/>
        </g>
        <g id="Grupo_909472" data-name="Grupo 909472" transform="translate(28.882 23.139)">
          <path id="Trazado_679449" data-name="Trazado 679449" d="M74.894,164.814a.231.231,0,0,1-.039,0l-1.028-.2a.2.2,0,0,1,.077-.4l1.028.2a.2.2,0,0,1-.038.4Z" transform="translate(-73.662 -164.209)"/>
        </g>
        <g id="Grupo_909473" data-name="Grupo 909473" transform="translate(25.981 23.177)">
          <path id="Trazado_679450" data-name="Trazado 679450" d="M68.657,165.083a.2.2,0,0,1-.071-.394l1.068-.4a.2.2,0,1,1,.142.38l-1.068.4A.211.211,0,0,1,68.657,165.083Z" transform="translate(-68.454 -164.278)"/>
        </g>
        <g id="Grupo_909474" data-name="Grupo 909474" transform="translate(29.027 24.303)">
          <path id="Trazado_679451" data-name="Trazado 679451" d="M74.435,168.187a.2.2,0,0,1-.195-.148l-.31-1.082a.2.2,0,0,1,.041-.187l.338-.4a.2.2,0,0,1,.31.263l-.268.315.28.978a.2.2,0,0,1-.139.251A.2.2,0,0,1,74.435,168.187Z" transform="translate(-73.923 -166.3)"/>
        </g>
        <g id="Grupo_909475" data-name="Grupo 909475" transform="translate(26.01 24.409)">
          <path id="Trazado_679452" data-name="Trazado 679452" d="M69.02,168.5a.2.2,0,0,1-.2-.147l-.31-1.083a.2.2,0,0,1,.043-.191l.467-.524a.2.2,0,1,1,.3.27l-.392.441.279.975a.2.2,0,0,1-.139.251A.2.2,0,0,1,69.02,168.5Z" transform="translate(-68.507 -166.49)"/>
        </g>
        <g id="Grupo_909476" data-name="Grupo 909476" transform="translate(26.655 29.08)">
          <path id="Trazado_679453" data-name="Trazado 679453" d="M70.882,176.125a.934.934,0,0,1-.152-.012c-.663-.11-1.033-.915-1.048-.949a.2.2,0,0,1,.229-.282l1.824.4a.2.2,0,0,1,.105.337A1.342,1.342,0,0,1,70.882,176.125Zm-.579-.741a.883.883,0,0,0,.494.328.628.628,0,0,0,.456-.12Z" transform="translate(-69.665 -174.876)"/>
        </g>
        <g id="Grupo_909477" data-name="Grupo 909477" transform="translate(30.626 65.458)">
          <path id="Trazado_679454" data-name="Trazado 679454" d="M76.794,240.2s18.469,1.041,23.27,4.763,5.067,42.665,5.067,42.665l-15.062,1.715-.139-38.128Z" transform="translate(-76.794 -240.195)" fill="#950b65"/>
        </g>
        <g id="Grupo_909478" data-name="Grupo 909478" transform="translate(21.074 32.336)">
          <path id="Trazado_679455" data-name="Trazado 679455" d="M59.644,184.109s.531-1.861.8-1.861a16.619,16.619,0,0,0,4.053.926c1.761-.012,2.066-.562,2.591-.49s.717,1.426.717,1.426,3.262,1.084,7.055,1.964,9.754-.271,12.26-1.49,6.774-3.86,6.774-3.86l4.4,11.582s-8.941,11.447-17.137,11.515a126.43,126.43,0,0,1-18.085-1.558Z" transform="translate(-59.644 -180.723)" fill="#45b8c6"/>
        </g>
        <g id="Grupo_909479" data-name="Grupo 909479" transform="translate(8.072 64.848)">
          <path id="Trazado_679456" data-name="Trazado 679456" d="M36.717,240.3s-1.353,14.556.806,15.926c5.049,3.2,18.865,2.4,18.93,2.991s-1.547,27.135-1.547,27.135l18.2,3.4s6.687-38.735,2.9-44.986-26.1-5.656-26.1-5.656Z" transform="translate(-36.298 -239.099)" fill="#950b65"/>
        </g>
        <g id="Grupo_909480" data-name="Grupo 909480" transform="translate(33.825 45.214)">
          <path id="Trazado_679457" data-name="Trazado 679457" d="M92.649,221.286l-10.11-1.007,3.815-16.433,10.11,1.007Z" transform="translate(-82.538 -203.846)" fill="#ffb700"/>
        </g>
        <g id="Grupo_909481" data-name="Grupo 909481" transform="translate(35.342 45.365)">
          <path id="Trazado_679458" data-name="Trazado 679458" d="M95.371,221.558l-10.11-1.007,3.815-16.433,10.11,1.007Z" transform="translate(-85.261 -204.117)" fill="#e8e8e8"/>
        </g>
        <g id="Grupo_909482" data-name="Grupo 909482" transform="translate(8.515 52.52)">
          <path id="Trazado_679459" data-name="Trazado 679459" d="M60.9,216.963l.379,12.463a96.082,96.082,0,0,1-14.02,2.777,51.077,51.077,0,0,1-10.16,0v-4.809Z" transform="translate(-37.093 -216.963)" fill="#45b8c6"/>
        </g>
        <g id="Grupo_909483" data-name="Grupo 909483" transform="translate(30.17 49.803)">
          <path id="Trazado_679460" data-name="Trazado 679460" d="M76.818,216.427a11.416,11.416,0,0,1,2.428-3.387,6.036,6.036,0,0,1,3.079-.874l-.37,1.789s2.834.373,3.313,0,2.512-2,3.054-1.862-.61,1.862-.61,1.862,1.219-1.118,1.626-.44-1.151,3.387-1.151,3.387,1.422-1.419.948.815-4.595,4.4-6.023,4.6-7.137.222-7.137.222Z" transform="translate(-75.975 -212.085)" fill="#fd8753"/>
        </g>
        <g id="Grupo_909484" data-name="Grupo 909484" transform="translate(34.457 51.165)">
          <path id="Trazado_679461" data-name="Trazado 679461" d="M85.366,215.243a.206.206,0,0,1-.041,0l-1.49-.305a.2.2,0,0,1,.082-.4l1.49.305a.2.2,0,0,1-.04.4Z" transform="translate(-83.672 -214.531)"/>
        </g>
        <g id="Grupo_909485" data-name="Grupo 909485" transform="translate(37.437 51.47)">
          <path id="Trazado_679462" data-name="Trazado 679462" d="M89.227,217.822a.2.2,0,0,1-.009-.407,6.871,6.871,0,0,0,2.154-.452,9.537,9.537,0,0,0,1.967-1.812.2.2,0,0,1,.311.261,9.658,9.658,0,0,1-2.1,1.914,7.12,7.12,0,0,1-2.317.5Z" transform="translate(-89.024 -215.078)"/>
        </g>
        <g id="Grupo_909486" data-name="Grupo 909486" transform="translate(37.776 54.417)">
          <path id="Trazado_679463" data-name="Trazado 679463" d="M89.835,222.74a.2.2,0,0,1,0-.407,5.892,5.892,0,0,0,2.117-.5,10.351,10.351,0,0,0,2.154-1.41.2.2,0,0,1,.272.3,10.582,10.582,0,0,1-2.249,1.473,6.213,6.213,0,0,1-2.285.544Z" transform="translate(-89.632 -220.369)"/>
        </g>
        <g id="Grupo_909490" data-name="Grupo 909490" transform="translate(63.966 2.305)">
          <g id="Grupo_909487" data-name="Grupo 909487" transform="translate(0 1.815)">
            <rect id="Rectángulo_304228" data-name="Rectángulo 304228" width="5.068" height="5.068" fill="#4dd0e1"/>
          </g>
          <g id="Grupo_909488" data-name="Grupo 909488" transform="translate(8.631)">
            <path id="Trazado_679464" data-name="Trazado 679464" d="M155.311,126.8l1.578,2.733,1.578,2.733h-6.311l1.578-2.733Z" transform="translate(-152.155 -126.802)" fill="#feca2e"/>
          </g>
          <g id="Grupo_909489" data-name="Grupo 909489" transform="translate(3.885 3.362)">
            <circle id="Elipse_7573" data-name="Elipse 7573" cx="3.521" cy="3.521" r="3.521" fill="#fff"/>
          </g>
        </g>
        <g id="Grupo_909491" data-name="Grupo 909491" transform="translate(120.402 46.721)">
          <path id="Trazado_679465" data-name="Trazado 679465" d="M240.151,207.632a1.081,1.081,0,1,1-1.08-1.081A1.081,1.081,0,0,1,240.151,207.632Z" transform="translate(-237.99 -206.551)" fill="#4dd0e1"/>
        </g>
        <g id="Grupo_909492" data-name="Grupo 909492" transform="translate(120.402 60.644)">
          <circle id="Elipse_7574" data-name="Elipse 7574" cx="1.081" cy="1.081" r="1.081" fill="#4dd0e1"/>
        </g>
        <g id="Grupo_909493" data-name="Grupo 909493" transform="translate(70.353 59.51)">
          <path id="Trazado_679466" data-name="Trazado 679466" d="M150.288,230.6a1.081,1.081,0,1,1-1.081-1.081A1.081,1.081,0,0,1,150.288,230.6Z" transform="translate(-148.126 -229.514)" fill="#4dd0e1"/>
        </g>
        <g id="Grupo_909494" data-name="Grupo 909494" transform="translate(64.274 65.465)">
          <path id="Trazado_679467" data-name="Trazado 679467" d="M204.453,243.856v.967H137.21v-.967a3.9,3.9,0,0,1,4.1-3.649h59.043A3.894,3.894,0,0,1,204.453,243.856Z" transform="translate(-137.21 -240.207)" fill="#12263f"/>
        </g>
        <g id="Grupo_909495" data-name="Grupo 909495" transform="translate(71.363 74.932)">
          <path id="Trazado_679468" data-name="Trazado 679468" d="M163.418,270.887H150.142a.2.2,0,0,1-.2-.2V257.408a.2.2,0,0,1,.2-.2h13.276a.2.2,0,0,1,.2.2v13.276A.2.2,0,0,1,163.418,270.887Zm-13.073-.407h12.87V257.612h-12.87Z" transform="translate(-149.939 -257.205)" fill="#fff"/>
        </g>
        <g id="Grupo_909496" data-name="Grupo 909496" transform="translate(78.001 81.175)">
          <path id="Trazado_679469" data-name="Trazado 679469" d="M187.431,282.1h-25.37a.2.2,0,0,1-.2-.2V268.618a.2.2,0,0,1,.2-.2h25.37a.2.2,0,0,1,.2.2v13.276A.2.2,0,0,1,187.431,282.1Zm-25.167-.407h24.964V268.822H162.264Z" transform="translate(-161.858 -268.415)" fill="#fff"/>
        </g>
        <g id="Grupo_909497" data-name="Grupo 909497" transform="translate(30.987 66.262)">
          <path id="Trazado_679470" data-name="Trazado 679470" d="M91.856,286.808a.174.174,0,0,1-.037,0,.2.2,0,0,1-.162-.237c.057-.307,5.716-30.783,3.305-37.155-2.382-6.3-17.169-6.463-17.319-6.464a.2.2,0,0,1-.05-.4l3.47-.9a.206.206,0,0,1,.248.146.2.2,0,0,1-.145.248l-2.115.551c3.837.2,14.234,1.241,16.291,6.679,2.451,6.479-3.051,36.115-3.287,37.374A.2.2,0,0,1,91.856,286.808Z" transform="translate(-77.442 -241.638)" fill="#fff"/>
        </g>
        <g id="Grupo_909498" data-name="Grupo 909498" transform="translate(0.892 35.586)">
          <path id="Trazado_679471" data-name="Trazado 679471" d="M44.384,186.559s-11.662.271-18.367,13.479.339,19.981,11.718,18.491,17.1-5.08,17.1-5.08l-1.3-11.2Z" transform="translate(-23.407 -186.559)" fill="#45b8c6"/>
        </g>
        <g id="Grupo_909503" data-name="Grupo 909503" transform="translate(28.024 81.332)">
          <path id="Trazado_679476" data-name="Trazado 679476" d="M72.325,272.539a.2.2,0,0,1-.14-.056.2.2,0,0,1-.042-.238c.415-.835,1.832-3.549,2.689-3.549a.507.507,0,0,1,.466.364c.6,1.434-2.516,3.25-2.873,3.453A.2.2,0,0,1,72.325,272.539Zm2.5-3.437c-.356,0-1.235,1.285-1.981,2.669.99-.663,2.389-1.806,2.077-2.555-.018-.042-.053-.112-.091-.114Z" transform="translate(-72.122 -268.696)" fill="#fff"/>
        </g>
        <g id="Grupo_913689" data-name="Grupo 913689">
          <g id="Grupo_909499" data-name="Grupo 909499" transform="translate(14.557 51.317)">
            <path id="Trazado_679472" data-name="Trazado 679472" d="M48.146,216.532a.2.2,0,0,1-.056-.4c4.669-1.334,14.288-1.323,14.381-1.329a.2.2,0,0,1,0,.407c-.411,0-9.73.017-14.268,1.313A.217.217,0,0,1,48.146,216.532Z" transform="translate(-47.943 -214.804)" fill="#fff"/>
          </g>
          <g id="Grupo_909500" data-name="Grupo 909500" transform="translate(20.871 35.519)">
            <path id="Trazado_679473" data-name="Trazado 679473" d="M63.075,188.02a7.7,7.7,0,0,1-3.706-1.21.2.2,0,0,1,.224-.339,7.165,7.165,0,0,0,3.752,1.133.2.2,0,0,1,.217.188.2.2,0,0,1-.188.217C63.275,188.017,63.175,188.02,63.075,188.02Z" transform="translate(-59.278 -186.438)" fill="#fff"/>
          </g>
          <g id="Grupo_909501" data-name="Grupo 909501" transform="translate(40.584 37.745)">
            <path id="Trazado_679474" data-name="Trazado 679474" d="M96.226,194.737a.646.646,0,0,1-.348-.1c-.908-.573-1.175-3.631-1.2-3.978a.2.2,0,0,1,.363-.142c.217.275,2.109,2.712,1.827,3.742a.633.633,0,0,1-.4.436A.67.67,0,0,1,96.226,194.737Zm-1.068-3.384c.156,1.194.482,2.649.936,2.936a.236.236,0,0,0,.228.022.226.226,0,0,0,.15-.165C96.614,193.632,95.859,192.339,95.158,191.353Z" transform="translate(-94.675 -190.435)" fill="#fff"/>
          </g>
          <g id="Grupo_909502" data-name="Grupo 909502" transform="translate(11.136 50.624)">
            <path id="Trazado_679475" data-name="Trazado 679475" d="M46.08,215.549c-1.775,0-3.924-.141-4.234-.8a.585.585,0,0,1,.176-.676c1.445-1.562,5.991.934,6.184,1.041a.2.2,0,0,1-.088.38C47.682,215.517,46.923,215.549,46.08,215.549Zm-2.612-1.588a1.507,1.507,0,0,0-1.147.388c-.053.056-.137.162-.106.227.209.448,2.686.62,5.117.544A10.472,10.472,0,0,0,43.468,213.962Z" transform="translate(-41.801 -213.56)" fill="#fff"/>
          </g>
          <g id="Grupo_909504" data-name="Grupo 909504" transform="translate(20.521 61.468)">
            <path id="Trazado_679477" data-name="Trazado 679477" d="M58.854,237.231a.2.2,0,0,1-.037-.4,37.64,37.64,0,0,0,10.4-3.769.2.2,0,1,1,.206.35,38.045,38.045,0,0,1-10.531,3.818A.175.175,0,0,1,58.854,237.231Z" transform="translate(-58.651 -233.031)" fill="#fff"/>
          </g>
        </g>
      </g>
      <g id="Grupo_909506" data-name="Grupo 909506" transform="translate(134.485 148.479)">
        <rect id="Rectángulo_304229" data-name="Rectángulo 304229" width="17.606" height="17.606" rx="3.645" transform="translate(17.606 17.606) rotate(180)" fill="#4dd0e1"/>
      </g>
      <g id="Grupo_909507" data-name="Grupo 909507" transform="translate(135.879 149.872)">
        <path id="Trazado_679478" data-name="Trazado 679478" d="M227.873,180.563l.623,1.49-.779.741a7.432,7.432,0,0,0,2.3,2.357l.87-.826,1.48.632-.049,1.178a7.46,7.46,0,0,0,3.283.033V184.9l1.477-.639.907.935a7.44,7.44,0,0,0,2.315-2.312l-.867-.826.623-1.49,1.209-.012a7.466,7.466,0,0,0-.02-3.348l-1.189-.013-.623-1.49.832-.792a7.427,7.427,0,0,0-2.335-2.29l-.852.88-1.477-.638v-1.181a7.456,7.456,0,0,0-3.28.033l.046,1.09-1.48.632-.814-.772A7.433,7.433,0,0,0,227.751,175l.745.709-.623,1.49-1.047.012a7.462,7.462,0,0,0-.02,3.339Zm2.566-1.637a3.6,3.6,0,1,1,3.6,3.6A3.6,3.6,0,0,1,230.439,178.926Z" transform="translate(-226.627 -171.518)" fill="#fff"/>
      </g>
    </g>
  </g>
</svg>
