<svg xmlns="http://www.w3.org/2000/svg" width="129" height="129" viewBox="0 0 129 129">
  <g id="Grupo_913748" data-name="Grupo 913748" transform="translate(-815 -7118)">
    <g id="Elipse_7683" data-name="Elipse 7683" transform="translate(815 7118)" fill="#f6f6f6" stroke="#fd9927" stroke-width="2">
      <circle cx="64.5" cy="64.5" r="64.5" stroke="none"/>
      <circle cx="64.5" cy="64.5" r="63.5" fill="none"/>
    </g>
    <g id="Grupo_913709" data-name="Grupo 913709" transform="translate(10231.405 11558.361)">
      <g id="Grupo_907922" data-name="Grupo 907922" transform="translate(-9402.608 -4412.966)">
        <g id="Grupo_907655" data-name="Grupo 907655" transform="translate(12.35 0.383)">
          <g id="Grupo_907644" data-name="Grupo 907644" transform="translate(0 62.413)">
            <g id="Grupo_907643" data-name="Grupo 907643">
              <path id="Trazado_641946" data-name="Trazado 641946" d="M262.91,421.04H178.9a.383.383,0,0,1,0-.766h84.01a.383.383,0,1,1,0,.766Z" transform="translate(-178.517 -420.274)" fill="#c4c4c4"/>
            </g>
          </g>
          <g id="Grupo_907646" data-name="Grupo 907646" transform="translate(0 49.932)">
            <g id="Grupo_907645" data-name="Grupo 907645">
              <path id="Trazado_641947" data-name="Trazado 641947" d="M262.91,404.743H178.9a.383.383,0,0,1,0-.766h84.01a.383.383,0,1,1,0,.766Z" transform="translate(-178.517 -403.977)" fill="#c4c4c4"/>
            </g>
          </g>
          <g id="Grupo_907648" data-name="Grupo 907648" transform="translate(0 37.449)">
            <g id="Grupo_907647" data-name="Grupo 907647">
              <path id="Trazado_641948" data-name="Trazado 641948" d="M262.91,388.445H178.9a.383.383,0,0,1,0-.766h84.01a.383.383,0,1,1,0,.766Z" transform="translate(-178.517 -387.679)" fill="#c4c4c4"/>
            </g>
          </g>
          <g id="Grupo_907650" data-name="Grupo 907650" transform="translate(0 24.966)">
            <g id="Grupo_907649" data-name="Grupo 907649">
              <path id="Trazado_641949" data-name="Trazado 641949" d="M262.91,372.146H178.9a.383.383,0,0,1,0-.766h84.01a.383.383,0,1,1,0,.766Z" transform="translate(-178.517 -371.38)" fill="#c4c4c4"/>
            </g>
          </g>
          <g id="Grupo_907652" data-name="Grupo 907652" transform="translate(0 12.483)">
            <g id="Grupo_907651" data-name="Grupo 907651">
              <path id="Trazado_641950" data-name="Trazado 641950" d="M262.91,355.847H178.9a.383.383,0,0,1,0-.766h84.01a.383.383,0,1,1,0,.766Z" transform="translate(-178.517 -355.081)" fill="#c4c4c4"/>
            </g>
          </g>
          <g id="Grupo_907654" data-name="Grupo 907654">
            <g id="Grupo_907653" data-name="Grupo 907653">
              <path id="Trazado_641951" data-name="Trazado 641951" d="M262.91,339.549H178.9a.383.383,0,0,1,0-.766h84.01a.383.383,0,1,1,0,.766Z" transform="translate(-178.517 -338.783)" fill="#c4c4c4"/>
            </g>
          </g>
        </g>
        <g id="Grupo_907656" data-name="Grupo 907656" transform="translate(8.319 0)">
          <path id="Trazado_641952" data-name="Trazado 641952" d="M261.427,414.711H174.02a.766.766,0,0,1-.766-.766v-74.9a.766.766,0,1,1,1.532,0V413.18h86.641a.766.766,0,0,1,0,1.532Z" transform="translate(-173.254 -338.283)" fill="#c4c4c4"/>
        </g>
        <g id="Grupo_907661" data-name="Grupo 907661" transform="translate(0.829 67.281)">
          <g id="Grupo_907660" data-name="Grupo 907660">
            <g id="Grupo_907659" data-name="Grupo 907659">
              <g id="Grupo_907657" data-name="Grupo 907657" transform="translate(0 0.057)">
                <path id="Trazado_641953" data-name="Trazado 641953" d="M165.1,429.988h-.521v-3.23l-.882.537-.226-.367,1.171-.724h.458Z" transform="translate(-163.474 -426.204)" fill="#c4c4c4"/>
              </g>
              <g id="Grupo_907658" data-name="Grupo 907658" transform="translate(2.563)">
                <path id="Trazado_641954" data-name="Trazado 641954" d="M169.354,428.081c0,1.256-.419,1.958-1.268,1.958s-1.267-.7-1.267-1.958.419-1.951,1.267-1.951S169.354,426.832,169.354,428.081Zm-1.991,0c0,1.114.248,1.545.724,1.545s.725-.43.725-1.545-.255-1.538-.725-1.538S167.363,426.972,167.363,428.081Z" transform="translate(-166.82 -426.13)" fill="#c4c4c4"/>
              </g>
            </g>
          </g>
        </g>
        <g id="Grupo_907666" data-name="Grupo 907666" transform="translate(0.069 54.78)">
          <g id="Grupo_907665" data-name="Grupo 907665">
            <g id="Grupo_907664" data-name="Grupo 907664">
              <g id="Grupo_907662" data-name="Grupo 907662">
                <path id="Trazado_641955" data-name="Trazado 641955" d="M164.767,410.843c0,.708-.452,1.21-1.611,2.37h1.7l-.063.435h-2.233v-.413c1.334-1.391,1.662-1.753,1.662-2.37a.584.584,0,0,0-.622-.628.932.932,0,0,0-.77.413l-.35-.27a1.4,1.4,0,0,1,1.147-.571A1.04,1.04,0,0,1,164.767,410.843Z" transform="translate(-162.482 -409.808)" fill="#c4c4c4"/>
              </g>
              <g id="Grupo_907663" data-name="Grupo 907663" transform="translate(2.969)">
                <path id="Trazado_641956" data-name="Trazado 641956" d="M168.893,411.758c0,1.257-.418,1.958-1.268,1.958s-1.267-.7-1.267-1.958.419-1.95,1.267-1.95S168.893,410.51,168.893,411.758Zm-1.991,0c0,1.114.249,1.546.724,1.546s.725-.431.725-1.546-.254-1.537-.725-1.537S166.9,410.65,166.9,411.758Z" transform="translate(-166.359 -409.808)" fill="#c4c4c4"/>
              </g>
            </g>
          </g>
        </g>
        <g id="Grupo_907671" data-name="Grupo 907671" transform="translate(0 42.281)">
          <g id="Grupo_907670" data-name="Grupo 907670">
            <g id="Grupo_907669" data-name="Grupo 907669">
              <g id="Grupo_907667" data-name="Grupo 907667">
                <path id="Trazado_641957" data-name="Trazado 641957" d="M164.7,394.449a.9.9,0,0,0,.119,1.788,1.174,1.174,0,0,1-1.29,1.16,1.427,1.427,0,0,1-1.137-.509l.311-.289a1.067,1.067,0,0,0,.81.374.7.7,0,0,0,.764-.741c0-.52-.294-.679-.752-.679h-.283l.062-.4h.192a.636.636,0,0,0,.684-.667.564.564,0,0,0-.627-.577,1.071,1.071,0,0,0-.781.339l-.271-.311a1.534,1.534,0,0,1,1.08-.447A1,1,0,0,1,164.7,394.449Z" transform="translate(-162.392 -393.488)" fill="#c4c4c4"/>
              </g>
              <g id="Grupo_907668" data-name="Grupo 907668" transform="translate(3.05)">
                <path id="Trazado_641958" data-name="Trazado 641958" d="M168.908,395.439c0,1.256-.418,1.958-1.267,1.958s-1.267-.7-1.267-1.958.418-1.952,1.267-1.952S168.908,394.19,168.908,395.439Zm-1.991,0c0,1.114.249,1.544.724,1.544s.724-.43.724-1.544-.255-1.539-.724-1.539S166.917,394.331,166.917,395.439Z" transform="translate(-166.374 -393.488)" fill="#c4c4c4"/>
              </g>
            </g>
          </g>
        </g>
        <g id="Grupo_907676" data-name="Grupo 907676" transform="translate(0.049 29.782)">
          <g id="Grupo_907675" data-name="Grupo 907675">
            <g id="Grupo_907674" data-name="Grupo 907674">
              <g id="Grupo_907672" data-name="Grupo 907672">
                <path id="Trazado_641959" data-name="Trazado 641959" d="M165.069,380.075h-.492v.934h-.5v-.934h-1.618V379.7l1.137-2.534.436.181L163,379.662h1.076l.044-1.018h.453v1.018h.492Z" transform="translate(-162.456 -377.168)" fill="#c4c4c4"/>
              </g>
              <g id="Grupo_907673" data-name="Grupo 907673" transform="translate(3.094)">
                <path id="Trazado_641960" data-name="Trazado 641960" d="M169.03,379.12c0,1.255-.418,1.957-1.267,1.957s-1.267-.7-1.267-1.957.419-1.952,1.267-1.952S169.03,377.87,169.03,379.12Zm-1.991,0c0,1.114.249,1.543.724,1.543s.724-.429.724-1.543-.254-1.539-.724-1.539S167.039,378.011,167.039,379.12Z" transform="translate(-166.496 -377.168)" fill="#c4c4c4"/>
              </g>
            </g>
          </g>
        </g>
        <g id="Grupo_907681" data-name="Grupo 907681" transform="translate(0.057 17.283)">
          <g id="Grupo_907680" data-name="Grupo 907680">
            <g id="Grupo_907679" data-name="Grupo 907679">
              <g id="Grupo_907677" data-name="Grupo 907677" transform="translate(0 0.056)">
                <path id="Trazado_641961" data-name="Trazado 641961" d="M164.7,361.329h-1.477v1.114a1.305,1.305,0,0,1,.605-.147,1.065,1.065,0,0,1,1.075,1.2,1.232,1.232,0,0,1-1.312,1.278,1.482,1.482,0,0,1-1.12-.481l.317-.3a1.021,1.021,0,0,0,.8.362c.476,0,.775-.311.775-.866,0-.581-.3-.785-.689-.785a1.182,1.182,0,0,0-.538.129h-.408v-1.906h2.048Z" transform="translate(-162.466 -360.922)" fill="#c4c4c4"/>
              </g>
              <g id="Grupo_907678" data-name="Grupo 907678" transform="translate(2.998)">
                <path id="Trazado_641962" data-name="Trazado 641962" d="M168.915,362.8c0,1.256-.418,1.958-1.267,1.958s-1.268-.7-1.268-1.958.418-1.951,1.268-1.951S168.915,361.551,168.915,362.8Zm-1.991,0c0,1.115.25,1.544.725,1.544s.724-.429.724-1.544-.255-1.538-.724-1.538S166.924,361.691,166.924,362.8Z" transform="translate(-166.381 -360.849)" fill="#c4c4c4"/>
              </g>
            </g>
          </g>
        </g>
        <g id="Grupo_907686" data-name="Grupo 907686" transform="translate(0.13 4.782)">
          <g id="Grupo_907685" data-name="Grupo 907685">
            <g id="Grupo_907684" data-name="Grupo 907684">
              <g id="Grupo_907682" data-name="Grupo 907682">
                <path id="Trazado_641963" data-name="Trazado 641963" d="M165.04,347.084a1.237,1.237,0,0,1-1.2,1.353c-.921,0-1.273-.758-1.273-1.844,0-1.239.538-2.065,1.431-2.065a1.371,1.371,0,0,1,.781.232l-.2.345a1.114,1.114,0,0,0-.583-.164c-.548,0-.876.572-.9,1.436a1.065,1.065,0,0,1,1.957.708Zm-.525.017c0-.6-.255-.809-.612-.809a.974.974,0,0,0-.813.521c.022.826.243,1.21.746,1.21C164.282,348.023,164.514,347.655,164.514,347.1Z" transform="translate(-162.562 -344.527)" fill="#c4c4c4"/>
              </g>
              <g id="Grupo_907683" data-name="Grupo 907683" transform="translate(3.016)">
                <path id="Trazado_641964" data-name="Trazado 641964" d="M169.034,346.478c0,1.257-.419,1.958-1.267,1.958s-1.267-.7-1.267-1.958.418-1.951,1.267-1.951S169.034,345.229,169.034,346.478Zm-1.991,0c0,1.114.248,1.545.724,1.545s.724-.43.724-1.545-.254-1.538-.724-1.538S167.043,345.369,167.043,346.478Z" transform="translate(-166.5 -344.527)" fill="#c4c4c4"/>
              </g>
            </g>
          </g>
        </g>
        <g id="Grupo_907687" data-name="Grupo 907687" transform="translate(15.354 27.103)">
          <path id="Trazado_641965" data-name="Trazado 641965" d="M193.116,373.67c-2.669,0-8.009,42.74-10.677,42.74h21.355C201.124,416.41,195.785,373.67,193.116,373.67Z" transform="translate(-182.439 -373.67)" fill="#0b5999"/>
        </g>
        <g id="Grupo_907688" data-name="Grupo 907688" transform="translate(72.604 37.948)">
          <path id="Trazado_641966" data-name="Trazado 641966" d="M265.156,387.831c-1.991,0-5.975,31.894-7.967,31.894h15.936C271.132,419.725,267.149,387.831,265.156,387.831Z" transform="translate(-257.189 -387.831)" fill="#0b5999"/>
        </g>
        <g id="Grupo_907689" data-name="Grupo 907689" transform="translate(26.031 0.245)">
          <path id="Trazado_641967" data-name="Trazado 641967" d="M213.767,338.6c-4.346,0-13.04,69.6-17.387,69.6h34.775C226.807,408.2,218.114,338.6,213.767,338.6Z" transform="translate(-196.38 -338.603)" fill="#fd2727"/>
        </g>
        <g id="Grupo_907690" data-name="Grupo 907690" transform="translate(61.262 29.072)">
          <path id="Trazado_641968" data-name="Trazado 641968" d="M252.566,376.241c-2.546,0-7.639,40.771-10.186,40.771h20.371C260.2,417.012,255.112,376.241,252.566,376.241Z" transform="translate(-242.38 -376.241)" fill="#fd9927"/>
        </g>
        <g id="Grupo_907691" data-name="Grupo 907691" transform="translate(49.008 37.428)">
          <path id="Trazado_641969" data-name="Trazado 641969" d="M234.478,387.151c-2.024,0-6.074,32.415-8.1,32.415h16.2C240.551,419.566,236.5,387.151,234.478,387.151Z" transform="translate(-226.38 -387.151)" fill="#4dd0e1"/>
        </g>
        <g id="Grupo_907692" data-name="Grupo 907692" transform="translate(81.633 51.842)">
          <path id="Trazado_641970" data-name="Trazado 641970" d="M274.752,405.972c-1.444,0-4.33,18-5.774,18h11.548C279.082,423.972,276.2,405.972,274.752,405.972Z" transform="translate(-268.978 -405.972)" fill="#feca2e"/>
        </g>
      </g>
    </g>
  </g>
</svg>
