<svg xmlns="http://www.w3.org/2000/svg" width="129" height="129" viewBox="0 0 129 129">
  <g id="Grupo_913747" data-name="Grupo 913747" transform="translate(-276 -7118)">
    <g id="Elipse_7683" data-name="Elipse 7683" transform="translate(276 7118)" fill="#f6f6f6" stroke="#fd9927" stroke-width="2">
      <circle cx="64.5" cy="64.5" r="64.5" stroke="none"/>
      <circle cx="64.5" cy="64.5" r="63.5" fill="none"/>
    </g>
    <g id="Grupo_913704" data-name="Grupo 913704" transform="translate(9668.005 11698.442)">
      <g id="Grupo_907958" data-name="Grupo 907958" transform="translate(-9379.329 -4551.857)">
        <g id="Grupo_907883" data-name="Grupo 907883" transform="translate(10.131 10.86)">
          <rect id="Rectángulo_302371" data-name="Rectángulo 302371" width="2.413" height="55.213" fill="#afafaf"/>
        </g>
        <g id="Grupo_907884" data-name="Grupo 907884" transform="translate(29.435 10.86)">
          <rect id="Rectángulo_302372" data-name="Rectángulo 302372" width="2.413" height="55.213" fill="#feca2e"/>
        </g>
        <g id="Grupo_907885" data-name="Grupo 907885" transform="translate(50.282 10.86)">
          <rect id="Rectángulo_302373" data-name="Rectángulo 302373" width="2.413" height="55.213" fill="#0b5999"/>
        </g>
        <g id="Grupo_907886" data-name="Grupo 907886" transform="translate(68.041 10.86)">
          <rect id="Rectángulo_302374" data-name="Rectángulo 302374" width="2.413" height="55.213" fill="#4dd0e1"/>
        </g>
        <g id="Grupo_907887" data-name="Grupo 907887" transform="translate(88.889 10.86)">
          <rect id="Rectángulo_302375" data-name="Rectángulo 302375" width="2.413" height="55.213" fill="#fd9927"/>
        </g>
        <g id="Grupo_907888" data-name="Grupo 907888" transform="translate(81.225 7.913)">
          <path id="Trazado_642134" data-name="Trazado 642134" d="M290.866,268.584h20.306V209.64a191.926,191.926,0,0,1-20.306,21.309v37.635Z" transform="translate(-290.866 -209.64)" fill="#fd9927"/>
        </g>
        <g id="Grupo_907889" data-name="Grupo 907889" transform="translate(60.918 29.221)">
          <path id="Trazado_642135" data-name="Trazado 642135" d="M284.873,274.871V237.237a166.562,166.562,0,0,1-20.306,15.61v22.024Z" transform="translate(-264.567 -237.237)" fill="#4dd0e1"/>
        </g>
        <g id="Grupo_907890" data-name="Grupo 907890" transform="translate(40.611 44.832)">
          <path id="Trazado_642136" data-name="Trazado 642136" d="M258.574,279.479V257.454a149.686,149.686,0,0,1-20.307,11.12v10.9Z" transform="translate(-238.267 -257.454)" fill="#0b5999"/>
        </g>
        <g id="Grupo_907891" data-name="Grupo 907891" transform="translate(20.306 55.952)">
          <path id="Trazado_642137" data-name="Trazado 642137" d="M232.275,282.761v-10.9a135.107,135.107,0,0,1-20.3,7.277v3.628Z" transform="translate(-211.97 -271.856)" fill="#feca2e"/>
        </g>
        <g id="Grupo_907892" data-name="Grupo 907892" transform="translate(0 63.229)">
          <path id="Trazado_642138" data-name="Trazado 642138" d="M205.977,284.908V281.28c-9.065,1.815-4.3.293-20.306,3.517v.111Z" transform="translate(-185.671 -281.28)" fill="#00acc1"/>
        </g>
        <path id="Trazado_642139" data-name="Trazado 642139" d="M185.671,284.908v-.568s18.781-2.807,20.306-3.06v3.628Z" transform="translate(-185.671 -218.051)" fill="#afafaf"/>
        <path id="Trazado_642140" data-name="Trazado 642140" d="M202.178,212.693a2.587,2.587,0,1,1-2.587-2.587A2.587,2.587,0,0,1,202.178,212.693Z" transform="translate(-188.253 -201.833)" fill="#afafaf"/>
        <path id="Trazado_642141" data-name="Trazado 642141" d="M227.178,212.693a2.587,2.587,0,1,1-2.587-2.587A2.587,2.587,0,0,1,227.178,212.693Z" transform="translate(-193.95 -201.833)" fill="#feca2e"/>
        <path id="Trazado_642142" data-name="Trazado 642142" d="M254.178,212.693a2.587,2.587,0,1,1-2.587-2.587A2.587,2.587,0,0,1,254.178,212.693Z" transform="translate(-200.102 -201.833)" fill="#0b5999"/>
        <path id="Trazado_642143" data-name="Trazado 642143" d="M277.178,212.693a2.587,2.587,0,1,1-2.587-2.587A2.587,2.587,0,0,1,277.178,212.693Z" transform="translate(-205.343 -201.833)" fill="#4dd0e1"/>
        <path id="Trazado_642144" data-name="Trazado 642144" d="M304.178,212.693a2.587,2.587,0,1,1-2.587-2.587A2.587,2.587,0,0,1,304.178,212.693Z" transform="translate(-211.496 -201.833)" fill="#fd9927"/>
        <g id="Grupo_907893" data-name="Grupo 907893" transform="translate(25.555 0.001)">
          <path id="Trazado_642145" data-name="Trazado 642145" d="M221.619,202.822h-.537v1.018h-.55v-1.018h-1.766v-.408l1.241-2.766.476.2-1.117,2.525h1.173l.049-1.111h.494v1.111h.537Z" transform="translate(-218.767 -199.451)" fill="#616161"/>
          <path id="Trazado_642146" data-name="Trazado 642146" d="M225.909,201.779c0,1.371-.457,2.136-1.383,2.136s-1.383-.765-1.383-2.136.456-2.13,1.383-2.13S225.909,200.415,225.909,201.779Zm-2.173,0c0,1.216.271,1.685.79,1.685s.791-.469.791-1.685-.278-1.679-.791-1.679S223.736,200.569,223.736,201.779Z" transform="translate(-219.764 -199.451)" fill="#616161"/>
          <path id="Trazado_642147" data-name="Trazado 642147" d="M229.534,200.634a1,1,0,1,1-1.007-1.043A.972.972,0,0,1,229.534,200.634Zm-1.507,0c0,.321.106.661.5.661s.5-.327.5-.661-.1-.66-.5-.66S228.027,200.3,228.027,200.634Zm3.4-.981-2.858,4.322-.4-.259,2.858-4.322Zm.642,3.161a1,1,0,1,1-1-1.043A.968.968,0,0,1,232.071,202.814Zm-1.5,0c0,.321.105.66.5.66s.5-.327.5-.66-.1-.655-.5-.655S230.571,202.48,230.571,202.814Z" transform="translate(-220.763 -199.393)" fill="#616161"/>
        </g>
        <g id="Grupo_907894" data-name="Grupo 907894" transform="translate(7.212 0.002)">
          <path id="Trazado_642148" data-name="Trazado 642148" d="M197.506,200.779c0,.771-.494,1.321-1.76,2.587H197.6l-.068.476H195.1v-.451c1.456-1.519,1.815-1.914,1.815-2.587a.637.637,0,0,0-.679-.686,1.016,1.016,0,0,0-.84.451l-.383-.3a1.528,1.528,0,0,1,1.254-.624A1.135,1.135,0,0,1,197.506,200.779Z" transform="translate(-195.011 -199.452)" fill="#616161"/>
          <path id="Trazado_642149" data-name="Trazado 642149" d="M201.978,201.779c0,1.371-.457,2.136-1.383,2.136s-1.383-.765-1.383-2.136.456-2.13,1.383-2.13S201.978,200.415,201.978,201.779Zm-2.174,0c0,1.216.272,1.686.791,1.686s.79-.469.79-1.686-.278-1.679-.79-1.679S199.8,200.569,199.8,201.779Z" transform="translate(-195.968 -199.452)" fill="#616161"/>
          <path id="Trazado_642150" data-name="Trazado 642150" d="M205.6,200.635a1,1,0,1,1-1.006-1.044A.973.973,0,0,1,205.6,200.635Zm-1.506,0c0,.32.105.66.5.66s.5-.327.5-.66-.1-.661-.5-.661S204.1,200.3,204.1,200.635Zm3.4-.982-2.859,4.322-.395-.259,2.858-4.322Zm.642,3.161a1,1,0,1,1-1-1.043A.968.968,0,0,1,208.139,202.814Zm-1.5,0c0,.321.105.661.5.661s.5-.327.5-.661-.1-.655-.5-.655S206.639,202.481,206.639,202.814Z" transform="translate(-196.967 -199.394)" fill="#616161"/>
        </g>
        <g id="Grupo_907895" data-name="Grupo 907895" transform="translate(45.362 0)">
          <path id="Trazado_642151" data-name="Trazado 642151" d="M246.852,200.173h-1.611v1.216a1.428,1.428,0,0,1,.661-.161,1.163,1.163,0,0,1,1.173,1.31,1.345,1.345,0,0,1-1.432,1.394,1.619,1.619,0,0,1-1.222-.524l.346-.334a1.112,1.112,0,0,0,.87.4c.519,0,.845-.34.845-.945,0-.635-.327-.858-.753-.858a1.28,1.28,0,0,0-.586.142H244.7v-2.08h2.235Z" transform="translate(-244.42 -199.469)" fill="#616161"/>
          <path id="Trazado_642152" data-name="Trazado 642152" d="M251.426,201.778c0,1.371-.457,2.136-1.383,2.136s-1.383-.765-1.383-2.136.456-2.13,1.383-2.13S251.426,200.414,251.426,201.778Zm-2.174,0c0,1.216.272,1.686.791,1.686s.79-.469.79-1.686-.278-1.679-.79-1.679S249.252,200.568,249.252,201.778Z" transform="translate(-245.386 -199.45)" fill="#616161"/>
          <path id="Trazado_642153" data-name="Trazado 642153" d="M255.05,200.634a1,1,0,1,1-1.006-1.044A.973.973,0,0,1,255.05,200.634Zm-1.506,0c0,.321.105.66.5.66s.5-.327.5-.66-.1-.661-.5-.661S253.544,200.3,253.544,200.634Zm3.4-.981-2.858,4.322-.4-.259,2.858-4.322Zm.642,3.16a1,1,0,1,1-1-1.043A.968.968,0,0,1,257.587,202.813Zm-1.5,0c0,.321.105.661.5.661s.5-.327.5-.661-.1-.654-.5-.654S256.087,202.48,256.087,202.813Z" transform="translate(-246.385 -199.392)" fill="#616161"/>
        </g>
        <g id="Grupo_907896" data-name="Grupo 907896" transform="translate(63.358 0)">
          <path id="Trazado_642154" data-name="Trazado 642154" d="M270.572,202.735c0,.692-.592,1.179-1.432,1.179s-1.414-.487-1.414-1.166a1.138,1.138,0,0,1,.815-1.075,1.014,1.014,0,0,1-.642-.963,1.134,1.134,0,0,1,1.253-1.062,1.122,1.122,0,0,1,1.253,1.044c0,.419-.235.7-.7.932A1.175,1.175,0,0,1,270.572,202.735Zm-.592.006c0-.444-.235-.642-.9-.87l-.154-.056a.949.949,0,0,0-.6.933c0,.45.314.716.827.716S269.98,203.174,269.98,202.741Zm-1.525-2.025c0,.425.29.581.765.734l.1.037a.83.83,0,0,0,.525-.778.7.7,0,0,0-1.4.006Z" transform="translate(-267.726 -199.45)" fill="#616161"/>
          <path id="Trazado_642155" data-name="Trazado 642155" d="M274.98,201.778c0,1.371-.456,2.136-1.383,2.136s-1.383-.765-1.383-2.136.457-2.13,1.383-2.13S274.98,200.414,274.98,201.778Zm-2.173,0c0,1.216.272,1.686.79,1.686s.791-.469.791-1.686-.278-1.679-.791-1.679S272.807,200.568,272.807,201.778Z" transform="translate(-268.749 -199.45)" fill="#616161"/>
          <path id="Trazado_642156" data-name="Trazado 642156" d="M278.6,200.634a1,1,0,1,1-1.006-1.044A.973.973,0,0,1,278.6,200.634Zm-1.506,0c0,.321.105.66.5.66s.5-.327.5-.66-.1-.661-.5-.661S277.1,200.3,277.1,200.634Zm3.4-.981-2.858,4.322-.395-.259,2.858-4.322Zm.642,3.16a1,1,0,1,1-1-1.043A.968.968,0,0,1,281.142,202.813Zm-1.5,0c0,.321.105.661.5.661s.5-.327.5-.661-.1-.654-.5-.654S279.642,202.48,279.642,202.813Z" transform="translate(-269.748 -199.392)" fill="#616161"/>
        </g>
        <g id="Grupo_907897" data-name="Grupo 907897" transform="translate(84.72 0)">
          <path id="Trazado_642157" data-name="Trazado 642157" d="M298.239,202.735c0,.692-.592,1.179-1.432,1.179s-1.414-.487-1.414-1.166a1.138,1.138,0,0,1,.815-1.075,1.013,1.013,0,0,1-.642-.963,1.134,1.134,0,0,1,1.253-1.062,1.122,1.122,0,0,1,1.253,1.044c0,.419-.235.7-.7.932A1.175,1.175,0,0,1,298.239,202.735Zm-.592.006c0-.444-.235-.642-.9-.87l-.154-.056a.949.949,0,0,0-.6.933c0,.45.314.716.827.716S297.647,203.174,297.647,202.741Zm-1.525-2.025c0,.425.29.581.765.734l.105.037a.83.83,0,0,0,.525-.778.7.7,0,0,0-1.4.006Z" transform="translate(-295.393 -199.45)" fill="#616161"/>
          <path id="Trazado_642158" data-name="Trazado 642158" d="M302.647,201.778c0,1.371-.456,2.136-1.383,2.136s-1.383-.765-1.383-2.136.457-2.13,1.383-2.13S302.647,200.414,302.647,201.778Zm-2.173,0c0,1.216.272,1.686.79,1.686s.791-.469.791-1.686-.278-1.679-.791-1.679S300.474,200.568,300.474,201.778Z" transform="translate(-296.416 -199.45)" fill="#616161"/>
          <path id="Trazado_642159" data-name="Trazado 642159" d="M306.272,200.634a1,1,0,1,1-1.006-1.044A.973.973,0,0,1,306.272,200.634Zm-1.506,0c0,.321.105.66.5.66s.5-.327.5-.66-.1-.661-.5-.661S304.765,200.3,304.765,200.634Zm3.4-.981-2.858,4.322-.395-.259,2.858-4.322Zm.642,3.16a1,1,0,1,1-1-1.043A.968.968,0,0,1,308.809,202.813Zm-1.5,0c0,.321.1.661.5.661s.5-.327.5-.661-.1-.654-.5-.654S307.309,202.48,307.309,202.813Z" transform="translate(-297.415 -199.392)" fill="#616161"/>
        </g>
      </g>
    </g>
  </g>
</svg>
