<svg xmlns="http://www.w3.org/2000/svg" width="129" height="129" viewBox="0 0 129 129">
  <g id="Grupo_913746" data-name="Grupo 913746" transform="translate(-815 -6919)">
    <g id="Elipse_7683" data-name="Elipse 7683" transform="translate(815 6919)" fill="#f6f6f6" stroke="#fd9927" stroke-width="2">
      <circle cx="64.5" cy="64.5" r="64.5" stroke="none"/>
      <circle cx="64.5" cy="64.5" r="63.5" fill="none"/>
    </g>
    <g id="Grupo_913706" data-name="Grupo 913706" transform="translate(10073.473 11205.64)">
      <g id="Grupo_907925" data-name="Grupo 907925" transform="translate(-9242.211 -4280.019)">
        <path id="Trazado_642085" data-name="Trazado 642085" d="M322.789,565.621l48.349-94.391,48.35,94.391Z" transform="translate(-322.789 -471.23)" fill="#feca2e"/>
      </g>
      <g id="Grupo_907926" data-name="Grupo 907926" transform="translate(-9242.211 -4256.428)">
        <path id="Trazado_642086" data-name="Trazado 642086" d="M359.054,497.48l-36.265,70.8h96.7l-36.267-70.8Z" transform="translate(-322.789 -497.48)" fill="#00acc1"/>
      </g>
      <g id="Grupo_907927" data-name="Grupo 907927" transform="translate(-9242.211 -4224.421)">
        <path id="Trazado_642087" data-name="Trazado 642087" d="M342.66,533.1l-19.871,38.793h96.7L399.615,533.1Z" transform="translate(-322.789 -533.096)" fill="#0b5999"/>
      </g>
      <g id="Grupo_907928" data-name="Grupo 907928" transform="translate(-9242.211 -4204.174)">
        <path id="Trazado_642088" data-name="Trazado 642088" d="M332.289,555.625l-9.5,18.546h96.7l-9.5-18.546Z" transform="translate(-322.789 -555.625)" fill="#c4c4c4"/>
      </g>
      <g id="Grupo_907929" data-name="Grupo 907929" transform="translate(-9200.626 -4197.379)">
        <path id="Trazado_642089" data-name="Trazado 642089" d="M371.383,573.081h-.749v-4.642l-1.268.772-.325-.529,1.683-1.04h.659Z" transform="translate(-369.041 -567.3)" fill="#fff"/>
        <path id="Trazado_642090" data-name="Trazado 642090" d="M376.308,570.367c0,1.806-.6,2.813-1.822,2.813s-1.822-1.007-1.822-2.813.6-2.806,1.822-2.806S376.308,568.57,376.308,570.367Zm-2.862,0c0,1.6.357,2.22,1.04,2.22s1.04-.617,1.04-2.22-.366-2.211-1.04-2.211S373.446,568.773,373.446,570.367Z" transform="translate(-368.979 -567.302)" fill="#fff"/>
        <path id="Trazado_642091" data-name="Trazado 642091" d="M379.691,568.94a1.322,1.322,0,1,1-1.325-1.375A1.281,1.281,0,0,1,379.691,568.94Zm-1.984,0c0,.422.138.871.659.871s.659-.431.659-.871c0-.423-.131-.87-.659-.87S377.707,568.5,377.707,568.94Zm4.481-1.293-3.765,5.691L377.9,573l3.764-5.691Zm.846,4.163a1.323,1.323,0,1,1-1.317-1.373A1.275,1.275,0,0,1,383.034,571.811Zm-1.977,0c0,.423.139.871.66.871s.657-.431.657-.871c0-.422-.129-.861-.657-.861S381.057,571.372,381.057,571.811Z" transform="translate(-368.904 -567.306)" fill="#fff"/>
      </g>
      <g id="Grupo_907930" data-name="Grupo 907930" transform="translate(-9200.789 -4217.737)">
        <path id="Trazado_642092" data-name="Trazado 642092" d="M372.2,547.944a1.3,1.3,0,0,0,.17,2.569,1.686,1.686,0,0,1-1.854,1.667,2.049,2.049,0,0,1-1.634-.731l.446-.415a1.533,1.533,0,0,0,1.164.536,1.007,1.007,0,0,0,1.1-1.065c0-.748-.422-.975-1.081-.975H370.1l.089-.578h.277a.914.914,0,0,0,.984-.959.811.811,0,0,0-.9-.83,1.532,1.532,0,0,0-1.122.488l-.391-.447a2.2,2.2,0,0,1,1.554-.643A1.439,1.439,0,0,1,372.2,547.944Z" transform="translate(-368.881 -546.302)" fill="#fff"/>
        <path id="Trazado_642093" data-name="Trazado 642093" d="M376.836,549.367c0,1.806-.6,2.813-1.822,2.813s-1.822-1.007-1.822-2.813.6-2.806,1.822-2.806S376.836,547.57,376.836,549.367Zm-2.862,0c0,1.6.357,2.22,1.04,2.22s1.041-.617,1.041-2.22-.366-2.211-1.041-2.211S373.974,547.773,373.974,549.367Z" transform="translate(-368.808 -546.302)" fill="#fff"/>
        <path id="Trazado_642094" data-name="Trazado 642094" d="M380.22,547.94a1.323,1.323,0,1,1-1.325-1.375A1.281,1.281,0,0,1,380.22,547.94Zm-1.984,0c0,.422.138.871.659.871s.658-.431.658-.871c0-.423-.129-.87-.658-.87S378.236,547.5,378.236,547.94Zm4.481-1.293-3.766,5.691L378.43,552l3.766-5.691Zm.845,4.163a1.323,1.323,0,1,1-1.318-1.373A1.275,1.275,0,0,1,383.562,550.811Zm-1.975,0c0,.423.136.871.657.871s.659-.431.659-.871c0-.422-.13-.861-.659-.861S381.587,550.372,381.587,550.811Z" transform="translate(-368.733 -546.306)" fill="#fff"/>
      </g>
      <g id="Grupo_907931" data-name="Grupo 907931" transform="translate(-9200.698 -4243.096)">
        <path id="Trazado_642095" data-name="Trazado 642095" d="M372.173,526.227h-2.122v1.6a1.864,1.864,0,0,1,.871-.213,1.532,1.532,0,0,1,1.544,1.724,1.77,1.77,0,0,1-1.886,1.838,2.135,2.135,0,0,1-1.611-.691l.456-.439a1.466,1.466,0,0,0,1.147.52c.682,0,1.114-.446,1.114-1.243,0-.839-.431-1.131-.993-1.131a1.708,1.708,0,0,0-.773.187h-.585v-2.74h2.943Z" transform="translate(-368.969 -525.3)" fill="#fff"/>
        <path id="Trazado_642096" data-name="Trazado 642096" d="M376.852,528.367c0,1.806-.6,2.813-1.822,2.813s-1.822-1.007-1.822-2.813.6-2.806,1.822-2.806S376.852,526.57,376.852,528.367Zm-2.862,0c0,1.6.357,2.22,1.04,2.22s1.04-.617,1.04-2.22-.365-2.211-1.04-2.211S373.99,526.773,373.99,528.367Z" transform="translate(-368.897 -525.302)" fill="#fff"/>
        <path id="Trazado_642097" data-name="Trazado 642097" d="M380.235,526.94a1.322,1.322,0,1,1-1.324-1.375A1.28,1.28,0,0,1,380.235,526.94Zm-1.984,0c0,.422.139.871.66.871s.657-.431.657-.871c0-.423-.129-.87-.657-.87S378.251,526.5,378.251,526.94Zm4.481-1.293-3.766,5.691-.52-.342,3.766-5.691Zm.846,4.163a1.323,1.323,0,1,1-1.318-1.373A1.275,1.275,0,0,1,383.578,529.811Zm-1.976,0c0,.423.137.871.658.871s.659-.431.659-.871c0-.422-.131-.861-.659-.861S381.6,529.372,381.6,529.811Z" transform="translate(-368.822 -525.306)" fill="#fff"/>
      </g>
      <g id="Grupo_907932" data-name="Grupo 907932" transform="translate(-9199.608 -4263.71)">
        <path id="Trazado_642098" data-name="Trazado 642098" d="M372.383,495.081h-.749v-4.642l-1.268.772-.325-.529,1.683-1.04h.659Z" transform="translate(-370.041 -489.3)" fill="#fff"/>
        <path id="Trazado_642099" data-name="Trazado 642099" d="M377.308,492.367c0,1.806-.6,2.813-1.822,2.813s-1.822-1.007-1.822-2.813.6-2.806,1.822-2.806S377.308,490.57,377.308,492.367Zm-2.862,0c0,1.6.357,2.22,1.04,2.22s1.04-.617,1.04-2.22-.366-2.211-1.04-2.211S374.446,490.773,374.446,492.367Z" transform="translate(-369.979 -489.302)" fill="#fff"/>
        <path id="Trazado_642100" data-name="Trazado 642100" d="M380.691,490.94a1.322,1.322,0,1,1-1.325-1.375A1.281,1.281,0,0,1,380.691,490.94Zm-1.984,0c0,.422.138.871.659.871s.659-.431.659-.871c0-.423-.131-.87-.659-.87S378.707,490.5,378.707,490.94Zm4.481-1.293-3.765,5.691L378.9,495l3.764-5.691Zm.846,4.163a1.323,1.323,0,1,1-1.317-1.373A1.275,1.275,0,0,1,384.034,493.811Zm-1.977,0c0,.423.139.871.66.871s.657-.431.657-.871c0-.422-.129-.862-.657-.862S382.057,493.372,382.057,493.811Z" transform="translate(-369.905 -489.306)" fill="#fff"/>
      </g>
    </g>
  </g>
</svg>
