<svg xmlns="http://www.w3.org/2000/svg" width="129" height="129" viewBox="0 0 129 129">
  <g id="Grupo_913744" data-name="Grupo 913744" transform="translate(-815 -6720)">
    <g id="Elipse_7683" data-name="Elipse 7683" transform="translate(815 6720)" fill="#f6f6f6" stroke="#fd9927" stroke-width="2">
      <circle cx="64.5" cy="64.5" r="64.5" stroke="none"/>
      <circle cx="64.5" cy="64.5" r="63.5" fill="none"/>
    </g>
    <g id="Grupo_913703" data-name="Grupo 913703" transform="translate(9929 11023.402)">
      <g id="Grupo_907905" data-name="Grupo 907905" transform="translate(-9084.969 -4277.527)">
        <g id="Grupo_907570" data-name="Grupo 907570" transform="translate(0 60.603)">
          <g id="Grupo_907569" data-name="Grupo 907569">
            <path id="Trazado_641912" data-name="Trazado 641912" d="M566.635,556.088H485.065a.372.372,0,1,1,0-.744h81.571a.372.372,0,0,1,0,.744Z" transform="translate(-484.693 -555.344)" fill="#c4c4c4"/>
          </g>
        </g>
        <g id="Grupo_907572" data-name="Grupo 907572" transform="translate(0 48.482)">
          <g id="Grupo_907571" data-name="Grupo 907571">
            <path id="Trazado_641913" data-name="Trazado 641913" d="M566.635,539.789H485.065a.372.372,0,0,1,0-.744h81.571a.372.372,0,0,1,0,.744Z" transform="translate(-484.693 -539.045)" fill="#c4c4c4"/>
          </g>
        </g>
        <g id="Grupo_907574" data-name="Grupo 907574" transform="translate(0 36.361)">
          <g id="Grupo_907573" data-name="Grupo 907573">
            <path id="Trazado_641914" data-name="Trazado 641914" d="M566.635,523.49H485.065a.372.372,0,1,1,0-.744h81.571a.372.372,0,1,1,0,.744Z" transform="translate(-484.693 -522.746)" fill="#c4c4c4"/>
          </g>
        </g>
        <g id="Grupo_907576" data-name="Grupo 907576" transform="translate(0 24.241)">
          <g id="Grupo_907575" data-name="Grupo 907575">
            <path id="Trazado_641915" data-name="Trazado 641915" d="M566.635,507.191H485.065a.372.372,0,0,1,0-.744h81.571a.372.372,0,0,1,0,.744Z" transform="translate(-484.693 -506.447)" fill="#c4c4c4"/>
          </g>
        </g>
        <g id="Grupo_907578" data-name="Grupo 907578" transform="translate(0 12.12)">
          <g id="Grupo_907577" data-name="Grupo 907577">
            <path id="Trazado_641916" data-name="Trazado 641916" d="M566.635,490.892H485.065a.372.372,0,1,1,0-.744h81.571a.372.372,0,0,1,0,.744Z" transform="translate(-484.693 -490.148)" fill="#c4c4c4"/>
          </g>
        </g>
        <g id="Grupo_907580" data-name="Grupo 907580" transform="translate(0 0)">
          <g id="Grupo_907579" data-name="Grupo 907579">
            <path id="Trazado_641917" data-name="Trazado 641917" d="M566.635,474.594H485.065a.372.372,0,1,1,0-.744h81.571a.372.372,0,0,1,0,.744Z" transform="translate(-484.693 -473.85)" fill="#c4c4c4"/>
          </g>
        </g>
      </g>
      <g id="Grupo_907906" data-name="Grupo 907906" transform="translate(-9088.882 -4277.899)">
        <path id="Trazado_641918" data-name="Trazado 641918" d="M565.041,547.56H480.174a.743.743,0,0,1-.744-.744V474.094a.744.744,0,0,1,1.487,0v71.979h84.124a.744.744,0,1,1,0,1.487Z" transform="translate(-479.43 -473.35)" fill="#c4c4c4"/>
      </g>
      <g id="Grupo_907907" data-name="Grupo 907907" transform="translate(-9097.689 -4212.573)">
        <g id="Grupo_907587" data-name="Grupo 907587" transform="translate(0 0)">
          <g id="Grupo_907586" data-name="Grupo 907586">
            <g id="Grupo_907583" data-name="Grupo 907583" transform="translate(0 0.055)">
              <path id="Trazado_641919" data-name="Trazado 641919" d="M469.17,564.946h-.5V561.81l-.857.521-.221-.357,1.137-.7h.445Z" transform="translate(-467.588 -561.271)" fill="#c4c4c4"/>
            </g>
            <g id="Grupo_907584" data-name="Grupo 907584" transform="translate(2.49)">
              <path id="Trazado_641920" data-name="Trazado 641920" d="M473.4,563.093c0,1.219-.407,1.9-1.23,1.9s-1.23-.681-1.23-1.9.4-1.9,1.23-1.9S473.4,561.878,473.4,563.093Zm-1.933,0c0,1.082.241,1.5.7,1.5s.7-.417.7-1.5-.248-1.495-.7-1.495S471.463,562.016,471.463,563.093Z" transform="translate(-470.936 -561.197)" fill="#c4c4c4"/>
            </g>
            <g id="Grupo_907585" data-name="Grupo 907585" transform="translate(5.554)">
              <path id="Trazado_641921" data-name="Trazado 641921" d="M477.517,563.093c0,1.219-.407,1.9-1.23,1.9s-1.23-.681-1.23-1.9.407-1.9,1.23-1.9S477.517,561.878,477.517,563.093Zm-1.933,0c0,1.082.241,1.5.7,1.5s.7-.417.7-1.5-.247-1.495-.7-1.495S475.584,562.016,475.584,563.093Z" transform="translate(-475.057 -561.197)" fill="#c4c4c4"/>
            </g>
          </g>
        </g>
      </g>
      <g id="Grupo_907908" data-name="Grupo 907908" transform="translate(-9098.426 -4224.71)">
        <g id="Grupo_907593" data-name="Grupo 907593" transform="translate(0 0)">
          <g id="Grupo_907592" data-name="Grupo 907592">
            <g id="Grupo_907589" data-name="Grupo 907589">
              <path id="Trazado_641922" data-name="Trazado 641922" d="M468.815,545.88c0,.686-.439,1.175-1.564,2.3H468.9l-.061.425h-2.168v-.4c1.3-1.353,1.614-1.7,1.614-2.3a.566.566,0,0,0-.6-.608.9.9,0,0,0-.747.4l-.34-.265a1.359,1.359,0,0,1,1.114-.555A1.01,1.01,0,0,1,468.815,545.88Z" transform="translate(-466.598 -544.875)" fill="#c4c4c4"/>
            </g>
            <g id="Grupo_907590" data-name="Grupo 907590" transform="translate(2.883)">
              <path id="Trazado_641923" data-name="Trazado 641923" d="M472.935,546.771c0,1.219-.407,1.9-1.23,1.9s-1.23-.68-1.23-1.9.406-1.9,1.23-1.9S472.935,545.556,472.935,546.771Zm-1.933,0c0,1.082.241,1.5.7,1.5s.7-.416.7-1.5-.247-1.495-.7-1.495S471,545.694,471,546.771Z" transform="translate(-470.475 -544.875)" fill="#c4c4c4"/>
            </g>
            <g id="Grupo_907591" data-name="Grupo 907591" transform="translate(5.948)">
              <path id="Trazado_641924" data-name="Trazado 641924" d="M477.056,546.771c0,1.219-.405,1.9-1.23,1.9s-1.23-.68-1.23-1.9.407-1.9,1.23-1.9S477.056,545.556,477.056,546.771Zm-1.933,0c0,1.082.242,1.5.7,1.5s.7-.416.7-1.5-.247-1.495-.7-1.495S475.123,545.694,475.123,546.771Z" transform="translate(-474.596 -544.875)" fill="#c4c4c4"/>
            </g>
          </g>
        </g>
      </g>
      <g id="Grupo_907909" data-name="Grupo 907909" transform="translate(-9098.492 -4236.845)">
        <g id="Grupo_907599" data-name="Grupo 907599" transform="translate(0)">
          <g id="Grupo_907598" data-name="Grupo 907598">
            <g id="Grupo_907595" data-name="Grupo 907595">
              <path id="Trazado_641925" data-name="Trazado 641925" d="M468.749,529.489a.876.876,0,0,0,.115,1.736,1.14,1.14,0,0,1-1.252,1.127,1.382,1.382,0,0,1-1.1-.5l.3-.28a1.031,1.031,0,0,0,.786.363.68.68,0,0,0,.741-.718c0-.506-.286-.659-.731-.659h-.274l.061-.39h.186a.618.618,0,0,0,.666-.649.549.549,0,0,0-.611-.56,1.039,1.039,0,0,0-.758.329l-.263-.3a1.484,1.484,0,0,1,1.049-.433A.97.97,0,0,1,468.749,529.489Z" transform="translate(-466.508 -528.557)" fill="#c4c4c4"/>
            </g>
            <g id="Grupo_907596" data-name="Grupo 907596" transform="translate(2.96)">
              <path id="Trazado_641926" data-name="Trazado 641926" d="M472.949,530.45c0,1.22-.407,1.9-1.23,1.9s-1.231-.681-1.231-1.9.407-1.893,1.231-1.893S472.949,529.238,472.949,530.45Zm-1.934,0c0,1.083.241,1.5.7,1.5s.7-.416.7-1.5-.247-1.492-.7-1.492S471.015,529.374,471.015,530.45Z" transform="translate(-470.488 -528.557)" fill="#c4c4c4"/>
            </g>
            <g id="Grupo_907597" data-name="Grupo 907597" transform="translate(6.024)">
              <path id="Trazado_641927" data-name="Trazado 641927" d="M477.07,530.45c0,1.22-.405,1.9-1.23,1.9s-1.231-.681-1.231-1.9.407-1.893,1.231-1.893S477.07,529.238,477.07,530.45Zm-1.933,0c0,1.083.243,1.5.7,1.5s.7-.416.7-1.5-.247-1.492-.7-1.492S475.136,529.374,475.136,530.45Z" transform="translate(-474.609 -528.557)" fill="#c4c4c4"/>
            </g>
          </g>
        </g>
      </g>
      <g id="Grupo_907910" data-name="Grupo 907910" transform="translate(-9098.445 -4248.982)">
        <g id="Grupo_907605" data-name="Grupo 907605" transform="translate(0 0)">
          <g id="Grupo_907604" data-name="Grupo 907604">
            <g id="Grupo_907601" data-name="Grupo 907601">
              <path id="Trazado_641928" data-name="Trazado 641928" d="M469.107,515.058h-.477v.906h-.488v-.906H466.57V514.7l1.1-2.461.424.176-1,2.245h1.044l.044-.988h.439v.988h.477Z" transform="translate(-466.57 -512.236)" fill="#c4c4c4"/>
            </g>
            <g id="Grupo_907602" data-name="Grupo 907602" transform="translate(3.005)">
              <path id="Trazado_641929" data-name="Trazado 641929" d="M473.072,514.13c0,1.22-.407,1.9-1.23,1.9s-1.231-.681-1.231-1.9.407-1.894,1.231-1.894S473.072,512.917,473.072,514.13Zm-1.934,0c0,1.082.242,1.5.7,1.5s.7-.417.7-1.5-.247-1.493-.7-1.493S471.138,513.054,471.138,514.13Z" transform="translate(-470.611 -512.236)" fill="#c4c4c4"/>
            </g>
            <g id="Grupo_907603" data-name="Grupo 907603" transform="translate(6.07)">
              <path id="Trazado_641930" data-name="Trazado 641930" d="M477.193,514.13c0,1.22-.405,1.9-1.23,1.9s-1.231-.681-1.231-1.9.407-1.894,1.231-1.894S477.193,512.917,477.193,514.13Zm-1.933,0c0,1.082.243,1.5.7,1.5s.7-.417.7-1.5-.247-1.493-.7-1.493S475.259,513.054,475.259,514.13Z" transform="translate(-474.732 -512.236)" fill="#c4c4c4"/>
            </g>
          </g>
        </g>
      </g>
      <g id="Grupo_907911" data-name="Grupo 907911" transform="translate(-9098.438 -4261.118)">
        <g id="Grupo_907611" data-name="Grupo 907611" transform="translate(0 0)">
          <g id="Grupo_907610" data-name="Grupo 907610">
            <g id="Grupo_907607" data-name="Grupo 907607" transform="translate(0 0.055)">
              <path id="Trazado_641931" data-name="Trazado 641931" d="M468.746,496.385h-1.434v1.083a1.267,1.267,0,0,1,.587-.143,1.034,1.034,0,0,1,1.044,1.164,1.2,1.2,0,0,1-1.274,1.242,1.442,1.442,0,0,1-1.088-.467l.308-.3a.989.989,0,0,0,.774.352.734.734,0,0,0,.753-.84c0-.567-.292-.764-.67-.764a1.163,1.163,0,0,0-.523.126h-.395v-1.85h1.988Z" transform="translate(-466.582 -495.99)" fill="#c4c4c4"/>
            </g>
            <g id="Grupo_907608" data-name="Grupo 907608" transform="translate(2.911)">
              <path id="Trazado_641932" data-name="Trazado 641932" d="M472.957,497.812c0,1.218-.405,1.9-1.231,1.9s-1.23-.682-1.23-1.9.407-1.9,1.23-1.9S472.957,496.6,472.957,497.812Zm-1.934,0c0,1.082.242,1.5.7,1.5s.7-.416.7-1.5-.247-1.495-.7-1.495S471.023,496.735,471.023,497.812Z" transform="translate(-470.496 -495.916)" fill="#c4c4c4"/>
            </g>
            <g id="Grupo_907609" data-name="Grupo 907609" transform="translate(5.977)">
              <path id="Trazado_641933" data-name="Trazado 641933" d="M477.08,497.812c0,1.218-.407,1.9-1.231,1.9s-1.23-.682-1.23-1.9.405-1.9,1.23-1.9S477.08,496.6,477.08,497.812Zm-1.933,0c0,1.082.241,1.5.7,1.5s.7-.416.7-1.5-.248-1.495-.7-1.495S475.146,496.735,475.146,497.812Z" transform="translate(-474.619 -495.916)" fill="#c4c4c4"/>
            </g>
          </g>
        </g>
      </g>
      <g id="Grupo_907912" data-name="Grupo 907912" transform="translate(-9098.365 -4273.256)">
        <g id="Grupo_907617" data-name="Grupo 907617" transform="translate(0)">
          <g id="Grupo_907616" data-name="Grupo 907616">
            <g id="Grupo_907613" data-name="Grupo 907613">
              <path id="Trazado_641934" data-name="Trazado 641934" d="M469.083,482.078a1.2,1.2,0,0,1-1.169,1.311c-.895,0-1.236-.735-1.236-1.789,0-1.2.521-2.006,1.39-2.006a1.336,1.336,0,0,1,.758.225l-.2.336a1.067,1.067,0,0,0-.565-.16c-.533,0-.851.555-.879,1.4a1.034,1.034,0,0,1,1.9.687Zm-.509.016c0-.582-.248-.786-.594-.786a.945.945,0,0,0-.79.506c.022.8.236,1.175.725,1.175C468.348,482.988,468.573,482.631,468.573,482.093Z" transform="translate(-466.678 -479.594)" fill="#c4c4c4"/>
            </g>
            <g id="Grupo_907614" data-name="Grupo 907614" transform="translate(2.928)">
              <path id="Trazado_641935" data-name="Trazado 641935" d="M473.076,481.489c0,1.219-.407,1.9-1.23,1.9s-1.231-.681-1.231-1.9.407-1.895,1.231-1.895S473.076,480.275,473.076,481.489Zm-1.934,0c0,1.083.241,1.5.7,1.5s.7-.417.7-1.5-.247-1.494-.7-1.494S471.142,480.413,471.142,481.489Z" transform="translate(-470.615 -479.594)" fill="#c4c4c4"/>
            </g>
            <g id="Grupo_907615" data-name="Grupo 907615" transform="translate(5.992)">
              <path id="Trazado_641936" data-name="Trazado 641936" d="M477.2,481.489c0,1.219-.407,1.9-1.23,1.9s-1.231-.681-1.231-1.9.407-1.895,1.231-1.895S477.2,480.275,477.2,481.489Zm-1.934,0c0,1.083.242,1.5.7,1.5s.7-.417.7-1.5-.247-1.494-.7-1.494S475.263,480.413,475.263,481.489Z" transform="translate(-474.736 -479.594)" fill="#c4c4c4"/>
            </g>
          </g>
        </g>
      </g>
      <g id="Grupo_907913" data-name="Grupo 907913" transform="translate(-9077.725 -4199.439)">
        <g id="Grupo_907621" data-name="Grupo 907621" transform="translate(0 0)">
          <g id="Grupo_907620" data-name="Grupo 907620">
            <g id="Grupo_907619" data-name="Grupo 907619">
              <path id="Trazado_641937" data-name="Trazado 641937" d="M496.461,582.57h-.852V579.7l-.8.489-.378-.576,1.252-.758h.776Z" transform="translate(-494.434 -578.857)" fill="#c4c4c4"/>
            </g>
          </g>
        </g>
      </g>
      <g id="Grupo_907914" data-name="Grupo 907914" transform="translate(-9061.549 -4199.517)">
        <g id="Grupo_907625" data-name="Grupo 907625" transform="translate(0)">
          <g id="Grupo_907624" data-name="Grupo 907624">
            <g id="Grupo_907623" data-name="Grupo 907623">
              <path id="Trazado_641938" data-name="Trazado 641938" d="M518.741,579.814c0,.576-.286,1.009-1.443,2.064h1.521l-.088.666h-2.417v-.616c1.246-1.23,1.539-1.564,1.539-2.026a.447.447,0,0,0-.478-.484.823.823,0,0,0-.671.385l-.516-.407a1.549,1.549,0,0,1,1.274-.642C518.291,578.754,518.741,579.237,518.741,579.814Z" transform="translate(-516.187 -578.754)" fill="#c4c4c4"/>
            </g>
          </g>
        </g>
      </g>
      <g id="Grupo_907915" data-name="Grupo 907915" transform="translate(-9045.994 -4199.517)">
        <g id="Grupo_907629" data-name="Grupo 907629" transform="translate(0)">
          <g id="Grupo_907628" data-name="Grupo 907628">
            <g id="Grupo_907627" data-name="Grupo 907627">
              <path id="Trazado_641939" data-name="Trazado 641939" d="M539.673,579.7a.892.892,0,0,1-.725.885.863.863,0,0,1,.846.912c0,.62-.5,1.142-1.418,1.142a1.578,1.578,0,0,1-1.273-.561l.466-.455a1.009,1.009,0,0,0,.758.356.52.52,0,0,0,.576-.538c0-.39-.213-.533-.6-.533h-.306l.093-.6h.214a.469.469,0,0,0,.533-.484c0-.268-.192-.428-.494-.428a1.008,1.008,0,0,0-.725.324l-.428-.466a1.742,1.742,0,0,1,1.252-.5C539.238,578.754,539.673,579.176,539.673,579.7Z" transform="translate(-537.102 -578.754)" fill="#c4c4c4"/>
            </g>
          </g>
        </g>
      </g>
      <g id="Grupo_907916" data-name="Grupo 907916" transform="translate(-9031.814 -4199.535)">
        <g id="Grupo_907633" data-name="Grupo 907633" transform="translate(0 0)">
          <g id="Grupo_907632" data-name="Grupo 907632">
            <g id="Grupo_907631" data-name="Grupo 907631">
              <path id="Trazado_641940" data-name="Trazado 641940" d="M559.005,581.735h-.416v.8h-.847l0-.8h-1.565v-.576l1.055-2.429.736.277-.9,2.081h.681l.094-.878h.747v.878h.416Z" transform="translate(-556.172 -578.73)" fill="#c4c4c4"/>
            </g>
          </g>
        </g>
      </g>
      <g id="Grupo_907917" data-name="Grupo 907917" transform="translate(-9015.457 -4199.439)">
        <g id="Grupo_907637" data-name="Grupo 907637" transform="translate(0 0)">
          <g id="Grupo_907636" data-name="Grupo 907636">
            <g id="Grupo_907635" data-name="Grupo 907635">
              <path id="Trazado_641941" data-name="Trazado 641941" d="M580.591,579.477h-1.347v.78a1.275,1.275,0,0,1,.55-.12,1.073,1.073,0,0,1,1.065,1.208,1.312,1.312,0,0,1-1.455,1.318,1.556,1.556,0,0,1-1.236-.561l.489-.451a.885.885,0,0,0,.713.358c.375,0,.6-.231.6-.66,0-.46-.215-.62-.523-.62a.876.876,0,0,0-.445.132h-.588v-2h2.275Z" transform="translate(-578.168 -578.857)" fill="#c4c4c4"/>
            </g>
          </g>
        </g>
      </g>
      <g id="Grupo_907918" data-name="Grupo 907918" transform="translate(-9084.597 -4273.342)">
        <path id="Trazado_641942" data-name="Trazado 641942" d="M536.876,479.478H485.193v6.035h51.683c1.027,0,1.859-1.351,1.859-3.018S537.9,479.478,536.876,479.478Z" transform="translate(-485.193 -479.478)" fill="#feca2e"/>
      </g>
      <g id="Grupo_907919" data-name="Grupo 907919" transform="translate(-9084.597 -4256.869)">
        <path id="Trazado_641943" data-name="Trazado 641943" d="M549.89,501.63h-64.7v5.745h64.7c1.027,0,1.859-1.286,1.859-2.873S550.917,501.63,549.89,501.63Z" transform="translate(-485.193 -501.63)" fill="#4dd0e1"/>
      </g>
      <g id="Grupo_907920" data-name="Grupo 907920" transform="translate(-9084.597 -4231.585)">
        <path id="Trazado_641944" data-name="Trazado 641944" d="M549.89,535.63h-64.7v5.745h64.7c1.027,0,1.859-1.286,1.859-2.873S550.917,535.63,549.89,535.63Z" transform="translate(-485.193 -535.63)" fill="#4dd0e1"/>
      </g>
      <g id="Grupo_907921" data-name="Grupo 907921" transform="translate(-9084.969 -4264.966)">
        <path id="Trazado_641945" data-name="Trazado 641945" d="M556.083,490.742h-71.39v5.809h71.39c1.027,0,1.859-1.3,1.859-2.9S557.11,490.742,556.083,490.742Z" transform="translate(-484.693 -490.742)" fill="#0b5999"/>
      </g>
      <g id="Grupo_907934" data-name="Grupo 907934" transform="translate(-9084.597 -4248.93)">
        <path id="Trazado_642130" data-name="Trazado 642130" d="M536.876,512.306H485.193v6.035h51.683c1.027,0,1.859-1.351,1.859-3.018S537.9,512.306,536.876,512.306Z" transform="translate(-485.193 -512.306)" fill="#fd9927"/>
      </g>
      <g id="Grupo_907935" data-name="Grupo 907935" transform="translate(-9084.597 -4223.646)">
        <path id="Trazado_642131" data-name="Trazado 642131" d="M536.876,546.306H485.193v6.035h51.683c1.027,0,1.859-1.351,1.859-3.018S537.9,546.306,536.876,546.306Z" transform="translate(-485.193 -546.306)" fill="#feca2e"/>
      </g>
      <g id="Grupo_907936" data-name="Grupo 907936" transform="translate(-9084.969 -4239.99)">
        <path id="Trazado_642132" data-name="Trazado 642132" d="M556.083,524.328h-71.39v5.809h71.39c1.027,0,1.859-1.3,1.859-2.9S557.11,524.328,556.083,524.328Z" transform="translate(-484.693 -524.328)" fill="#0b5999"/>
      </g>
      <g id="Grupo_907937" data-name="Grupo 907937" transform="translate(-9084.969 -4214.706)">
        <path id="Trazado_642133" data-name="Trazado 642133" d="M556.083,558.328h-71.39v5.809h71.39c1.027,0,1.859-1.3,1.859-2.9S557.11,558.328,556.083,558.328Z" transform="translate(-484.693 -558.328)" fill="#0b5999"/>
      </g>
    </g>
  </g>
</svg>
