<svg xmlns="http://www.w3.org/2000/svg" width="129" height="129" viewBox="0 0 129 129">
  <g id="Grupo_913750" data-name="Grupo 913750" transform="translate(-815 -7317)">
    <g id="Elipse_7683" data-name="Elipse 7683" transform="translate(815 7317)" fill="#f6f6f6" stroke="#fd9927" stroke-width="2">
      <circle cx="64.5" cy="64.5" r="64.5" stroke="none"/>
      <circle cx="64.5" cy="64.5" r="63.5" fill="none"/>
    </g>
    <g id="Grupo_913707" data-name="Grupo 913707" transform="translate(9925.289 11763.251)">
      <g id="Grupo_907904" data-name="Grupo 907904" transform="translate(-9096.492 -4419.469)">
        <g id="Grupo_907459" data-name="Grupo 907459" transform="translate(13.705 0.377)">
          <g id="Grupo_907448" data-name="Grupo 907448" transform="translate(0 61.419)">
            <g id="Grupo_907447" data-name="Grupo 907447">
              <path id="Trazado_641857" data-name="Trazado 641857" d="M569.741,414.529H487.07a.377.377,0,0,1,0-.754h82.671a.377.377,0,0,1,0,.754Z" transform="translate(-486.693 -413.775)" fill="#c4c4c4"/>
            </g>
          </g>
          <g id="Grupo_907450" data-name="Grupo 907450" transform="translate(0 49.136)">
            <g id="Grupo_907449" data-name="Grupo 907449">
              <path id="Trazado_641858" data-name="Trazado 641858" d="M569.741,398.231H487.07a.377.377,0,0,1,0-.754h82.671a.377.377,0,0,1,0,.754Z" transform="translate(-486.693 -397.477)" fill="#c4c4c4"/>
            </g>
          </g>
          <g id="Grupo_907452" data-name="Grupo 907452" transform="translate(0 36.852)">
            <g id="Grupo_907451" data-name="Grupo 907451">
              <path id="Trazado_641859" data-name="Trazado 641859" d="M569.741,381.932H487.07a.377.377,0,0,1,0-.754h82.671a.377.377,0,0,1,0,.754Z" transform="translate(-486.693 -381.178)" fill="#c4c4c4"/>
            </g>
          </g>
          <g id="Grupo_907454" data-name="Grupo 907454" transform="translate(0 24.568)">
            <g id="Grupo_907453" data-name="Grupo 907453">
              <path id="Trazado_641860" data-name="Trazado 641860" d="M569.741,365.633H487.07a.377.377,0,1,1,0-.754h82.671a.377.377,0,1,1,0,.754Z" transform="translate(-486.693 -364.879)" fill="#c4c4c4"/>
            </g>
          </g>
          <g id="Grupo_907456" data-name="Grupo 907456" transform="translate(0 12.284)">
            <g id="Grupo_907455" data-name="Grupo 907455">
              <path id="Trazado_641861" data-name="Trazado 641861" d="M569.741,349.334H487.07a.377.377,0,1,1,0-.754h82.671a.377.377,0,1,1,0,.754Z" transform="translate(-486.693 -348.58)" fill="#c4c4c4"/>
            </g>
          </g>
          <g id="Grupo_907458" data-name="Grupo 907458">
            <g id="Grupo_907457" data-name="Grupo 907457">
              <path id="Trazado_641862" data-name="Trazado 641862" d="M569.741,333.035H487.07a.377.377,0,1,1,0-.754h82.671a.377.377,0,1,1,0,.754Z" transform="translate(-486.693 -332.281)" fill="#c4c4c4"/>
            </g>
          </g>
        </g>
        <g id="Grupo_907460" data-name="Grupo 907460" transform="translate(9.74 0)">
          <path id="Trazado_641863" data-name="Trazado 641863" d="M568.2,406.991h-86.01a.753.753,0,0,1-.754-.754v-73.7a.754.754,0,0,1,1.507,0v72.949H568.2a.754.754,0,0,1,0,1.507Z" transform="translate(-481.432 -331.781)" fill="#c4c4c4"/>
        </g>
        <g id="Grupo_907466" data-name="Grupo 907466" transform="translate(0.815 66.208)">
          <g id="Grupo_907465" data-name="Grupo 907465">
            <g id="Grupo_907464" data-name="Grupo 907464">
              <g id="Grupo_907461" data-name="Grupo 907461" transform="translate(0 0.056)">
                <path id="Trazado_641864" data-name="Trazado 641864" d="M471.193,423.428h-.513v-3.178l-.868.528-.222-.362,1.152-.712h.451Z" transform="translate(-469.59 -419.703)" fill="#c4c4c4"/>
              </g>
              <g id="Grupo_907462" data-name="Grupo 907462" transform="translate(2.522)">
                <path id="Trazado_641865" data-name="Trazado 641865" d="M475.429,421.55c0,1.234-.411,1.925-1.247,1.925s-1.247-.69-1.247-1.925.411-1.921,1.247-1.921S475.429,420.319,475.429,421.55Zm-1.959,0c0,1.1.246,1.519.712,1.519s.712-.422.712-1.519-.25-1.515-.712-1.515S473.47,420.459,473.47,421.55Z" transform="translate(-472.936 -419.629)" fill="#c4c4c4"/>
              </g>
              <g id="Grupo_907463" data-name="Grupo 907463" transform="translate(5.629)">
                <path id="Trazado_641866" data-name="Trazado 641866" d="M479.552,421.55c0,1.234-.412,1.925-1.247,1.925s-1.247-.69-1.247-1.925.411-1.921,1.247-1.921S479.552,420.319,479.552,421.55Zm-1.959,0c0,1.1.244,1.519.712,1.519s.712-.422.712-1.519-.252-1.515-.712-1.515S477.593,420.459,477.593,421.55Z" transform="translate(-477.059 -419.629)" fill="#c4c4c4"/>
              </g>
            </g>
          </g>
        </g>
        <g id="Grupo_907472" data-name="Grupo 907472" transform="translate(0.068 53.907)">
          <g id="Grupo_907471" data-name="Grupo 907471">
            <g id="Grupo_907470" data-name="Grupo 907470">
              <g id="Grupo_907467" data-name="Grupo 907467">
                <path id="Trazado_641867" data-name="Trazado 641867" d="M470.847,404.325c0,.7-.446,1.191-1.586,2.332h1.675l-.062.43h-2.2v-.406c1.313-1.37,1.635-1.727,1.635-2.333a.574.574,0,0,0-.61-.617.916.916,0,0,0-.758.406l-.344-.268a1.377,1.377,0,0,1,1.129-.562A1.024,1.024,0,0,1,470.847,404.325Z" transform="translate(-468.598 -403.307)" fill="#c4c4c4"/>
              </g>
              <g id="Grupo_907468" data-name="Grupo 907468" transform="translate(2.922)">
                <path id="Trazado_641868" data-name="Trazado 641868" d="M474.968,405.227c0,1.235-.411,1.926-1.247,1.926s-1.247-.69-1.247-1.926.411-1.92,1.247-1.92S474.968,404,474.968,405.227Zm-1.959,0c0,1.1.246,1.519.712,1.519s.712-.423.712-1.519-.25-1.514-.712-1.514S473.009,404.137,473.009,405.227Z" transform="translate(-472.475 -403.307)" fill="#c4c4c4"/>
              </g>
              <g id="Grupo_907469" data-name="Grupo 907469" transform="translate(6.029)">
                <path id="Trazado_641869" data-name="Trazado 641869" d="M479.091,405.227c0,1.235-.412,1.926-1.247,1.926s-1.247-.69-1.247-1.926.411-1.92,1.247-1.92S479.091,404,479.091,405.227Zm-1.959,0c0,1.1.244,1.519.712,1.519s.712-.423.712-1.519-.252-1.514-.712-1.514S477.132,404.137,477.132,405.227Z" transform="translate(-476.598 -403.307)" fill="#c4c4c4"/>
              </g>
            </g>
          </g>
        </g>
        <g id="Grupo_907478" data-name="Grupo 907478" transform="translate(0 41.608)">
          <g id="Grupo_907477" data-name="Grupo 907477">
            <g id="Grupo_907476" data-name="Grupo 907476">
              <g id="Grupo_907473" data-name="Grupo 907473">
                <path id="Trazado_641870" data-name="Trazado 641870" d="M470.779,387.933a.888.888,0,0,0,.118,1.759,1.156,1.156,0,0,1-1.271,1.143,1.4,1.4,0,0,1-1.118-.5l.307-.284a1.044,1.044,0,0,0,.8.368.691.691,0,0,0,.752-.729c0-.512-.29-.668-.741-.668h-.278l.06-.4h.19a.626.626,0,0,0,.673-.656.555.555,0,0,0-.617-.568,1.052,1.052,0,0,0-.768.335l-.268-.307a1.511,1.511,0,0,1,1.065-.439A.983.983,0,0,1,470.779,387.933Z" transform="translate(-468.508 -386.988)" fill="#c4c4c4"/>
              </g>
              <g id="Grupo_907474" data-name="Grupo 907474" transform="translate(3.001)">
                <path id="Trazado_641871" data-name="Trazado 641871" d="M474.984,388.908c0,1.237-.412,1.927-1.247,1.927s-1.247-.69-1.247-1.927.412-1.92,1.247-1.92S474.984,387.678,474.984,388.908Zm-1.96,0c0,1.1.244,1.519.713,1.519s.712-.423.712-1.519-.25-1.513-.712-1.513S473.024,387.817,473.024,388.908Z" transform="translate(-472.49 -386.988)" fill="#c4c4c4"/>
              </g>
              <g id="Grupo_907475" data-name="Grupo 907475" transform="translate(6.107)">
                <path id="Trazado_641872" data-name="Trazado 641872" d="M479.1,388.908c0,1.237-.412,1.927-1.247,1.927s-1.247-.69-1.247-1.927.412-1.92,1.247-1.92S479.1,387.678,479.1,388.908Zm-1.959,0c0,1.1.245,1.519.713,1.519s.712-.423.712-1.519-.25-1.513-.712-1.513S477.145,387.817,477.145,388.908Z" transform="translate(-476.611 -386.988)" fill="#c4c4c4"/>
              </g>
            </g>
          </g>
        </g>
        <g id="Grupo_907484" data-name="Grupo 907484" transform="translate(0.047 29.308)">
          <g id="Grupo_907483" data-name="Grupo 907483">
            <g id="Grupo_907482" data-name="Grupo 907482">
              <g id="Grupo_907479" data-name="Grupo 907479">
                <path id="Trazado_641873" data-name="Trazado 641873" d="M471.142,373.528h-.484v.919h-.494v-.919H468.57v-.366l1.119-2.494.43.178-1.008,2.276h1.058l.044-1h.445v1h.484Z" transform="translate(-468.57 -370.668)" fill="#c4c4c4"/>
              </g>
              <g id="Grupo_907480" data-name="Grupo 907480" transform="translate(3.046)">
                <path id="Trazado_641874" data-name="Trazado 641874" d="M475.1,372.588c0,1.236-.411,1.926-1.247,1.926s-1.247-.69-1.247-1.926.412-1.92,1.247-1.92S475.1,371.358,475.1,372.588Zm-1.96,0c0,1.1.246,1.519.713,1.519s.712-.422.712-1.519-.25-1.513-.712-1.513S473.145,371.5,473.145,372.588Z" transform="translate(-472.611 -370.668)" fill="#c4c4c4"/>
              </g>
              <g id="Grupo_907481" data-name="Grupo 907481" transform="translate(6.153)">
                <path id="Trazado_641875" data-name="Trazado 641875" d="M479.228,372.588c0,1.236-.412,1.926-1.247,1.926s-1.247-.69-1.247-1.926.411-1.92,1.247-1.92S479.228,371.358,479.228,372.588Zm-1.96,0c0,1.1.245,1.519.713,1.519s.712-.422.712-1.519-.252-1.513-.712-1.513S477.268,371.5,477.268,372.588Z" transform="translate(-476.734 -370.668)" fill="#c4c4c4"/>
              </g>
            </g>
          </g>
        </g>
        <g id="Grupo_907490" data-name="Grupo 907490" transform="translate(0.056 17.008)">
          <g id="Grupo_907489" data-name="Grupo 907489">
            <g id="Grupo_907488" data-name="Grupo 907488">
              <g id="Grupo_907485" data-name="Grupo 907485" transform="translate(0 0.056)">
                <path id="Trazado_641876" data-name="Trazado 641876" d="M470.775,354.822h-1.453v1.1a1.294,1.294,0,0,1,.6-.144,1.048,1.048,0,0,1,1.057,1.179,1.213,1.213,0,0,1-1.291,1.259,1.46,1.46,0,0,1-1.1-.473l.312-.3a1,1,0,0,0,.785.356c.468,0,.763-.306.763-.851,0-.574-.295-.774-.679-.774a1.177,1.177,0,0,0-.528.128h-.4v-1.875h2.014Z" transform="translate(-468.582 -354.422)" fill="#c4c4c4"/>
              </g>
              <g id="Grupo_907486" data-name="Grupo 907486" transform="translate(2.951)">
                <path id="Trazado_641877" data-name="Trazado 641877" d="M474.992,356.268c0,1.235-.412,1.926-1.247,1.926s-1.247-.69-1.247-1.926.412-1.92,1.247-1.92S474.992,355.038,474.992,356.268Zm-1.96,0c0,1.1.244,1.519.712,1.519s.713-.422.713-1.519-.25-1.514-.713-1.514S473.032,355.178,473.032,356.268Z" transform="translate(-472.498 -354.348)" fill="#c4c4c4"/>
              </g>
              <g id="Grupo_907487" data-name="Grupo 907487" transform="translate(6.057)">
                <path id="Trazado_641878" data-name="Trazado 641878" d="M479.113,356.268c0,1.235-.412,1.926-1.247,1.926s-1.247-.69-1.247-1.926.412-1.92,1.247-1.92S479.113,355.038,479.113,356.268Zm-1.96,0c0,1.1.244,1.519.712,1.519s.713-.422.713-1.519-.25-1.514-.713-1.514S477.153,355.178,477.153,356.268Z" transform="translate(-476.619 -354.348)" fill="#c4c4c4"/>
              </g>
            </g>
          </g>
        </g>
        <g id="Grupo_907496" data-name="Grupo 907496" transform="translate(0.128 4.706)">
          <g id="Grupo_907495" data-name="Grupo 907495">
            <g id="Grupo_907494" data-name="Grupo 907494">
              <g id="Grupo_907491" data-name="Grupo 907491">
                <path id="Trazado_641879" data-name="Trazado 641879" d="M471.117,340.542a1.216,1.216,0,0,1-1.186,1.329c-.907,0-1.253-.745-1.253-1.813,0-1.221.53-2.033,1.409-2.033a1.354,1.354,0,0,1,.768.228l-.2.34a1.1,1.1,0,0,0-.574-.162c-.539,0-.862.562-.891,1.415a1.049,1.049,0,0,1,1.927.7Zm-.518.017c0-.591-.25-.8-.6-.8a.96.96,0,0,0-.8.513c.023.812.24,1.191.735,1.191C470.371,341.465,470.6,341.1,470.6,340.559Z" transform="translate(-468.678 -338.025)" fill="#c4c4c4"/>
              </g>
              <g id="Grupo_907492" data-name="Grupo 907492" transform="translate(2.967)">
                <path id="Trazado_641880" data-name="Trazado 641880" d="M475.109,339.946c0,1.235-.411,1.926-1.247,1.926s-1.247-.69-1.247-1.926.412-1.921,1.247-1.921S475.109,338.715,475.109,339.946Zm-1.96,0c0,1.1.246,1.519.713,1.519s.712-.423.712-1.519-.25-1.515-.712-1.515S473.149,338.856,473.149,339.946Z" transform="translate(-472.615 -338.025)" fill="#c4c4c4"/>
              </g>
              <g id="Grupo_907493" data-name="Grupo 907493" transform="translate(6.075)">
                <path id="Trazado_641881" data-name="Trazado 641881" d="M479.232,339.946c0,1.235-.412,1.926-1.247,1.926s-1.247-.69-1.247-1.926.411-1.921,1.247-1.921S479.232,338.715,479.232,339.946Zm-1.96,0c0,1.1.244,1.519.713,1.519s.712-.423.712-1.519-.252-1.515-.712-1.515S477.272,338.856,477.272,339.946Z" transform="translate(-476.738 -338.025)" fill="#c4c4c4"/>
              </g>
            </g>
          </g>
        </g>
        <g id="Grupo_907500" data-name="Grupo 907500" transform="translate(21.048 79.518)">
          <g id="Grupo_907499" data-name="Grupo 907499">
            <g id="Grupo_907498" data-name="Grupo 907498">
              <g id="Grupo_907497" data-name="Grupo 907497">
                <path id="Trazado_641882" data-name="Trazado 641882" d="M498.489,441.051h-.862v-2.905l-.807.5-.384-.584,1.268-.769h.785Z" transform="translate(-496.436 -437.289)" fill="#c4c4c4"/>
              </g>
            </g>
          </g>
        </g>
        <g id="Grupo_907504" data-name="Grupo 907504" transform="translate(37.441 79.439)">
          <g id="Grupo_907503" data-name="Grupo 907503">
            <g id="Grupo_907502" data-name="Grupo 907502">
              <g id="Grupo_907501" data-name="Grupo 907501">
                <path id="Trazado_641883" data-name="Trazado 641883" d="M520.775,438.26c0,.585-.289,1.023-1.463,2.092h1.541l-.089.674h-2.449V440.4c1.263-1.247,1.559-1.585,1.559-2.054a.452.452,0,0,0-.485-.49.837.837,0,0,0-.68.39l-.523-.412a1.569,1.569,0,0,1,1.291-.651C520.319,437.185,520.775,437.676,520.775,438.26Z" transform="translate(-518.187 -437.185)" fill="#c4c4c4"/>
              </g>
            </g>
          </g>
        </g>
        <g id="Grupo_907508" data-name="Grupo 907508" transform="translate(53.206 79.439)">
          <g id="Grupo_907507" data-name="Grupo 907507">
            <g id="Grupo_907506" data-name="Grupo 907506">
              <g id="Grupo_907505" data-name="Grupo 907505">
                <path id="Trazado_641884" data-name="Trazado 641884" d="M541.708,438.142a.9.9,0,0,1-.735.9.873.873,0,0,1,.857.924c0,.629-.506,1.157-1.436,1.157a1.594,1.594,0,0,1-1.29-.568l.472-.461a1.02,1.02,0,0,0,.769.361.528.528,0,0,0,.584-.545c0-.4-.218-.54-.612-.54H540l.094-.607h.218a.474.474,0,0,0,.54-.49c0-.272-.2-.434-.5-.434a1.02,1.02,0,0,0-.735.328l-.434-.473a1.769,1.769,0,0,1,1.268-.506C541.268,437.185,541.708,437.614,541.708,438.142Z" transform="translate(-539.104 -437.185)" fill="#c4c4c4"/>
              </g>
            </g>
          </g>
        </g>
        <g id="Grupo_907512" data-name="Grupo 907512" transform="translate(67.578 79.422)">
          <g id="Grupo_907511" data-name="Grupo 907511">
            <g id="Grupo_907510" data-name="Grupo 907510">
              <g id="Grupo_907509" data-name="Grupo 907509">
                <path id="Trazado_641885" data-name="Trazado 641885" d="M561.045,440.208h-.424v.812h-.857l-.006-.812h-1.585v-.584l1.069-2.461.745.28-.907,2.11h.69l.094-.891h.757v.891h.424Z" transform="translate(-558.174 -437.162)" fill="#c4c4c4"/>
              </g>
            </g>
          </g>
        </g>
        <g id="Grupo_907516" data-name="Grupo 907516" transform="translate(84.154 79.518)">
          <g id="Grupo_907515" data-name="Grupo 907515">
            <g id="Grupo_907514" data-name="Grupo 907514">
              <g id="Grupo_907513" data-name="Grupo 907513">
                <path id="Trazado_641886" data-name="Trazado 641886" d="M582.623,437.918h-1.365v.791a1.292,1.292,0,0,1,.558-.122,1.087,1.087,0,0,1,1.079,1.225,1.329,1.329,0,0,1-1.475,1.335,1.574,1.574,0,0,1-1.253-.568l.5-.456a.9.9,0,0,0,.723.362c.38,0,.608-.234.608-.668,0-.467-.218-.629-.53-.629a.887.887,0,0,0-.451.133h-.6v-2.031h2.306Z" transform="translate(-580.168 -437.289)" fill="#c4c4c4"/>
              </g>
            </g>
          </g>
        </g>
        <g id="Grupo_907517" data-name="Grupo 907517" transform="translate(13.597 6.88)">
          <path id="Trazado_641887" data-name="Trazado 641887" d="M565.329,400.144l-7.266-31.677-15.048,12.28-9.35-36.625-21.683,25.717-11.015-5.888L487.52,375.3l-.971-1.151,14.227-12.012,10.841,5.794L534.4,340.91l9.49,37.175,15.1-12.32,7.807,34.042Z" transform="translate(-486.549 -340.91)" fill="#0b5999"/>
        </g>
        <g id="Grupo_907518" data-name="Grupo 907518" transform="translate(16.036 24.12)">
          <path id="Trazado_641888" data-name="Trazado 641888" d="M554.416,399.087l-7.226-32.428L512.6,398.371l-13.494-12.235-8.164,9.782-1.157-.966,9.171-10.988,13.638,12.365,35.5-32.546,7.094,31.831,11.077-14.381,1.192.92Z" transform="translate(-489.785 -363.785)" fill="#fd2727"/>
        </g>
        <g id="Grupo_907519" data-name="Grupo 907519" transform="translate(18.7 3.255)">
          <path id="Trazado_641889" data-name="Trazado 641889" d="M566.985,365.688l-3.235-23.136-33.644,19.766-20.839-8.045L493.32,337.127l1.1-1.026,15.709,16.892,19.837,7.658,34.96-20.54,3.547,25.369Z" transform="translate(-493.32 -336.1)" fill="#4dd0e1"/>
        </g>
      </g>
    </g>
  </g>
</svg>
