<svg xmlns="http://www.w3.org/2000/svg" width="129" height="129" viewBox="0 0 129 129">
  <g id="Grupo_913749" data-name="Grupo 913749" transform="translate(-276 -7317)">
    <g id="Elipse_7683" data-name="Elipse 7683" transform="translate(276 7317)" fill="#f6f6f6" stroke="#fd9927" stroke-width="2">
      <circle cx="64.5" cy="64.5" r="64.5" stroke="none"/>
      <circle cx="64.5" cy="64.5" r="63.5" fill="none"/>
    </g>
    <g id="Grupo_913708" data-name="Grupo 913708" transform="translate(9367.639 11894.037)">
      <g id="Grupo_907944" data-name="Grupo 907944" transform="translate(-9565 -4751.25)">
        <path id="Trazado_641971" data-name="Trazado 641971" d="M490.855,226.156a48.7,48.7,0,0,0-1.818,13.178c0,27.154,22.234,49.166,49.662,49.166.067,0,.133-.006.2-.006V239.219Z" fill="#feca2e"/>
      </g>
      <g id="Grupo_907945" data-name="Grupo 907945" transform="translate(-9565 -4751.25)">
        <path id="Trazado_641972" data-name="Trazado 641972" d="M587.678,239.334c0-26.8-21.741-48.584-48.78-49.164V288.5C565.937,287.92,587.678,266.139,587.678,239.334Z" fill="#afafaf"/>
      </g>
      <g id="Grupo_907960" data-name="Grupo 907960" transform="translate(-9565 -4751.25)">
        <path id="Trazado_641973" data-name="Trazado 641973" d="M490.867,226.072,538.9,239.336V190.142h0A49.791,49.791,0,0,0,490.867,226.072Z" fill="#4dd0e1"/>
      </g>
      <g id="Grupo_907955" data-name="Grupo 907955" transform="translate(-9056.588 -4500.674)">
        <path id="Trazado_642076" data-name="Trazado 642076" d="M516.528,259.3h-.905v1.718H514.7V259.3h-2.977v-.688l2.091-4.665.8.333-1.884,4.26h1.979l.082-1.875h.833v1.875h.905Z" transform="translate(-511.719 -253.613)" fill="#636363"/>
        <path id="Trazado_642077" data-name="Trazado 642077" d="M520.759,257.539c0,2.312-.771,3.6-2.332,3.6s-2.333-1.291-2.333-3.6.771-3.593,2.333-3.593S520.759,255.238,520.759,257.539Zm-3.666,0c0,2.051.458,2.843,1.334,2.843s1.332-.792,1.332-2.843-.468-2.833-1.332-2.833S517.093,255.5,517.093,257.539Z" transform="translate(-510.396 -253.613)" fill="#636363"/>
        <path id="Trazado_642078" data-name="Trazado 642078" d="M523.861,255.784a1.692,1.692,0,1,1-1.7-1.761A1.64,1.64,0,0,1,523.861,255.784Zm-2.541,0c0,.54.178,1.113.844,1.113s.844-.552.844-1.113c0-.542-.167-1.115-.844-1.115S521.32,255.222,521.32,255.784Zm5.738-1.657-4.821,7.289-.667-.436,4.822-7.29Zm1.083,5.332a1.694,1.694,0,1,1-1.688-1.759A1.633,1.633,0,0,1,528.142,259.459Zm-2.53,0c0,.542.177,1.113.843,1.113s.844-.551.844-1.113c0-.542-.167-1.1-.844-1.1S525.611,258.9,525.611,259.459Z" transform="translate(-509.071 -253.69)" fill="#636363"/>
      </g>
      <g id="Grupo_907975" data-name="Grupo 907975" transform="translate(-9011.248 -4515.777)">
        <path id="Trazado_642079" data-name="Trazado 642079" d="M560.5,244.212h-.905v1.718h-.926v-1.718h-2.98v-.688l2.094-4.665.8.333-1.884,4.259h1.978l.085-1.874h.832v1.874h.905Z" transform="translate(-555.687 -238.526)" fill="#636363"/>
        <path id="Trazado_642080" data-name="Trazado 642080" d="M564.729,242.452c0,2.31-.771,3.6-2.334,3.6s-2.332-1.292-2.332-3.6.77-3.593,2.332-3.593S564.729,240.15,564.729,242.452Zm-3.666,0c0,2.051.458,2.842,1.332,2.842s1.334-.791,1.334-2.842-.469-2.833-1.334-2.833S561.063,240.41,561.063,242.452Z" transform="translate(-554.364 -238.526)" fill="#636363"/>
        <path id="Trazado_642081" data-name="Trazado 642081" d="M567.832,240.7a1.694,1.694,0,1,1-1.7-1.759A1.64,1.64,0,0,1,567.832,240.7Zm-2.541,0c0,.542.176,1.115.843,1.115s.845-.552.845-1.115c0-.542-.168-1.113-.845-1.113S565.291,240.133,565.291,240.7Zm5.737-1.655-4.82,7.289-.667-.438,4.82-7.289Zm1.083,5.332a1.694,1.694,0,1,1-1.686-1.759A1.633,1.633,0,0,1,572.111,244.372Zm-2.53,0c0,.542.177,1.113.844,1.113s.843-.552.843-1.113c0-.542-.165-1.1-.843-1.1S569.581,243.81,569.581,244.372Z" transform="translate(-553.039 -238.603)" fill="#636363"/>
      </g>
      <g id="Grupo_907976" data-name="Grupo 907976" transform="translate(-9052.489 -4539.539)">
        <path id="Trazado_642082" data-name="Trazado 642082" d="M519.074,216.794c0,1.3-.833,2.228-2.968,4.363h3.135l-.115.8h-4.113V221.2c2.456-2.562,3.06-3.228,3.06-4.363a1.075,1.075,0,0,0-1.146-1.156,1.714,1.714,0,0,0-1.416.761l-.646-.5a2.581,2.581,0,0,1,2.115-1.051A1.914,1.914,0,0,1,519.074,216.794Z" transform="translate(-514.866 -214.556)" fill="#636363"/>
        <path id="Trazado_642083" data-name="Trazado 642083" d="M523.731,218.481c0,2.312-.77,3.6-2.332,3.6s-2.332-1.291-2.332-3.6.771-3.592,2.332-3.592S523.731,216.18,523.731,218.481Zm-3.665,0c0,2.052.458,2.843,1.332,2.843s1.333-.79,1.333-2.843-.469-2.831-1.333-2.831S520.066,216.44,520.066,218.481Z" transform="translate(-513.596 -214.556)" fill="#636363"/>
        <path id="Trazado_642084" data-name="Trazado 642084" d="M526.835,216.726a1.694,1.694,0,1,1-1.7-1.759A1.64,1.64,0,0,1,526.835,216.726Zm-2.541,0c0,.542.177,1.115.844,1.115s.843-.552.843-1.115c0-.542-.165-1.113-.843-1.113S524.294,216.163,524.294,216.726Zm5.738-1.655-4.822,7.289-.667-.438,4.823-7.289Zm1.082,5.332a1.694,1.694,0,1,1-1.688-1.761A1.632,1.632,0,0,1,531.114,220.4Zm-2.529,0c0,.542.174,1.113.841,1.113s.844-.552.844-1.113c0-.542-.167-1.1-.844-1.1S528.585,219.84,528.585,220.4Z" transform="translate(-512.271 -214.633)" fill="#636363"/>
      </g>
    </g>
  </g>
</svg>
