<svg xmlns="http://www.w3.org/2000/svg" width="54.701" height="62.516" viewBox="0 0 54.701 62.516">
  <path id="Icon_awesome-book" data-name="Icon awesome-book" d="M54.7,43.956V2.93A2.923,2.923,0,0,0,51.771,0H11.722A11.725,11.725,0,0,0,0,11.722V50.794A11.725,11.725,0,0,0,11.722,62.516H51.771a2.923,2.923,0,0,0,2.93-2.93V57.632a2.953,2.953,0,0,0-1.087-2.283,27.229,27.229,0,0,1,0-9.121A2.91,2.91,0,0,0,54.7,43.956ZM15.629,16.362a.735.735,0,0,1,.733-.733H42.247a.735.735,0,0,1,.733.733V18.8a.735.735,0,0,1-.733.733H16.362a.735.735,0,0,1-.733-.733Zm0,7.814a.735.735,0,0,1,.733-.733H42.247a.735.735,0,0,1,.733.733v2.442a.735.735,0,0,1-.733.733H16.362a.735.735,0,0,1-.733-.733ZM46.569,54.7H11.722a3.907,3.907,0,0,1,0-7.814H46.569A43.958,43.958,0,0,0,46.569,54.7Z" fill="#fff"/>
</svg>
